<?xml version="1.0" standalone="yes"?>
<svg xmlns="http://www.w3.org/2000/svg" width="630" height="210">
<path style="fill:#ffffff; stroke:none;" d="M0 0L0 210L630 210L630 0L0 0z"/>
<path style="fill:#010101; stroke:none;" d="M29 63L29 72L87 72L87 147L90 147L90 87L196 87L196 146L141 146L141 147L540 147L540 63L288 63L288 145L197 146L197 88L257 88L257 63L29 63z"/>
<path style="fill:#ff59cf; stroke:none;" d="M257 63L257 88L197 88L197 146L288 145L288 63L257 63M540 63L540 147L600 147L600 63L540 63M29 72L29 147L87 147L87 72L29 72M292 74L292 145L358 145L358 74L292 74M90 87L90 147L196 146L196 87L90 87M360 87L360 146L415 146L415 87L360 87M416 88L416 146L538 145L538 87L416 88z"/>
</svg>
