<svg width="561" height="561" viewBox="0 0 561 561" fill="none" xmlns="http://www.w3.org/2000/svg">
<path d="M170.264 457.807C169.77 459.443 170.097 461.064 170.399 462.68C170.627 463.921 170.887 465.157 171.152 466.394C171.183 466.539 171.313 466.658 171.427 466.84C172.959 464.155 172.539 458.482 170.669 456.773C170.523 457.137 170.367 457.464 170.264 457.807Z" fill="#E73D66"/>
<path d="M198.553 207.502C199.467 206.484 200.329 205.352 200.926 204.126C202.308 201.29 201.622 198.095 199.228 196.038C198.293 195.233 197.181 194.589 196.07 194.049C193.701 192.896 193.483 192.626 193.602 189.961C193.618 189.566 193.654 189.171 193.68 188.777C194.028 182.325 194.444 175.879 194.714 169.427C195.036 161.719 195.213 154.005 195.503 146.296C195.587 144.12 194.984 142.317 193.4 140.775C190.205 137.663 187.509 134.027 183.691 131.549C183.094 131.16 182.335 130.422 183.125 129.201C187.873 132.464 192.075 136.411 197.29 139.216C197.55 138.484 197.81 138.022 197.877 137.528C198.194 135.248 198.454 132.957 198.745 130.671C199.363 125.794 200.381 121.046 203.113 116.719C204.292 114.854 205.103 112.683 204.864 110.491C204.775 109.681 205.586 108.611 204.246 108.065C203.924 108.346 203.555 108.605 203.254 108.927C202.132 110.133 201.067 111.395 199.913 112.574C198.677 113.836 198.038 113.909 196.641 112.938C194.319 111.322 192.002 109.696 189.748 107.992C187.379 106.206 185.089 104.32 182.756 102.481C181.25 101.292 179.577 100.414 177.624 99.6398C177.297 100.201 176.928 100.663 176.731 101.188C174.767 106.476 173.385 111.873 173.796 117.587C173.811 117.784 173.848 117.987 173.822 118.179C173.702 119.197 173.001 119.519 172.18 118.875C171.302 118.184 170.492 117.4 169.656 116.652C169.043 116.106 168.43 115.556 167.5 114.724C163.085 133.798 160.186 152.66 157.433 172.076C156.794 171.214 156.249 170.778 156.104 170.227C155.48 167.947 154.732 165.656 154.472 163.324C153.792 157.189 153.48 151.013 152.971 144.863C152.722 141.855 152.514 138.837 152.384 135.819C152.358 135.165 152.114 134.526 151.964 133.882C151.61 134.178 151.517 134.469 151.501 134.77C151.335 137.861 151.2 140.956 151.018 144.047C150.966 144.92 151.086 145.886 150.187 146.634C148.229 144.993 149.008 142.536 148.146 140.385C147.481 140.697 146.863 140.889 146.359 141.242C141.097 144.993 135.84 148.753 130.625 152.561C130.157 152.904 129.664 153.6 129.669 154.13C129.705 157.677 129.29 161.23 129.944 164.778C130.277 166.575 130.209 168.456 130.266 170.295C130.277 170.612 130.017 170.934 129.726 171.619C129.15 170.663 128.609 170.061 128.391 169.354C127.42 166.217 126.651 163.017 125.602 159.906C124.423 156.41 123.659 152.748 121.612 149.522C121.477 150.634 121.394 151.745 121.498 152.836C121.633 154.275 122.049 155.693 122.116 157.127C122.288 160.945 122.506 164.773 122.376 168.586C122.283 171.328 121.737 174.061 121.244 176.772C120.901 178.642 120.257 180.455 119.826 182.315C119.14 185.281 118.932 188.299 118.953 191.343C118.968 193.135 118.246 193.701 116.48 193.472C116.028 193.415 115.597 193.223 115.145 193.124C114.569 193 113.982 192.792 113.405 192.813C110.527 192.901 107.603 192.335 104.788 193.431C104.377 193.592 103.868 193.472 103.416 193.54C102.58 193.664 101.749 193.831 100.918 193.987C100.341 194.096 99.749 194.371 99.1984 194.309C97.2297 194.08 96.0038 194.916 95.4272 196.895C95.4688 197.046 95.5104 197.217 95.5519 197.368C95.8999 197.701 96.4402 197.986 96.5389 198.386C96.9648 200.043 97.8946 201.368 99.0685 202.542C99.8997 203.373 100.845 204.09 101.65 204.942C104.793 208.266 108.782 210.484 112.595 212.858C114.345 213.949 116.195 214.853 118.07 215.699C119.898 216.525 121.031 217.611 121.181 219.58C121.275 220.826 121.436 222.068 121.581 223.309C122.127 227.88 122.677 232.451 123.223 237.028C123.254 237.287 123.218 237.552 123.275 237.807C123.628 239.292 123.69 240.83 123.753 242.357C123.986 247.926 124.771 253.504 124.771 259.078C124.776 265.337 124.267 271.592 124.204 277.851C124.137 284.905 124.256 291.959 124.417 299.008C124.604 307.116 125.004 315.22 125.165 323.328C125.384 334.273 125.43 345.223 125.623 356.167C125.742 362.754 126.002 369.335 126.204 375.917C126.215 376.182 126.267 376.441 126.272 376.706C126.428 383.418 126.682 390.129 126.713 396.84C126.745 403.234 126.573 409.629 126.412 416.023C126.376 417.462 126.843 418.553 127.789 419.566C129.586 421.482 131.248 423.534 133.123 425.363C135.045 427.233 136.053 429.362 135.902 432.053C135.871 432.635 136.011 433.232 136.084 433.819C136.256 435.248 136.256 435.222 134.739 435.404C134.401 435.445 133.923 435.642 133.809 435.902C133.695 436.167 133.918 436.603 134.053 436.941C134.121 437.107 134.318 437.237 134.484 437.341C136.146 438.349 136.578 439.99 136.676 441.751C136.775 443.595 136.759 445.444 136.817 447.288C136.972 452.228 137.211 457.173 137.289 462.113C137.383 468.129 137.248 474.149 137.274 480.164C137.274 480.315 137.253 480.554 137.232 480.704C137.071 481.977 137.44 482.86 138.598 483.192C140.551 483.753 142.489 484.439 144.51 484.611C145.206 484.668 145.865 484.127 145.959 483.431C146.281 481 146.78 478.575 146.925 476.133C147.268 470.482 147.657 464.825 147.72 459.163C147.855 446.634 147.907 434.105 147.798 421.576C147.704 410.839 147.922 400.092 147.346 389.355C147.065 384.155 147.164 378.94 146.992 373.73C146.847 369.393 146.546 365.055 146.333 360.723C146.239 358.749 146.156 356.77 146.146 354.791C146.141 353.617 145.917 352.718 144.551 352.5C143.465 352.329 142.401 352.002 141.31 351.851C139.637 351.622 139.383 351.134 139.689 349.098C139.741 348.739 139.767 348.381 139.777 348.017C139.892 342.293 139.99 336.564 140.094 330.839C140.26 321.676 140.432 312.508 140.593 303.345C140.858 288.312 141.118 273.28 141.388 258.247C141.445 255.084 141.533 251.92 141.621 248.757C141.824 241.188 142.037 233.62 142.234 226.047C142.276 224.462 142.234 222.878 142.286 221.299C142.307 220.618 142.182 219.813 143.232 219.434C143.642 219.954 144.063 220.483 144.473 221.003C144.785 219.793 143.855 218.411 145.206 217.055C145.543 217.886 145.928 218.499 146.032 219.159C146.317 220.909 146.572 222.675 146.676 224.442C146.769 225.958 146.873 227.428 147.32 228.909C147.922 230.903 148.182 233.002 148.629 235.043C149.024 236.835 149.413 238.633 149.725 240.44C150.436 244.627 151.735 248.726 151.756 253.027C151.756 253.328 151.782 253.816 151.823 254.112C152.348 258.179 152.966 262.231 153.361 266.309C153.423 266.974 153.74 267.592 154.275 267.987C155.298 268.745 156.062 269.612 156.358 270.895C156.457 271.316 156.955 271.82 157.376 271.95C158.779 272.391 161.08 270.999 161.319 269.566C161.849 266.33 162.378 263.088 162.758 259.837C163.121 256.704 163.22 253.541 163.578 250.409C163.843 248.061 164.29 245.734 164.742 243.412C165.516 239.407 166.648 235.459 166.768 231.34C166.778 230.909 166.825 230.483 166.924 230.062C167.739 226.525 168.575 222.998 169.438 219.47C169.516 219.143 169.775 218.863 170.108 218.297C170.29 218.904 170.44 219.195 170.456 219.491C170.57 221.725 170.71 223.958 170.747 226.197C170.783 228.566 170.695 230.94 170.7 233.308C170.7 233.672 170.897 234.041 171.001 234.405C171.136 234.384 171.266 234.363 171.401 234.342C171.552 231.272 171.905 228.223 171.656 225.127C171.536 223.626 171.588 222.104 171.63 220.592C171.64 220.193 171.921 219.803 172.076 219.408C173.297 219.574 173.583 220.255 173.624 221.226C173.682 222.54 173.661 223.896 173.993 225.153C174.461 226.925 174.3 228.67 174.274 230.441C174.17 237.272 172.549 243.988 173.048 250.871C173.209 253.058 173.069 255.25 172.845 257.431C172.752 258.325 172.897 259.307 172.663 260.185C172.248 261.758 172.201 263.291 172.611 264.87C172.752 265.421 172.684 266.044 172.643 266.626C172.56 267.805 172.315 268.984 172.331 270.158C172.554 289.736 172.066 309.319 172.71 328.891C172.84 332.844 172.767 336.808 172.814 340.761C172.913 349.004 173.022 357.248 173.141 365.486C173.152 366.229 173.276 366.972 173.375 367.943C174.367 367.398 174.533 367.434 175.027 366.738C177.016 363.923 179.769 361.715 182.943 360.37C186.896 358.697 187.873 357.217 187.566 354.24C187.416 352.776 187.379 351.3 187.379 349.83C187.374 342.813 187.675 335.8 187.971 328.793C188.413 318.326 188.122 307.844 188.849 297.382C189.286 291.071 189.395 284.739 189.701 278.422C190.158 268.942 190.823 259.468 191.104 249.983C191.415 239.438 191.452 228.883 191.478 218.333C191.483 215.684 192.335 213.606 194.21 211.824C195.696 210.427 197.186 209.019 198.553 207.502ZM129.539 350.713C129.596 341.379 129.664 332.039 129.737 322.705C129.742 322.326 129.814 321.941 129.892 321.261C130.931 322.014 130.843 322.835 130.853 323.593C130.874 325.37 130.796 327.146 130.859 328.917C131.108 336.008 131.399 343.103 131.653 350.194C131.679 350.843 131.69 351.529 131.503 352.137C131.399 352.479 130.879 352.895 130.536 352.905C130.251 352.916 129.835 352.427 129.685 352.069C129.508 351.669 129.534 351.17 129.539 350.713ZM131.477 371.242C131.446 371.668 131.212 372.078 131.066 372.499C130.916 372.478 130.765 372.457 130.62 372.436C130.173 367.138 128.885 361.876 129.965 356.157C130.339 356.651 130.646 356.884 130.708 357.17C130.843 357.809 130.843 358.474 130.916 359.123C131.175 361.528 131.529 363.933 131.669 366.343C131.762 367.964 131.591 369.611 131.477 371.242ZM145.668 158.197C144.79 158.083 144.707 157.21 144.697 156.488C144.686 155.911 144.733 155.236 145.507 155.116C146.172 155.013 146.696 155.828 146.676 156.966C146.644 157.527 146.541 158.311 145.668 158.197ZM146.374 153.2C145.299 153.215 145.013 152.628 145.034 152.067C145.05 151.657 145.413 151.008 145.756 150.909C146.556 150.675 146.707 151.408 146.702 151.989C146.696 152.421 146.473 152.847 146.374 153.2ZM147.735 170.004C146.634 168.695 146.634 168.487 147.699 167.183C148.795 168.513 148.8 168.71 147.735 170.004ZM171.235 187.14C171.199 187.909 171.23 188.678 171.23 189.732C170.674 189.415 170.264 189.322 170.206 189.125C170.066 188.631 170.045 188.086 170.04 187.566C170.025 183.364 170.056 179.162 170.009 174.964C169.993 173.723 169.781 172.482 169.671 171.24C169.516 169.484 169.214 167.723 169.256 165.968C169.344 162.482 169.604 159.007 169.843 155.527C169.9 154.685 170.118 153.844 170.357 153.034C170.425 152.805 170.845 152.535 171.095 152.545C171.339 152.556 171.661 152.852 171.786 153.106C171.957 153.449 172.009 153.859 172.061 154.249C172.669 158.805 173.359 163.324 172.876 167.983C172.518 171.427 172.466 174.871 171.749 178.315C171.157 181.161 171.365 184.19 171.235 187.14ZM172.487 215.595C171.292 214.598 171.266 214.125 172.43 212.728C173.256 213.793 173.37 214.686 172.487 215.595ZM184.559 144.109C184.418 144.442 183.883 144.806 183.551 144.79C183.281 144.774 182.86 144.229 182.819 143.881C182.663 142.593 182.606 141.278 183.915 140.115C185.104 141.481 185.115 142.785 184.559 144.109Z" fill="#E73D66"/>
<path d="M460.908 118.844C454.608 116.075 448.026 114.699 441.112 115.171C438.733 115.332 437.965 116.724 439.289 118.781C440.255 120.288 440.759 121.872 440.738 123.623C440.692 128.568 440.66 133.513 440.531 138.458C440.349 145.507 440.079 152.556 439.866 159.605C439.793 161.978 439.835 164.352 439.746 166.726C439.544 172.191 439.289 177.655 439.066 183.12C439.035 183.909 439.087 184.704 439.024 185.494C438.998 185.821 438.77 186.127 438.567 186.59C437.596 185.333 437.752 184.06 437.736 182.829C437.637 174.72 437.575 166.612 437.435 158.503C437.305 150.925 437.128 143.341 436.91 135.762C436.583 124.428 436.146 113.093 435.866 101.759C435.622 91.9417 435.513 82.119 435.378 72.2963C435.352 70.2549 435.487 68.2082 435.487 66.1668C435.487 65.424 435.326 64.676 435.217 63.741C434.043 64.4007 434.256 65.2734 434.282 65.9798C434.599 73.5066 433.741 80.9762 433.149 88.4562C432.479 96.9283 431.814 105.406 431.336 113.893C430.817 123.108 430.469 132.328 430.116 141.554C429.809 149.59 429.55 157.631 429.352 165.672C429.03 178.985 428.781 192.304 428.485 205.622C428.407 209.118 428.256 212.609 428.189 216.099C428.173 217.008 428.272 217.938 428.438 218.832C428.609 219.735 429.212 220.302 430.381 220.551C430.453 219.829 430.562 219.206 430.578 218.577C430.635 216.073 430.656 213.564 430.703 211.061C430.936 198.932 431.175 186.803 431.404 174.674C431.42 173.946 431.383 173.219 431.42 172.497C431.44 172.087 431.555 171.676 431.627 171.271C432.136 171.682 432.381 172.128 432.432 172.596C432.573 173.905 432.713 175.219 432.713 176.533C432.744 190.252 432.755 203.97 432.77 217.684C432.77 218.738 432.796 219.793 432.796 220.847C432.796 221.657 433.129 222.161 433.897 222.525C439.305 225.106 444.691 227.724 450.078 230.337C450.847 230.706 451.579 231.205 452.696 230.628C452.945 229.355 453.392 227.953 453.47 226.535C453.745 221.673 453.844 216.816 454.213 211.949C454.909 202.827 454.94 193.654 455.246 184.507C455.246 184.439 455.246 184.377 455.252 184.309C455.48 181.291 455.756 178.279 455.922 175.255C456.233 169.505 456.467 163.755 456.763 158.005C456.826 156.805 457.74 155.787 458.935 155.688C459.672 155.626 460.431 155.74 461.158 155.636C462.415 155.454 462.815 154.779 462.581 153.569C462.436 152.805 462.269 152.015 462.306 151.247C462.451 147.824 462.685 144.4 462.898 140.977C463.049 138.536 463.267 136.105 463.568 133.679C463.911 130.962 464.29 128.251 464.695 125.545C464.789 124.911 465.272 124.339 465.578 123.742V121.368C464.02 120.521 462.519 119.555 460.908 118.844Z" fill="#E73D66"/>
<path d="M444.406 502.121V502.116C443.336 495.908 443.066 489.628 442.806 483.348C442.66 479.858 442.494 476.367 442.364 472.876C441.918 460.732 441.403 448.592 441.206 436.442C441.201 436.271 441.227 436.094 441.268 435.923C442.676 430.209 439.809 428.765 430.77 426.344C430.401 426.246 430.105 425.955 430.022 425.586C429.118 421.752 427.451 421.212 425.456 420.038C424.34 421.269 424.599 422.729 424.552 424.028C424.329 430.152 424.22 436.281 424.059 442.411C423.903 448.208 423.789 454.01 423.55 459.802C423.373 464.082 423.067 468.352 422.74 472.622C422.34 477.868 421.747 483.104 421.457 488.356C421.254 492.028 421.285 495.716 422.527 499.29C423.15 501.082 423.446 502.988 423.997 504.806C424.911 507.814 425.778 510.842 426.906 513.767C428.573 518.089 429.851 522.509 430.375 527.101C430.77 530.566 430.869 534.062 431.108 537.547C431.113 537.651 431.233 537.75 431.295 537.854C431.596 537.796 431.897 537.734 432.282 537.661C433.077 540.846 433.612 543.936 433.492 547.131C433.435 548.648 433.97 550.185 433.903 551.702C433.908 551.702 433.903 551.702 433.908 551.702C434.671 548.388 436.334 545.282 435.102 541.51C434.967 541.105 435.16 540.638 435.56 540.492C438.661 539.37 438.448 533.76 442.162 532.259C443.819 531.589 444.769 530.431 445.19 528.883C445.647 527.189 446.026 525.413 446.052 523.673C446.089 521.179 445.798 518.676 445.6 516.182C445.216 511.497 444.806 506.812 444.406 502.121Z" fill="#E73D66"/>
<path d="M398.398 428.271C398.289 426.433 397.973 424.568 398.175 422.76C398.424 420.516 398.341 418.35 398.196 416.111C398.056 413.919 397.079 412.875 395.245 412.241C393.459 411.623 391.672 410.979 389.864 410.429C389.054 410.184 388.617 409.748 388.529 408.933C388.456 408.278 388.436 407.613 388.326 406.969C388.254 406.533 388.207 405.941 387.916 405.717C386.425 404.559 385.033 403.172 382.909 403.255C381.527 403.307 380.14 403.291 378.753 403.265C377.47 403.239 376.649 403.863 376.13 404.985C375.907 405.463 375.709 405.967 375.392 406.377C374.894 407.026 374.161 406.954 373.834 406.216C373.652 405.806 373.605 405.328 373.548 404.876C373.366 403.375 373.2 401.868 373.034 400.362C372.447 395.043 372.239 389.718 372.52 384.368C372.676 381.407 372.702 378.436 372.733 375.475C372.738 374.914 372.655 374.119 372.296 373.834C370.878 372.707 371.019 371.195 370.977 369.683C370.738 360.926 371.206 352.163 370.515 343.399C370.177 339.073 370.208 334.72 369.471 330.413C369.206 328.865 369.33 327.255 369.206 325.681C368.832 320.965 368.364 316.253 368.053 311.532C367.85 308.441 367.902 305.335 367.767 302.239C367.653 299.678 367.372 297.122 367.258 294.561C366.941 287.45 366.676 280.339 366.375 273.233C366.354 272.708 366.193 272.194 366.125 271.675C365.881 269.851 365.642 268.028 365.409 266.2C365.336 265.613 365.305 265.021 365.211 264.434C364.749 261.519 364.276 258.605 363.793 255.691C363.684 255.042 363.518 254.408 363.393 253.764C362.863 250.996 362.048 248.242 362.926 245.386C363.055 244.96 362.998 244.466 362.978 244.009C362.671 238.118 363.133 232.321 364.416 226.535C366.364 217.756 365.757 208.817 365.502 199.929C365.331 193.935 364.738 187.951 364.614 181.956C364.505 176.819 364.619 171.666 364.957 166.539C365.289 161.495 365.528 156.399 367.263 151.558C367.554 150.738 367.658 149.761 368.925 149.517C369.72 156.119 370.489 162.638 371.283 169.147C372.094 175.749 373.039 182.335 373.73 188.948C374.411 195.467 374.847 202.007 375.387 208.541C375.527 208.547 375.668 208.552 375.808 208.557C375.839 208.328 375.896 208.1 375.896 207.876C375.855 204.381 375.87 200.885 375.735 197.394C375.657 195.363 375.283 193.348 375.153 191.322C374.8 185.805 374.582 180.278 374.161 174.767C373.73 169.193 373.024 163.635 372.618 158.057C372.442 155.589 372.712 153.091 372.779 150.519C373.964 150.561 373.85 151.2 373.969 151.673C374.192 152.556 374.275 153.511 374.675 154.306C375.449 155.828 375.694 157.381 375.72 159.069C375.808 165.261 375.995 171.453 376.14 177.645C376.255 182.559 377.299 187.291 378.867 191.935C379.096 192.615 379.35 193.135 380.119 193.27C381.402 193.493 381.714 194.381 381.813 195.566C382.114 199.046 382.545 202.511 382.846 205.986C383.07 208.541 383.158 211.113 383.314 213.673C383.366 214.562 383.054 215.299 382.176 215.533C379.236 216.302 377.652 218.582 376.088 220.883C375.164 222.239 375.309 222.857 376.597 223.912C378.27 225.278 380.213 226.052 382.322 226.436C383.387 226.634 384.176 226.249 384.924 225.418C385.745 224.504 386.763 223.756 387.719 222.971C388.274 222.514 388.939 222.177 389.459 221.683C389.999 221.174 390.415 220.457 390.015 219.73C389.454 218.717 388.929 217.507 388.036 216.899C386.373 215.772 385.916 214.338 386.025 212.505C386.119 210.993 386.14 209.476 386.207 207.965C386.327 205.336 386.508 202.708 386.581 200.08C386.638 198.038 386.763 195.971 386.498 193.961C386.01 190.257 386.124 186.621 386.815 182.953C388.181 175.744 388.799 168.456 388.513 161.121C388.415 158.628 388.83 156.316 389.646 153.974C390.508 151.496 391.448 148.945 391.666 146.369C392.155 140.52 392.108 134.624 391.105 128.817C390.332 124.345 389.152 119.95 388.295 115.488C387.854 113.177 386.514 111.883 384.389 111.265C379.174 109.748 373.85 109.021 368.406 109.172C366.099 109.234 364.458 110.226 363.741 112.429C363.055 114.543 361.684 115.519 359.502 115.576C357.742 115.618 356.562 116.563 355.898 118.184C355.575 118.974 355.238 119.763 354.827 120.506C351.384 126.744 349.14 133.404 348.111 140.442C347.446 145.003 346.963 149.595 346.574 154.187C346.293 157.464 346.21 160.747 347.498 163.937C347.919 164.97 347.82 166.264 347.768 167.432C347.68 169.406 347.285 171.37 347.296 173.339C347.316 176.959 347.451 180.585 347.706 184.2C348.08 189.519 348.615 194.833 349.051 200.152C349.166 201.529 349.347 202.937 349.181 204.292C348.688 208.276 348.012 212.235 347.457 216.214C347.233 217.834 346.859 219.507 347.041 221.101C347.649 226.389 348.101 231.714 349.446 236.893C349.643 237.646 349.612 238.461 349.701 239.246C349.939 241.401 350.142 243.567 350.454 245.713C350.61 246.809 351.119 247.863 351.197 248.954C351.493 253.359 351.768 257.769 351.898 262.179C352.158 270.937 351.846 279.695 352.365 288.458C352.807 295.886 352.635 303.35 352.745 310.799C352.781 313.298 352.791 315.796 352.89 318.29C352.963 320.134 353.16 321.967 353.28 323.811C353.456 326.507 353.596 329.203 353.778 331.899C353.929 334.195 354.303 336.496 354.241 338.787C354.142 342.485 354.199 346.147 354.921 349.794C355.124 350.812 355.009 351.892 355.025 352.942C355.035 353.929 354.942 354.921 355.03 355.897C355.253 358.38 355.549 360.858 355.809 363.341C355.851 363.736 355.892 364.136 355.861 364.525C355.581 368.089 355.97 371.6 356.329 375.143C356.858 380.451 357.087 385.802 356.427 391.136C356.266 392.435 356.064 393.734 355.929 395.032C355.788 396.409 355.742 397.79 355.596 399.167C355.201 402.954 354.682 406.735 354.381 410.532C353.773 418.283 353.254 426.038 352.75 433.798C352.635 435.57 352.646 437.362 352.745 439.133C352.781 439.788 353.113 440.53 353.539 441.045C355.788 443.777 357.44 446.836 358.386 450.218C360.567 458.02 362.598 465.858 364.764 473.666C365.164 475.099 365.819 476.497 366.546 477.806C370.369 484.673 375.325 490.906 378.093 498.781C378.68 497.919 379.044 497.337 379.46 496.797C380.135 495.919 380.732 494.76 382 494.844C384.472 495.01 386.571 493.867 388.789 493.145C390.908 492.454 392.118 490.974 392.576 488.766C392.934 487.041 393.495 485.358 393.973 483.655C394.534 481.634 395.188 479.634 395.64 477.593C396.066 475.676 396.274 473.712 396.58 471.77C397.053 468.788 397.708 465.822 397.957 462.825C398.383 457.646 398.7 452.452 398.798 447.257C398.902 441.72 398.705 436.183 398.617 430.64C398.596 429.845 398.445 429.061 398.398 428.271ZM376.665 149.73C376.769 149.943 376.971 150.161 376.956 150.358C376.94 150.535 376.686 150.691 376.416 150.982C376.223 150.618 375.979 150.343 376.036 150.239C376.161 150.021 376.447 149.891 376.665 149.73ZM354.37 168.809C354.1 170.689 353.789 172.565 353.451 174.429C353.389 174.777 353.129 175.084 352.729 175.863C352.495 175.364 352.298 175.136 352.287 174.897C352.163 172.352 352.069 169.806 351.976 167.256C351.971 167.064 352.059 166.871 352.106 166.679C352.261 166.035 352.625 165.578 353.326 165.646C353.991 165.708 354.386 166.155 354.407 166.835C354.428 167.5 354.464 168.165 354.37 168.809ZM366.863 388.669C368.068 390.04 368.099 390.357 367.149 392.082C366.188 390.897 366.312 389.853 366.863 388.669ZM380.94 444.727C380.649 446.255 379.132 447.704 377.325 447.964C374.93 448.306 372.785 448 371.683 444.904C370.935 442.8 370.234 440.681 369.476 438.577C369.252 437.959 368.941 437.377 368.634 436.796C367.736 435.071 367.206 433.248 367.247 431.295C367.325 427.856 367.092 424.464 366.396 421.077C366.11 419.695 366.271 418.205 366.323 416.771C366.406 414.47 366.588 412.21 365.876 409.925C365.481 408.657 365.528 407.203 365.632 405.852C365.788 403.826 366.167 401.816 366.468 399.801C366.505 399.567 366.629 399.349 366.821 398.84C367.118 399.39 367.403 399.692 367.429 400.019C367.564 401.588 367.845 403.188 367.689 404.735C367.284 408.855 368.001 412.88 368.343 416.942C368.468 418.444 368.447 419.96 368.582 421.467C368.676 422.5 368.775 423.571 369.128 424.532C369.928 426.692 370.816 428.827 371.798 430.91C372.665 432.749 372.785 434.432 371.377 436.042C371.258 436.177 371.232 436.396 371.07 436.801C371.543 436.671 371.876 436.629 372.167 436.494C372.868 436.167 373.46 436.255 373.891 436.915C375.091 438.749 376.888 439.84 378.722 440.904C380.982 442.208 381.309 442.79 380.94 444.727Z" fill="#E73D66"/>
<path d="M335.218 175.224C333.593 174.107 331.868 173.126 330.123 172.206C329.151 171.697 328.616 171.043 328.424 169.973C328.112 168.222 327.671 166.498 327.333 164.752C327.079 163.438 327.073 162.124 327.754 160.898C328.497 159.563 328.59 158.114 328.367 156.67C328.17 155.387 328.305 154.202 328.725 152.987C329.317 151.288 328.964 149.735 327.712 148.416C327.214 147.891 326.715 147.356 326.154 146.899C324.829 145.818 323.489 144.754 322.113 143.741C320.201 142.338 320.154 141.102 321.993 139.668C322.565 139.227 323.172 138.801 323.63 138.261C324.346 137.414 324.268 136.775 323.437 136.032C323.048 135.684 322.596 135.398 322.144 135.128C317.111 132.1 311.843 131.632 306.457 133.98C303.501 135.269 300.649 136.801 297.803 138.318C295.647 139.466 294.681 141.585 295.242 143.995C295.564 145.387 295.99 146.842 296.738 148.042C298.27 150.504 298.904 153.08 298.598 155.942C298.494 156.924 298.535 157.922 298.468 158.908C298.437 159.366 298.442 159.906 298.198 160.243C297.938 160.607 297.408 160.976 296.987 160.986C295.538 161.023 294.317 160.041 294 158.602C293.777 157.579 293.725 156.519 293.606 155.475C293.481 154.431 293.429 153.371 293.237 152.343C292.93 150.696 291.829 149.652 290.411 148.675C290.193 150.125 289.907 151.351 289.84 152.587C289.642 156.4 289.544 160.212 289.377 164.025C289.346 164.7 289.164 165.37 289.029 166.17C288.079 165.89 287.398 165.64 286.697 165.49C285.866 165.313 285.263 165.589 285.123 166.518C285.045 167.038 284.853 167.573 284.91 168.082C285.336 171.676 285.783 175.271 286.308 178.855C286.38 179.354 286.801 179.956 287.237 180.211C288.401 180.891 288.624 181.883 288.505 183.078C288.328 184.85 288.115 186.616 287.99 188.392C287.913 189.504 287.731 190.693 288.022 191.727C288.406 193.103 288.058 194.163 287.378 195.27C285.954 197.586 284.947 200.069 284.302 202.724C283.051 207.902 283.752 213.092 284.141 218.271C284.401 221.683 284.843 225.086 285.154 228.498C285.611 233.553 286.017 238.607 286.458 243.661C286.941 249.172 287.419 254.689 287.949 260.195C288.276 263.602 288.671 267.005 289.107 270.402C289.196 271.103 289.606 271.768 289.866 272.449C290.411 270.875 290.65 269.405 290.988 267.955C291.325 266.517 291.014 264.802 292.832 263.483C292.982 265.067 293.201 266.34 293.201 267.613C293.211 273.311 293.372 278.988 290.811 284.38C288.603 289.029 288.271 294.026 289.175 299.086C289.284 299.693 289.606 300.265 289.907 301.065C290.738 300.603 291.372 300.291 291.964 299.906C293.128 299.158 294.271 298.369 295.419 297.595C297.714 296.047 300.01 294.499 302.301 292.951C303.153 292.374 303.963 291.663 303.792 290.577C303.621 289.492 303.309 288.338 302.717 287.435C301.751 285.965 301.538 284.417 301.491 282.744C301.434 280.64 301.454 278.5 301.07 276.438C300.473 273.217 300.468 270.023 300.795 266.802C300.816 266.605 301.029 266.433 301.449 265.805C301.88 268.106 302.374 269.924 302.54 271.773C302.976 276.557 303.293 281.352 303.61 286.146C303.673 287.071 303.984 287.632 304.904 287.845C305.543 287.996 306.192 288.157 306.789 288.416C307.501 288.723 308.062 288.52 308.628 288.105C312.082 285.585 315.537 283.066 319.001 280.552C319.718 280.032 320.378 279.321 321.412 279.664C321.136 280.209 320.975 280.89 320.549 281.258C319.168 282.458 317.687 283.549 316.233 284.666C312.685 287.398 309.127 290.12 305.568 292.842C304.545 293.626 304.109 294.644 304.156 295.938C304.218 297.585 304.223 299.236 304.213 300.883C304.208 301.496 304.093 302.114 303.989 303.08C302.202 301.2 302.4 298.686 300.681 297.122C300.182 297.403 299.699 297.6 299.294 297.912C295.938 300.473 292.608 303.059 289.248 305.615C287.824 306.696 287.393 308.129 287.637 309.812C288.713 317.297 289.809 324.788 290.899 332.273C291.201 334.351 291.559 336.418 291.84 338.496C292.151 340.839 292.385 343.192 292.691 345.534C293.086 348.521 293.6 351.498 293.902 354.495C294.068 356.167 294.645 357.528 295.844 358.682C300.888 363.518 305.917 368.369 310.966 373.2C313.345 375.48 315.739 377.745 318.149 379.994C319.09 380.872 320.082 381.688 321.328 382.779C321.853 381.61 322.393 380.774 322.596 379.859C323.053 377.808 323.276 375.699 323.718 373.642C324.243 371.174 323.827 368.468 325.562 366.291C325.733 366.078 325.655 365.658 325.681 365.33C325.972 360.993 326.253 356.656 326.549 352.324C326.668 350.615 326.783 348.906 326.975 347.207C327.354 343.883 327.894 340.574 328.164 337.244C328.642 331.4 328.995 325.546 329.354 319.692C329.738 313.376 330.076 307.059 330.429 300.738C330.611 297.512 330.611 294.27 330.99 291.066C331.629 285.632 332.283 280.204 332.076 274.724C332.019 273.202 332.325 272.007 333.681 271.186C334.907 270.444 335.14 269.332 334.995 267.945C334.787 265.987 334.746 264.008 334.72 262.039C334.678 259.016 335.182 256.024 334.839 252.969C334.413 249.167 334.538 245.344 335.166 241.542C335.774 237.874 335.686 234.202 335.25 230.509C334.761 226.389 334.392 222.249 334.034 218.115C333.354 210.24 332.709 202.36 332.055 194.48C331.878 192.381 331.655 190.283 331.551 188.179C331.442 185.873 332.346 183.961 334.008 182.356C334.761 181.629 335.488 180.839 336.075 179.977C337.369 178.092 337.12 176.533 335.218 175.224ZM314.212 364.177C314.176 364.401 313.963 364.723 313.786 364.759C313.511 364.811 313.054 364.749 312.929 364.562C312.643 364.141 312.394 363.632 312.337 363.133C311.771 358.365 311.246 353.591 310.711 348.823C310.695 348.693 310.695 348.558 310.664 348.069C310.81 347.862 311.116 347.42 311.428 346.978C311.875 347.301 312.467 347.529 312.737 347.96C313.069 348.495 313.246 349.186 313.293 349.825C313.464 351.991 313.537 354.162 313.667 356.334C313.807 358.63 313.973 360.92 314.134 363.216C314.155 363.533 314.264 363.866 314.212 364.177ZM303.698 179.536C304.182 173.9 304.628 168.264 305.106 162.628C305.205 161.449 305.33 160.269 305.506 159.101C305.896 156.446 308.945 154.519 311.433 155.376C311.791 155.501 312.02 155.984 312.311 156.301C311.984 156.561 311.698 156.935 311.324 157.059C310.903 157.199 310.41 157.101 309.953 157.132C308.529 157.22 307.833 157.901 307.693 159.329C307.667 159.589 307.683 159.854 307.677 160.119C307.631 170.238 307.594 180.356 307.537 190.475C307.532 191.28 307.397 192.091 307.324 192.896C307.174 192.927 307.023 192.958 306.872 192.989C306.436 192.288 305.927 191.623 305.574 190.885C303.86 187.281 303.361 183.483 303.698 179.536ZM307.631 193.597C307.579 193.628 307.532 193.685 307.48 193.685C307.433 193.685 307.392 193.618 307.345 193.581C307.392 193.55 307.444 193.488 307.49 193.493C307.542 193.498 307.584 193.561 307.631 193.597ZM297.512 241.246C296.504 242.664 296.135 244.191 296.281 245.905C296.338 246.585 296.239 247.276 296.208 247.962C294.634 246.05 293.782 244.077 295.029 241.812C295.502 240.949 296.068 240.134 296.624 239.324C298.483 236.607 300.364 233.906 302.213 231.184C303.434 229.381 303.943 227.376 303.901 225.2C303.86 222.961 303.88 220.717 303.917 218.478C303.969 215.59 303.392 212.853 302.13 210.261C301.984 209.965 301.865 209.658 301.766 209.346C301.735 209.248 301.808 209.113 301.865 208.869C303.434 209.243 304.343 210.313 304.732 211.741C305.968 216.291 306.4 220.894 305.413 225.564C305.21 226.53 304.971 227.522 305.007 228.493C305.059 230.046 304.467 231.283 303.61 232.498C301.558 235.391 299.569 238.342 297.512 241.246ZM303.839 263C303.288 263.119 302.654 262.403 302.857 261.904C302.971 261.623 303.356 261.452 303.849 261.047C304.176 261.571 304.519 261.93 304.592 262.335C304.618 262.517 304.14 262.932 303.839 263ZM304.623 241.531C304.218 241.375 303.948 240.882 303.621 240.529C303.917 240.337 304.234 239.952 304.498 239.989C304.924 240.046 305.309 240.373 306.088 240.783C305.314 241.199 304.867 241.625 304.623 241.531ZM307.303 263.343C307.158 263.26 307.007 263.171 306.862 263.088C306.742 262.844 306.472 262.538 306.545 262.366C306.628 262.164 306.992 262.003 307.246 261.982C307.366 261.971 307.641 262.33 307.636 262.506C307.62 262.787 307.423 263.062 307.303 263.343ZM306.914 256.367C306.685 256.024 306.306 255.702 306.254 255.333C306.15 254.585 306.8 253.832 307.335 254.019C307.683 254.138 307.916 254.585 308.394 255.078C307.802 255.593 307.361 255.977 306.914 256.367ZM310.669 271.327C310.623 272.386 310.046 273.176 309.418 273.01C308.493 272.765 308.612 271.94 308.545 271.233C308.597 270.916 308.555 270.527 308.722 270.283C308.955 269.945 309.36 269.483 309.667 269.498C309.979 269.514 310.321 270.012 310.534 270.371C310.69 270.625 310.685 271.005 310.669 271.327ZM319.017 275.493C318.607 275.415 318.295 274.791 317.796 274.267C318.264 273.7 318.575 272.994 318.929 272.973C319.682 272.926 320.004 273.607 319.999 274.329C319.999 274.978 319.723 275.622 319.017 275.493ZM319.531 266.345C319.1 266.444 318.555 266.47 318.175 266.288C316.95 265.696 315.885 265.841 314.815 267.166C314.508 266.298 314.238 265.779 314.145 265.239C313.911 263.873 313.121 263.016 311.901 262.454C311.153 262.112 310.28 261.893 309.932 260.714C311.895 260.309 313.376 260.574 314.451 262.2C315.344 263.556 316.788 264.06 318.29 264.418C318.799 264.543 319.344 264.584 319.791 264.823C320.071 264.974 320.383 265.436 320.347 265.717C320.31 265.966 319.853 266.278 319.531 266.345ZM318.274 261.836C318.342 261.977 318.144 262.366 317.973 262.465C317.801 262.564 317.417 262.527 317.277 262.392C316.3 261.447 316.269 260.143 316.311 258.948C316.347 257.992 317.074 257.338 318.43 257.333C318.461 257.883 318.596 258.294 318.482 258.621C318.123 259.681 317.734 260.704 318.274 261.836ZM314.69 256.46C314.316 256.46 313.937 256.341 313.599 256.283C313.552 256.128 313.5 256.05 313.521 256.003C314.924 252.751 313.469 249.884 312.306 246.98C312.062 246.372 311.693 245.801 311.511 245.178C311.386 244.747 311.485 244.253 311.485 243.786C311.63 243.734 311.781 243.682 311.926 243.625C312.249 243.973 312.659 244.274 312.882 244.674C313.443 245.713 314.02 246.767 314.415 247.874C315.054 249.666 315.568 251.505 316.113 253.333C316.243 253.769 316.352 254.232 316.383 254.684C316.472 256.06 316.087 256.46 314.69 256.46ZM315.344 260.039C315.183 260.21 315.064 260.34 314.95 260.47C314.794 260.32 314.643 260.169 314.487 260.018C314.622 259.899 314.752 259.691 314.898 259.681C315.022 259.675 315.163 259.883 315.344 260.039ZM312.659 252.466C312.68 252.486 312.539 252.741 312.503 252.73C312.347 252.699 312.202 252.611 312.041 252.543C312.134 252.382 312.191 252.279 312.249 252.175C312.389 252.273 312.539 252.351 312.659 252.466ZM321.406 244.866C321.105 241.656 320.809 238.441 320.56 235.225C320.383 232.929 320.357 230.618 320.134 228.327C319.708 224 319.157 219.689 318.716 215.362C318.471 213.003 318.295 210.635 318.175 208.266C318.092 206.588 317.703 205.051 316.944 203.534C316.394 202.438 316.072 201.202 315.817 199.991C315.355 197.784 314.841 197.166 312.669 196.817C311.895 196.693 311.09 196.74 310.306 196.688C309.849 196.656 309.35 196.677 308.95 196.495C308.649 196.36 308.353 195.971 308.28 195.644C308.233 195.436 308.529 195.036 308.773 194.89C309.688 194.35 310.643 194.002 311.771 194.205C312.799 194.392 313.859 194.454 314.908 194.459C316.721 194.464 317.318 193.898 317.334 192.137C317.349 190.361 317.23 188.579 317.24 186.803C317.251 185.249 317.355 183.696 317.433 181.764C319.204 182.876 319.438 184.231 319.36 185.504C319.126 189.145 319.474 192.724 319.957 196.329C320.404 199.654 320.544 203.02 320.773 206.37C321.147 211.829 321.297 217.304 321.889 222.738C322.347 226.935 322.43 231.142 322.783 235.334C323.058 238.612 323.604 241.869 323.417 245.173C323.375 245.858 323.235 246.539 323.063 247.733C322.378 247.058 321.936 246.788 321.744 246.393C321.521 245.941 321.453 245.386 321.406 244.866ZM321.484 279.658C322.076 278.173 322.087 278.173 323.5 278.521C323.146 279.544 322.528 279.97 321.484 279.658ZM322.882 265.109C322.617 265.088 322.149 264.6 322.186 264.397C322.274 263.904 322.601 263.452 323.006 262.641C323.484 263.322 323.869 263.634 323.91 263.987C323.993 264.657 323.583 265.156 322.882 265.109ZM325.65 173.053C324.668 173.998 323.687 173.941 323.131 172.705C322.492 171.287 322.102 169.76 321.645 168.393C321.915 167.614 321.973 166.944 322.331 166.549C322.736 166.113 323.417 165.698 323.967 165.708C324.352 165.718 324.892 166.404 325.058 166.892C325.526 168.253 325.842 169.671 326.211 171.069C326.414 171.837 326.222 172.502 325.65 173.053ZM332.237 236.674C332.372 240.414 332.528 244.154 332.652 247.889C332.673 248.533 332.6 249.177 332.574 249.822C332.429 249.832 332.283 249.848 332.138 249.858C331.193 248.326 330.943 246.559 330.86 244.83C330.517 237.734 330.315 230.628 329.993 223.527C329.904 221.569 329.525 219.621 329.343 217.663C329.146 215.507 329.053 213.336 328.855 211.18C328.232 204.303 327.577 197.425 326.944 190.548C326.876 189.826 326.783 189.088 326.892 188.382C326.959 187.951 327.302 187.358 327.671 187.213C328.372 186.932 328.746 187.551 328.928 188.132C329.141 188.823 329.312 189.535 329.375 190.252C329.816 195.166 330.216 200.08 330.658 204.994C330.741 205.903 331.021 206.796 331.094 207.71C331.245 209.606 331.354 211.507 331.421 213.403C331.702 221.164 331.961 228.919 332.237 236.674Z" fill="#E73D66"/>
<path d="M316.607 476.528C315.651 476.725 314.669 476.798 313.693 476.912C313.043 476.99 312.389 477.042 311.739 477.12C310.249 477.307 308.758 477.51 307.267 477.697C306.68 477.769 306.088 477.795 305.506 477.884C304.218 478.076 302.94 478.33 301.647 478.486C299.112 478.803 296.572 479.068 294.037 479.364C293.782 479.395 293.517 479.489 293.289 479.608C291.969 480.284 290.816 479.93 289.912 478.902C288.858 477.707 287.59 477.551 286.146 477.785C284.547 478.04 282.926 478.476 281.326 478.429C279.03 478.362 276.952 479.198 274.765 479.577C272.501 479.972 270.246 480.346 267.722 479.847C267.909 479.343 267.945 478.788 268.22 478.601C269.493 477.754 270.662 476.642 272.35 476.679C272.833 475.302 274.069 474.85 275.269 474.351C276.568 473.811 277.43 472.923 277.508 471.437C277.731 467.157 278.09 462.882 278.152 458.602C278.215 454.197 278.303 449.792 277.981 445.372C277.643 440.78 277.809 436.146 277.898 431.528C278.064 422.495 278.391 413.467 278.537 404.439C278.666 396.528 278.625 388.612 278.703 380.701C278.724 378.665 279.04 376.628 278.994 374.597C278.905 370.722 279.217 366.842 278.589 362.967C278.064 359.731 278.048 356.401 277.42 353.191C276.609 349.067 276.396 344.87 275.482 340.756C274.646 336.99 274.324 333.104 273.799 329.271C273.03 323.598 272.241 317.926 271.55 312.248C271.16 309.049 270.932 305.833 270.672 302.618C270.631 302.099 270.812 301.563 270.89 301.034C271.051 301.039 271.212 301.044 271.373 301.049C272.807 306.716 273.327 312.539 274.09 318.326C274.859 324.133 275.726 329.93 276.552 335.727C276.724 335.385 276.724 335.062 276.724 334.735C276.75 317.464 276.817 300.192 276.791 282.915C276.75 259.177 276.615 235.433 276.583 211.694C276.578 209.341 276.932 206.978 277.228 204.63C277.42 203.124 277.269 202.563 275.872 202.022C274.895 201.648 273.846 201.467 272.838 201.186C270.641 200.578 270.361 200.116 270.911 197.965C271.955 193.883 273.02 189.805 274.059 185.722C276.287 176.985 278.765 168.295 279.617 159.267C280.001 155.184 279.934 151.101 279.03 147.076C278.708 145.647 278.308 145.403 276.968 145.829C276.422 146 275.929 146.343 275.441 146.655C274.89 147.008 274.412 147.481 273.841 147.792C271.176 149.242 268.485 150.634 265.826 152.083C264.325 152.904 262.865 153.797 261.379 154.654C260.496 155.163 260.159 155.896 260.148 156.935C260.107 161.615 259.956 166.295 259.904 170.975C259.805 179.546 259.764 188.122 259.676 196.693C259.598 204.142 259.385 211.59 259.416 219.039C259.431 223.475 258.876 222.987 256.013 223.912C254.367 224.442 254.169 224.758 254.31 226.493C254.346 226.95 254.481 227.402 254.523 227.86C254.725 229.953 255.099 232.051 255.063 234.145C254.928 242.908 255.214 251.666 254.751 260.434C254.362 267.8 254.663 275.202 254.621 282.588C254.549 295.512 254.45 308.436 254.356 321.359C254.351 321.9 254.232 322.44 254.159 323.043C253.437 322.814 252.97 322.663 252.247 322.435C252.284 334.06 251.759 345.472 252.159 356.905C252.58 355.378 252.658 353.757 254.04 352.614C254.356 354.261 254.564 355.877 254.554 357.492C254.517 363.819 254.279 370.151 254.356 376.473C254.507 389.194 254.845 401.915 255.037 414.641C255.141 421.368 255.084 428.095 255.136 434.822C255.203 444.12 255.271 453.413 255.406 462.711C255.442 465.069 255.806 467.417 255.894 469.775C256.174 476.944 255.811 484.133 256.71 491.285C257.167 494.937 257.312 498.636 257.806 502.282C257.993 503.674 258.704 505.019 259.307 506.328C259.473 506.692 260.122 507.061 260.533 507.035C261.364 506.988 262.247 506.817 262.995 506.453C265.26 505.357 267.727 505.497 270.106 505.139C272.116 504.838 274.158 504.734 276.183 504.51C277.025 504.417 277.861 504.246 278.698 504.09C279.648 503.913 280.594 503.633 281.549 503.544C282.791 503.43 284.167 503.768 285.269 503.347C287.019 502.677 288.749 502.791 290.515 502.739C292.546 502.682 294.577 502.651 296.603 502.516C298.431 502.396 300.255 502.147 302.078 501.965C302.535 501.918 303.002 501.929 303.454 501.866C305.854 501.518 308.254 500.869 310.654 500.874C313.573 500.88 315.791 499.752 317.931 497.965C319.593 496.579 320.29 494.937 320.352 492.833C320.399 491.332 320.788 489.846 320.892 488.345C321.084 485.525 321.344 482.689 321.266 479.868C321.183 477.567 318.83 476.071 316.607 476.528ZM267.997 214.447C268.039 213.419 268.226 212.396 268.345 211.372C268.568 211.346 268.797 211.326 269.02 211.3C269.239 211.933 269.628 212.562 269.649 213.201C269.711 215.362 269.685 217.533 269.592 219.694C269.571 220.203 269.15 220.691 268.927 221.159C267.909 220.935 267.904 220.333 267.909 219.735C267.924 217.974 267.919 216.208 267.997 214.447Z" fill="#E73D66"/>
<path d="M272.386 476.679C272.376 476.679 272.36 476.679 272.35 476.679C272.345 476.699 272.329 476.72 272.324 476.741L272.386 476.679Z" fill="#E73D66"/>
<path d="M222.213 293.05L222.271 293.123C222.26 293.091 222.239 293.06 222.213 293.05Z" fill="#E73D66"/>
<path d="M236.275 393.204C234.841 393.339 209.144 370.005 207.903 370.026C207.747 370.629 207.648 371.138 207.482 371.621C206.656 374.005 206.978 376.119 208.879 377.901C208.879 377.901 231.366 397.224 231.418 397.9C231.47 398.575 231.137 399.255 230.395 399.053C229.652 398.85 207.939 378.519 207.129 378.441C207.025 380.997 206.921 383.417 206.838 385.838C206.708 389.656 206.526 393.474 206.495 397.297C206.474 400.066 205.591 402.964 207.503 405.52C207.721 405.811 207.695 406.278 207.778 406.663C208.09 408.076 208.334 409.504 208.729 410.891C210.432 416.823 212.183 422.739 213.918 428.661C214.458 430.495 215.814 431.092 217.679 430.505C219.46 429.939 221.278 429.471 223.102 429.077C225.766 428.5 228.478 428.116 231.127 427.477C233.916 426.807 236.675 425.976 239.412 425.108C240.103 424.89 240.986 424.552 241.033 423.581C241.08 422.599 241.256 421.524 240.95 420.646C240.482 419.316 240.586 418.049 240.778 416.755C241.106 414.61 241.62 412.491 241.859 410.34C242.321 406.154 242.628 401.951 243.033 397.759C243.407 393.832 243.874 389.916 244.207 385.984C244.534 382.119 244.788 378.244 244.986 374.374C245.162 370.889 245.142 367.393 245.36 363.907C245.459 362.359 245.76 360.765 246.3 359.315C247.116 357.134 247.671 354.962 247.713 352.614C247.832 345.233 248.045 337.852 248.238 330.471C248.3 327.967 248.435 325.468 248.492 322.965C248.534 321.063 248.014 319.354 246.856 317.791C246.425 317.209 246.165 316.368 246.144 315.635C246.004 311.09 245.983 306.54 245.864 301.995C245.765 298.307 245.568 294.619 245.433 290.936C245.37 289.221 245.308 287.507 245.349 285.798C245.375 284.687 246.123 284.001 247.058 284.011C247.884 284.022 248.331 284.604 248.352 285.866C248.378 287.513 248.352 289.164 248.321 290.811C248.217 296.151 248.092 301.486 247.988 306.825C247.978 307.449 248.056 308.072 248.092 308.695C248.227 308.701 248.362 308.706 248.497 308.716C249.037 306.784 249.661 304.841 249.676 302.821C249.739 295.174 249.718 287.523 249.687 279.877C249.682 279.139 249.422 278.407 249.276 277.669C249.084 277.57 248.887 277.472 248.695 277.373C248.56 277.679 248.492 278.038 248.279 278.272C248.087 278.485 247.739 278.552 247.5 278.672C245.968 277.113 245.952 276.952 247.064 275.311C247.536 274.61 248.123 273.898 247.162 273.108C246.923 273.186 246.742 273.243 246.56 273.301C244.887 273.867 244.466 273.623 244.238 271.856C244.046 270.355 243.931 268.844 243.781 267.337C243.292 262.491 242.742 257.644 242.352 252.788C242.196 250.835 242.363 248.855 242.472 246.892C242.57 245.121 243.002 243.344 242.918 241.588C242.789 238.711 242.404 235.838 242.041 232.976C241.89 231.807 241.578 230.649 241.209 229.527C240.913 228.613 239.973 228.488 239.636 229.345C238.804 231.475 236.924 232.716 235.615 234.42C232.343 238.674 228.338 242.217 224.489 245.915C224.203 246.191 224.473 246.128 223.647 246.767C223.138 248.014 222.738 248.279 222.063 248.97C219.476 251.598 216.988 254.346 214.219 256.772C212.058 258.668 210.453 260.595 210.978 263.644C210.064 274.35 209.929 285.081 210.053 295.818C210.064 296.566 210.297 297.309 210.427 298.026C211.269 297.979 211.876 297.948 212.796 297.896C212.276 299.361 211.876 300.571 211.409 301.761C211.123 302.488 210.9 303.366 210.36 303.839C209.534 304.555 209.461 305.381 209.445 306.306C209.378 310.124 209.316 313.942 209.232 317.76C209.217 318.544 209.144 319.334 209.056 320.113C208.942 321.147 208.692 322.18 208.671 323.214C208.614 326.242 208.843 329.291 208.583 332.299C208.09 338.06 208.635 343.841 207.866 349.617C207.321 353.7 207.674 357.902 207.643 362.053C207.633 363.305 207.669 364.556 207.695 365.803C207.716 366.852 208.1 367.673 209.025 368.286C210.064 368.977 237.381 389.75 237.231 391.313C237.08 392.892 237.708 393.069 236.275 393.204ZM218.447 291.943L219.647 293.403C220.063 293.839 232.935 287.237 232.935 287.237C233.127 287.102 233.355 287.019 233.568 286.915C233.641 287.066 233.709 287.222 233.781 287.372C233.615 287.44 225.138 291.923 221.081 294.302C219.907 294.993 220.8 297.164 220.593 297.133C218.982 296.894 214.962 295.579 214.339 295.044C215.866 293.886 218.447 291.943 218.447 291.943ZM228.623 313.687C229.106 313.921 229.449 313.973 229.512 314.129C230.062 315.588 229.792 317.069 229.382 318.544C228.405 317.074 228.654 315.495 228.623 313.687ZM225.777 297.772C225.652 297.844 225.351 297.605 225.122 297.512C226.343 295.315 227.865 294.452 229.631 295.387C228.166 296.307 226.987 297.065 225.777 297.772ZM228.634 310.576C226.759 310.446 225.933 309.308 225.112 308.098C226.405 307.251 227.891 308.28 228.634 310.576ZM229.215 364.905C229.574 364.224 229.6 363.694 229.122 363.107C228.312 362.11 228.265 360.957 228.436 359.741C228.826 356.947 229.169 354.147 229.564 351.352C229.709 350.35 229.823 349.295 230.94 348.454C231.241 349.108 231.491 349.612 231.704 350.121C233.309 353.944 234.155 357.809 232.966 361.97C232.358 364.105 232.192 366.359 231.75 368.546C231.621 369.19 231.231 369.777 230.795 370.774C229.979 369.143 229.267 367.98 228.826 366.717C228.649 366.214 228.93 365.44 229.215 364.905ZM230.945 343.711C230.945 342.813 231.075 341.914 231.163 340.813C232.301 341.535 232.602 342.48 232.862 343.4C233.07 344.137 232.711 344.745 231.937 344.864C231.122 344.994 230.945 344.303 230.945 343.711ZM222.665 299.932C222.364 300.535 221.777 300.338 221.315 300.036C221.003 299.834 220.738 299.564 220.452 299.325C220.473 299.148 220.499 298.971 220.52 298.79C220.972 298.733 221.471 298.54 221.876 298.655C222.426 298.821 223.019 299.242 222.665 299.932ZM214.489 321.11C215.689 317.978 217.009 314.892 218.245 311.776C218.546 311.012 218.723 310.197 218.982 309.34C217.845 308.872 216.91 308.488 215.98 308.103C215.99 307.953 216.006 307.802 216.016 307.651C216.681 307.584 217.362 307.381 218.006 307.475C219.876 307.75 219.907 307.781 220.738 306.129C221.091 305.423 221.398 304.691 221.787 304.005C222.115 303.433 222.582 302.717 223.299 303.143C223.761 303.418 224.047 304.15 224.192 304.737C224.291 305.127 224.026 305.62 223.896 306.057C223.33 307.937 222.759 309.812 222.172 311.734C222.712 312.056 223.2 312.269 223.6 312.591C224.92 313.651 225.891 314.882 225.865 316.731C225.839 318.632 225.813 320.575 227.216 322.144C227.335 322.279 227.377 322.507 227.392 322.7C227.584 324.616 226.992 326.336 225.959 327.894C225.579 328.465 224.998 329.058 224.13 328.637C223.32 328.242 222.941 327.582 223.154 326.699C223.367 325.806 223.704 324.944 223.928 324.055C224.166 323.115 224.509 322.159 224.494 321.214C224.473 319.443 224.296 317.671 224.037 315.916C223.954 315.339 223.512 314.705 223.05 314.321C222.146 313.573 221.632 313.77 221.086 314.846C220.878 315.251 220.733 315.724 220.426 316.035C219.138 317.344 218.93 318.845 219.273 320.591C219.637 322.435 219.138 323.058 217.289 323.552C217.097 323.603 216.91 323.655 216.712 323.687C214.427 324.055 213.674 323.24 214.489 321.11ZM222.213 314.944C223.761 315.775 223.881 316.186 223.06 318.118C221.419 316.877 221.284 316.3 222.213 314.944ZM211.741 325.224C211.347 324.964 210.734 324.788 210.593 324.424C210.11 323.193 210.006 321.91 210.884 320.466C211.934 321.666 212.121 322.897 212.302 324.087C212.349 324.435 211.944 324.845 211.741 325.224ZM212.801 335.556C212.734 334.314 212.624 333.073 212.521 331.655C212.521 330.917 212.474 329.998 212.536 329.084C212.572 328.575 212.656 327.977 212.952 327.614C213.227 327.271 213.83 327.006 214.261 327.037C214.572 327.058 215.118 327.65 215.087 327.941C214.946 329.343 215.466 330.439 216.266 331.52C216.51 331.847 216.525 332.403 216.515 332.85C216.484 334.221 216.453 335.603 216.307 336.969C216.157 338.392 215.497 338.678 214.339 337.925C213.482 337.364 212.863 336.652 212.801 335.556Z" fill="#E73D66"/>
<path d="M454.701 234.675C449.517 232.254 444.38 229.735 439.211 227.273C438.525 226.945 437.783 226.732 436.9 226.405C436.827 227.148 436.739 227.652 436.733 228.161C436.692 232.509 436.744 236.856 436.619 241.204C436.463 246.528 436.167 251.853 435.897 257.172C435.866 257.774 435.601 258.372 435.388 259.182C434.37 258.06 434.505 256.969 434.505 255.941C434.515 249.676 434.552 243.412 434.598 237.147C434.604 236.56 434.635 235.947 434.796 235.386C435.658 232.322 434.993 229.231 434.952 226.151C434.936 225.023 434.51 224.888 432.9 224.971C432.827 225.454 432.692 225.964 432.676 226.478C432.406 233.979 432.141 241.479 431.908 248.98C431.84 251.219 431.887 253.463 431.856 255.707C431.845 256.325 431.741 256.938 431.664 257.728C430.007 256.642 431.014 254.928 430.038 253.64C428.485 253.489 426.796 253.276 425.098 253.182C423.332 253.084 422.978 253.546 423.316 255.276C423.378 255.598 423.477 255.915 423.591 256.221C424.199 257.883 424.864 259.53 425.42 261.213C426.204 263.587 426.89 265.997 427.659 268.376C428.033 269.529 428.516 270.651 429.025 271.986C429.851 271.025 430.458 270.319 431.061 269.612C431.222 269.664 431.388 269.716 431.549 269.773C431.57 270.303 431.731 270.88 431.591 271.363C431.222 272.625 430.786 273.877 430.24 275.072C430.033 275.529 429.446 275.82 429.03 276.183C428.713 275.804 428.381 275.43 428.085 275.035C427.97 274.885 427.939 274.672 427.877 274.485C426.859 271.29 425.924 268.07 424.791 264.917C423.919 262.475 423.529 259.8 421.597 257.805C421.269 257.468 421.192 256.839 421.114 256.325C420.937 255.219 420.797 254.107 420.708 252.99C420.584 251.375 420.132 249.905 419.212 248.554C418.854 248.03 418.475 247.365 418.496 246.772C418.631 242.56 417.893 238.368 418.366 234.15C418.594 232.124 418.641 230.078 418.698 228.036C418.771 225.397 418.667 222.753 418.838 220.125C418.968 218.141 418.303 216.899 416.48 216.073C412.283 214.167 408.138 212.146 403.972 210.172C403.795 210.089 403.614 210.001 403.427 209.939C402.144 209.513 401.697 209.783 401.598 211.087C401.551 211.679 401.588 212.271 401.603 212.868C401.66 215.372 401.749 217.876 401.785 220.379C401.837 224.203 401.785 228.031 401.905 231.854C402.102 237.978 402.434 244.103 402.647 250.232C402.772 253.837 402.294 254.351 398.803 254.845C393.978 255.53 389.215 256.481 384.623 258.164C383.589 258.543 382.55 258.922 381.563 259.4C380.971 259.686 380.431 260.174 380.618 260.964C380.82 261.81 381.537 262.039 382.28 262.091C382.727 262.122 383.205 262.055 383.636 261.919C385.552 261.301 387.448 260.616 389.37 260.008C390.633 259.608 391.926 259.187 393.51 260.081C392.658 260.548 392.077 261.057 391.417 261.192C388.913 261.712 387.786 263.618 386.737 265.618C386.15 266.74 386.545 267.358 387.848 267.394C388.57 267.415 389.298 267.322 390.02 267.275C393.609 267.036 397.084 267.851 400.585 268.444C402.601 268.786 403.156 269.379 403.172 271.425C403.24 278.812 403.245 286.198 403.39 293.58C403.484 298.244 403.385 302.904 403.837 307.584C404.434 313.744 404.393 319.962 404.715 326.149C404.943 330.559 405.338 334.959 405.603 339.363C405.899 344.298 406.138 349.233 406.377 354.173C406.403 354.734 406.465 355.383 405.525 355.757C402.803 351.809 400.138 347.784 397.297 343.893C394.414 339.94 391.464 336.029 388.16 332.33C387.396 333.426 387.345 333.457 387.859 334.33C389.874 337.722 391.9 341.109 393.967 344.47C396.274 348.22 398.663 351.929 400.959 355.684C402.845 358.765 404.658 361.897 406.496 365.008C406.891 365.678 407.385 366.343 406.896 367.148C406.107 367.507 405.738 366.987 405.4 366.504C404.076 364.614 402.673 362.77 401.479 360.806C399.172 357.019 396.487 353.555 393.297 350.474C392.949 350.137 392.503 349.898 391.962 349.513C391.407 350.641 391.37 351.57 391.739 352.537C392.066 353.399 392.43 354.246 392.71 355.118C393.619 357.934 394.549 360.744 395.365 363.59C395.656 364.603 395.947 365.71 395.282 366.91C394.523 366.078 393.864 365.362 393.209 364.645C392.986 365.117 393.001 365.377 393.105 365.595C395.089 369.746 397.084 373.891 399.068 378.046C399.349 378.639 399.785 379.272 399.754 379.87C399.655 381.849 399.879 383.864 398.975 385.776C398.424 386.934 398.855 387.765 400.144 387.906C401.624 388.067 402.268 389.043 403.027 390.04C402.897 390.523 402.741 390.955 402.668 391.407C402.362 393.313 402.964 394.087 404.917 394.279C405.572 394.341 406.237 394.279 406.896 394.31C408.237 394.378 408.642 394.715 408.907 396.009C409 396.456 409.016 396.923 409.031 397.385C409.26 403.312 409.462 409.244 409.717 415.171C410.008 421.955 410.32 428.734 410.668 435.518C410.73 436.764 410.777 438.058 411.41 439.315C412.299 438.603 412.283 437.757 412.366 436.9C412.631 434.094 412.948 431.295 413.254 428.49C413.28 428.235 413.436 427.991 413.478 427.731C413.634 426.765 413.878 425.794 413.888 424.822C413.976 415.789 414.023 406.751 414.086 397.718C414.091 396.928 414.106 396.133 414.169 395.349C414.267 394.139 414.802 393.167 416.018 392.799C417.181 392.445 417.67 391.609 418.002 390.549C418.174 390.004 418.387 389.365 418.792 389.027C419.399 388.529 419.441 387.963 419.498 387.293C419.633 385.719 418.922 384.404 418.496 382.966C418.033 381.412 417.384 380.389 415.956 379.761C415.067 379.371 414.709 378.644 414.75 377.688C414.787 376.831 414.766 375.974 414.802 375.117C415.036 369.782 415.285 364.447 415.514 359.113C415.701 354.765 415.883 350.417 416.049 346.069C416.407 336.849 416.844 327.629 417.093 318.409C417.358 308.721 417.441 299.023 417.607 289.336C417.613 288.941 417.618 288.541 417.659 288.151C417.69 287.824 417.737 287.492 417.852 287.185C418.106 286.51 418.584 286.24 419.244 286.655C420.734 287.601 422.381 288.396 423.643 289.595C424.869 290.759 426.152 291.19 427.726 291.143C428.188 291.128 428.651 291.097 429.108 291.112C430.879 291.185 431.487 291.772 431.565 293.502C431.591 294.094 431.539 294.686 431.523 295.283C431.43 298.514 431.367 301.74 431.243 304.971C430.983 311.615 431.612 318.248 431.253 324.907C430.895 331.613 431.155 338.356 431.155 345.083C431.155 345.711 431.232 346.34 431.29 347.202C431.98 346.828 432.464 346.641 432.863 346.34C438.416 342.22 443.964 338.086 449.506 333.951C449.823 333.717 450.145 333.478 450.416 333.198C450.68 332.917 451.023 332.6 451.075 332.257C451.376 330.377 451.75 328.491 451.828 326.601C452 322.383 451.725 318.134 452.15 313.952C452.805 307.527 452.514 301.07 453.366 294.644C453.989 289.907 453.496 285.05 454.15 280.256C454.597 277.004 454.493 273.68 454.691 270.386C455.023 264.802 455.407 259.218 455.755 253.634C455.885 251.531 455.948 249.422 456.072 247.313C456.259 244.16 456.41 241.001 456.706 237.859C456.846 236.171 456.129 235.339 454.701 234.675ZM420.231 276.126C420.054 276.568 419.524 276.864 419.327 277.056C418.168 276.994 417.737 276.459 417.81 275.555C417.857 274.994 418.023 274.49 418.729 274.552C419.399 274.615 420.433 275.622 420.231 276.126Z" fill="#E73D66"/>
<path d="M374.14 493.41C370.551 487.727 367.159 481.92 363.72 476.144C363.388 475.588 363.17 474.944 363.004 474.31C360.687 465.661 358.396 457.002 356.074 448.359C355.923 447.803 355.607 447.283 355.326 446.769C354.324 444.925 353.3 443.097 352.282 441.258C352.126 440.977 352.007 440.655 351.778 440.447C350.454 439.227 350.069 437.694 350.204 435.975C350.521 432.032 350.802 428.09 351.176 424.152C351.638 419.306 352.209 414.465 352.672 409.618C353.212 403.988 353.685 398.352 354.189 392.716C354.334 391.074 354.589 389.438 354.599 387.796C354.63 383.049 354.573 378.301 354.516 373.553C354.505 372.634 354.474 371.678 354.23 370.805C353.648 368.733 353.783 366.634 353.737 364.525C353.685 362.162 353.461 359.798 353.295 357.435C353.186 355.934 352.999 354.433 352.926 352.931C352.786 350.106 352.739 347.275 352.589 344.444C352.511 343.005 352.246 341.576 352.158 340.137C351.976 337.047 351.898 333.951 351.706 330.86C351.363 325.411 350.911 319.962 350.604 314.508C350.423 311.287 350.423 308.051 350.365 304.826C350.225 297.377 350.101 289.923 349.965 282.474C349.82 274.428 349.68 266.387 349.519 258.346C349.41 252.881 349.155 247.453 347.893 242.066C346.786 237.345 346.241 232.488 345.451 227.693C345.311 226.852 345.202 226 345.077 225.153C344.828 223.481 344.579 221.813 344.335 220.141C344.163 220.135 343.987 220.135 343.815 220.13C343.581 220.811 343.332 221.486 343.114 222.172C342.018 225.626 340.631 229.018 339.919 232.55C338.938 237.402 339.068 242.357 339.753 247.282C340.226 250.673 340.652 254.076 340.943 257.489C341.182 260.304 341.395 263.145 341.27 265.961C340.88 274.516 340.127 283.061 339.873 291.621C339.525 303.548 339.551 315.479 339.332 327.406C339.078 341.384 339.27 355.336 340.538 369.273C341.031 374.717 341.021 380.202 341.374 385.662C341.748 391.448 342.278 397.219 342.745 403.001C343.072 407.006 343.41 411.01 343.743 415.015C343.831 416.096 343.618 417.046 343.052 418.023C342.662 418.693 342.485 419.68 342.636 420.438C343.052 422.553 343.696 424.62 344.246 426.708C344.366 427.155 344.496 427.596 344.574 428.048C345.238 431.928 345.898 435.814 346.542 439.699C346.833 441.455 346.922 443.258 347.373 444.961C348.22 448.125 349.347 451.215 350.204 454.379C350.802 456.587 351.072 458.805 348.838 460.482C348.407 460.81 348.184 461.589 348.121 462.191C348.038 462.96 348.173 463.765 348.282 464.544C348.745 467.936 349.43 471.261 350.724 474.461C352.1 477.863 353.15 481.406 354.651 484.751C356.77 489.483 359.165 494.101 362.146 498.365C363.113 499.747 364.235 501.067 365.486 502.194C368.717 505.103 373.455 503.762 375.901 501.077C376.561 500.35 376.68 499.695 376.462 498.76C376 496.833 375.221 495.119 374.14 493.41ZM352.739 450.125C351.83 449.127 352.178 447.964 352.329 446.863C352.355 446.665 352.869 446.327 353.02 446.39C353.399 446.546 353.825 446.831 353.996 447.185C354.448 448.099 353.986 449.112 352.739 450.125ZM358.131 461.049C358.058 461.189 357.596 461.298 357.471 461.204C356.573 460.545 356.858 459.781 357.342 458.882C358.64 459.412 358.578 460.202 358.131 461.049Z" fill="#E73D66"/>
<path d="M395.604 165.49C395.682 169.245 395.89 173.001 396.056 176.751C396.425 185.114 396.851 193.472 397.131 201.841C397.193 203.721 397.796 204.957 399.5 205.757C404.029 207.887 408.528 210.074 413.047 212.224C413.436 212.411 413.883 212.484 414.538 212.687C414.797 210.739 415.161 208.947 415.254 207.139C415.519 202.074 415.701 196.999 415.873 191.93C416.153 183.691 416.47 175.458 416.636 167.22C417.005 149.345 416.698 131.482 415.556 113.639C415.192 107.998 414.491 102.362 413.644 96.7673C412.751 90.8456 411.457 84.9915 410.413 79.0906C408.257 66.8889 406.839 54.5936 405.639 42.2672C405.027 35.9767 404.258 29.6966 403.541 23.4166C403.458 22.6738 403.24 21.9465 403.084 21.2141C402.907 21.2245 402.731 21.2349 402.554 21.2453C402.481 21.7751 402.336 22.3049 402.341 22.8348C402.45 32.0082 401.832 41.1452 401.167 50.2874C400.632 57.6739 399.541 64.9306 397.287 72.0106C395.661 77.1167 394.752 82.3839 394.768 87.7601C394.825 103.385 394.897 119.015 395.053 134.64C395.157 144.92 395.386 155.205 395.604 165.49Z" fill="#E73D66"/>
<path d="M187.281 388.492C185.317 389.563 183.302 390.539 181.302 391.547C179.598 392.409 177.889 393.256 176.185 394.123C174.731 394.866 173.941 395.993 173.806 397.702C173.37 403.281 173.671 408.875 173.173 414.47C172.565 421.28 172.643 428.152 172.248 434.988C171.832 442.151 172.108 449.33 171.495 456.498C170.913 463.308 171.152 470.17 170.659 477.006C170.149 484.029 170.113 491.083 169.848 498.126C169.609 504.443 169.256 510.754 169.09 517.076C168.924 523.268 168.918 529.464 168.872 535.661C168.861 536.716 169.007 537.765 169.038 538.82C169.064 539.703 169.433 540.336 170.243 540.69C171.318 541.157 172.399 541.614 173.489 542.045C176.03 543.048 178.637 543.469 181.645 542.944C181.775 541.718 181.91 540.617 181.998 539.505C182.112 538.061 182.169 536.612 182.273 535.168C182.58 530.971 182.917 526.774 183.198 522.571C183.52 517.782 183.8 512.988 184.081 508.193C184.372 503.269 184.652 498.345 184.912 493.42C185.167 488.688 185.385 483.951 185.629 479.219C185.909 473.827 186.242 468.44 186.481 463.048C186.782 456.212 187 449.371 187.265 442.535C187.291 441.813 187.39 441.091 187.431 440.369C187.738 434.78 188.044 429.191 188.335 423.602C188.387 422.615 188.346 421.623 188.408 420.636C188.631 417.031 188.922 413.426 189.109 409.816C189.229 407.515 189.161 405.203 189.27 402.897C189.421 399.811 189.681 396.726 189.852 393.64C189.92 392.456 189.888 391.266 189.883 390.082C189.873 387.604 189.385 387.345 187.281 388.492Z" fill="#E73D66"/>
<path d="M445.746 338.792C440.79 342.714 435.84 346.641 430.848 350.516C429.877 351.274 429.435 352.105 429.435 353.342C429.435 362.764 429.383 372.187 429.357 381.61C429.342 387.277 429.404 392.944 429.31 398.611C429.196 405.395 428.962 412.179 428.755 418.958C428.729 419.846 428.988 420.459 429.762 420.927C430.775 421.54 431.757 422.21 432.734 422.885C436.474 425.461 440.203 428.053 443.948 430.625C444.296 430.864 444.743 430.968 445.263 431.186C445.418 430.677 445.595 430.323 445.621 429.96C445.87 426.677 446.182 423.399 446.302 420.116C446.644 410.969 446.889 401.816 447.216 392.664C447.398 387.526 447.668 382.394 447.907 377.262C448.083 373.444 448.333 369.632 448.452 365.819C448.566 362.203 448.54 358.583 448.592 354.968C448.665 349.825 448.748 344.688 448.826 339.545C448.842 338.641 448.826 337.738 448.826 336.834C448.644 336.771 448.457 336.704 448.275 336.642C447.424 337.358 446.608 338.106 445.746 338.792Z" fill="#E73D66"/>
<path d="M224.634 243.806C227.262 240.944 229.896 238.082 232.561 235.251C234.628 233.054 236.862 230.997 238.799 228.691C240.466 226.706 241.22 225.501 239.506 222.836C239.147 222.281 238.804 221.72 238.467 221.153C237.76 219.954 237.646 218.806 238.742 217.746C239.464 217.045 239.667 216.177 239.506 215.206C239.287 213.876 239.272 212.583 240.212 211.497C240.067 211.175 240.02 210.879 239.843 210.713C238.768 209.658 237.703 208.583 236.565 207.601C234.446 205.778 234.327 204.962 236.041 202.848C237.251 201.352 237.386 200.812 236.165 199.399C234.986 198.033 234.898 196.859 235.823 195.327C236.68 193.909 236.493 193.129 235.314 191.976C234.42 191.109 233.48 190.236 232.42 189.608C230.441 188.434 229.189 186.813 228.473 184.631C228.026 183.276 227.273 182.008 226.587 180.741C226.28 180.18 225.86 179.53 225.055 179.769C224.27 180.003 224.26 180.72 224.26 181.395C224.26 182.055 224.317 182.725 224.218 183.369C224.068 184.392 223.314 184.849 222 184.849C220.738 184.844 220.151 184.486 220.073 183.369C219.99 182.138 219.876 180.819 220.224 179.676C220.608 178.408 220.333 177.271 220.4 175.764C219.959 176.144 219.72 176.263 219.606 176.455C217.814 179.375 216.001 182.278 214.292 185.244C213.85 186.013 213.559 186.969 213.513 187.852C213.19 194.023 212.92 200.194 212.692 206.365C212.515 211.227 212.427 216.094 212.297 220.961C212.292 221.091 212.281 221.226 212.271 221.356C212.042 226.748 211.84 232.14 211.57 237.526C211.378 241.339 211.004 245.141 210.879 248.959C210.791 251.754 210.983 254.564 211.061 257.8C211.871 257.047 212.349 256.626 212.79 256.18C215.668 253.281 218.536 250.362 221.424 247.474C221.938 246.959 222.327 246.227 222.92 246.014C223.72 245.079 223.953 244.549 224.634 243.806ZM225.366 182.559C225.782 182.886 226.197 183.208 226.8 183.676C226.296 184.127 225.99 184.403 225.683 184.673C225.371 184.32 224.899 184.008 224.8 183.608C224.727 183.322 225.158 182.912 225.366 182.559Z" fill="#E73D66"/>
<path d="M118.693 115.758C120.044 115.592 120.511 115.924 120.714 117.265C120.792 117.784 120.781 118.314 120.781 118.844C120.786 120.823 120.766 122.802 120.786 124.776C120.792 125.384 120.636 126.106 121.669 126.599C122.194 124.272 122.771 122.095 123.093 119.841C123.233 118.875 123.425 117.893 123.789 116.994C124.111 116.189 125.446 115.582 126.085 115.769C126.963 116.033 126.937 116.849 127.098 117.535C127.17 117.852 127.191 118.189 127.207 118.516C127.352 121.005 127.56 123.493 127.622 125.986C127.789 132.375 127.877 138.77 128.033 145.159C128.079 146.982 128.256 148.8 128.396 151.008C129.295 150.566 129.794 150.39 130.209 150.099C132.474 148.509 134.718 146.888 136.972 145.278C139.492 143.476 142.027 141.699 144.525 139.866C146.244 138.603 146.556 137.528 145.938 135.601C145.735 134.978 145.533 134.349 145.393 133.705C143.969 127.191 142.795 120.651 143.237 113.935C143.356 112.122 143.107 110.403 142.177 108.798C141.923 108.356 141.793 107.806 141.73 107.291C141.543 105.655 141.393 104.014 141.268 102.372C140.925 97.9153 140.515 93.5364 138.333 89.4224C137.196 87.2719 136.91 84.6591 136.313 82.2385C136.178 81.6878 136.266 81.0489 136.391 80.4827C136.661 79.2361 136.063 78.2283 135.544 77.1167C134.993 78.6595 134.385 80.2126 134.344 81.7865C134.256 84.8149 133.295 87.5939 132.38 90.3989C131.809 92.1443 130.661 92.7416 128.869 92.3261C128.365 92.2118 127.866 92.0144 127.409 91.7703C126.729 91.4066 126.111 91.4482 125.617 92.0092C124.9 92.8299 124.012 92.9857 122.978 93.0741C121.431 93.2039 120.096 93.6974 119.405 95.3908C118.896 96.6374 117.992 97.7127 117.317 98.897C117.098 99.2762 116.963 99.7489 116.932 100.185C116.833 101.546 117.015 102.969 116.693 104.268C115.93 107.328 116.034 110.408 116.096 113.493C116.122 115.566 116.678 116.013 118.693 115.758Z" fill="#E73D66"/>
<path d="M207.009 332.735C207.565 326.128 207.129 319.438 207.17 312.783C207.175 311.682 207.451 310.586 207.601 309.485C207.674 308.966 207.814 308.451 207.83 307.937C207.929 304.841 207.955 301.74 208.09 298.649C208.381 292.146 207.695 285.637 208.536 279.123C209.014 275.42 208.78 271.623 208.91 267.867C208.978 265.898 209.154 263.935 209.258 261.966C209.269 261.821 209.113 261.665 209.014 261.478C207.451 262.917 206.043 264.408 204.433 265.639C202.983 266.745 202.371 268.018 202.319 269.831C202.225 273.186 201.955 276.537 201.695 279.887C201.425 283.367 201.041 286.837 200.771 290.312C200.438 294.593 199.779 298.753 198.314 302.852C196.002 309.319 194.433 315.952 194.813 322.954C195.01 326.616 195.675 330.117 196.787 333.577C197.031 334.34 197.467 334.756 198.257 334.985C199.898 335.452 200.708 336.558 200.708 338.33C200.714 341.493 200.838 344.657 200.854 347.82C200.854 348.521 200.698 349.274 200.417 349.913C199.955 350.968 199.893 351.856 200.589 352.869C201.004 353.477 201.176 354.318 201.259 355.082C201.415 356.588 201.498 358.105 201.493 359.622C201.487 361.331 201.545 362.993 202.755 364.364L202.693 364.338C202.687 364.39 202.703 364.421 202.708 364.468C202.719 364.442 202.734 364.416 202.745 364.39C202.994 364.64 203.243 364.889 203.498 365.143C203.498 365.159 203.498 365.175 203.498 365.19C203.519 365.19 203.534 365.195 203.555 365.201L203.503 365.128C205.56 364.905 205.576 364.91 205.872 362.884C206.017 361.907 206.157 360.926 206.178 359.944C206.261 355.861 206.121 351.763 206.407 347.69C206.744 342.703 206.588 337.727 207.009 332.735Z" fill="#E73D66"/>
<path d="M252.336 157.199C253.25 156.831 253.868 156.644 254.419 156.348C258.242 154.291 262.044 152.192 265.867 150.135C268.709 148.608 271.581 147.138 274.428 145.616C275.924 144.816 276.023 144.546 275.441 142.956C273.779 138.416 271.722 134.079 268.704 130.266C268.018 129.404 267.213 128.542 266.278 127.996C264.392 126.895 263.52 125.306 263.156 123.233C262.959 122.09 262.522 120.963 262.05 119.898C261.639 118.974 260.793 118.6 259.759 118.703C258.211 118.859 257.006 119.529 256.294 120.963C256.118 121.316 256.019 121.706 255.842 122.059C255.499 122.734 255.001 122.864 254.409 122.366C253.905 121.94 253.463 121.441 252.944 121.041C252.518 120.714 252.009 120.496 251.188 120.023C251.006 121.301 250.757 122.179 250.772 123.056C250.824 125.887 250.991 128.718 251.084 131.549C251.23 135.762 251.328 139.98 251.505 144.193C251.619 146.888 251.827 149.584 251.998 152.28C252.097 153.782 252.206 155.278 252.336 157.199Z" fill="#E73D66"/>
<path d="M292.66 376.779C293.18 378.872 293.232 381.07 294.447 382.976C294.857 383.62 295.045 384.441 295.211 385.204C295.673 387.365 296.977 389.131 297.891 391.079C298.052 391.417 298.385 391.672 298.644 391.957C299.247 392.627 299.932 393.235 300.442 393.973C301.403 395.354 302.644 396.248 304.322 396.367C306.161 396.497 307.963 396.653 309.74 397.266C311.319 397.811 312.295 397.048 312.347 395.36C312.389 394.009 312.7 392.788 313.313 391.583C314.534 389.199 315.614 386.742 316.846 384.363C317.64 382.825 317.334 381.589 316.181 380.436C313.703 377.974 311.35 375.377 308.727 373.081C303.273 368.297 298.047 363.289 293.081 358.001C292.665 357.56 292.13 357.238 291.653 356.858C291.497 356.967 291.341 357.071 291.185 357.18C291.185 357.954 291.154 358.728 291.19 359.502C291.247 360.754 291.388 361.996 291.429 363.248C291.606 367.782 291.559 372.317 292.66 376.779Z" fill="#E73D66"/>
<path d="M208.022 202.573C207.762 203.705 207.18 204.49 206.043 204.801C204.059 205.347 203.248 206.832 202.853 208.687C201.96 212.879 202.277 216.936 204.22 220.805C205.071 222.509 205.233 224.26 204.999 226.171C204.334 231.527 203.664 236.893 203.321 242.274C202.879 249.24 202.755 256.232 202.516 263.208C202.5 263.727 202.692 264.247 202.833 265.005C204.677 263.28 206.256 261.81 207.814 260.335C208.1 260.065 208.313 259.722 208.588 259.437C209.336 258.673 209.487 257.748 209.497 256.715C209.528 254.284 209.648 251.858 209.726 249.432C209.913 243.583 210.12 237.739 210.276 231.89C210.401 227.278 210.146 222.634 210.63 218.063C211.18 212.863 211.248 207.679 211.284 202.479C211.294 200.698 211.03 198.854 211.404 197.155C212.115 193.929 211.674 190.724 211.715 187.509C211.72 187.036 211.533 186.558 211.414 185.971C209.824 186.522 208.183 186.361 207.066 188.075C207.689 188.766 208.297 189.514 208.978 190.179C210.058 191.239 210.484 192.413 210.095 193.929C209.357 196.802 208.682 199.685 208.022 202.573Z" fill="#E73D66"/>
<path d="M172.586 92.0819C177.884 96.1959 183.177 100.326 188.449 104.471C189.743 105.489 190.948 106.621 192.252 107.629C193.447 108.554 194.335 108.465 195.368 107.374C196.454 106.221 197.472 105.011 198.527 103.832C201.067 100.98 201.093 100.897 198.921 97.7802C198.173 96.705 197.753 95.5882 197.831 94.2792C197.893 93.2247 197.914 92.1702 197.986 91.1209C198.122 89.0795 197.259 87.5835 195.602 86.4408C194.054 85.3707 192.34 84.7214 190.517 84.3734C188.065 83.9059 188.018 83.8903 188.008 81.3398C188.003 79.7243 188.008 78.1141 188.008 76.4986C187.873 76.5142 187.738 76.535 187.603 76.5505C186.896 79.3503 186.07 82.1294 185.525 84.9603C185.089 87.2251 183.972 87.2355 182.289 86.8927C180.564 86.5446 178.788 86.3524 177.027 86.3213C175.183 86.2901 173.583 87.0901 172.29 88.4302C170.778 89.9886 170.866 90.747 172.586 92.0819Z" fill="#E73D66"/>
<path d="M171.967 391.672C172.227 392.851 172.57 393.131 173.723 392.83C174.165 392.716 174.596 392.534 175.016 392.347C178.128 390.939 181.213 389.459 184.356 388.124C186.205 387.334 186.74 386.072 186.803 384.108C187.031 377.054 186.19 370.058 185.935 363.035C185.92 362.562 185.712 361.923 185.364 361.679C184.73 361.232 184.148 361.746 183.608 362.146C180.206 364.624 176.798 367.102 173.37 369.548C172.045 370.494 171.323 371.657 171.38 373.361C171.469 375.792 171.401 378.234 171.401 380.67C171.417 380.67 171.427 380.67 171.443 380.67C171.443 381.132 171.437 381.594 171.443 382.051C171.495 385.256 171.261 388.487 171.967 391.672Z" fill="#E73D66"/>
<path d="M309.771 506.796C309.584 506.043 309.246 505.284 309.246 504.531C309.241 503.466 308.68 503.092 307.812 503.061C306.763 503.025 305.704 503.051 304.665 503.176C300.758 503.633 296.857 504.152 292.951 504.614C290.479 504.91 288.001 505.17 285.523 505.42C281.477 505.825 277.425 506.188 273.384 506.604C271.171 506.832 268.953 507.03 266.828 507.778C265.769 508.152 265.504 508.806 266.215 509.669C266.672 510.224 267.156 510.889 267.774 511.154C269.426 511.866 270.392 513.009 270.683 514.769C270.693 514.842 270.901 514.884 271.218 515.034C271.597 514.614 272.054 514.177 272.428 513.684C273.108 512.78 274.002 512.287 275.113 512.255C277.352 512.198 279.586 512.167 281.825 512.151C283.092 512.141 283.928 512.775 284.354 513.97C284.531 514.463 284.671 514.982 284.936 515.429C285.684 516.723 286.572 517.045 288.489 516.655C288.203 515.715 287.939 514.92 287.715 514.11C287.398 512.967 287.616 512.385 288.681 511.881C289.196 511.637 289.814 511.487 290.38 511.497C296.364 511.58 302.322 511.248 308.28 510.687C310.02 510.526 310.394 510.193 310.202 508.51C310.119 507.934 309.911 507.367 309.771 506.796Z" fill="#E73D66"/>
<path d="M235.688 427.425C230.914 428.547 226.151 429.716 221.372 430.822C218.64 431.456 215.886 432.017 213.144 432.609C212.328 432.786 211.809 433.601 212.172 434.391C212.635 435.398 213.118 436.463 213.85 437.263C216.66 440.307 219.559 443.268 222.463 446.218C223.008 446.774 223.694 447.21 224.369 447.61C226.036 448.592 227.413 448.322 228.712 446.888C229.101 446.457 229.621 446.146 230.015 445.72C230.81 444.857 231.833 444.073 232.265 443.045C233.278 440.639 234.005 438.115 234.841 435.632C235.215 434.515 235.496 433.414 236.888 432.988C237.386 432.837 237.895 432.1 238.041 431.534C238.399 430.142 238.446 428.703 238.03 427.03C237.179 427.176 236.42 427.253 235.688 427.425ZM223.299 438.827C223.044 439.523 222.665 440.271 221.819 440.073C221.393 439.975 220.946 439.377 220.774 438.91C220.593 438.421 220.733 437.814 220.733 437.009C221.528 437.175 222.104 437.201 222.603 437.419C223.164 437.658 223.554 438.136 223.299 438.827Z" fill="#E73D66"/>
<path d="M270.958 478.465C271.15 478.507 271.337 478.601 271.509 478.575C277.139 477.655 282.786 476.814 288.385 475.738C290.188 475.39 292.063 474.751 293.107 472.918C294.307 470.814 295.517 468.721 296.733 466.627C297.813 464.763 297.091 463.059 296.608 461.506C295.85 462.093 295.247 462.737 294.51 463.095C292.297 464.16 290.764 465.973 289.201 467.734C287.778 469.339 286.105 470.492 284.173 471.406C281.84 472.513 279.051 472.591 277.119 474.596C276.719 475.011 276.204 475.323 275.732 475.676C274.74 476.419 273.737 477.12 272.397 476.757C272.662 477.91 270.911 477.437 270.958 478.465Z" fill="#E73D66"/>
<path d="M272.386 476.679L272.324 476.741C272.35 476.751 272.376 476.751 272.402 476.757C272.397 476.731 272.391 476.71 272.386 476.679Z" fill="#E73D66"/>
<path d="M202.703 364.463C202.474 364.951 202.131 365.434 202.111 365.928C202.064 367.304 202.111 368.696 202.251 370.068C202.381 371.356 202.661 372.597 203.103 373.86C203.498 374.992 202.916 376.431 202.931 377.735C202.947 379.511 203.17 381.283 203.217 383.059C203.279 385.656 202.957 386.041 200.464 386.711C199.394 386.996 199.098 387.49 199.576 388.612C200.007 389.63 200.578 390.596 201.181 391.526C201.576 392.134 201.747 392.596 201.358 393.313C199.675 396.398 200.983 400.19 204.459 401.977C204.827 400.05 204.885 398.18 204.905 396.289C204.926 393.921 205.072 391.557 205.217 389.189C205.477 384.929 205.96 380.67 205.03 376.426C204.962 376.125 204.968 375.745 205.092 375.475C206.116 373.2 205.612 370.795 205.736 368.447C205.778 367.632 205.44 367.102 204.661 366.759C204.017 366.473 203.42 366.042 203.503 365.185C203.009 365.159 202.724 364.946 202.703 364.463Z" fill="#E73D66"/>
<path d="M411.405 451.906C411.063 453.974 410.959 456.098 410.418 458.108C409.618 461.074 409.437 464.066 409.499 467.09C409.556 469.983 409.707 472.876 409.863 475.764C409.998 478.325 410.18 480.881 410.372 483.437C410.569 486.06 410.891 488.683 409.972 491.249C409.925 491.384 410.06 491.587 410.107 491.758C410.242 491.768 410.377 491.779 410.517 491.789C411.078 489.919 411.463 488.002 411.478 486.039C411.561 477.099 411.379 468.155 412.06 459.225C412.153 457.979 412.216 456.732 412.237 455.48C412.268 453.719 412.242 451.963 412.242 450.203C411.748 450.727 411.504 451.304 411.405 451.906Z" fill="#E73D66"/>
<path d="M302.919 516.603C301.751 517.834 300.577 519.029 299.449 520.27C298.26 521.579 297.086 522.909 295.954 524.275C294.915 525.532 293.465 526.478 292.728 528.223C298.462 527.314 301.387 523.543 303.537 518.915C303.885 518.172 303.839 517.377 302.919 516.603Z" fill="#E73D66"/>
<path d="M127.467 446.224C129.466 447.917 131.487 449.579 133.513 451.236C133.741 451.423 134.069 451.501 134.412 451.652C135.279 450.608 134.635 449.829 134.069 449.179C132.095 446.909 130.053 444.686 128.017 442.468C127.768 442.198 127.378 442.052 126.937 441.772C125.825 443.569 126.022 444.998 127.467 446.224Z" fill="#E73D66"/>
<path d="M132.921 452.758C131.903 452.041 130.921 451.267 129.944 450.499C128.973 449.735 128.028 448.94 127.067 448.161C127.046 449.751 127.628 450.935 128.729 451.87C129.274 452.332 129.918 452.831 130.178 453.449C130.869 455.101 132.323 456.057 133.425 457.329C133.684 457.631 134.136 457.755 134.542 457.984C135.248 455.371 134.812 454.093 132.921 452.758Z" fill="#E73D66"/>
<path d="M130.563 480.304C129.539 479.078 128.526 477.842 127.368 476.445C126.646 478.091 126.724 479.385 127.794 480.471C129.082 481.774 130.448 482.995 131.809 484.221C132.121 484.501 132.552 484.642 132.973 484.87C133.58 483.894 133.17 483.302 132.594 482.683C131.887 481.92 131.233 481.104 130.563 480.304Z" fill="#E73D66"/>
<path d="M126.796 461.719C126.209 462.913 126.49 463.88 127.254 464.544C129.269 466.305 131.378 467.957 133.461 469.64C133.523 469.692 133.695 469.614 133.814 469.593C133.341 468.258 128.552 462.825 126.796 461.719Z" fill="#E73D66"/>
<path d="M130.443 472.809C129.357 471.765 128.822 470.154 127.285 469.422C126.895 470.944 126.848 471.334 127.659 472.087C129.368 473.692 131.186 475.183 132.957 476.72C133.082 476.595 133.206 476.471 133.326 476.346C133.071 474.627 131.539 473.858 130.443 472.809Z" fill="#E73D66"/>
<path d="M131.695 503.799C130.35 502.422 129.004 501.041 127.482 499.482C127.524 501.643 129.196 503.446 131.695 503.799Z" fill="#E73D66"/>
<path d="M218.79 25.7437V25.7852C220.296 24.7671 221.512 23.6087 222.426 22.3049C223.34 21.0011 223.797 19.635 223.797 18.2117C223.797 16.617 223.346 15.173 222.447 13.8796C221.548 12.5861 220.276 11.568 218.639 10.8096C216.998 10.0564 215.107 9.67725 212.957 9.67725C212.027 9.67725 210.578 9.73439 208.604 9.85386C206.048 10.0305 203.451 10.1136 200.812 10.1136H194.937L193.498 12.9446L198.329 14.2068V38.6726L194.236 41.8932V44.3294H200.854C202.131 44.3294 203.929 44.4021 206.251 44.5476C207.643 44.693 209.066 44.7657 210.515 44.7657C212.661 44.7657 214.91 44.2878 217.263 43.3269C219.616 42.3711 221.579 41.0829 223.164 39.4726C224.743 37.8623 225.538 36.1429 225.538 34.3145C225.538 32.4289 224.935 30.7251 223.73 29.198C222.53 27.6812 220.883 26.528 218.79 25.7437ZM215.44 20.5232C215.44 22.1491 215.071 23.3802 214.328 24.2217C213.59 25.0632 212.505 25.4839 211.087 25.4839H206.209V14.2951C207.253 13.8016 208.37 13.5575 209.56 13.5575C211.502 13.5575 212.967 14.1964 213.954 15.4742C214.946 16.7469 215.44 18.4299 215.44 20.5232ZM211.783 40.4595H211.741C209.71 40.4595 207.866 40.1427 206.214 39.5037V28.6629H209.871H210.744C212.889 28.7772 214.51 29.4681 215.595 30.7303C216.686 31.9926 217.227 33.6132 217.227 35.5819C217.227 37.0935 216.738 38.2831 215.767 39.1505C214.796 40.0232 213.466 40.4595 211.783 40.4595Z" fill="#E73D66"/>
<path d="M259.712 45.1605V32.3198L257.317 31.3173L250.57 41.0673H240.778V15.8223L244.913 12.5965V10.1603H229.501L228.067 12.9913L232.898 14.2536V38.7194L228.805 41.9399V44.3761H256.58L259.712 45.1605Z" fill="#E73D66"/>
<path d="M283.83 9.28766C281.014 9.28766 278.038 10.124 274.906 11.7914C271.773 13.4588 269.15 15.7392 267.046 18.6273C264.943 21.5154 263.888 24.658 263.888 28.05C263.888 31.3589 264.589 34.3197 265.997 36.9325C267.405 39.5453 269.379 41.5815 271.919 43.0464C274.459 44.5112 277.399 45.2436 280.734 45.2436C283.549 45.2436 286.515 44.4073 289.637 42.7399C292.759 41.0725 295.377 38.8025 297.496 35.9248C299.616 33.0522 300.675 29.9148 300.675 26.5228C300.675 23.214 299.979 20.2531 298.587 17.6403C297.195 15.0275 295.221 12.9809 292.665 11.5005C290.115 10.0305 287.17 9.28766 283.83 9.28766ZM281.305 14.2951C283.684 14.2951 285.679 14.9392 287.289 16.2326C288.899 17.526 290.099 19.2454 290.878 21.3907C291.663 23.5412 292.052 25.9307 292.052 28.5746C292.052 30.7823 291.663 32.7665 290.878 34.5379C290.094 36.3092 289.029 37.7013 287.679 38.7194C286.328 39.7375 284.858 40.2414 283.258 40.2414C280.879 40.2414 278.885 39.5972 277.274 38.3038C275.664 37.0104 274.459 35.2859 273.659 33.125C272.859 30.9641 272.464 28.5746 272.464 25.9618C272.464 23.7542 272.854 21.7699 273.638 19.9986C274.423 18.2273 275.487 16.8352 276.838 15.8171C278.194 14.8042 279.679 14.2951 281.305 14.2951Z" fill="#E73D66"/>
<path d="M325.577 9.28766C322.762 9.28766 319.786 10.124 316.653 11.7914C313.521 13.4588 310.898 15.7392 308.794 18.6273C306.69 21.5154 305.636 24.658 305.636 28.05C305.636 31.3589 306.337 34.3197 307.745 36.9325C309.153 39.5453 311.126 41.5815 313.667 43.0464C316.207 44.5112 319.147 45.2436 322.482 45.2436C325.297 45.2436 328.263 44.4073 331.385 42.7399C334.507 41.0725 337.125 38.8025 339.244 35.9248C341.363 33.0522 342.423 29.9148 342.423 26.5228C342.423 23.214 341.727 20.2531 340.335 17.6403C338.943 15.0275 336.969 12.9809 334.413 11.5005C331.863 10.0305 328.917 9.28766 325.577 9.28766ZM323.053 14.2951C325.432 14.2951 327.427 14.9392 329.037 16.2326C330.647 17.526 331.847 19.2454 332.626 21.3907C333.411 23.5412 333.8 25.9307 333.8 28.5746C333.8 30.7823 333.411 32.7665 332.626 34.5379C331.842 36.3092 330.777 37.7013 329.427 38.7194C328.076 39.7375 326.606 40.2414 325.006 40.2414C322.627 40.2414 320.632 39.5972 319.022 38.3038C317.412 37.0104 316.207 35.2859 315.407 33.125C314.607 30.9641 314.212 28.5746 314.212 25.9618C314.212 23.7542 314.602 21.7699 315.386 19.9986C316.17 18.2273 317.235 16.8352 318.586 15.8171C319.941 14.8042 321.427 14.2951 323.053 14.2951Z" fill="#E73D66"/>
<path d="M365.891 9.724C365.019 9.724 363.601 9.78114 361.627 9.90061C359.071 10.0772 356.458 10.1603 353.788 10.1603H347.649L346.21 12.9913L351.041 14.4717V38.7194L346.947 41.9399V44.3761H353.825C354.983 44.3761 356.656 44.4489 358.832 44.5943C360.136 44.7397 361.461 44.8125 362.796 44.8125C365.58 44.8125 368.515 43.9917 371.59 42.3503C374.665 40.7089 377.241 38.4908 379.319 35.691C381.392 32.8912 382.431 29.8369 382.431 26.528C382.431 23.3075 381.74 20.4194 380.363 17.8637C378.987 15.308 377.039 13.3134 374.53 11.8797C372.021 10.446 369.143 9.724 365.891 9.724ZM364.063 40.766H364.021C362.105 40.766 360.406 40.4907 358.926 39.9401V14.6431C360.027 13.9471 361.232 13.5991 362.541 13.5991C365.034 13.5991 367.133 14.2743 368.832 15.6249C370.53 16.9754 371.792 18.7727 372.618 21.0219C373.444 23.2711 373.86 25.7904 373.86 28.5746C373.86 30.8966 373.429 32.9847 372.577 34.8443C371.72 36.7039 370.546 38.1532 369.05 39.1973C367.554 40.2414 365.891 40.766 364.063 40.766Z" fill="#E73D66"/>
<path d="M280.412 72.717C278.35 72.717 276.209 73.304 273.991 74.4779C271.773 75.6519 269.919 77.2362 268.439 79.2205C266.958 81.2099 266.22 83.35 266.22 85.6408C266.22 87.7601 266.693 89.6873 267.633 91.4326C268.579 93.1727 269.898 94.5441 271.597 95.5466C273.295 96.5491 275.202 97.0478 277.321 97.0478C279.383 97.0478 281.523 96.4608 283.741 95.2869C285.959 94.1129 287.814 92.5286 289.294 90.5392C290.775 88.5497 291.512 86.4096 291.512 84.1188C291.512 81.9995 291.04 80.0723 290.099 78.327C289.154 76.5869 287.845 75.2155 286.162 74.213C284.479 73.2209 282.562 72.717 280.412 72.717ZM277.887 77.766C279.658 77.766 281.035 78.5556 282.022 80.1399C283.009 81.7242 283.502 83.7292 283.502 86.1706C283.502 88.0874 283.191 89.547 282.567 90.5443C281.944 91.5469 281.035 92.0455 279.846 92.0455C278.043 92.0455 276.651 91.2404 275.664 89.6301C274.677 88.0198 274.184 85.994 274.184 83.5578C274.184 81.6411 274.495 80.197 275.119 79.2256C275.747 78.2543 276.672 77.766 277.887 77.766Z" fill="#E73D66"/>
<path d="M310.711 58.1778C308.851 58.1778 306.914 58.7647 304.898 59.9387C302.883 61.1126 301.205 62.6969 299.87 64.6864C298.535 66.6759 297.865 68.816 297.865 71.1067V74.4572H293.206V77.3297H297.865V90.9132L293.99 94.1805V96.6167H310.488L311.88 93.7857L305.262 92.0455V77.3297H312.576V74.4572H305.262V68.3641C305.262 66.6499 305.543 65.3461 306.109 64.4475C306.675 63.5488 307.496 63.0969 308.571 63.0969C309.615 63.0969 310.654 63.4657 311.682 64.2085C312.711 64.9461 313.578 65.959 314.274 67.2317H317.017V59.44C316.435 59.1232 315.495 58.8323 314.186 58.5673C312.888 58.3076 311.729 58.1778 310.711 58.1778Z" fill="#E73D66"/>
</svg>
