<svg width="78" height="96" viewBox="0 0 78 96" fill="none" xmlns="http://www.w3.org/2000/svg">
<path fill-rule="evenodd" clip-rule="evenodd" d="M63.9193 0.136748C64.1891 0.180568 64.3737 0.432951 64.3337 0.70333C64.2268 1.4252 64.153 2.70474 64.2918 4.14719C64.3881 5.14833 64.5853 6.21109 64.9352 7.21242L66.01 6.59187C66.4768 6.32237 67.079 6.49153 67.355 6.9697L71.1041 13.4632C71.3801 13.9414 71.2255 14.5475 70.7587 14.817L69.2586 15.6831C69.6883 16.9242 70.5164 18.7528 71.8933 20.586C73.855 23.1977 76.3922 25.4232 77.4036 26.1999C77.512 26.2831 77.5815 26.407 77.5962 26.5428C77.6108 26.6786 77.5693 26.8144 77.4812 26.9188C76.5803 27.986 74.9361 29.5614 72.9012 30.8594C70.8712 32.1541 68.4005 33.2056 65.8608 33.1448C61.0257 33.0289 57.4637 32.3132 56.2557 31.9577C56.0944 31.9103 55.9678 31.7849 55.9187 31.624C55.8696 31.4632 55.9047 31.2885 56.0121 31.1591L58.3093 28.3897C58.4147 28.2627 58.576 28.1959 58.7403 28.2112C59.7946 28.3092 62.3873 27.8133 63.791 24.8581C64.4862 23.3945 64.4954 21.8285 64.2053 20.4405C64.0871 19.8748 63.9203 19.3449 63.7346 18.8723L53.4324 24.8203C52.9657 25.0898 52.3635 24.9207 52.0874 24.4425L51.7125 23.7931L44.3945 28.0182L43.3916 27.4428L51.2126 22.9273L50.4628 21.6286L41.8874 26.5797L41.3859 26.292L50.2129 21.1957L49.3381 19.6806L39.6309 25.285L38.6281 24.7096L48.8382 18.8148L48.3384 17.949C48.0623 17.4708 48.2169 16.8647 48.6837 16.5952L59.8938 10.123L59.9012 10.0744C59.548 9.59229 58.6135 8.79924 57.1265 8.92408C55.3251 9.07531 52.3524 9.99391 51.0728 10.4441C50.934 10.4929 50.7807 10.4781 50.6538 10.4036C50.5269 10.329 50.4393 10.2024 50.4143 10.0574L49.9847 7.56372C49.9626 7.43549 49.9914 7.3037 50.0649 7.19636C51.0244 5.79566 52.8506 3.78062 55.2417 2.23964C57.6344 0.697548 60.6366 -0.396445 63.9193 0.136748ZM33.1434 27.8762L15.4534 38.0895C15.4194 38.1091 15.3872 38.1305 15.3566 38.1535C14.1808 37.7649 12.8507 37.8606 11.6939 38.5285C9.54213 39.7708 8.80489 42.5222 10.0472 44.674C11.2895 46.8258 14.041 47.563 16.1927 46.3207C17.4478 45.596 18.2217 44.3579 18.4021 43.0249L38.9356 31.1699L37.9283 30.597L18.4086 41.8667C18.3462 41.3657 18.1981 40.868 17.9585 40.395L36.4172 29.7378L35.9136 29.4514L17.7085 39.9621C17.3659 39.4373 16.9296 39.0059 16.4347 38.6774L34.1507 28.449L33.1434 27.8762ZM64.4491 8.64744L60.8098 10.7486L60.7037 11.4452L63.7311 16.6887C63.8575 16.8754 63.9921 17.0964 64.1278 17.3467L68.0331 15.0919C68.0021 14.9725 67.9764 14.8634 67.9558 14.7656C67.4172 13.9163 66.0832 11.7089 64.6128 8.96778C64.5561 8.86209 64.5016 8.75526 64.4491 8.64744ZM56.1568 13.435L59.7011 11.3887L59.689 11.468C59.6719 11.5802 59.6935 11.6949 59.7503 11.7932L62.7356 16.964L56.1568 13.435ZM68.9184 14.4818C68.9307 14.546 68.9462 14.6183 68.9652 14.6981L70.2589 13.9512L66.5099 7.45767L65.3173 8.14616C65.3735 8.26414 65.4323 8.38056 65.4938 8.49519C67.001 11.305 68.3614 13.5447 68.8485 14.3063C68.8828 14.3598 68.9065 14.4194 68.9184 14.4818ZM56.0885 13.9559L63.2286 17.7859C63.2589 17.8412 63.2895 17.8984 63.32 17.9573L57.1756 21.5048L56.0885 13.9559ZM63.2842 1.05859C60.5057 0.749294 57.9261 1.69896 55.7833 3.07998C53.6108 4.48011 51.9276 6.29907 51.0048 7.5965L51.3001 9.31064C51.6202 9.20472 51.9922 9.08628 52.3957 8.96429L52.4009 7.81134C53.1514 6.94514 55.42 4.94271 58.4905 3.8626C60.9281 3.0051 62.469 2.88368 63.2207 2.95956C63.204 2.23153 63.2337 1.57904 63.2842 1.05859ZM69.0939 28.4766C66.9691 29.0085 63.4102 29.018 60.7873 28.9065C60.081 29.1471 59.4242 29.23 58.9186 29.2211L57.2859 31.1893C58.8428 31.5443 61.9159 32.0502 65.8848 32.1453C68.1445 32.1995 70.4159 31.2588 72.3636 30.0165C74.0693 28.9286 75.487 27.6347 76.3772 26.6604C75.9165 26.2827 75.3116 25.7556 74.6404 25.1178C73.5249 26.2395 71.4531 27.886 69.0939 28.4766ZM55.5677 13.7751L49.3962 17.3382L56.6359 21.1926L55.5677 13.7751ZM49.4508 17.9239L52.9326 23.9545L56.6964 21.7815L49.4508 17.9239ZM15.068 44.3726C13.9921 44.9938 12.6164 44.6252 11.9953 43.5493C11.3741 42.4734 11.7427 41.0977 12.8186 40.4765C13.8945 39.8554 15.2702 40.224 15.8914 41.2999C16.5125 42.3758 16.1439 43.7515 15.068 44.3726Z" fill="#FCFCFC"/>
<path fill-rule="evenodd" clip-rule="evenodd" d="M13.2654 0.70333C13.2254 0.432952 13.41 0.180568 13.6797 0.136748C16.9625 -0.396445 19.9646 0.697548 22.3574 2.23964C24.7484 3.78062 26.5747 5.79566 27.5342 7.19636C27.6077 7.3037 27.6365 7.43549 27.6144 7.56372L27.1848 10.0574C27.1598 10.2024 27.0722 10.329 26.9453 10.4036C26.8184 10.4781 26.6651 10.4929 26.5263 10.4441C25.2466 9.99392 22.274 9.07531 20.4726 8.92408C18.9855 8.79924 18.0511 9.59229 17.6978 10.0744L17.7052 10.123L28.9154 16.5952C29.3822 16.8647 29.5368 17.4708 29.2607 17.949L28.7609 18.8148L62.1457 38.0896C62.1796 38.1091 62.2119 38.1305 62.2425 38.1535C63.4183 37.7649 64.7484 37.8606 65.9052 38.5285C68.0569 39.7708 68.7942 42.5223 67.5519 44.674C66.3096 46.8258 63.5581 47.563 61.4064 46.3207C60.1512 45.596 59.3774 44.3579 59.1969 43.0249L25.8866 23.7931L25.5117 24.4425C25.2356 24.9207 24.6334 25.0898 24.1666 24.8203L13.8644 18.8723C13.6788 19.3449 13.512 19.8748 13.3938 20.4405C13.1037 21.8285 13.1129 23.3945 13.8081 24.8581C15.2118 27.8133 17.8045 28.3092 18.8587 28.2112C19.0231 28.1959 19.1844 28.2627 19.2897 28.3898L21.587 31.1591C21.6943 31.2885 21.7294 31.4632 21.6804 31.6241C21.6313 31.7849 21.5047 31.9103 21.3434 31.9578C20.1354 32.3132 16.5733 33.0289 11.7383 33.1448C9.19853 33.2057 6.72788 32.1541 4.69786 30.8594C2.66292 29.5615 1.01875 27.9861 0.117893 26.9188C0.0297942 26.8145 -0.0117613 26.6786 0.00288403 26.5428C0.0175294 26.407 0.0871027 26.2831 0.195429 26.1999C1.20686 25.4232 3.74406 23.1977 5.70579 20.586C7.08271 18.7528 7.91073 16.9242 8.34045 15.6831L6.84033 14.817C6.37355 14.5475 6.21894 13.9414 6.49501 13.4632L10.244 6.96971C10.5201 6.49154 11.1223 6.32238 11.5891 6.59188L12.6639 7.21243C13.0137 6.2111 13.2109 5.14834 13.3073 4.14719C13.4461 2.70474 13.3722 1.4252 13.2654 0.70333ZM16.7892 10.7486L13.15 8.64745C13.0975 8.75526 13.043 8.86209 12.9863 8.96778C11.5159 11.7089 10.1818 13.9163 9.64328 14.7656C9.62267 14.8634 9.597 14.9725 9.566 15.0919L13.4713 17.3467C13.607 17.0964 13.7415 16.8754 13.868 16.6887L16.8953 11.4452L16.7892 10.7486ZM17.898 11.3887L21.4423 13.435L14.8635 16.964L17.8488 11.7932C17.9056 11.6949 17.9272 11.5802 17.9101 11.468L17.898 11.3887ZM8.63392 14.6981C8.65286 14.6183 8.6684 14.546 8.68067 14.4818C8.6926 14.4194 8.71632 14.3598 8.75055 14.3063C9.23765 13.5447 10.598 11.305 12.1053 8.4952C12.1668 8.38056 12.2256 8.26415 12.2817 8.14617L11.0892 7.45768L7.3402 13.9512L8.63392 14.6981ZM14.3705 17.7859L21.5106 13.9559L20.4235 21.5048L14.279 17.9573C14.3096 17.8984 14.3401 17.8413 14.3705 17.7859ZM21.8158 3.07998C19.673 1.69896 17.0934 0.749294 14.3149 1.05859C14.3654 1.57904 14.395 2.23153 14.3784 2.95956C15.1301 2.88368 16.671 3.00511 19.1086 3.86261C22.1791 4.94271 24.4477 6.94514 25.1982 7.81134L25.2034 8.96429C25.6069 9.08628 25.9789 9.20472 26.299 9.31064L26.5943 7.5965C25.6715 6.29907 23.9883 4.48011 21.8158 3.07998ZM16.8118 28.9065C14.1889 29.0181 10.63 29.0085 8.50522 28.4766C6.14602 27.886 4.0742 26.2395 2.95863 25.1178C2.28748 25.7556 1.68254 26.2827 1.22189 26.6604C2.11203 27.6347 3.5298 28.9286 5.23546 30.0165C7.18319 31.2588 9.45456 32.1995 11.7143 32.1453C15.6832 32.0502 18.7563 31.5443 20.3131 31.1893L18.6805 29.2211C18.1749 29.23 17.5181 29.1471 16.8118 28.9065ZM28.2028 17.3382L22.0313 13.7751L20.9632 21.1926L28.2028 17.3382ZM24.6665 23.9545L28.1483 17.9239L20.9027 21.7815L24.6665 23.9545ZM61.1644 38.6774C60.6694 39.0059 60.2331 39.4373 59.8905 39.9621L27.3862 21.1958L28.261 19.6806L61.1644 38.6774ZM59.6406 40.395C59.401 40.868 59.2529 41.3657 59.1905 41.8668L26.3865 22.9274L27.1363 21.6287L59.6406 40.395ZM65.6038 43.5493C64.9827 44.6252 63.6069 44.9938 62.5311 44.3726C61.4552 43.7515 61.0866 42.3758 61.7077 41.2999C62.3289 40.224 63.7046 39.8554 64.7805 40.4765C65.8564 41.0977 66.225 42.4734 65.6038 43.5493Z" fill="#FCFCFC"/>
<path d="M35.3908 71.3678L33.0414 74.6669C30.917 74.6669 29.3924 73.3923 29.0175 70.9929L28.4676 67.4938C28.0677 64.9944 27.4429 64.4196 25.4184 64.2446L24.7935 64.5696V71.3178C25.2934 71.4178 25.6683 71.4927 25.8433 71.4927C26.1682 71.4927 26.4181 71.3428 26.968 70.618L27.4429 70.9429C26.743 71.7927 25.4684 73.3923 24.5936 74.6919C22.3942 73.8172 20.8946 73.3423 18.2452 73.3423C16.8456 73.3423 16.2208 73.6922 15.321 74.467L14.9211 73.9921L17.4705 71.6427C18.4952 70.693 19.6449 69.4933 19.6449 67.5438V64.1947H19.0201C17.6454 64.1947 16.6957 64.7195 16.3457 65.5193L16.0458 65.3943C16.1708 62.6701 17.3455 61.0705 19.4699 61.0705H19.6199V57.3714C17.3205 55.6469 16.7206 55.397 16.2958 55.397C15.9209 55.397 15.5709 55.5969 15.0961 56.0468L14.7462 55.6469L18.4452 52.5227C19.8948 53.5724 21.6444 54.8971 22.994 55.8968L24.2187 55.097V54.4472C24.2187 53.7224 24.0687 52.9476 23.9438 52.5727V52.5227L24.6186 52.6227C24.7186 52.9726 24.7686 53.6974 24.7686 54.2722V54.7721L28.2426 52.5477C30.567 53.2475 32.6415 54.3472 32.6415 57.1965C32.6415 59.4459 31.4168 61.2204 28.5676 62.4451C30.792 62.72 31.5918 64.4446 31.9417 66.4691L32.4416 69.3433C32.8165 71.5177 33.4663 71.6927 34.0162 71.6927C34.3161 71.6927 34.566 71.4678 34.8659 70.9929L35.3908 71.3678ZM24.2187 55.7469C23.6938 56.0968 23.019 56.5217 23.019 56.5217V65.2194C23.019 67.9437 21.3944 69.3933 19.4949 70.643L19.5199 70.693C19.8948 70.568 20.4197 70.418 21.1445 70.418C21.8443 70.418 23.144 70.9179 24.2187 71.1428V55.7469ZM25.8433 54.7221L24.7935 55.397V63.9197C28.0427 62.4701 29.1424 60.9955 29.1424 58.6461C29.1174 56.3217 27.7928 55.272 25.8433 54.7221Z" fill="#FCFCFC"/>
<path d="M45.8881 72.2676C45.2133 72.9174 44.2385 73.8422 43.6636 74.442C42.7139 73.7172 41.5142 72.8674 40.9394 72.4425L38.615 74.442C37.7902 73.7672 36.4655 72.7924 35.4408 72.1176V71.9926C35.7657 71.7927 35.9407 71.5178 35.9407 70.518V67.2189C36.9904 66.719 37.9152 66.2192 38.565 65.8193C37.3653 65.3694 36.3655 64.2697 36.3655 62.6701C36.3655 60.6206 37.3653 59.6709 38.2651 58.5961C38.7399 58.0213 39.0399 57.6214 39.3398 57.1215C40.7394 57.7464 43.2138 58.8711 44.8383 59.4709V59.5959C44.4884 59.8708 44.3385 60.2457 44.3385 60.9705V71.5178C44.6134 71.7927 45.5132 72.3176 45.8381 72.1926L45.8881 72.2676ZM41.3143 61.0955C40.0396 60.3207 39.4897 59.9708 38.9149 59.9708C38.39 59.9708 37.0654 60.3457 37.0654 62.6701C37.0654 64.2197 38.44 65.4943 40.3645 65.4943C40.6394 65.4943 40.9893 65.3944 41.3393 65.2944V61.0955H41.3143ZM41.3143 71.3178V65.9692C40.9894 66.0942 40.6644 66.1692 40.3145 66.1692C39.8646 66.1692 39.3648 66.0442 38.9899 65.9442C38.8399 66.2192 38.7899 66.644 38.7899 67.1689V71.3178C39.2898 71.6427 39.6647 71.9676 40.2395 72.2926L41.3143 71.3178Z" fill="#FCFCFC"/>
<path d="M52.2614 72.2676L49.962 74.442C49.3122 73.9421 47.9875 72.9924 47.1627 72.4675V72.3425C47.5376 72.1176 47.6626 71.7927 47.6626 70.9679V60.0457L47.2877 59.8208C46.6629 59.4459 46.4629 59.4459 46.138 59.4459L46.113 59.3209L48.4124 57.1215C49.0622 57.6214 50.3119 58.5211 51.2117 59.121V59.2459C50.8618 59.4459 50.7118 59.7458 50.7118 60.5456V71.5427C51.6116 72.1176 51.9365 72.1926 52.2114 72.1926L52.2614 72.2676ZM48.5624 55.6469L47.6126 54.6221C48.4374 53.7974 50.4119 51.6979 50.9118 50.9481C51.1367 51.248 51.7365 52.4977 51.9865 53.1725C51.2867 53.7724 49.5121 55.072 48.5624 55.6469Z" fill="#FCFCFC"/>
<path d="M62.8336 59.9708C62.4837 60.2707 62.3338 60.4956 62.3338 61.5953V71.1928C60.6592 72.1426 59.1596 73.0424 57.3101 74.442C56.3353 73.7922 54.3858 72.6175 53.2611 72.0176V71.8927C53.5611 71.7427 53.761 71.4428 53.761 70.8679V59.9958C54.4108 59.6458 55.9854 58.6961 56.9602 58.0463L55.9104 56.8966C54.5108 55.347 54.2109 55.0221 54.2109 53.7724C54.2109 52.8976 54.7108 51.7479 55.1606 50.9231L55.4856 51.0481C55.3106 51.8729 55.5105 52.4977 57.1601 54.1223C57.1601 54.1223 61.8089 58.971 62.8586 59.8208V59.9708H62.8336ZM59.3096 72.2926V60.5456L57.4351 58.5461L56.7852 58.946V70.8429C57.3601 71.2178 58.6097 71.9676 59.2596 72.3176L59.3096 72.2926Z" fill="#FCFCFC"/>
<path d="M26.4681 86.6138C26.4681 88.1634 25.4434 89.2381 24.0188 90.1879L19.7949 93.0871C17.0456 91.8124 14.5212 91.0626 12.5967 91.0626C10.4473 91.0626 8.94768 91.9124 8.94768 94.6617L8.8477 94.6867L8.19788 94.1368C8.69775 90.8877 10.3973 89.1131 11.9469 88.6883C12.2218 88.1634 12.4468 87.4136 12.4468 85.814V82.3899H12.0969C10.6972 82.3899 9.74747 82.7398 9.27259 83.7145L8.99766 83.5896C9.29758 80.5654 10.6722 79.2657 12.3718 79.2657H12.4967V75.5167C10.3473 73.9671 9.82245 73.5422 9.02266 73.5422C8.52279 73.5422 8.34783 73.7671 7.84796 74.192L7.49805 73.7921L11.1971 70.6679C12.3718 71.5677 14.2463 72.8924 15.7709 73.9921L17.1205 73.0423V72.6674C17.1205 71.9426 16.9706 71.1678 16.8456 70.7929V70.7429L17.4705 70.8429C17.5704 71.1928 17.6454 71.9176 17.6454 72.4925V72.6924L20.4447 70.7179C21.7444 71.6927 24.1687 74.242 25.4934 75.9166L21.3444 78.8658C24.4186 79.3157 26.4931 81.2652 26.4931 84.1144V86.6138H26.4681ZM17.1455 73.7171L15.9209 74.5919V84.3644C15.9209 86.0139 14.5712 86.9387 12.7967 88.4133L12.8217 88.4633C13.3215 88.3133 14.2963 88.0884 15.221 88.0884C15.7459 88.0884 16.5457 88.2384 17.1205 88.3633V73.7171H17.1455ZM22.2442 77.4912C21.2695 76.1165 19.345 73.9671 18.0703 73.0673L17.6704 73.3422V80.7153L22.2442 77.4912ZM23.094 84.9142C23.094 82.5149 21.4194 81.0652 18.5452 81.0652C18.2203 81.0652 17.8953 81.1902 17.6704 81.3402V88.5133C19.32 88.9132 21.0945 89.738 22.6691 90.5378L22.7691 90.4878C23.069 90.0129 23.119 89.763 23.119 88.3633V84.9142H23.094Z" fill="#FCFCFC"/>
<path d="M35.1158 80.9403H34.9909C34.2661 80.1405 33.1664 78.5659 32.8165 77.7161L32.1916 78.3659V89.0632C33.5913 89.9379 33.8662 90.0629 34.3161 90.0629C34.516 90.0629 34.691 89.8879 34.8659 89.688L35.1408 89.3881L35.6407 89.838C33.9162 91.5625 32.7915 92.7122 32.7915 92.7122C31.5668 91.8874 30.2171 91.1626 28.6925 90.4128V90.2878C29.0174 89.9879 29.1924 89.738 29.1924 88.8132V78.291C28.5676 77.8161 28.1677 77.6411 27.7178 77.6161L27.6678 77.5162C28.3426 76.8913 29.2174 76.1165 29.8922 75.3417C30.717 76.0166 31.5918 76.8164 32.3416 77.3912C33.3663 76.5164 33.6912 76.1665 34.541 75.3417C35.0909 76.2165 36.0906 77.6411 37.0154 78.5909C36.3905 79.1907 35.6657 80.1655 35.1158 80.9403Z" fill="#FCFCFC"/>
<path d="M47.1627 77.8661C46.8878 78.066 46.6628 78.341 46.6628 79.1907V89.4131C45.3132 90.1879 43.1887 91.4875 41.6142 92.6622C40.3145 91.7874 38.8149 90.8377 37.5902 90.1379V90.0129C37.9401 89.8629 38.0901 89.488 38.0901 88.8632V78.5659C39.5897 77.7161 41.6142 76.4165 43.1388 75.3167C44.3635 76.1165 45.888 77.0663 47.1627 77.7411V77.8661ZM43.6386 90.5628V78.9408C42.9638 78.4659 41.9641 77.8661 41.2143 77.4162L41.1143 77.4412V89.0632C41.7641 89.538 42.9138 90.2378 43.5887 90.6127L43.6386 90.5628Z" fill="#FCFCFC"/>
<path d="M58.5098 77.8661C58.2349 78.066 58.0099 78.341 58.0099 79.1907V89.4131C56.6603 90.1879 54.5358 91.4875 52.9612 92.6622C51.6616 91.7874 50.162 90.8377 48.9373 90.1379V90.0129C49.2872 89.8629 49.4372 89.488 49.4372 88.8632V78.5659C50.9368 77.7161 52.9612 76.4165 54.4858 75.3167C55.7105 76.1165 57.2351 77.0663 58.5098 77.7411V77.8661ZM54.9857 90.5628V78.9408C54.3109 78.4659 53.3111 77.8661 52.5613 77.4162L52.4614 77.4412V89.0632C53.1112 89.538 54.2609 90.2378 54.9357 90.6127L54.9857 90.5628Z" fill="#FCFCFC"/>
<path d="M69.8318 78.191C69.4819 78.4909 69.332 78.7158 69.332 79.8156V89.4131C67.6574 90.3628 66.1578 91.2626 64.3083 92.6622C63.3335 92.0124 61.384 90.8377 60.2593 90.2378V90.1129C60.5593 89.9629 60.7592 89.663 60.7592 89.0881V78.216C61.409 77.8661 62.9836 76.9163 63.9584 76.2665L62.9086 75.1168C61.509 73.5672 61.2091 73.2423 61.2091 71.9926C61.2091 71.1178 61.709 69.9681 62.1588 69.1433L62.4838 69.2683C62.3088 70.0931 62.5087 70.7179 64.1583 72.3425C64.1583 72.3425 68.8071 77.1912 69.8568 78.041V78.191H69.8318ZM66.3078 90.5378V78.7908L64.4333 76.7913L63.7834 77.1912V89.0881C64.3583 89.463 65.6079 90.2129 66.2578 90.5628L66.3078 90.5378Z" fill="#FCFCFC"/>
</svg>
