<svg width="159" height="96" viewBox="0 0 159 96" fill="none" xmlns="http://www.w3.org/2000/svg">
<path fill-rule="evenodd" clip-rule="evenodd" d="M130.77 0.279766C131.322 0.369415 131.699 0.885756 131.617 1.43891C131.399 2.91575 131.248 5.53349 131.532 8.48455C131.729 10.5327 132.132 12.707 132.848 14.7556L135.047 13.486C136.002 12.9347 137.234 13.2807 137.799 14.259L145.469 27.5438C146.033 28.522 145.717 29.762 144.762 30.3134L141.693 32.0853C142.572 34.6244 144.266 38.3655 147.083 42.1159C151.097 47.459 156.287 52.0123 158.357 53.6012C158.578 53.7714 158.721 54.0248 158.75 54.3027C158.78 54.5805 158.695 54.8584 158.515 55.072C156.672 57.2554 153.308 60.4784 149.145 63.1337C144.992 65.7827 139.938 67.9339 134.742 67.8094C124.85 67.5723 117.562 66.1081 115.091 65.3809C114.761 65.2838 114.502 65.0272 114.402 64.6982C114.301 64.3691 114.373 64.0117 114.593 63.7469L119.292 58.0813C119.508 57.8214 119.838 57.6847 120.174 57.7159C122.331 57.9165 127.635 56.902 130.507 50.8561C131.929 47.8617 131.948 44.6579 131.355 41.8184C131.113 40.6609 130.772 39.5769 130.392 38.6101L109.315 50.7788C108.36 51.3301 107.128 50.984 106.563 50.0058L105.796 48.6773L90.8246 57.3211L88.773 56.1439L104.774 46.906L103.24 44.249L85.6954 54.3781L84.6696 53.7895L102.728 43.3634L100.939 40.2636L81.0792 51.7294L79.0275 50.5522L99.9159 38.4923L98.8932 36.721C98.3284 35.7428 98.6447 34.5028 99.5997 33.9514L122.534 20.7102L122.549 20.6108C121.826 19.6244 119.915 18.002 116.873 18.2574C113.187 18.5668 107.105 20.4461 104.487 21.367C104.203 21.4669 103.89 21.4366 103.63 21.2842C103.371 21.1317 103.191 20.8726 103.14 20.5759L102.261 15.4743C102.216 15.2119 102.275 14.9423 102.425 14.7227C104.388 11.8571 108.125 7.7346 113.016 4.58198C117.912 1.42708 124.054 -0.811069 130.77 0.279766ZM67.8065 57.0307L31.6154 77.9256C31.546 77.9657 31.4799 78.0094 31.4174 78.0564C29.0119 77.2614 26.2906 77.4573 23.924 78.8236C19.5218 81.3652 18.0135 86.9943 20.5551 91.3965C23.0967 95.7987 28.7258 97.307 33.128 94.7654C35.6957 93.2828 37.2789 90.7499 37.6481 88.0226L79.6566 63.769L77.5957 62.5971L37.6613 85.6533C37.5337 84.6282 37.2306 83.61 36.7404 82.6423L74.5044 60.8393L73.4739 60.2534L36.2291 81.7567C35.5282 80.683 34.6356 79.8004 33.623 79.1283L69.8674 58.2026L67.8065 57.0307ZM131.853 17.6914L124.408 21.99L124.191 23.4152L130.385 34.1427C130.643 34.5246 130.919 34.9767 131.196 35.4888L139.186 30.8759C139.122 30.6315 139.07 30.4083 139.028 30.2083C137.926 28.4707 135.197 23.9548 132.188 18.3468C132.072 18.1305 131.961 17.912 131.853 17.6914ZM114.889 27.4861L122.14 23.2997L122.115 23.4618C122.08 23.6914 122.124 23.926 122.24 24.1271L128.348 34.7058L114.889 27.4861ZM140.997 29.6276C141.022 29.759 141.054 29.9069 141.093 30.0702L143.739 28.5421L136.069 15.2573L133.63 16.6659C133.745 16.9072 133.865 17.1454 133.991 17.3799C137.074 23.1284 139.858 27.7105 140.854 29.2686C140.924 29.3781 140.973 29.5 140.997 29.6276ZM114.749 28.5518L129.356 36.3874C129.419 36.5006 129.481 36.6175 129.544 36.738L116.973 43.9958L114.749 28.5518ZM129.47 2.16573C123.786 1.53295 118.508 3.47583 114.124 6.30119C109.68 9.16564 106.236 12.887 104.348 15.5413L104.953 19.0482C105.607 18.8315 106.368 18.5892 107.194 18.3396L107.205 15.9809C108.74 14.2087 113.381 10.1121 119.663 7.90234C124.65 6.14801 127.802 5.89959 129.34 6.05483C129.306 4.56539 129.367 3.23048 129.47 2.16573ZM141.356 58.259C137.009 59.3472 129.728 59.3667 124.362 59.1386C122.917 59.6307 121.573 59.8003 120.539 59.7822L117.199 63.8088C120.384 64.5351 126.671 65.57 134.791 65.7646C139.414 65.8754 144.061 63.9509 148.045 61.4093C151.535 59.1837 154.435 56.5365 156.257 54.5433C155.314 53.7706 154.077 52.6922 152.703 51.3874C150.421 53.6822 146.183 57.0507 141.356 58.259ZM113.683 28.1819L101.057 35.4715L115.869 43.357L113.683 28.1819ZM101.169 36.6697L108.292 49.0075L115.993 44.5617L101.169 36.6697ZM30.827 90.7799C28.6259 92.0507 25.8114 91.2966 24.5406 89.0955C23.2698 86.8944 24.0239 84.0799 26.225 82.8091C28.4261 81.5383 31.2406 82.2924 32.5114 84.4935C33.7822 86.6946 33.0281 89.5091 30.827 90.7799Z" fill="url(#paint0_linear_133_291)"/>
<path fill-rule="evenodd" clip-rule="evenodd" d="M27.1391 1.43891C27.0572 0.885756 27.4348 0.369415 27.9868 0.279766C34.7027 -0.811069 40.8447 1.42708 45.74 4.58198C50.6317 7.7346 54.3679 11.8571 56.3309 14.7227C56.4814 14.9423 56.5402 15.2119 56.495 15.4743L55.6161 20.5759C55.565 20.8726 55.3857 21.1317 55.1261 21.2842C54.8665 21.4366 54.5529 21.4669 54.2689 21.367C51.651 20.4461 45.5693 18.5668 41.8839 18.2574C38.8417 18.002 36.9299 19.6244 36.2072 20.6108L36.2223 20.7103L59.1567 33.9514C60.1117 34.5028 60.428 35.7428 59.8632 36.721L58.8405 38.4923L127.141 77.9257C127.21 77.9657 127.276 78.0094 127.339 78.0564C129.745 77.2614 132.466 77.4573 134.832 78.8237C139.235 81.3653 140.743 86.9943 138.201 91.3965C135.66 95.7987 130.031 97.307 125.628 94.7654C123.061 93.2829 121.477 90.7499 121.108 88.0226L52.9602 48.6773L52.1932 50.0058C51.6284 50.984 50.3964 51.3301 49.4414 50.7788L28.3646 38.6101C27.9848 39.5769 27.6436 40.6609 27.4017 41.8184C26.8082 44.6579 26.827 47.8617 28.2493 50.8561C31.1211 56.902 36.4254 57.9165 38.5822 57.716C38.9185 57.6847 39.2484 57.8214 39.464 58.0813L44.1638 63.7469C44.3835 64.0117 44.4553 64.3691 44.3549 64.6982C44.2545 65.0272 43.9954 65.2838 43.6654 65.3809C41.194 66.1081 33.9066 67.5723 24.0147 67.8094C18.8189 67.9339 13.7643 65.7827 9.61114 63.1337C5.44795 60.4784 2.08421 57.2554 0.241191 55.072C0.0609546 54.8585 -0.0240618 54.5805 0.0059003 54.3027C0.0358626 54.0249 0.178199 53.7714 0.399818 53.6012C2.46905 52.0123 7.65981 47.459 11.6732 42.1159C14.4902 38.3655 16.1842 34.6244 17.0633 32.0853L13.9943 30.3134C13.0393 29.762 12.723 28.522 13.2878 27.5438L20.9578 14.259C21.5226 13.2807 22.7546 12.9347 23.7096 13.486L25.9085 14.7556C26.6242 12.707 27.0277 10.5327 27.2248 8.48455C27.5087 5.53349 27.3576 2.91575 27.1391 1.43891ZM34.3483 21.99L26.9029 17.6914C26.7956 17.912 26.684 18.1305 26.568 18.3468C23.5598 23.9548 20.8305 28.4707 19.7287 30.2083C19.6866 30.4083 19.6341 30.6315 19.5706 30.8759L27.5604 35.4888C27.8379 34.9767 28.1132 34.5246 28.3719 34.1427L34.5654 23.4152L34.3483 21.99ZM36.6167 23.2997L43.8679 27.4861L30.4085 34.7058L36.516 24.1271C36.6322 23.926 36.6764 23.6914 36.6414 23.4618L36.6167 23.2997ZM17.6637 30.0702C17.7025 29.9069 17.7343 29.759 17.7594 29.6276C17.7838 29.5 17.8323 29.3781 17.9023 29.2686C18.8989 27.7105 21.682 23.1284 24.7656 17.3799C24.8914 17.1454 25.0117 16.9072 25.1266 16.6659L22.6869 15.2573L15.017 28.5421L17.6637 30.0702ZM29.3999 36.3874L44.0076 28.5518L41.7835 43.9958L29.2128 36.738C29.2754 36.6175 29.3378 36.5006 29.3999 36.3874ZM44.632 6.30119C40.2481 3.47583 34.9705 1.53295 29.2861 2.16573C29.3895 3.23048 29.4502 4.56539 29.4161 6.05483C30.954 5.89959 34.1063 6.14801 39.0935 7.90234C45.3752 10.1121 50.0165 14.2087 51.5519 15.9809L51.5624 18.3396C52.388 18.5892 53.1489 18.8315 53.8039 19.0482L54.408 15.5413C52.5201 12.887 49.0766 9.16565 44.632 6.30119ZM34.3945 59.1386C29.0283 59.3667 21.7473 59.3472 17.4004 58.259C12.5739 57.0507 8.33523 53.6822 6.05293 51.3874C4.67984 52.6922 3.44222 53.7706 2.49981 54.5433C4.32091 56.5365 7.22146 59.1837 10.711 61.4093C14.6958 63.9509 19.3427 65.8755 23.9657 65.7646C32.0855 65.57 38.3726 64.5351 41.5577 63.8088L38.2175 59.7822C37.1832 59.8003 35.8395 59.6307 34.3945 59.1386ZM57.6989 35.4715L45.0729 28.1819L42.8876 43.357L57.6989 35.4715ZM50.4641 49.0075L57.5873 36.6697L42.7638 44.5617L50.4641 49.0075ZM125.133 79.1283C124.121 79.8004 123.228 80.683 122.527 81.7567L56.0282 43.3634L57.8178 40.2636L125.133 79.1283ZM122.016 82.6423C121.526 83.61 121.223 84.6282 121.095 85.6533L53.9829 46.906L55.5169 44.2491L122.016 82.6423ZM134.216 89.0955C132.945 91.2966 130.131 92.0507 127.929 90.7799C125.728 89.5091 124.974 86.6946 126.245 84.4935C127.516 82.2924 130.33 81.5383 132.531 82.8091C134.732 84.0799 135.487 86.8944 134.216 89.0955Z" fill="url(#paint1_linear_133_291)"/>
<defs>
<linearGradient id="paint0_linear_133_291" x1="19.3205" y1="96" x2="158.756" y2="95.9999" gradientUnits="userSpaceOnUse">
<stop stop-color="#FA540F"/>
<stop offset="1" stop-color="#BD1D9E"/>
</linearGradient>
<linearGradient id="paint1_linear_133_291" x1="0" y1="96" x2="139.436" y2="95.9999" gradientUnits="userSpaceOnUse">
<stop stop-color="#FA540F"/>
<stop offset="1" stop-color="#BD1D9E"/>
</linearGradient>
</defs>
</svg>
