<svg width="77" height="95" viewBox="0 0 77 95" fill="none" xmlns="http://www.w3.org/2000/svg">
<path fill-rule="evenodd" clip-rule="evenodd" d="M40.54 47.88C44 45.51 46.52 42.92 46.52 39.1H46.5V32.99C46.5 26 41.46 21.18 33.9 20.1L44.13 12.83C40.89 8.71996 34.91 2.45996 31.74 0.0799561L24.9 4.89996V4.39996C24.9 3.02996 24.69 1.23 24.47 0.369995L22.96 0.149963V0.289978C23.25 1.22998 23.61 3.09996 23.61 4.89996V5.83997L20.3 8.13995C19.6204 7.65475 18.912 7.15072 18.1905 6.63736C14.9416 4.32575 11.4266 1.82475 9.06999 0L0 7.63L0.860001 8.63995C1.06065 8.47549 1.2402 8.32238 1.40559 8.18135C2.24582 7.46488 2.72064 7.06 3.73999 7.06C5.60764 7.06 6.86986 7.97733 11.5945 11.411C11.8028 11.5624 12.0179 11.7187 12.24 11.88V21.1H11.95C7.77 21.1 4.39 24.26 3.67 31.68L4.31999 31.97C5.46999 29.59 7.77 28.73 11.23 28.73H12.24V37.15C12.24 41.11 11.67 42.91 11.02 44.21C7.19999 45.29 3.01999 49.61 1.79999 57.6L3.37999 58.97L3.59999 58.9C3.59999 52.13 7.27 50.04 12.53 50.04C17.21 50.04 23.4 51.91 30.17 55.0099L30.3802 54.8654C27.2795 59.1796 25 64.7416 25 70.82C25 85.8 36.09 94.87 49.41 94.87C61.87 94.87 76.99 86.88 76.96 72.47C76.96 61.53 69.69 55.7701 59.97 55.55C61.9759 53.2256 62.6889 52.4073 63.2108 51.8086C63.8518 51.073 64.2042 50.6687 66.31 48.21C66.447 48.0508 66.575 47.9025 66.6957 47.7624C68.0999 46.1342 68.5296 45.636 70.85 42.45L69.77 41.66C68.77 42.96 68.12 43.46 67.47 43.46C64.52 43.46 61.06 42.45 54.94 40C54.3541 40.5202 53.7819 41.0316 53.2154 41.5378C49.4697 44.8852 45.9772 48.0064 40.47 51.95V73.41C40.47 76.65 39.68 79.0201 37.23 80.6801C34.86 76.6501 33.49 71.53 33.49 65.63C33.49 60.166 35.3742 53.2338 39.0247 48.9218L40.54 47.88ZM37.7982 47.7679C38.1582 46.9319 38.24 45.9434 38.24 43.36V34.92C38.24 29.02 34.14 25.49 27.08 25.49C26.29 25.49 25.5 25.78 24.92 26.14V43.71C28.801 44.6826 33.0158 46.5827 36.7339 48.4635C37.09 48.2143 37.4452 47.9822 37.7982 47.7679ZM20.6 9.57996L23.62 7.41998V43.35C22.18 43.06 20.24 42.7 18.94 42.7C16.64 42.7 14.26 43.28 13.04 43.64L12.97 43.5C13.3738 43.1635 13.7687 42.8383 14.153 42.5219C17.8798 39.4532 20.6 37.2133 20.6 33.56V9.57996ZM25.92 5.83997C29.02 8.06997 33.77 13.33 36.15 16.71L24.91 24.64V6.48999L25.92 5.83997ZM50.35 45.98L51.14 46.34V90.63C45.74 89.69 41.06 86.52 37.89 81.7C42.65 78.38 48.19 75 48.19 75V47.78L50.35 45.98ZM52.43 46.9901C55.39 48.2901 59.06 49.73 62.37 50.88L52.65 62.69H52.43V46.9901ZM58.06 62.11C61.95 62.11 66.05 63.91 67.85 68.37L52.44 75.29V64.2C52.6045 64.093 52.7647 63.9867 52.9224 63.8819C54.3567 62.9298 55.5915 62.11 58.06 62.11ZM68.21 69.46C68.64 70.9 68.93 72.55 69 74.57L52.44 81.98V76.44L68.21 69.46ZM52.44 90.77V83.14L69 75.79C68.85 85.44 64.17 90.84 55.46 90.84C54.6 90.84 53.23 90.84 52.44 90.77Z" fill="#FCFCFC"/>
</svg>
