<svg width="197" height="40" viewBox="0 0 197 40" fill="none" xmlns="http://www.w3.org/2000/svg">
<path d="M29.7015 27.3136C29.7015 29.7526 28.0926 31.4062 25.8835 32.9194L19.2626 37.4716C14.9402 35.4924 10.988 34.2985 8 34.2985C4.64166 34.2985 2.29848 35.6329 2.29848 39.9553L2.15802 40L1.14923 39.1253C1.92817 34.0239 4.59696 31.2657 7.03591 30.5762C7.45091 29.7462 7.81484 28.5969 7.81484 26.0686V20.6927H7.16999C4.96089 20.6927 3.49241 21.2418 2.75818 22.7614L2.34318 22.5762C2.80287 17.8388 4.96089 15.8212 7.62969 15.8212H7.81484V9.93455C4.4565 7.4956 3.63288 6.85713 2.38786 6.85713C1.60893 6.85713 1.32801 7.22742 0.549083 7.86588L0 7.22106L5.7909 2.34955C7.62969 3.77333 10.573 5.84194 12.9609 7.54665L15.0742 6.07818V5.47802C15.0742 4.32878 14.8444 3.13485 14.6592 2.53469V2.4453L15.6233 2.58578C15.7638 3.13486 15.8978 4.28408 15.8978 5.15878V5.47802L20.265 2.4006C22.2889 3.92015 26.107 7.91696 28.1756 10.5411L21.6441 15.1827C26.4709 15.8723 29.6888 18.9497 29.6888 23.4126V27.3136H29.7015ZM15.0806 7.08697L13.1524 8.46604V23.7765C13.1524 26.3496 11.0391 27.8244 8.28092 30.1229L8.32562 30.2123C9.10455 29.9824 10.6241 29.6121 12.0926 29.6121C12.9226 29.6121 14.1612 29.842 15.0806 30.0271V7.08697ZM23.0806 13.0183C21.5611 10.8603 18.5283 7.50196 16.5491 6.07818L15.9042 6.4932V18.0814L23.0806 13.0183ZM24.415 24.6448C24.415 20.8779 21.7973 18.6241 17.2897 18.6241C16.7853 18.6241 16.2809 18.8092 15.9106 19.0391V30.257C18.4836 30.9018 21.2865 32.1852 23.7255 33.4302L23.8659 33.3408C24.3256 32.6065 24.415 32.1915 24.415 30.0335V24.6448Z" fill="#FCFCFC"/>
<path d="M43.2115 18.3943H43.0264C41.8771 17.1556 40.1788 14.672 39.6233 13.3376L38.6592 14.3464V31.0806C40.8683 32.4597 41.277 32.6448 41.9665 32.6448C42.2857 32.6448 42.5667 32.3703 42.8412 32.0447L43.2562 31.585L44.0351 32.2746C41.3216 34.988 39.5786 36.7821 39.5786 36.7821C37.6505 35.4924 35.5307 34.3432 33.1429 33.194V33.0088C33.6473 32.5491 33.9218 32.1341 33.9218 30.7103V14.2506C32.9577 13.5163 32.3129 13.2418 31.6233 13.1907L31.5339 13.0503C32.5938 12.0862 33.9729 10.8412 35.0264 9.64725C36.3161 10.7071 37.6951 11.9457 38.8444 12.8651C40.4533 11.486 40.9577 10.937 42.2921 9.64725C43.1668 11.0263 44.7311 13.2354 46.1549 14.7486C45.2355 15.6808 44.0862 17.2003 43.2115 18.3943Z" fill="#FCFCFC"/>
<path d="M62.1038 13.6121C61.6888 13.9313 61.3249 14.3464 61.3249 15.6808V31.6808C59.2115 32.8747 55.8979 34.9433 53.4142 36.7821C51.3903 35.403 49.0471 33.9346 47.1189 32.83V32.6448C47.668 32.415 47.8979 31.8148 47.8979 30.8507V14.7167C50.2411 13.3823 53.4142 11.3583 55.8085 9.61533C57.7367 10.854 60.1309 12.3735 62.1038 13.4334V13.6121ZM56.5874 33.4749V15.2721C55.5276 14.5379 53.9697 13.5738 52.7694 12.8843L52.6289 12.929V31.1317C53.6377 31.8659 55.4318 32.9705 56.4916 33.5706L56.5874 33.4749Z" fill="#FCFCFC"/>
<path d="M79.8468 13.6121C79.4318 13.9313 79.0679 14.3464 79.0679 15.6808V31.6808C76.9545 32.8747 73.6409 34.9433 71.1573 36.7821C69.1333 35.403 66.7901 33.9346 64.862 32.83V32.6448C65.411 32.415 65.6409 31.8148 65.6409 30.8507V14.7167C67.9841 13.3823 71.1573 11.3583 73.5515 9.61533C75.4797 10.854 77.8739 12.3735 79.8468 13.4334V13.6121ZM74.3305 33.4749V15.2721C73.2706 14.5379 71.7127 13.5738 70.5124 12.8843L70.3719 12.929V31.1317C71.3807 31.8659 73.1748 32.9705 74.2347 33.5706L74.3305 33.4749Z" fill="#FCFCFC"/>
<path d="M97.5962 14.1165C97.0471 14.5762 96.8173 14.9465 96.8173 16.6448V31.6808C94.1996 33.1493 91.85 34.5794 88.9578 36.7821C87.4382 35.7734 84.3608 33.9345 82.6114 32.9641V32.7789C83.0711 32.5491 83.3903 32.0894 83.3903 31.17V14.1612C84.3991 13.6121 86.8827 12.1373 88.4023 11.1285L86.7486 9.3344C84.5395 6.89545 84.0799 6.39106 84.0799 4.46289C84.0799 3.08379 84.8588 1.28971 85.5483 0L86.0527 0.185142C85.7782 1.47485 86.0974 2.43893 88.6704 5.01196C88.6704 5.01196 95.9362 12.5969 97.5898 13.9313V14.1165H97.5962ZM92.0799 33.4302V15.0423L89.1365 11.9138L88.1277 12.5587V31.1764C89.0471 31.7765 90.9753 32.9258 91.9905 33.4749L92.0799 33.4302Z" fill="#FCFCFC"/>
<path d="M122.828 37.4716C114.324 37.4716 107.243 31.6807 107.243 22.1165C107.243 14.8507 112.345 8.7406 116.437 6.85074L116.986 7.31042C114.139 9.92814 112.664 14.9401 112.664 18.8028C112.664 22.5698 113.539 25.8388 115.052 28.4118C116.616 27.352 117.121 25.8388 117.121 23.7701V10.0686C121.168 7.16996 123.512 4.96724 126.359 2.4389C130.267 4.00315 132.476 4.64802 134.359 4.64802C134.774 4.64802 135.189 4.32879 135.828 3.49878L136.517 4.00316C134.908 6.21226 134.723 6.39742 133.619 7.68074C131.18 10.5283 132.425 9.05985 129.571 12.3671C135.777 12.5076 140.418 16.1851 140.418 23.17C140.437 32.3703 130.784 37.4716 122.828 37.4716ZM123.933 6.48681L123.429 6.25697L122.05 7.4062V24.7853C122.05 24.7853 118.512 26.9433 115.473 29.063C117.497 32.1404 120.485 34.1644 123.933 34.7645V6.48681ZM131.103 9.38544C128.99 8.6512 126.646 7.73184 124.757 6.90183V16.9257H124.897L131.103 9.38544ZM134.602 20.5522C133.453 17.7047 130.835 16.5555 128.351 16.5555C126.602 16.5555 125.823 17.2003 124.763 17.8898V24.9705L134.602 20.5522ZM135.336 24.5107C135.291 23.221 135.106 22.1676 134.832 21.2482L124.763 25.7047V29.2418L135.336 24.5107ZM124.763 29.9824V34.8539C125.267 34.8986 126.142 34.8986 126.691 34.8986C132.252 34.8986 135.24 31.4509 135.336 25.2897L124.763 29.9824Z" fill="#FCFCFC"/>
<path d="M160.16 33.3791C158.825 34.6177 157.817 35.5882 156.667 36.8268C155.199 35.6776 153.82 34.6688 152.485 33.7494H152.441L148.808 36.8268C147.288 35.767 145.22 34.3432 143.566 33.3344V33.1492C144.07 32.7789 144.345 32.2745 144.345 31.3104V14.257C143.611 13.7079 142.551 13.1524 142.002 13.1971L141.912 13.1077C142.832 12.233 144.396 10.8092 145.5 9.65997C146.88 10.7198 148.674 12.0032 149.868 12.7885V12.9736C149.319 13.2482 149.089 13.8036 149.089 15.1827V31.7318C149.963 32.4661 150.653 33.1109 151.247 33.4812C151.247 33.4812 152.766 32.1468 153.041 31.917V14.0271C152.492 13.5674 152.077 13.3376 151.477 12.8779V12.8332C152.351 12.0542 153.916 10.6241 154.88 9.65997C155.799 10.4389 157.453 11.7733 158.557 12.5586V12.7438C158.008 13.063 157.778 13.5738 157.778 15.087V32.2362C158.653 32.9258 159.477 33.245 160.077 33.2961L160.16 33.3791Z" fill="#FCFCFC"/>
<path d="M170.133 33.3791L166.544 36.7821C165.536 36.0032 163.467 34.5283 162.177 33.7047V33.5196C162.777 33.1493 162.956 32.6449 162.956 31.3615V14.257L162.356 13.8867C161.392 13.2865 161.066 13.2865 160.562 13.2865L160.517 13.1013L164.105 9.65363C165.114 10.4326 167.093 11.8627 168.473 12.7821V12.9673C167.923 13.2865 167.694 13.7462 167.694 14.9912V32.2299C169.117 33.1492 169.622 33.2386 170.037 33.2386L170.133 33.3791ZM164.342 7.36151L162.873 5.75256C164.163 4.46285 167.24 1.15559 168.026 0.00634766C168.396 0.466045 169.315 2.44532 169.724 3.49879C168.613 4.41818 165.81 6.44212 164.342 7.36151Z" fill="#FCFCFC"/>
<path d="M179.646 33.3344C178.726 34.2091 177.207 35.7223 176.109 36.7821C174.774 35.7734 172.891 34.4836 171.697 33.7047V33.5196C172.246 33.2897 172.476 32.6895 172.476 31.3105V4.04786C172.476 2.94331 172.386 2.20908 172.016 1.70469L172.201 1.6153C172.846 1.80046 173.765 2.5347 174.129 3.49879H174.219C174.819 1.93454 176.198 0.466045 177.807 0.00634766L177.947 0.0957425C177.577 0.740595 177.213 1.56422 177.213 3.17316V32.1852C177.947 32.7342 179.007 33.2897 179.556 33.245L179.646 33.3344Z" fill="#FCFCFC"/>
<path d="M196.195 14.1165C195.646 14.5762 195.416 14.9465 195.416 16.6448V31.6808C192.798 33.1493 190.449 34.5794 187.556 36.7821C186.037 35.7734 182.959 33.9345 181.21 32.9641V32.7789C181.67 32.5491 181.989 32.0894 181.989 31.17V14.1612C182.998 13.6121 185.481 12.1373 187.001 11.1285L185.347 9.3344C183.138 6.89545 182.678 6.39106 182.678 4.46289C182.678 3.08379 183.457 1.28971 184.147 0L184.651 0.185142C184.377 1.47485 184.696 2.43893 187.269 5.01196C187.269 5.01196 194.535 12.5969 196.188 13.9313V14.1165H196.195ZM190.678 33.4302V15.0423L187.735 11.9138L186.726 12.5587V31.1764C187.646 31.7765 189.574 32.9258 190.589 33.4749L190.678 33.4302Z" fill="#FCFCFC"/>
</svg>
