<svg width="1300" height="1300" viewBox="0 0 1300 1300" fill="none" xmlns="http://www.w3.org/2000/svg">
<path d="M394.55 1060.87C393.406 1064.66 394.165 1068.42 394.863 1072.16C395.393 1075.04 395.994 1077.9 396.608 1080.77C396.681 1081.11 396.981 1081.38 397.246 1081.8C400.797 1075.58 399.822 1062.44 395.489 1058.48C395.152 1059.32 394.791 1060.08 394.55 1060.87Z" fill="#E73D66"/>
<path d="M460.104 480.843C462.222 478.484 464.22 475.86 465.605 473.019C468.806 466.447 467.218 459.044 461.669 454.278C459.502 452.412 456.926 450.919 454.35 449.668C448.861 446.995 448.356 446.369 448.632 440.194C448.669 439.28 448.753 438.365 448.813 437.45C449.619 422.5 450.582 407.562 451.208 392.612C451.955 374.749 452.364 356.874 453.038 339.011C453.231 333.968 451.834 329.791 448.163 326.216C440.76 319.006 434.513 310.58 425.666 304.838C424.281 303.935 422.524 302.226 424.354 299.397C435.356 306.956 445.094 316.105 457.179 322.605C457.781 320.907 458.382 319.836 458.539 318.693C459.273 313.408 459.875 308.1 460.549 302.804C461.981 291.501 464.341 280.499 470.672 270.472C473.405 266.151 475.282 261.119 474.729 256.04C474.524 254.162 476.402 251.682 473.296 250.418C472.55 251.068 471.695 251.67 470.997 252.417C468.397 255.209 465.93 258.134 463.257 260.867C460.393 263.792 458.912 263.96 455.674 261.709C450.294 257.966 444.925 254.198 439.701 250.25C434.212 246.109 428.904 241.74 423.499 237.479C420.008 234.722 416.132 232.688 411.606 230.894C410.848 232.194 409.994 233.266 409.536 234.481C404.986 246.735 401.784 259.242 402.735 272.482C402.771 272.94 402.856 273.409 402.795 273.855C402.519 276.214 400.894 276.96 398.992 275.468C396.957 273.867 395.08 272.049 393.142 270.316C391.721 269.052 390.301 267.776 388.146 265.85C377.915 310.05 371.198 353.756 364.818 398.751C363.338 396.753 362.074 395.742 361.737 394.466C360.293 389.181 358.559 383.873 357.957 378.468C356.381 364.253 355.658 349.941 354.479 335.689C353.901 328.719 353.419 321.726 353.118 314.732C353.058 313.216 352.493 311.735 352.143 310.243C351.325 310.929 351.108 311.603 351.072 312.301C350.687 319.463 350.374 326.637 349.953 333.799C349.832 335.821 350.109 338.06 348.027 339.793C343.489 335.99 345.294 330.296 343.296 325.313C341.756 326.035 340.323 326.481 339.156 327.299C326.962 335.99 314.781 344.705 302.695 353.528C301.612 354.322 300.469 355.935 300.481 357.163C300.565 365.384 299.602 373.618 301.119 381.839C301.889 386.004 301.732 390.361 301.865 394.622C301.889 395.356 301.287 396.103 300.613 397.692C299.277 395.477 298.025 394.081 297.519 392.443C295.269 385.173 293.487 377.758 291.056 370.548C288.323 362.447 286.554 353.961 281.811 346.486C281.498 349.062 281.306 351.638 281.546 354.166C281.859 357.5 282.822 360.786 282.979 364.108C283.376 372.956 283.881 381.827 283.581 390.662C283.364 397.018 282.1 403.349 280.956 409.632C280.162 413.966 278.669 418.167 277.67 422.476C276.081 429.349 275.6 436.343 275.648 443.396C275.684 447.549 274.011 448.861 269.919 448.331C268.871 448.199 267.872 447.754 266.825 447.525C265.489 447.236 264.129 446.755 262.793 446.803C256.124 447.007 249.347 445.695 242.823 448.235C241.872 448.608 240.693 448.331 239.645 448.488C237.707 448.777 235.781 449.162 233.856 449.523C232.519 449.776 231.147 450.414 229.871 450.269C225.309 449.74 222.469 451.678 221.132 456.264C221.229 456.613 221.325 457.01 221.421 457.359C222.228 458.13 223.48 458.792 223.708 459.719C224.695 463.558 226.85 466.628 229.57 469.348C231.496 471.274 233.687 472.935 235.553 474.909C242.835 482.613 252.08 487.753 260.915 493.254C264.971 495.781 269.256 497.876 273.602 499.838C277.839 501.752 280.463 504.268 280.812 508.83C281.029 511.718 281.402 514.595 281.739 517.472C283.003 528.065 284.279 538.657 285.543 549.262C285.615 549.864 285.531 550.478 285.663 551.068C286.481 554.51 286.626 558.073 286.77 561.612C287.312 574.516 289.13 587.444 289.13 600.359C289.142 614.864 287.962 629.356 287.818 643.861C287.661 660.207 287.938 676.554 288.311 692.888C288.744 711.678 289.671 730.456 290.044 749.245C290.55 774.607 290.658 799.981 291.104 825.344C291.381 840.606 291.982 855.857 292.452 871.108C292.476 871.722 292.596 872.324 292.608 872.938C292.969 888.49 293.559 904.042 293.631 919.593C293.704 934.411 293.306 949.229 292.933 964.046C292.849 967.381 293.932 969.908 296.123 972.255C300.288 976.697 304.14 981.452 308.485 985.689C312.939 990.022 315.274 994.957 314.925 1001.19C314.853 1002.54 315.178 1003.92 315.346 1005.29C315.744 1008.6 315.744 1008.54 312.229 1008.96C311.446 1009.05 310.339 1009.51 310.074 1010.11C309.809 1010.73 310.327 1011.74 310.64 1012.52C310.796 1012.9 311.254 1013.21 311.639 1013.45C315.491 1015.78 316.49 1019.59 316.719 1023.67C316.947 1027.94 316.911 1032.22 317.044 1036.5C317.405 1047.94 317.958 1059.4 318.139 1070.85C318.356 1084.79 318.043 1098.74 318.103 1112.68C318.103 1113.03 318.055 1113.58 318.006 1113.93C317.633 1116.88 318.488 1118.93 321.172 1119.7C325.698 1121 330.188 1122.59 334.87 1122.98C336.483 1123.12 338.012 1121.86 338.229 1120.25C338.975 1114.62 340.131 1109 340.468 1103.34C341.262 1090.24 342.165 1077.13 342.309 1064.01C342.622 1034.98 342.743 1005.95 342.49 976.914C342.273 952.033 342.779 927.129 341.443 902.248C340.793 890.199 341.021 878.114 340.624 866.041C340.287 855.99 339.589 845.939 339.095 835.9C338.879 831.326 338.686 826.74 338.662 822.154C338.65 819.433 338.132 817.351 334.967 816.845C332.451 816.448 329.983 815.69 327.456 815.341C323.58 814.811 322.99 813.68 323.7 808.961C323.82 808.131 323.881 807.3 323.905 806.457C324.169 793.193 324.398 779.916 324.639 766.651C325.024 745.418 325.421 724.172 325.794 702.939C326.408 668.104 327.01 633.268 327.636 598.433C327.769 591.103 327.973 583.772 328.178 576.442C328.647 558.904 329.141 541.366 329.598 523.816C329.694 520.144 329.598 516.473 329.719 512.814C329.767 511.237 329.478 509.371 331.909 508.493C332.86 509.696 333.835 510.924 334.786 512.128C335.508 509.323 333.354 506.121 336.483 502.98C337.266 504.906 338.156 506.326 338.397 507.855C339.059 511.911 339.649 516.004 339.89 520.096C340.106 523.611 340.347 527.018 341.382 530.448C342.779 535.07 343.381 539.933 344.416 544.664C345.331 548.817 346.233 552.981 346.956 557.17C348.605 566.872 351.614 576.369 351.662 586.336C351.662 587.034 351.722 588.166 351.819 588.852C353.034 598.277 354.467 607.666 355.381 617.115C355.526 618.656 356.26 620.088 357.5 621.003C359.871 622.76 361.641 624.77 362.327 627.743C362.556 628.719 363.711 629.886 364.686 630.187C367.936 631.21 373.269 627.984 373.822 624.662C375.05 617.163 376.278 609.652 377.156 602.117C377.999 594.858 378.228 587.528 379.058 580.269C379.672 574.829 380.707 569.436 381.755 564.056C383.548 554.775 386.172 545.627 386.449 536.081C386.473 535.082 386.581 534.095 386.81 533.12C388.7 524.923 390.638 516.75 392.636 508.577C392.817 507.819 393.419 507.168 394.189 505.856C394.61 507.265 394.959 507.939 394.995 508.625C395.26 513.801 395.585 518.977 395.669 524.165C395.754 529.654 395.549 535.155 395.561 540.643C395.561 541.486 396.019 542.341 396.259 543.183C396.572 543.135 396.873 543.087 397.186 543.039C397.535 535.925 398.354 528.859 397.776 521.685C397.499 518.206 397.619 514.68 397.716 511.177C397.74 510.25 398.39 509.347 398.751 508.432C401.58 508.818 402.242 510.394 402.338 512.645C402.47 515.691 402.422 518.832 403.193 521.745C404.276 525.85 403.903 529.894 403.843 533.999C403.602 549.828 399.846 565.392 401.002 581.341C401.375 586.408 401.05 591.488 400.532 596.543C400.316 598.614 400.653 600.889 400.111 602.923C399.148 606.57 399.04 610.121 399.991 613.781C400.316 615.056 400.159 616.501 400.063 617.849C399.87 620.581 399.305 623.314 399.341 626.034C399.858 671.402 398.727 716.781 400.219 762.137C400.52 771.297 400.352 780.481 400.46 789.642C400.689 808.744 400.942 827.847 401.219 846.938C401.243 848.659 401.531 850.381 401.76 852.631C404.059 851.368 404.444 851.452 405.588 849.839C410.198 843.315 416.578 838.199 423.932 835.081C433.093 831.206 435.356 827.775 434.645 820.878C434.296 817.483 434.212 814.065 434.212 810.658C434.2 794.396 434.898 778.146 435.584 761.908C436.607 737.654 435.933 713.363 437.618 689.12C438.63 674.495 438.882 659.822 439.593 645.185C440.652 623.218 442.193 601.262 442.843 579.282C443.565 554.847 443.649 530.388 443.709 505.941C443.721 499.802 445.695 494.987 450.041 490.858C453.483 487.62 456.938 484.358 460.104 480.843ZM300.18 812.705C300.312 791.074 300.469 769.431 300.637 747.801C300.649 746.922 300.818 746.031 300.998 744.455C303.406 746.2 303.201 748.102 303.225 749.859C303.273 753.976 303.093 758.093 303.237 762.197C303.815 778.628 304.489 795.07 305.079 811.501C305.139 813.005 305.163 814.594 304.73 816.003C304.489 816.797 303.285 817.76 302.491 817.784C301.829 817.808 300.866 816.677 300.517 815.846C300.107 814.919 300.168 813.764 300.18 812.705ZM304.669 860.275C304.597 861.262 304.056 862.213 303.719 863.188C303.369 863.14 303.02 863.092 302.683 863.044C301.648 850.766 298.663 838.572 301.167 825.319C302.033 826.463 302.744 827.005 302.888 827.667C303.201 829.147 303.201 830.688 303.369 832.193C303.971 837.766 304.79 843.339 305.115 848.924C305.331 852.68 304.934 856.495 304.669 860.275ZM337.555 366.588C335.52 366.323 335.328 364.301 335.304 362.628C335.28 361.292 335.388 359.727 337.181 359.45C338.722 359.209 339.938 361.099 339.89 363.735C339.818 365.035 339.577 366.853 337.555 366.588ZM339.192 355.008C336.7 355.044 336.038 353.684 336.086 352.384C336.122 351.433 336.965 349.929 337.759 349.7C339.613 349.158 339.962 350.856 339.95 352.204C339.938 353.203 339.42 354.19 339.192 355.008ZM342.345 393.948C339.794 390.915 339.794 390.433 342.261 387.412C344.801 390.493 344.813 390.951 342.345 393.948ZM396.801 433.658C396.717 435.44 396.789 437.221 396.789 439.665C395.501 438.931 394.55 438.714 394.418 438.256C394.093 437.113 394.044 435.849 394.032 434.645C393.996 424.907 394.069 415.169 393.96 405.443C393.924 402.567 393.431 399.69 393.178 396.813C392.817 392.744 392.118 388.664 392.215 384.595C392.419 376.518 393.021 368.466 393.575 360.401C393.707 358.451 394.213 356.501 394.767 354.623C394.923 354.093 395.898 353.468 396.476 353.492C397.042 353.516 397.788 354.202 398.077 354.792C398.474 355.586 398.594 356.537 398.715 357.44C400.123 367.996 401.724 378.469 400.605 389.266C399.774 397.246 399.654 405.227 397.993 413.207C396.62 419.804 397.102 426.821 396.801 433.658ZM399.702 499.597C396.933 497.286 396.873 496.191 399.569 492.953C401.483 495.42 401.748 497.491 399.702 499.597ZM427.676 333.943C427.351 334.714 426.111 335.556 425.341 335.52C424.715 335.484 423.74 334.22 423.644 333.414C423.282 330.429 423.15 327.383 426.183 324.687C428.94 327.853 428.964 330.874 427.676 333.943Z" fill="#E73D66"/>
<path d="M1068.06 275.395C1053.46 268.98 1038.21 265.79 1022.19 266.885C1016.67 267.258 1014.89 270.484 1017.96 275.251C1020.2 278.742 1021.37 282.413 1021.32 286.47C1021.21 297.929 1021.14 309.388 1020.84 320.847C1020.42 337.182 1019.79 353.516 1019.3 369.85C1019.13 375.351 1019.22 380.852 1019.02 386.353C1018.55 399.016 1017.96 411.679 1017.44 424.342C1017.37 426.171 1017.49 428.013 1017.35 429.843C1017.29 430.601 1016.76 431.311 1016.29 432.382C1014.04 429.47 1014.4 426.52 1014.36 423.668C1014.13 404.878 1013.99 386.088 1013.66 367.298C1013.36 349.736 1012.95 332.162 1012.45 314.6C1011.69 288.335 1010.68 262.07 1010.03 235.806C1009.46 213.056 1009.21 190.294 1008.9 167.532C1008.84 162.801 1009.15 158.058 1009.15 153.328C1009.15 151.607 1008.78 149.873 1008.52 147.707C1005.8 149.235 1006.3 151.257 1006.36 152.895C1007.09 170.336 1005.1 187.645 1003.73 204.979C1002.18 224.611 1000.64 244.256 999.531 263.924C998.328 285.278 997.521 306.644 996.703 328.021C995.993 346.643 995.391 365.276 994.933 383.909C994.187 414.76 993.609 445.623 992.923 476.486C992.743 484.587 992.393 492.676 992.237 500.765C992.201 502.871 992.43 505.026 992.815 507.096C993.212 509.191 994.608 510.503 997.317 511.081C997.485 509.408 997.738 507.963 997.774 506.507C997.906 500.705 997.955 494.891 998.063 489.089C998.605 460.983 999.158 432.876 999.688 404.77C999.724 403.084 999.64 401.399 999.724 399.726C999.772 398.775 1000.04 397.824 1000.21 396.885C1001.39 397.836 1001.95 398.871 1002.07 399.955C1002.4 402.988 1002.72 406.033 1002.72 409.079C1002.79 440.869 1002.82 472.658 1002.85 504.436C1002.85 506.88 1002.91 509.323 1002.91 511.767C1002.91 513.645 1003.68 514.812 1005.47 515.655C1018 521.637 1030.48 527.704 1042.96 533.758C1044.74 534.613 1046.44 535.769 1049.03 534.432C1049.61 531.483 1050.64 528.233 1050.82 524.947C1051.46 513.681 1051.69 502.426 1052.54 491.147C1054.16 470.01 1054.23 448.753 1054.94 427.556C1054.94 427.399 1054.94 427.255 1054.95 427.098C1055.48 420.105 1056.12 413.123 1056.5 406.118C1057.22 392.793 1057.77 379.468 1058.45 366.143C1058.6 363.362 1060.72 361.003 1063.48 360.774C1065.19 360.63 1066.95 360.895 1068.64 360.654C1071.55 360.232 1072.48 358.668 1071.93 355.863C1071.6 354.094 1071.21 352.264 1071.3 350.482C1071.63 342.55 1072.17 334.618 1072.67 326.685C1073.02 321.028 1073.52 315.395 1074.22 309.773C1075.02 303.478 1075.89 297.195 1076.83 290.923C1077.05 289.455 1078.17 288.131 1078.88 286.746V281.245C1075.27 279.283 1071.79 277.045 1068.06 275.395Z" fill="#E73D66"/>
<path d="M1029.82 1163.56V1163.55C1027.34 1149.16 1026.71 1134.61 1026.11 1120.06C1025.77 1111.97 1025.39 1103.88 1025.09 1095.79C1024.05 1067.65 1022.86 1039.52 1022.4 1011.36C1022.39 1010.97 1022.45 1010.56 1022.55 1010.16C1025.81 996.92 1019.16 993.573 998.219 987.964C997.365 987.735 996.679 987.061 996.486 986.207C994.392 977.323 990.528 976.071 985.906 973.351C983.318 976.204 983.919 979.586 983.811 982.596C983.294 996.787 983.041 1010.99 982.668 1025.19C982.306 1038.63 982.042 1052.07 981.488 1065.49C981.079 1075.41 980.369 1085.31 979.61 1095.2C978.683 1107.36 977.311 1119.49 976.637 1131.66C976.168 1140.17 976.24 1148.72 979.117 1157C980.561 1161.15 981.247 1165.57 982.523 1169.78C984.642 1176.75 986.652 1183.77 989.264 1190.55C993.128 1200.56 996.089 1210.81 997.305 1221.45C998.219 1229.48 998.448 1237.58 999.002 1245.65C999.014 1245.89 999.291 1246.12 999.435 1246.36C1000.13 1246.23 1000.83 1246.09 1001.72 1245.92C1003.56 1253.3 1004.8 1260.46 1004.53 1267.86C1004.39 1271.38 1005.63 1274.94 1005.48 1278.45C1005.49 1278.45 1005.48 1278.45 1005.49 1278.45C1007.26 1270.77 1011.11 1263.58 1008.26 1254.84C1007.95 1253.9 1008.39 1252.82 1009.32 1252.48C1016.5 1249.88 1016.01 1236.88 1024.62 1233.4C1028.46 1231.85 1030.66 1229.16 1031.63 1225.58C1032.69 1221.65 1033.57 1217.53 1033.63 1213.5C1033.72 1207.72 1033.04 1201.92 1032.59 1196.14C1031.69 1185.29 1030.74 1174.43 1029.82 1163.56Z" fill="#E73D66"/>
<path d="M923.205 992.43C922.952 988.169 922.218 983.847 922.687 979.658C923.265 974.458 923.072 969.439 922.735 964.251C922.41 959.171 920.147 956.752 915.898 955.283C911.757 953.851 907.617 952.358 903.428 951.082C901.55 950.517 900.539 949.506 900.334 947.616C900.166 946.099 900.118 944.558 899.865 943.066C899.696 942.055 899.588 940.682 898.914 940.165C895.459 937.481 892.233 934.267 887.31 934.459C884.108 934.58 880.895 934.544 877.681 934.483C874.707 934.423 872.806 935.868 871.602 938.468C871.084 939.575 870.627 940.743 869.893 941.694C868.737 943.198 867.04 943.03 866.282 941.32C865.86 940.37 865.752 939.262 865.619 938.215C865.198 934.736 864.813 931.245 864.428 927.755C863.068 915.429 862.586 903.091 863.236 890.693C863.597 883.832 863.657 876.946 863.73 870.085C863.742 868.785 863.549 866.944 862.719 866.282C859.432 863.669 859.757 860.167 859.661 856.664C859.107 836.37 860.191 816.063 858.59 795.757C857.807 785.73 857.88 775.643 856.17 765.664C855.557 762.077 855.845 758.345 855.557 754.698C854.69 743.769 853.607 732.851 852.884 721.909C852.415 714.747 852.535 707.549 852.222 700.375C851.957 694.441 851.307 688.519 851.043 682.584C850.308 666.106 849.694 649.627 848.996 633.16C848.948 631.944 848.575 630.753 848.419 629.549C847.853 625.324 847.299 621.099 846.757 616.862C846.589 615.502 846.517 614.13 846.3 612.77C845.229 606.017 844.133 599.264 843.014 592.511C842.761 591.007 842.376 589.538 842.087 588.045C840.859 581.63 838.969 575.25 841.004 568.63C841.305 567.643 841.172 566.499 841.124 565.44C840.414 551.79 841.485 538.357 844.458 524.947C848.972 504.605 847.564 483.889 846.974 463.294C846.577 449.403 845.205 435.536 844.916 421.645C844.663 409.741 844.928 397.8 845.71 385.919C846.481 374.231 847.034 362.423 851.055 351.205C851.729 349.303 851.969 347.04 854.906 346.474C856.748 361.773 858.53 376.88 860.371 391.962C862.249 407.261 864.44 422.524 866.041 437.847C867.618 452.954 868.629 468.108 869.881 483.251C870.206 483.263 870.531 483.275 870.856 483.287C870.928 482.757 871.06 482.228 871.06 481.71C870.964 473.609 871 465.508 870.687 457.419C870.507 452.713 869.64 448.043 869.339 443.348C868.52 430.565 868.015 417.757 867.04 404.986C866.041 392.07 864.404 379.191 863.465 366.263C863.056 360.545 863.682 354.756 863.838 348.797C866.582 348.894 866.318 350.374 866.594 351.469C867.112 353.516 867.305 355.731 868.231 357.572C870.025 361.099 870.591 364.698 870.651 368.61C870.856 382.958 871.289 397.307 871.626 411.655C871.891 423.042 874.31 434.007 877.945 444.769C878.475 446.345 879.065 447.549 880.846 447.862C883.82 448.38 884.542 450.438 884.77 453.182C885.469 461.247 886.468 469.276 887.166 477.329C887.683 483.251 887.888 489.209 888.249 495.144C888.369 497.202 887.647 498.911 885.613 499.453C878.8 501.234 875.129 506.519 871.506 511.851C869.363 514.993 869.7 516.425 872.685 518.869C876.561 522.034 881.063 523.828 885.95 524.719C888.418 525.176 890.247 524.285 891.981 522.359C893.882 520.241 896.242 518.507 898.456 516.69C899.744 515.631 901.285 514.848 902.489 513.705C903.741 512.525 904.704 510.864 903.777 509.179C902.477 506.832 901.261 504.027 899.191 502.619C895.339 500.007 894.28 496.684 894.532 492.435C894.749 488.932 894.797 485.418 894.954 481.915C895.231 475.824 895.652 469.733 895.82 463.643C895.953 458.912 896.242 454.121 895.628 449.463C894.496 440.881 894.761 432.455 896.362 423.957C899.528 407.249 900.96 390.361 900.298 373.365C900.069 367.587 901.032 362.231 902.922 356.802C904.92 351.06 907.099 345.15 907.605 339.18C908.736 325.626 908.628 311.964 906.305 298.507C904.511 288.143 901.779 277.959 899.793 267.619C898.77 262.263 895.664 259.266 890.741 257.833C878.656 254.319 866.318 252.633 853.703 252.982C848.358 253.127 844.555 255.426 842.894 260.53C841.305 265.429 838.127 267.692 833.071 267.824C828.991 267.92 826.258 270.111 824.718 273.867C823.971 275.696 823.189 277.526 822.238 279.247C814.257 293.704 809.057 309.135 806.674 325.445C805.133 336.014 804.014 346.655 803.111 357.295C802.461 364.891 802.269 372.498 805.254 379.889C806.229 382.284 806 385.281 805.88 387.99C805.675 392.564 804.76 397.114 804.784 401.676C804.832 410.066 805.145 418.468 805.735 426.845C806.602 439.171 807.842 451.485 808.853 463.811C809.118 467.001 809.539 470.263 809.154 473.405C808.01 482.637 806.445 491.809 805.157 501.03C804.64 504.785 803.773 508.661 804.194 512.357C805.603 524.61 806.65 536.948 809.768 548.949C810.225 550.694 810.153 552.584 810.357 554.402C810.911 559.397 811.381 564.417 812.103 569.388C812.464 571.928 813.644 574.371 813.824 576.899C814.51 587.107 815.148 597.326 815.449 607.545C816.051 627.84 815.329 648.134 816.532 668.441C817.556 685.654 817.158 702.951 817.411 720.212C817.495 726.002 817.519 731.792 817.748 737.569C817.917 741.843 818.374 746.092 818.651 750.365C819.06 756.612 819.385 762.859 819.807 769.107C820.156 774.427 821.022 779.759 820.878 785.068C820.649 793.638 820.782 802.124 822.455 810.574C822.924 812.933 822.659 815.437 822.695 817.869C822.719 820.156 822.503 822.455 822.707 824.718C823.225 830.471 823.911 836.213 824.513 841.967C824.609 842.882 824.706 843.808 824.633 844.711C823.983 852.969 824.886 861.106 825.717 869.315C826.944 881.617 827.474 894.015 825.945 906.377C825.572 909.386 825.103 912.395 824.79 915.405C824.465 918.594 824.357 921.796 824.019 924.986C823.105 933.761 821.901 942.524 821.203 951.323C819.794 969.282 818.591 987.254 817.423 1005.24C817.158 1009.34 817.182 1013.49 817.411 1017.6C817.495 1019.12 818.266 1020.84 819.253 1022.03C824.465 1028.36 828.293 1035.45 830.483 1043.29C835.539 1061.37 840.245 1079.53 845.265 1097.62C846.192 1100.94 847.708 1104.18 849.394 1107.21C858.253 1123.13 869.736 1137.57 876.152 1155.82C877.512 1153.82 878.355 1152.47 879.318 1151.22C880.882 1149.19 882.267 1146.5 885.204 1146.7C890.933 1147.08 895.796 1144.43 900.936 1142.76C905.847 1141.16 908.652 1137.73 909.711 1132.61C910.542 1128.62 911.842 1124.72 912.949 1120.77C914.249 1116.09 915.766 1111.45 916.813 1106.72C917.8 1102.28 918.281 1097.73 918.992 1093.23C920.087 1086.32 921.604 1079.45 922.182 1072.5C923.169 1060.5 923.903 1048.46 924.132 1036.43C924.372 1023.59 923.915 1010.76 923.71 997.919C923.662 996.077 923.313 994.259 923.205 992.43ZM872.842 346.968C873.082 347.461 873.552 347.967 873.516 348.424C873.48 348.833 872.89 349.194 872.264 349.869C871.819 349.026 871.253 348.388 871.385 348.147C871.674 347.642 872.336 347.341 872.842 346.968ZM821.179 391.18C820.553 395.537 819.831 399.882 819.048 404.204C818.904 405.01 818.302 405.72 817.375 407.526C816.833 406.37 816.376 405.841 816.352 405.287C816.063 399.389 815.846 393.491 815.63 387.581C815.618 387.135 815.822 386.69 815.931 386.244C816.292 384.752 817.134 383.693 818.759 383.849C820.3 383.994 821.215 385.029 821.263 386.606C821.311 388.146 821.395 389.687 821.179 391.18ZM850.128 900.659C852.92 903.837 852.993 904.571 850.79 908.568C848.563 905.823 848.852 903.404 850.128 900.659ZM882.748 1030.56C882.074 1034.1 878.559 1037.46 874.37 1038.06C868.821 1038.86 863.85 1038.15 861.298 1030.97C859.565 1026.1 857.94 1021.19 856.182 1016.31C855.665 1014.88 854.943 1013.53 854.232 1012.18C852.15 1008.19 850.922 1003.96 851.019 999.435C851.199 991.467 850.657 983.607 849.044 975.758C848.382 972.557 848.756 969.102 848.876 965.78C849.069 960.447 849.49 955.211 847.841 949.915C846.926 946.978 847.034 943.607 847.275 940.478C847.636 935.783 848.515 931.125 849.213 926.455C849.297 925.913 849.586 925.407 850.032 924.228C850.718 925.504 851.38 926.202 851.44 926.96C851.753 930.595 852.403 934.303 852.042 937.89C851.103 947.435 852.764 956.764 853.558 966.177C853.847 969.656 853.799 973.17 854.112 976.661C854.329 979.057 854.557 981.536 855.376 983.763C857.23 988.77 859.288 993.718 861.563 998.544C863.573 1002.81 863.85 1006.71 860.588 1010.44C860.311 1010.75 860.251 1011.26 859.878 1012.19C860.973 1011.89 861.744 1011.8 862.418 1011.48C864.043 1010.73 865.415 1010.93 866.414 1012.46C869.194 1016.71 873.359 1019.24 877.608 1021.7C882.845 1024.73 883.603 1026.07 882.748 1030.56Z" fill="#E73D66"/>
<path d="M776.798 406.045C773.031 403.457 769.034 401.182 764.99 399.052C762.739 397.872 761.499 396.356 761.054 393.876C760.331 389.819 759.308 385.823 758.526 381.779C757.936 378.733 757.924 375.688 759.501 372.847C761.222 369.754 761.439 366.395 760.921 363.049C760.464 360.076 760.777 357.331 761.752 354.515C763.124 350.579 762.306 346.98 759.405 343.922C758.249 342.706 757.094 341.467 755.794 340.407C752.724 337.904 749.618 335.436 746.429 333.089C741.999 329.839 741.891 326.974 746.152 323.652C747.476 322.629 748.884 321.642 749.944 320.39C751.605 318.428 751.424 316.947 749.498 315.226C748.595 314.419 747.548 313.757 746.501 313.131C734.837 306.114 722.631 305.031 710.149 310.471C703.3 313.456 696.692 317.007 690.095 320.522C685.1 323.182 682.861 328.093 684.161 333.679C684.907 336.905 685.894 340.275 687.628 343.056C691.179 348.761 692.647 354.731 691.937 361.364C691.696 363.639 691.793 365.95 691.636 368.237C691.564 369.296 691.576 370.548 691.01 371.331C690.408 372.173 689.181 373.028 688.206 373.052C684.847 373.136 682.019 370.861 681.284 367.527C680.767 365.156 680.646 362.7 680.369 360.281C680.081 357.861 679.96 355.406 679.515 353.022C678.805 349.206 676.253 346.787 672.967 344.524C672.461 347.882 671.799 350.723 671.643 353.588C671.185 362.423 670.957 371.258 670.571 380.093C670.499 381.658 670.078 383.211 669.765 385.065C667.562 384.415 665.985 383.837 664.36 383.488C662.434 383.079 661.038 383.717 660.713 385.871C660.532 387.075 660.087 388.315 660.219 389.494C661.206 397.824 662.242 406.154 663.457 414.459C663.626 415.615 664.601 417.011 665.612 417.601C668.308 419.178 668.826 421.477 668.549 424.245C668.14 428.35 667.646 432.443 667.357 436.559C667.177 439.135 666.756 441.892 667.43 444.287C668.32 447.477 667.514 449.932 665.937 452.496C662.639 457.865 660.304 463.618 658.811 469.769C655.91 481.77 657.535 493.795 658.438 505.796C659.04 513.705 660.063 521.589 660.785 529.497C661.844 541.209 662.783 552.921 663.806 564.633C664.926 577.405 666.033 590.188 667.261 602.947C668.019 610.844 668.934 618.728 669.945 626.6C670.15 628.225 671.101 629.766 671.703 631.343C672.967 627.695 673.52 624.289 674.303 620.931C675.085 617.596 674.363 613.624 678.576 610.567C678.925 614.238 679.431 617.187 679.431 620.136C679.455 633.341 679.828 646.497 673.893 658.992C668.778 669.765 668.007 681.344 670.102 693.069C670.355 694.477 671.101 695.801 671.799 697.655C673.725 696.583 675.194 695.861 676.566 694.97C679.262 693.237 681.91 691.407 684.57 689.614C689.891 686.027 695.211 682.44 700.519 678.853C702.493 677.517 704.371 675.868 703.974 673.352C703.577 670.836 702.855 668.164 701.482 666.069C699.244 662.663 698.75 659.076 698.642 655.2C698.509 650.325 698.557 645.366 697.667 640.587C696.282 633.124 696.27 625.721 697.029 618.258C697.077 617.801 697.57 617.404 698.545 615.947C699.544 621.28 700.688 625.493 701.073 629.778C702.084 640.864 702.819 651.974 703.553 663.084C703.697 665.227 704.419 666.527 706.55 667.02C708.031 667.369 709.535 667.743 710.919 668.344C712.569 669.055 713.869 668.585 715.181 667.622C723.185 661.784 731.19 655.946 739.219 650.12C740.88 648.917 742.408 647.268 744.804 648.062C744.166 649.326 743.793 650.903 742.806 651.757C739.604 654.538 736.173 657.066 732.803 659.654C724.581 665.985 716.336 672.293 708.091 678.6C705.719 680.418 704.708 682.777 704.817 685.774C704.961 689.59 704.973 693.418 704.949 697.233C704.937 698.654 704.672 700.086 704.431 702.325C700.291 697.968 700.748 692.142 696.764 688.519C695.608 689.169 694.489 689.626 693.55 690.348C685.774 696.282 678.058 702.277 670.27 708.199C666.972 710.703 665.973 714.025 666.539 717.925C669.031 735.27 671.57 752.628 674.098 769.973C674.796 774.788 675.627 779.579 676.277 784.394C676.999 789.822 677.541 795.275 678.251 800.704C679.166 807.625 680.357 814.522 681.056 821.468C681.441 825.344 682.777 828.497 685.557 831.169C697.245 842.376 708.897 853.619 720.597 864.813C726.11 870.097 731.659 875.345 737.244 880.557C739.423 882.592 741.722 884.482 744.611 887.009C745.827 884.301 747.079 882.363 747.548 880.245C748.607 875.49 749.125 870.603 750.148 865.836C751.364 860.119 750.401 853.847 754.421 848.804C754.819 848.31 754.638 847.335 754.698 846.577C755.372 836.526 756.022 826.475 756.708 816.436C756.985 812.476 757.25 808.516 757.695 804.58C758.574 796.876 759.826 789.208 760.452 781.493C761.559 767.951 762.378 754.385 763.208 740.819C764.099 726.182 764.881 711.545 765.7 696.896C766.121 689.421 766.121 681.91 767 674.483C768.481 661.893 769.997 649.314 769.516 636.615C769.383 633.088 770.094 630.319 773.235 628.418C776.076 626.696 776.618 624.12 776.281 620.906C775.799 616.369 775.703 611.782 775.643 607.22C775.546 600.215 776.714 593.281 775.919 586.204C774.932 577.393 775.221 568.533 776.678 559.722C778.086 551.224 777.882 542.714 776.87 534.156C775.739 524.61 774.884 515.017 774.054 505.435C772.477 487.187 770.984 468.927 769.468 450.667C769.058 445.804 768.541 440.941 768.3 436.066C768.047 430.721 770.142 426.292 773.994 422.572C775.739 420.887 777.424 419.057 778.784 417.059C781.781 412.69 781.204 409.079 776.798 406.045ZM728.12 843.905C728.036 844.422 727.543 845.169 727.133 845.253C726.495 845.373 725.436 845.229 725.147 844.795C724.485 843.82 723.907 842.641 723.775 841.485C722.463 830.435 721.247 819.373 720.007 808.323C719.971 808.022 719.971 807.709 719.899 806.578C720.236 806.096 720.946 805.073 721.668 804.05C722.704 804.796 724.076 805.326 724.702 806.325C725.472 807.565 725.881 809.166 725.99 810.646C726.387 815.666 726.556 820.697 726.856 825.729C727.181 831.049 727.567 836.357 727.94 841.678C727.988 842.412 728.241 843.182 728.12 843.905ZM703.757 416.036C704.877 402.976 705.912 389.916 707.019 376.856C707.248 374.123 707.537 371.391 707.946 368.682C708.849 362.531 715.915 358.066 721.681 360.052C722.511 360.341 723.041 361.46 723.715 362.194C722.956 362.796 722.294 363.663 721.428 363.952C720.453 364.277 719.309 364.048 718.25 364.12C714.952 364.325 713.339 365.902 713.014 369.212C712.954 369.814 712.99 370.428 712.978 371.042C712.869 394.49 712.785 417.938 712.653 441.386C712.641 443.252 712.328 445.13 712.159 446.995C711.81 447.068 711.461 447.14 711.112 447.212C710.101 445.587 708.921 444.046 708.103 442.337C704.131 433.983 702.975 425.184 703.757 416.036ZM712.869 448.62C712.749 448.693 712.641 448.825 712.52 448.825C712.412 448.825 712.316 448.669 712.207 448.584C712.316 448.512 712.436 448.368 712.544 448.38C712.665 448.392 712.761 448.536 712.869 448.62ZM689.421 559.036C687.086 562.322 686.231 565.861 686.569 569.833C686.701 571.41 686.472 573.011 686.4 574.6C682.753 570.17 680.779 565.596 683.668 560.348C684.763 558.35 686.075 556.46 687.363 554.582C691.672 548.287 696.03 542.028 700.315 535.72C703.144 531.544 704.323 526.897 704.227 521.854C704.131 516.666 704.179 511.466 704.263 506.278C704.383 499.585 703.047 493.242 700.122 487.235C699.785 486.549 699.508 485.839 699.28 485.117C699.207 484.888 699.376 484.575 699.508 484.009C703.144 484.876 705.25 487.356 706.153 490.666C709.018 501.21 710.017 511.875 707.73 522.696C707.26 524.935 706.706 527.234 706.791 529.485C706.911 533.084 705.539 535.949 703.553 538.766C698.798 545.47 694.188 552.307 689.421 559.036ZM704.082 609.447C702.806 609.724 701.338 608.063 701.807 606.907C702.072 606.257 702.963 605.86 704.106 604.921C704.865 606.137 705.659 606.968 705.828 607.906C705.888 608.328 704.781 609.291 704.082 609.447ZM705.9 559.698C704.961 559.337 704.335 558.193 703.577 557.375C704.263 556.93 704.997 556.039 705.611 556.123C706.598 556.256 707.489 557.014 709.294 557.965C707.501 558.928 706.466 559.915 705.9 559.698ZM712.111 610.242C711.774 610.049 711.425 609.844 711.088 609.652C710.811 609.086 710.185 608.376 710.354 607.979C710.546 607.509 711.389 607.136 711.979 607.088C712.256 607.064 712.894 607.894 712.881 608.304C712.845 608.954 712.388 609.592 712.111 610.242ZM711.208 594.076C710.679 593.281 709.8 592.535 709.68 591.681C709.439 589.947 710.943 588.202 712.183 588.635C712.99 588.912 713.531 589.947 714.639 591.091C713.267 592.282 712.243 593.173 711.208 594.076ZM719.911 628.743C719.803 631.198 718.467 633.028 717.01 632.643C714.868 632.077 715.144 630.163 714.988 628.526C715.108 627.792 715.012 626.889 715.397 626.323C715.939 625.541 716.878 624.469 717.588 624.506C718.31 624.542 719.105 625.697 719.598 626.528C719.959 627.118 719.947 627.996 719.911 628.743ZM739.255 638.396C738.304 638.216 737.581 636.771 736.426 635.556C737.509 634.244 738.231 632.607 739.05 632.558C740.795 632.45 741.542 634.027 741.53 635.7C741.53 637.205 740.892 638.697 739.255 638.396ZM740.446 617.199C739.447 617.428 738.183 617.488 737.305 617.067C734.464 615.694 731.996 616.031 729.517 619.101C728.806 617.091 728.181 615.887 727.964 614.635C727.422 611.469 725.593 609.483 722.764 608.183C721.031 607.389 719.008 606.883 718.202 604.151C722.752 603.212 726.182 603.826 728.674 607.594C730.744 610.735 734.091 611.903 737.569 612.733C738.749 613.022 740.013 613.119 741.048 613.672C741.698 614.021 742.42 615.093 742.336 615.743C742.252 616.32 741.193 617.043 740.446 617.199ZM737.533 606.751C737.69 607.076 737.232 607.979 736.835 608.207C736.438 608.436 735.547 608.352 735.222 608.039C732.959 605.848 732.887 602.827 732.983 600.058C733.068 597.844 734.753 596.327 737.894 596.315C737.967 597.591 738.28 598.542 738.015 599.3C737.184 601.756 736.281 604.127 737.533 606.751ZM729.228 594.293C728.361 594.293 727.482 594.016 726.7 593.883C726.592 593.522 726.471 593.342 726.519 593.233C729.769 585.698 726.399 579.054 723.703 572.325C723.137 570.917 722.282 569.593 721.861 568.148C721.572 567.149 721.801 566.006 721.801 564.922C722.138 564.802 722.487 564.681 722.824 564.549C723.57 565.356 724.521 566.054 725.039 566.981C726.339 569.388 727.675 571.831 728.59 574.395C730.07 578.548 731.262 582.809 732.526 587.046C732.827 588.057 733.08 589.129 733.152 590.176C733.356 593.366 732.466 594.293 729.228 594.293ZM730.744 602.586C730.371 602.983 730.094 603.284 729.83 603.585C729.469 603.236 729.119 602.887 728.758 602.538C729.071 602.261 729.372 601.78 729.709 601.756C729.998 601.744 730.323 602.225 730.744 602.586ZM724.521 585.036C724.569 585.084 724.244 585.674 724.16 585.65C723.799 585.578 723.462 585.373 723.089 585.217C723.306 584.844 723.438 584.603 723.57 584.362C723.895 584.591 724.244 584.771 724.521 585.036ZM744.792 567.426C744.094 559.987 743.407 552.536 742.83 545.085C742.42 539.765 742.36 534.408 741.843 529.1C740.856 519.073 739.58 509.082 738.556 499.056C737.991 493.591 737.582 488.102 737.305 482.613C737.112 478.725 736.209 475.162 734.452 471.647C733.176 469.107 732.43 466.243 731.84 463.438C730.769 458.322 729.577 456.89 724.545 456.083C722.752 455.794 720.886 455.903 719.069 455.782C718.009 455.71 716.854 455.758 715.927 455.337C715.229 455.024 714.543 454.121 714.374 453.363C714.266 452.882 714.952 451.955 715.518 451.618C717.636 450.366 719.851 449.559 722.463 450.029C724.846 450.462 727.302 450.606 729.733 450.618C733.934 450.631 735.318 449.319 735.355 445.238C735.391 441.121 735.114 436.993 735.138 432.876C735.162 429.277 735.403 425.678 735.583 421.2C739.688 423.776 740.23 426.918 740.049 429.867C739.507 438.305 740.314 446.598 741.433 454.952C742.469 462.656 742.794 470.456 743.323 478.219C744.19 490.87 744.539 503.557 745.911 516.148C746.97 525.874 747.163 535.624 747.982 545.338C748.619 552.933 749.883 560.481 749.45 568.136C749.354 569.725 749.029 571.302 748.631 574.07C747.043 572.506 746.019 571.88 745.574 570.965C745.057 569.918 744.9 568.63 744.792 567.426ZM744.972 648.05C746.344 644.607 746.369 644.607 749.643 645.414C748.824 647.785 747.392 648.772 744.972 648.05ZM748.21 614.334C747.596 614.286 746.513 613.155 746.597 612.685C746.802 611.542 747.56 610.494 748.499 608.617C749.606 610.194 750.497 610.916 750.594 611.734C750.786 613.287 749.835 614.443 748.21 614.334ZM754.626 401.014C752.351 403.205 750.076 403.072 748.788 400.207C747.307 396.921 746.405 393.382 745.345 390.217C745.971 388.411 746.104 386.858 746.934 385.944C747.873 384.932 749.45 383.969 750.726 383.994C751.617 384.018 752.869 385.606 753.254 386.738C754.337 389.892 755.071 393.178 755.926 396.416C756.395 398.197 755.95 399.738 754.626 401.014ZM769.889 548.444C770.202 557.11 770.563 565.777 770.852 574.431C770.9 575.924 770.731 577.417 770.671 578.909C770.334 578.933 769.997 578.969 769.66 578.994C767.469 575.443 766.892 571.35 766.699 567.342C765.905 550.899 765.435 534.432 764.689 517.978C764.484 513.44 763.606 508.926 763.184 504.388C762.727 499.393 762.51 494.361 762.053 489.366C760.608 473.429 759.092 457.492 757.623 441.555C757.467 439.881 757.25 438.172 757.503 436.535C757.659 435.536 758.454 434.164 759.308 433.827C760.933 433.177 761.8 434.609 762.221 435.957C762.715 437.558 763.112 439.207 763.257 440.869C764.28 452.256 765.206 463.643 766.23 475.03C766.422 477.136 767.072 479.206 767.241 481.325C767.59 485.719 767.843 490.124 767.999 494.518C768.649 512.501 769.251 530.472 769.889 548.444Z" fill="#E73D66"/>
<path d="M733.669 1104.25C731.455 1104.71 729.18 1104.88 726.917 1105.14C725.412 1105.32 723.895 1105.45 722.391 1105.63C718.936 1106.06 715.482 1106.53 712.027 1106.96C710.667 1107.13 709.294 1107.19 707.946 1107.4C704.961 1107.84 702 1108.43 699.003 1108.79C693.129 1109.53 687.243 1110.14 681.369 1110.83C680.779 1110.9 680.165 1111.11 679.635 1111.39C676.578 1112.96 673.906 1112.14 671.811 1109.75C669.368 1106.99 666.431 1106.62 663.084 1107.17C659.377 1107.76 655.621 1108.77 651.914 1108.66C646.594 1108.5 641.779 1110.44 636.711 1111.32C631.463 1112.23 626.239 1113.1 620.389 1111.95C620.822 1110.78 620.907 1109.49 621.544 1109.06C624.494 1107.09 627.202 1104.52 631.114 1104.6C632.233 1101.41 635.098 1100.37 637.879 1099.21C640.888 1097.96 642.886 1095.9 643.067 1092.46C643.584 1082.54 644.415 1072.63 644.559 1062.71C644.704 1052.51 644.908 1042.3 644.162 1032.06C643.38 1021.41 643.765 1010.68 643.969 999.977C644.355 979.044 645.113 958.124 645.45 937.204C645.751 918.871 645.655 900.527 645.835 882.194C645.883 877.476 646.618 872.757 646.509 868.051C646.305 859.071 647.027 850.08 645.57 841.1C644.355 833.601 644.319 825.885 642.862 818.446C640.984 808.889 640.491 799.163 638.372 789.63C636.434 780.903 635.688 771.899 634.472 763.016C632.691 749.871 630.861 736.727 629.26 723.57C628.357 716.155 627.828 708.705 627.226 701.254C627.13 700.05 627.551 698.81 627.732 697.582C628.105 697.594 628.478 697.606 628.851 697.618C632.173 710.751 633.377 724.244 635.146 737.654C636.928 751.111 638.938 764.544 640.852 777.978C641.249 777.183 641.249 776.437 641.249 775.679C641.309 735.655 641.466 695.632 641.406 655.597C641.309 600.588 640.996 545.567 640.924 490.557C640.912 485.105 641.731 479.628 642.417 474.187C642.862 470.696 642.513 469.396 639.275 468.144C637.012 467.278 634.581 466.856 632.245 466.206C627.154 464.798 626.504 463.727 627.78 458.743C630.199 449.282 632.667 439.833 635.074 430.372C640.238 410.126 645.98 389.988 647.954 369.068C648.844 359.606 648.688 350.145 646.594 340.817C645.847 337.506 644.92 336.941 641.815 337.928C640.551 338.325 639.407 339.119 638.276 339.842C637 340.66 635.893 341.755 634.569 342.478C628.394 345.836 622.158 349.062 615.995 352.42C612.517 354.322 609.134 356.393 605.692 358.379C603.645 359.558 602.863 361.255 602.839 363.663C602.743 374.508 602.394 385.354 602.273 396.199C602.044 416.06 601.948 435.933 601.744 455.794C601.563 473.055 601.069 490.317 601.142 507.578C601.178 517.857 599.89 516.726 593.257 518.868C589.442 520.096 588.984 520.83 589.309 524.851C589.394 525.91 589.707 526.957 589.803 528.017C590.272 532.868 591.139 537.73 591.055 542.581C590.742 562.888 591.404 583.182 590.332 603.501C589.43 620.569 590.128 637.722 590.032 654.839C589.863 684.787 589.634 714.735 589.418 744.683C589.406 745.935 589.129 747.187 588.96 748.583C587.287 748.054 586.204 747.704 584.531 747.175C584.615 774.114 583.399 800.559 584.326 827.053C585.301 823.514 585.482 819.758 588.683 817.11C589.418 820.926 589.899 824.669 589.875 828.413C589.791 843.074 589.237 857.747 589.418 872.396C589.767 901.875 590.549 931.354 590.994 960.844C591.235 976.432 591.103 992.02 591.223 1007.61C591.38 1029.15 591.536 1050.69 591.849 1072.24C591.933 1077.7 592.776 1083.14 592.981 1088.61C593.631 1105.22 592.788 1121.88 594.87 1138.45C595.93 1146.91 596.267 1155.48 597.41 1163.93C597.844 1167.16 599.493 1170.28 600.889 1173.31C601.274 1174.15 602.779 1175.01 603.73 1174.95C605.656 1174.84 607.702 1174.44 609.435 1173.6C614.683 1171.06 620.401 1171.38 625.914 1170.55C630.572 1169.86 635.303 1169.61 639.997 1169.1C641.947 1168.88 643.885 1168.48 645.823 1168.12C648.026 1167.71 650.217 1167.06 652.432 1166.86C655.308 1166.59 658.498 1167.38 661.05 1166.4C665.107 1164.85 669.115 1165.11 673.207 1164.99C677.914 1164.86 682.62 1164.79 687.315 1164.47C691.552 1164.2 695.777 1163.62 700.002 1163.2C701.061 1163.09 702.144 1163.11 703.192 1162.97C708.753 1162.16 714.314 1160.66 719.875 1160.67C726.64 1160.68 731.78 1158.07 736.739 1153.93C740.591 1150.72 742.204 1146.91 742.348 1142.04C742.456 1138.56 743.359 1135.12 743.6 1131.64C744.045 1125.1 744.647 1118.53 744.467 1111.99C744.274 1106.66 738.821 1103.19 733.669 1104.25ZM621.027 496.937C621.123 494.554 621.556 492.182 621.833 489.811C622.351 489.751 622.881 489.703 623.398 489.643C623.904 491.111 624.807 492.568 624.855 494.048C624.999 499.055 624.939 504.087 624.722 509.094C624.674 510.274 623.699 511.406 623.181 512.489C620.822 511.971 620.81 510.575 620.822 509.191C620.858 505.11 620.846 501.018 621.027 496.937Z" fill="#E73D66"/>
<path d="M631.198 1104.6C631.174 1104.6 631.138 1104.6 631.114 1104.6C631.102 1104.65 631.066 1104.7 631.054 1104.75L631.198 1104.6Z" fill="#E73D66"/>
<path d="M514.932 679.082L515.065 679.25C515.041 679.178 514.993 679.106 514.932 679.082Z" fill="#E73D66"/>
<path d="M547.517 911.167C544.194 911.48 484.647 857.41 481.77 857.458C481.409 858.855 481.181 860.034 480.795 861.154C478.881 866.679 479.628 871.578 484.033 875.706C484.033 875.706 536.142 920.484 536.262 922.049C536.382 923.614 535.612 925.191 533.891 924.721C532.169 924.252 481.855 877.139 479.977 876.958C479.736 882.88 479.495 888.49 479.303 894.099C479.002 902.946 478.581 911.793 478.508 920.653C478.46 927.068 476.414 933.785 480.844 939.707C481.349 940.381 481.289 941.465 481.481 942.355C482.204 945.63 482.769 948.94 483.684 952.154C487.632 965.9 491.689 979.61 495.709 993.332C496.961 997.581 500.103 998.966 504.424 997.606C508.553 996.293 512.766 995.21 516.991 994.295C523.166 992.959 529.449 992.068 535.588 990.588C542.052 989.035 548.443 987.109 554.787 985.099C556.388 984.593 558.434 983.811 558.543 981.56C558.651 979.285 559.06 976.793 558.35 974.759C557.267 971.678 557.507 968.741 557.953 965.743C558.711 960.772 559.903 955.861 560.456 950.878C561.528 941.176 562.238 931.438 563.177 921.724C564.044 912.624 565.127 903.548 565.897 894.436C566.656 885.48 567.245 876.501 567.703 867.533C568.112 859.456 568.064 851.355 568.569 843.279C568.798 839.692 569.496 835.996 570.748 832.638C572.638 827.582 573.926 822.551 574.022 817.11C574.299 800.006 574.793 782.901 575.238 765.796C575.382 759.994 575.695 754.205 575.828 748.403C575.924 743.997 574.72 740.037 572.036 736.414C571.037 735.066 570.435 733.116 570.387 731.418C570.062 720.886 570.014 710.342 569.737 699.809C569.508 691.263 569.051 682.717 568.738 674.182C568.593 670.21 568.449 666.238 568.545 662.278C568.606 659.702 570.339 658.113 572.506 658.137C574.419 658.161 575.455 659.509 575.503 662.434C575.563 666.25 575.503 670.078 575.431 673.893C575.19 686.268 574.901 698.63 574.66 711.004C574.636 712.448 574.817 713.893 574.901 715.337C575.214 715.349 575.527 715.361 575.84 715.385C577.092 710.907 578.536 706.405 578.572 701.723C578.717 684.005 578.668 666.274 578.596 648.555C578.584 646.846 577.982 645.149 577.645 643.44C577.2 643.211 576.743 642.982 576.297 642.754C575.984 643.464 575.828 644.294 575.334 644.836C574.889 645.33 574.082 645.486 573.529 645.763C569.978 642.152 569.942 641.779 572.518 637.975C573.613 636.35 574.973 634.701 572.746 632.871C572.193 633.052 571.771 633.184 571.35 633.317C567.474 634.629 566.499 634.063 565.969 629.97C565.524 626.492 565.259 622.989 564.91 619.498C563.779 608.268 562.503 597.037 561.6 585.782C561.239 581.256 561.624 576.67 561.877 572.12C562.106 568.016 563.105 563.899 562.912 559.831C562.611 553.162 561.72 546.506 560.878 539.873C560.529 537.165 559.806 534.481 558.952 531.881C558.266 529.762 556.087 529.473 555.305 531.459C553.379 536.394 549.021 539.271 545.988 543.219C538.405 553.078 529.124 561.287 520.205 569.857C519.543 570.495 520.168 570.351 518.255 571.831C517.075 574.72 516.148 575.334 514.583 576.935C508.589 583.026 502.823 589.393 496.407 595.015C491.4 599.408 487.681 603.874 488.896 610.94C486.778 635.748 486.465 660.617 486.754 685.497C486.778 687.23 487.319 688.952 487.62 690.613C489.57 690.505 490.979 690.432 493.109 690.312C491.906 693.706 490.979 696.511 489.895 699.268C489.233 700.953 488.716 702.987 487.464 704.082C485.55 705.743 485.381 707.657 485.345 709.8C485.189 718.647 485.044 727.494 484.852 736.342C484.816 738.159 484.647 739.989 484.443 741.794C484.178 744.19 483.6 746.585 483.552 748.98C483.419 755.998 483.949 763.064 483.347 770.033C482.204 783.382 483.468 796.78 481.686 810.165C480.422 819.626 481.241 829.364 481.168 838.981C481.144 841.882 481.229 844.783 481.289 847.672C481.337 850.104 482.228 852.005 484.37 853.426C486.778 855.027 550.081 903.163 549.731 906.786C549.382 910.445 550.839 910.855 547.517 911.167ZM506.206 676.518L508.986 679.9C509.949 680.911 539.777 665.612 539.777 665.612C540.222 665.299 540.752 665.106 541.245 664.866C541.414 665.215 541.57 665.576 541.739 665.925C541.354 666.081 521.709 676.469 512.308 681.982C509.588 683.583 511.658 688.615 511.177 688.543C507.445 687.989 498.129 684.943 496.684 683.704C500.223 681.019 506.206 676.518 506.206 676.518ZM529.786 726.905C530.906 727.446 531.7 727.567 531.844 727.928C533.12 731.31 532.494 734.741 531.544 738.159C529.281 734.753 529.858 731.093 529.786 726.905ZM523.19 690.023C522.901 690.192 522.203 689.638 521.673 689.421C524.502 684.33 528.029 682.331 532.121 684.498C528.727 686.629 525.994 688.386 523.19 690.023ZM529.81 719.694C525.465 719.393 523.551 716.757 521.649 713.953C524.646 711.991 528.089 714.374 529.81 719.694ZM531.158 845.59C531.989 844.013 532.049 842.785 530.942 841.425C529.064 839.114 528.956 836.442 529.353 833.625C530.256 827.149 531.05 820.661 531.965 814.185C532.302 811.862 532.567 809.418 535.155 807.468C535.853 808.985 536.431 810.153 536.924 811.332C540.644 820.192 542.606 829.147 539.849 838.789C538.441 843.736 538.056 848.96 537.032 854.028C536.731 855.52 535.829 856.88 534.818 859.192C532.928 855.412 531.279 852.716 530.256 849.791C529.846 848.623 530.496 846.83 531.158 845.59ZM535.167 796.479C535.167 794.396 535.468 792.314 535.672 789.762C538.308 791.435 539.006 793.626 539.608 795.756C540.09 797.466 539.259 798.874 537.466 799.151C535.576 799.452 535.167 797.851 535.167 796.479ZM515.98 695.03C515.281 696.427 513.921 695.969 512.85 695.271C512.128 694.802 511.514 694.176 510.852 693.622C510.9 693.213 510.96 692.804 511.008 692.382C512.056 692.25 513.211 691.805 514.15 692.069C515.426 692.455 516.798 693.43 515.98 695.03ZM497.033 744.105C499.814 736.847 502.871 729.697 505.736 722.475C506.434 720.706 506.844 718.816 507.445 716.83C504.809 715.746 502.643 714.856 500.488 713.965C500.512 713.616 500.548 713.267 500.572 712.918C502.113 712.761 503.69 712.292 505.182 712.508C509.516 713.146 509.588 713.218 511.514 709.391C512.332 707.754 513.043 706.056 513.945 704.468C514.704 703.143 515.787 701.482 517.448 702.469C518.519 703.107 519.181 704.805 519.519 706.165C519.747 707.068 519.133 708.211 518.832 709.222C517.52 713.58 516.196 717.925 514.836 722.379C516.088 723.125 517.219 723.618 518.146 724.365C521.204 726.82 523.455 729.673 523.394 733.958C523.334 738.364 523.274 742.866 526.524 746.501C526.801 746.814 526.897 747.343 526.933 747.789C527.379 752.23 526.006 756.215 523.611 759.826C522.732 761.15 521.384 762.522 519.374 761.547C517.496 760.632 516.618 759.104 517.111 757.057C517.605 754.987 518.387 752.989 518.905 750.93C519.458 748.752 520.253 746.537 520.217 744.346C520.168 740.242 519.759 736.137 519.157 732.068C518.965 730.732 517.942 729.264 516.87 728.373C514.776 726.64 513.584 727.097 512.32 729.589C511.839 730.528 511.502 731.623 510.792 732.345C507.806 735.379 507.325 738.857 508.119 742.902C508.962 747.175 507.806 748.619 503.521 749.763C503.076 749.883 502.643 750.004 502.185 750.076C496.889 750.931 495.144 749.041 497.033 744.105ZM514.932 729.818C518.519 731.743 518.796 732.694 516.894 737.172C513.091 734.295 512.778 732.959 514.932 729.818ZM490.666 753.639C489.751 753.037 488.331 752.628 488.006 751.785C486.886 748.932 486.645 745.959 488.68 742.613C491.111 745.393 491.544 748.246 491.966 751.003C492.074 751.809 491.135 752.76 490.666 753.639ZM493.121 777.58C492.965 774.704 492.712 771.827 492.471 768.541C492.471 766.831 492.363 764.701 492.507 762.582C492.592 761.403 492.784 760.018 493.47 759.176C494.108 758.381 495.505 757.768 496.504 757.84C497.226 757.888 498.49 759.26 498.418 759.934C498.093 763.184 499.296 765.724 501.15 768.228C501.716 768.986 501.752 770.274 501.728 771.309C501.656 774.487 501.583 777.689 501.246 780.855C500.897 784.153 499.369 784.815 496.684 783.069C494.698 781.769 493.266 780.12 493.121 777.58Z" fill="#E73D66"/>
<path d="M1053.67 543.809C1041.66 538.2 1029.76 532.362 1017.78 526.657C1016.19 525.898 1014.47 525.405 1012.42 524.646C1012.25 526.368 1012.05 527.535 1012.04 528.715C1011.94 538.79 1012.06 548.865 1011.77 558.94C1011.41 571.278 1010.73 583.616 1010.1 595.942C1010.03 597.338 1009.41 598.722 1008.92 600.6C1006.56 598 1006.87 595.472 1006.87 593.089C1006.9 578.572 1006.98 564.056 1007.09 549.539C1007.1 548.179 1007.17 546.758 1007.55 545.458C1009.55 538.357 1008.01 531.194 1007.91 524.057C1007.87 521.444 1006.89 521.132 1003.15 521.324C1002.99 522.444 1002.67 523.623 1002.64 524.815C1002.01 542.196 1001.4 559.578 1000.86 576.959C1000.7 582.147 1000.81 587.347 1000.74 592.547C1000.71 593.98 1000.47 595.4 1000.29 597.23C996.45 594.714 998.785 590.742 996.522 587.757C992.923 587.407 989.011 586.914 985.075 586.697C980.982 586.469 980.164 587.54 980.946 591.548C981.091 592.294 981.319 593.029 981.584 593.739C982.993 597.591 984.533 601.407 985.821 605.307C987.639 610.807 989.228 616.393 991.009 621.906C991.876 624.578 992.995 627.178 994.175 630.271C996.089 628.044 997.497 626.407 998.894 624.77C999.267 624.891 999.652 625.011 1000.02 625.144C1000.07 626.371 1000.45 627.707 1000.12 628.827C999.267 631.752 998.256 634.653 996.992 637.421C996.51 638.481 995.15 639.155 994.187 639.997C993.453 639.119 992.682 638.252 991.996 637.337C991.731 636.988 991.659 636.494 991.515 636.061C989.156 628.658 986.989 621.195 984.365 613.889C982.343 608.232 981.44 602.032 976.962 597.41C976.204 596.628 976.023 595.171 975.843 593.98C975.433 591.416 975.108 588.84 974.904 586.252C974.615 582.508 973.568 579.102 971.437 575.972C970.606 574.757 969.728 573.216 969.776 571.844C970.089 562.082 968.38 552.368 969.475 542.594C970.005 537.899 970.113 533.157 970.245 528.426C970.414 522.311 970.173 516.184 970.57 510.094C970.871 505.495 969.331 502.619 965.106 500.705C955.38 496.287 945.774 491.605 936.12 487.031C935.711 486.838 935.29 486.633 934.857 486.489C931.883 485.502 930.848 486.128 930.619 489.149C930.511 490.521 930.595 491.894 930.632 493.278C930.764 499.08 930.969 504.882 931.053 510.683C931.173 519.543 931.053 528.414 931.33 537.273C931.787 551.465 932.557 565.657 933.051 579.86C933.34 588.214 932.232 589.406 924.144 590.549C912.961 592.138 901.923 594.341 891.282 598.241C888.887 599.119 886.48 599.998 884.193 601.106C882.82 601.768 881.569 602.899 882.002 604.729C882.471 606.691 884.132 607.22 885.854 607.341C886.889 607.413 887.996 607.257 888.995 606.944C893.437 605.511 897.831 603.922 902.284 602.514C905.209 601.587 908.206 600.612 911.878 602.682C909.904 603.766 908.556 604.945 907.027 605.258C901.225 606.462 898.613 610.88 896.182 615.514C894.821 618.114 895.736 619.546 898.757 619.631C900.431 619.679 902.116 619.462 903.789 619.354C912.107 618.8 920.159 620.69 928.272 622.062C932.943 622.856 934.231 624.229 934.267 628.971C934.423 646.088 934.435 663.205 934.772 680.309C934.989 691.119 934.76 701.916 935.807 712.761C937.192 727.037 937.095 741.445 937.842 755.782C938.371 766.001 939.286 776.196 939.9 786.404C940.586 797.839 941.14 809.274 941.694 820.721C941.754 822.021 941.898 823.526 939.719 824.393C933.412 815.244 927.237 805.916 920.653 796.9C913.972 787.74 907.135 778.676 899.48 770.106C897.71 772.645 897.59 772.718 898.781 774.74C903.452 782.6 908.146 790.448 912.937 798.236C918.281 806.927 923.819 815.521 929.139 824.224C933.508 831.362 937.709 838.62 941.97 845.831C942.885 847.383 944.029 848.924 942.897 850.79C941.068 851.62 940.213 850.417 939.431 849.297C936.361 844.916 933.111 840.643 930.343 836.093C924.998 827.318 918.775 819.289 911.384 812.151C910.578 811.369 909.543 810.815 908.291 809.924C907.003 812.536 906.919 814.691 907.773 816.93C908.532 818.928 909.374 820.89 910.024 822.912C912.131 829.436 914.285 835.948 916.175 842.545C916.849 844.892 917.523 847.456 915.982 850.236C914.225 848.31 912.696 846.649 911.18 844.988C910.662 846.083 910.698 846.685 910.939 847.191C915.537 856.808 920.159 866.414 924.757 876.044C925.407 877.416 926.419 878.884 926.346 880.269C926.118 884.855 926.635 889.525 924.541 893.955C923.265 896.639 924.264 898.565 927.249 898.89C930.68 899.263 932.172 901.526 933.93 903.837C933.629 904.957 933.268 905.956 933.099 907.003C932.389 911.42 933.785 913.214 938.311 913.659C939.828 913.804 941.369 913.659 942.897 913.732C946.003 913.888 946.942 914.67 947.556 917.668C947.772 918.703 947.808 919.786 947.844 920.857C948.374 934.592 948.844 948.338 949.433 962.072C950.107 977.793 950.83 993.501 951.636 1009.22C951.781 1012.11 951.889 1015.11 953.357 1018.02C955.416 1016.37 955.38 1014.41 955.572 1012.42C956.186 1005.92 956.92 999.435 957.631 992.935C957.691 992.345 958.052 991.78 958.148 991.178C958.509 988.939 959.075 986.688 959.099 984.437C959.304 963.505 959.412 942.56 959.556 921.628C959.569 919.798 959.605 917.956 959.749 916.139C959.978 913.334 961.218 911.083 964.034 910.229C966.731 909.41 967.862 907.472 968.632 905.017C969.03 903.753 969.523 902.272 970.462 901.49C971.87 900.334 971.967 899.022 972.099 897.47C972.412 893.822 970.763 890.777 969.776 887.443C968.705 883.844 967.2 881.472 963.89 880.016C961.832 879.113 961.001 877.428 961.097 875.213C961.182 873.227 961.133 871.241 961.218 869.255C961.759 856.893 962.337 844.531 962.867 832.169C963.3 822.094 963.721 812.019 964.107 801.944C964.937 780.578 965.948 759.212 966.526 737.846C967.14 715.397 967.332 692.924 967.718 670.475C967.73 669.56 967.742 668.633 967.838 667.731C967.91 666.972 968.019 666.202 968.283 665.492C968.873 663.927 969.981 663.301 971.509 664.264C974.964 666.455 978.78 668.296 981.705 671.077C984.545 673.773 987.519 674.772 991.166 674.664C992.237 674.628 993.308 674.556 994.368 674.592C998.472 674.76 999.881 676.12 1000.06 680.129C1000.12 681.501 1000 682.873 999.965 684.257C999.748 691.745 999.604 699.219 999.315 706.707C998.713 722.102 1000.17 737.473 999.339 752.905C998.508 768.444 999.11 784.069 999.11 799.657C999.11 801.113 999.291 802.569 999.423 804.568C1001.02 803.701 1002.14 803.268 1003.07 802.569C1015.94 793.024 1028.79 783.443 1041.64 773.861C1042.37 773.32 1043.12 772.766 1043.74 772.116C1044.36 771.466 1045.15 770.732 1045.27 769.937C1045.97 765.58 1046.84 761.21 1047.02 756.829C1047.41 747.055 1046.78 737.208 1047.76 727.519C1049.28 712.629 1048.61 697.667 1050.58 682.777C1052.02 671.799 1050.88 660.545 1052.4 649.434C1053.43 641.899 1053.19 634.195 1053.65 626.564C1054.42 613.624 1055.31 600.684 1056.12 587.744C1056.42 582.869 1056.56 577.982 1056.85 573.095C1057.29 565.789 1057.63 558.47 1058.32 551.188C1058.65 547.276 1056.98 545.35 1053.67 543.809ZM973.796 639.865C973.387 640.888 972.159 641.574 971.702 642.019C969.018 641.875 968.019 640.635 968.187 638.541C968.295 637.241 968.681 636.073 970.318 636.218C971.87 636.362 974.266 638.697 973.796 639.865Z" fill="#E73D66"/>
<path d="M866.992 1143.37C858.674 1130.21 850.814 1116.75 842.845 1103.36C842.075 1102.08 841.569 1100.58 841.184 1099.11C835.816 1079.07 830.507 1059.01 825.127 1038.98C824.778 1037.69 824.044 1036.49 823.394 1035.29C821.07 1031.02 818.699 1026.78 816.34 1022.52C815.979 1021.87 815.702 1021.13 815.172 1020.64C812.103 1017.82 811.212 1014.26 811.525 1010.28C812.259 1001.14 812.909 992.008 813.776 982.884C814.847 971.654 816.171 960.435 817.243 949.205C818.494 936.157 819.59 923.096 820.757 910.036C821.094 906.233 821.684 902.441 821.708 898.637C821.781 887.635 821.648 876.633 821.516 865.632C821.492 863.501 821.419 861.286 820.854 859.264C819.506 854.461 819.819 849.598 819.71 844.711C819.59 839.234 819.072 833.757 818.687 828.281C818.434 824.802 818.001 821.323 817.832 817.845C817.507 811.296 817.399 804.736 817.05 798.176C816.87 794.842 816.256 791.532 816.051 788.197C815.63 781.035 815.449 773.861 815.004 766.699C814.209 754.072 813.162 741.445 812.452 728.806C812.031 721.344 812.031 713.845 811.898 706.37C811.573 689.108 811.284 671.835 810.971 654.574C810.634 635.929 810.309 617.295 809.936 598.662C809.683 585.999 809.094 573.42 806.169 560.938C803.605 549.996 802.341 538.742 800.511 527.632C800.186 525.682 799.933 523.707 799.644 521.745C799.067 517.869 798.489 514.006 797.923 510.13C797.526 510.118 797.117 510.118 796.719 510.106C796.178 511.682 795.6 513.247 795.094 514.836C792.555 522.841 789.341 530.701 787.692 538.886C785.417 550.129 785.718 561.612 787.307 573.023C788.402 580.883 789.389 588.768 790.063 596.676C790.617 603.2 791.11 609.784 790.821 616.308C789.919 636.133 788.173 655.934 787.583 675.771C786.777 703.408 786.837 731.057 786.332 758.694C785.742 791.086 786.187 823.418 789.124 855.713C790.268 868.328 790.244 881.039 791.062 893.69C791.929 907.099 793.157 920.472 794.24 933.87C794.998 943.15 795.781 952.431 796.551 961.711C796.756 964.215 796.262 966.418 794.95 968.681C794.047 970.233 793.638 972.52 793.987 974.278C794.95 979.177 796.443 983.968 797.719 988.807C797.995 989.842 798.296 990.865 798.477 991.912C800.018 1000.9 801.546 1009.91 803.039 1018.91C803.713 1022.98 803.918 1027.16 804.965 1031.1C806.927 1038.44 809.539 1045.6 811.525 1052.93C812.909 1058.04 813.535 1063.18 808.359 1067.07C807.36 1067.83 806.843 1069.64 806.698 1071.03C806.506 1072.81 806.819 1074.68 807.071 1076.48C808.143 1084.34 809.732 1092.05 812.729 1099.46C815.919 1107.35 818.35 1115.56 821.829 1123.31C826.74 1134.27 832.289 1144.98 839.198 1154.86C841.437 1158.06 844.037 1161.12 846.938 1163.73C854.425 1170.47 865.403 1167.36 871.072 1161.14C872.601 1159.46 872.878 1157.94 872.372 1155.77C871.301 1151.31 869.495 1147.33 866.992 1143.37ZM817.399 1043.07C815.293 1040.76 816.099 1038.06 816.448 1035.51C816.508 1035.05 817.7 1034.27 818.049 1034.41C818.928 1034.78 819.915 1035.44 820.312 1036.26C821.359 1038.38 820.288 1040.72 817.399 1043.07ZM829.894 1068.38C829.725 1068.71 828.654 1068.96 828.365 1068.74C826.282 1067.22 826.944 1065.45 828.064 1063.36C831.073 1064.59 830.929 1066.42 829.894 1068.38Z" fill="#E73D66"/>
<path d="M916.729 383.488C916.909 392.191 917.391 400.894 917.776 409.584C918.631 428.964 919.618 448.331 920.268 467.723C920.412 472.081 921.808 474.945 925.757 476.799C936.253 481.734 946.677 486.802 957.149 491.785C958.052 492.219 959.087 492.387 960.604 492.857C961.206 488.343 962.048 484.19 962.265 480.001C962.879 468.265 963.3 456.505 963.697 444.756C964.347 425.666 965.082 406.587 965.467 387.496C966.321 346.077 965.611 304.682 962.963 263.334C962.12 250.262 960.495 237.202 958.533 224.238C956.463 210.516 953.466 196.95 951.046 183.276C946.051 155.001 942.765 126.509 939.984 97.9452C938.564 83.3683 936.782 68.8155 935.121 54.2628C934.929 52.5415 934.423 50.8563 934.062 49.1591C933.653 49.1831 933.244 49.2072 932.834 49.2313C932.666 50.4591 932.329 51.6868 932.341 52.9146C932.594 74.172 931.161 95.3452 929.62 116.53C928.381 133.647 925.853 150.463 920.629 166.869C916.861 178.702 914.755 190.907 914.791 203.366C914.923 239.573 915.092 275.793 915.453 312C915.694 335.821 916.223 359.655 916.729 383.488Z" fill="#E73D66"/>
<path d="M433.983 900.25C429.433 902.73 424.763 904.993 420.129 907.328C416.181 909.326 412.22 911.288 408.272 913.298C404.902 915.019 403.072 917.631 402.759 921.592C401.748 934.519 402.446 947.483 401.291 960.447C399.882 976.228 400.063 992.153 399.148 1007.99C398.185 1024.59 398.823 1041.23 397.403 1057.84C396.055 1073.62 396.608 1089.52 395.465 1105.36C394.285 1121.64 394.201 1137.98 393.587 1154.3C393.033 1168.94 392.215 1183.57 391.83 1198.21C391.444 1212.56 391.432 1226.92 391.324 1241.28C391.3 1243.73 391.637 1246.16 391.709 1248.6C391.769 1250.65 392.624 1252.12 394.502 1252.94C396.994 1254.02 399.497 1255.08 402.025 1256.08C407.911 1258.4 413.954 1259.37 420.923 1258.16C421.224 1255.32 421.537 1252.77 421.742 1250.19C422.006 1246.84 422.139 1243.49 422.38 1240.14C423.09 1230.41 423.872 1220.69 424.522 1210.95C425.269 1199.85 425.919 1188.74 426.569 1177.63C427.243 1166.22 427.893 1154.81 428.494 1143.4C429.084 1132.43 429.59 1121.45 430.156 1110.49C430.806 1097.99 431.576 1085.51 432.13 1073.02C432.828 1057.18 433.333 1041.32 433.947 1025.48C434.007 1023.81 434.236 1022.14 434.332 1020.46C435.043 1007.51 435.753 994.56 436.427 981.608C436.547 979.321 436.451 977.022 436.595 974.735C437.113 966.381 437.787 958.028 438.22 949.662C438.497 944.33 438.341 938.973 438.594 933.629C438.943 926.479 439.544 919.329 439.942 912.179C440.098 909.434 440.026 906.678 440.014 903.933C439.99 898.192 438.858 897.59 433.983 900.25Z" fill="#E73D66"/>
<path d="M1032.92 785.079C1021.44 794.167 1009.97 803.267 998.4 812.247C996.149 814.004 995.126 815.93 995.126 818.795C995.126 840.63 995.006 862.466 994.945 884.301C994.909 897.433 995.054 910.566 994.837 923.698C994.572 939.418 994.031 955.139 993.549 970.847C993.489 972.905 994.091 974.326 995.884 975.409C998.231 976.83 1000.51 978.382 1002.77 979.947C1011.44 985.917 1020.08 991.924 1028.76 997.882C1029.56 998.436 1030.6 998.677 1031.8 999.182C1032.16 998.003 1032.57 997.184 1032.63 996.342C1033.21 988.734 1033.93 981.139 1034.21 973.531C1035 952.334 1035.57 931.125 1036.33 909.916C1036.75 898.011 1037.38 886.118 1037.93 874.226C1038.34 865.379 1038.92 856.543 1039.19 847.708C1039.46 839.33 1039.4 830.941 1039.52 822.563C1039.69 810.646 1039.88 798.742 1040.06 786.825C1040.1 784.73 1040.06 782.636 1040.06 780.542C1039.64 780.397 1039.21 780.241 1038.78 780.096C1036.81 781.757 1034.92 783.491 1032.92 785.079Z" fill="#E73D66"/>
<path d="M520.542 564.97C526.632 558.338 532.735 551.706 538.91 545.145C543.701 540.054 548.877 535.287 553.367 529.943C557.231 525.344 558.976 522.552 555.004 516.377C554.173 515.089 553.379 513.789 552.596 512.477C550.959 509.696 550.694 507.036 553.234 504.581C554.907 502.956 555.377 500.945 555.004 498.694C554.498 495.613 554.462 492.616 556.641 490.1C556.304 489.354 556.195 488.668 555.786 488.282C553.294 485.839 550.827 483.347 548.191 481.072C543.28 476.847 543.003 474.957 546.975 470.058C549.78 466.592 550.093 465.34 547.264 462.066C544.531 458.9 544.327 456.18 546.469 452.629C548.456 449.343 548.022 447.537 545.29 444.865C543.219 442.855 541.041 440.832 538.585 439.376C533.999 436.656 531.098 432.9 529.437 427.844C528.402 424.703 526.656 421.766 525.068 418.829C524.357 417.529 523.382 416.024 521.517 416.578C519.699 417.119 519.675 418.781 519.675 420.345C519.675 421.874 519.807 423.427 519.579 424.919C519.23 427.291 517.484 428.35 514.439 428.35C511.514 428.338 510.154 427.507 509.973 424.919C509.781 422.067 509.516 419.009 510.322 416.361C511.213 413.424 510.575 410.788 510.731 407.297C509.708 408.176 509.155 408.453 508.89 408.898C504.737 415.663 500.536 422.392 496.576 429.265C495.553 431.046 494.879 433.261 494.77 435.307C494.024 449.607 493.398 463.907 492.869 478.207C492.459 489.474 492.255 500.753 491.954 512.032C491.942 512.332 491.918 512.645 491.894 512.946C491.364 525.441 490.894 537.935 490.269 550.418C489.823 559.253 488.957 568.064 488.668 576.911C488.463 583.387 488.908 589.899 489.089 597.398C490.967 595.653 492.074 594.678 493.097 593.643C499.766 586.926 506.41 580.161 513.103 573.469C514.294 572.277 515.197 570.58 516.569 570.086C518.423 567.919 518.965 566.692 520.542 564.97ZM522.239 423.042C523.202 423.8 524.165 424.546 525.561 425.63C524.394 426.677 523.683 427.315 522.973 427.941C522.251 427.122 521.156 426.4 520.927 425.473C520.758 424.811 521.757 423.86 522.239 423.042Z" fill="#E73D66"/>
<path d="M275.046 268.245C278.176 267.86 279.259 268.631 279.729 271.736C279.909 272.94 279.885 274.168 279.885 275.395C279.897 279.982 279.849 284.568 279.897 289.142C279.909 290.55 279.548 292.223 281.944 293.367C283.159 287.974 284.495 282.931 285.242 277.707C285.567 275.468 286.012 273.193 286.855 271.11C287.601 269.244 290.694 267.836 292.175 268.269C294.209 268.883 294.149 270.773 294.522 272.362C294.691 273.096 294.739 273.879 294.775 274.637C295.112 280.403 295.594 286.169 295.738 291.946C296.123 306.752 296.328 321.57 296.689 336.375C296.797 340.6 297.206 344.813 297.531 349.929C299.614 348.906 300.769 348.496 301.732 347.822C306.981 344.139 312.181 340.383 317.405 336.652C323.243 332.475 329.117 328.358 334.907 324.109C338.891 321.184 339.613 318.693 338.181 314.227C337.711 312.782 337.242 311.326 336.917 309.833C333.619 294.739 330.898 279.584 331.921 264.02C332.198 259.819 331.62 255.835 329.466 252.116C328.876 251.093 328.575 249.817 328.431 248.625C327.997 244.833 327.648 241.03 327.359 237.226C326.565 226.898 325.614 216.751 320.558 207.218C317.922 202.234 317.26 196.18 315.876 190.57C315.563 189.294 315.768 187.814 316.056 186.502C316.682 183.613 315.298 181.278 314.094 178.702C312.819 182.277 311.41 185.876 311.314 189.523C311.109 196.541 308.882 202.981 306.764 209.481C305.44 213.525 302.78 214.909 298.627 213.946C297.459 213.682 296.304 213.224 295.244 212.658C293.668 211.816 292.235 211.912 291.092 213.212C289.431 215.114 287.372 215.475 284.977 215.68C281.39 215.981 278.296 217.124 276.695 221.048C275.516 223.937 273.421 226.429 271.856 229.173C271.351 230.052 271.038 231.147 270.966 232.158C270.737 235.312 271.158 238.61 270.412 241.619C268.643 248.709 268.883 255.847 269.028 262.997C269.088 267.8 270.376 268.835 275.046 268.245Z" fill="#E73D66"/>
<path d="M479.7 771.044C480.988 755.733 479.977 740.23 480.073 724.81C480.085 722.258 480.723 719.719 481.072 717.167C481.241 715.963 481.566 714.771 481.602 713.58C481.831 706.406 481.891 699.219 482.204 692.057C482.878 676.987 481.289 661.905 483.239 646.81C484.346 638.228 483.805 629.429 484.106 620.726C484.262 616.164 484.671 611.614 484.912 607.052C484.936 606.715 484.575 606.354 484.346 605.92C480.723 609.255 477.461 612.709 473.73 615.562C470.371 618.126 468.951 621.075 468.831 625.276C468.614 633.052 467.988 640.816 467.386 648.58C466.76 656.644 465.869 664.685 465.244 672.738C464.473 682.657 462.944 692.298 459.55 701.795C454.194 716.782 450.558 732.153 451.437 748.379C451.894 756.865 453.435 764.978 456.011 772.994C456.577 774.764 457.588 775.727 459.418 776.257C463.221 777.34 465.099 779.904 465.099 784.008C465.111 791.339 465.4 798.669 465.436 806C465.436 807.625 465.075 809.37 464.425 810.851C463.354 813.294 463.209 815.353 464.822 817.7C465.785 819.108 466.182 821.058 466.375 822.828C466.736 826.319 466.929 829.833 466.917 833.348C466.905 837.308 467.037 841.16 469.842 844.338L469.697 844.278C469.685 844.398 469.721 844.47 469.733 844.579C469.757 844.519 469.794 844.458 469.818 844.398C470.395 844.976 470.973 845.554 471.563 846.144C471.563 846.18 471.563 846.216 471.563 846.252C471.611 846.252 471.647 846.264 471.695 846.276L471.575 846.107C476.342 845.59 476.378 845.602 477.064 840.907C477.401 838.644 477.726 836.369 477.774 834.094C477.967 824.633 477.642 815.136 478.304 805.699C479.086 794.144 478.725 782.612 479.7 771.044Z" fill="#E73D66"/>
<path d="M584.735 364.277C586.854 363.422 588.286 362.989 589.562 362.303C598.421 357.536 607.232 352.673 616.092 347.907C622.676 344.368 629.332 340.961 635.929 337.434C639.395 335.581 639.624 334.955 638.276 331.271C634.424 320.751 629.657 310.7 622.664 301.865C621.075 299.867 619.209 297.869 617.043 296.605C612.673 294.053 610.651 290.369 609.808 285.567C609.351 282.919 608.34 280.307 607.244 277.839C606.294 275.696 604.331 274.83 601.936 275.07C598.349 275.432 595.556 276.984 593.907 280.307C593.498 281.125 593.269 282.028 592.86 282.846C592.066 284.411 590.91 284.712 589.538 283.557C588.37 282.569 587.347 281.414 586.144 280.487C585.156 279.729 583.977 279.223 582.075 278.128C581.654 281.089 581.076 283.123 581.112 285.157C581.232 291.718 581.618 298.278 581.834 304.838C582.171 314.6 582.4 324.374 582.809 334.136C583.074 340.383 583.556 346.631 583.953 352.878C584.181 356.357 584.434 359.823 584.735 364.277Z" fill="#E73D66"/>
<path d="M678.179 873.106C679.382 877.957 679.503 883.049 682.319 887.467C683.27 888.959 683.704 890.861 684.089 892.63C685.16 897.638 688.181 901.73 690.3 906.244C690.673 907.027 691.444 907.617 692.045 908.279C693.442 909.831 695.031 911.24 696.21 912.949C698.437 916.151 701.314 918.221 705.202 918.498C709.463 918.799 713.64 919.16 717.756 920.58C721.416 921.844 723.679 920.075 723.799 916.163C723.895 913.033 724.618 910.204 726.038 907.412C728.867 901.887 731.37 896.193 734.223 890.68C736.065 887.117 735.355 884.253 732.682 881.58C726.941 875.875 721.488 869.856 715.409 864.536C702.77 853.45 690.661 841.846 679.154 829.592C678.191 828.569 676.951 827.823 675.843 826.944C675.482 827.197 675.121 827.438 674.76 827.691C674.76 829.484 674.688 831.278 674.772 833.071C674.905 835.972 675.23 838.849 675.326 841.75C675.735 852.258 675.627 862.767 678.179 873.106Z" fill="#E73D66"/>
<path d="M482.047 469.42C481.445 472.044 480.097 473.862 477.461 474.584C472.863 475.848 470.985 479.291 470.07 483.588C468 493.302 468.734 502.703 473.236 511.67C475.21 515.618 475.583 519.675 475.042 524.105C473.501 536.515 471.948 548.949 471.154 561.419C470.131 577.561 469.842 593.763 469.288 609.929C469.252 611.132 469.697 612.336 470.022 614.094C474.295 610.097 477.955 606.691 481.566 603.272C482.228 602.646 482.721 601.852 483.359 601.19C485.093 599.42 485.442 597.278 485.466 594.882C485.538 589.249 485.815 583.628 485.995 578.006C486.429 564.453 486.91 550.911 487.271 537.357C487.56 526.669 486.97 515.907 488.09 505.315C489.366 493.266 489.522 481.253 489.606 469.204C489.631 465.075 489.017 460.802 489.883 456.866C491.532 449.391 490.509 441.964 490.606 434.513C490.618 433.418 490.184 432.31 489.907 430.95C486.224 432.226 482.42 431.853 479.832 435.825C481.277 437.426 482.685 439.159 484.262 440.7C486.766 443.156 487.753 445.876 486.85 449.391C485.141 456.047 483.576 462.728 482.047 469.42Z" fill="#E73D66"/>
<path d="M399.931 213.381C412.208 222.914 424.474 232.483 436.692 242.089C439.689 244.448 442.481 247.072 445.503 249.407C448.271 251.55 450.33 251.345 452.725 248.818C455.241 246.145 457.6 243.341 460.044 240.608C465.93 234 465.99 233.807 460.958 226.585C459.225 224.093 458.25 221.506 458.431 218.472C458.575 216.029 458.623 213.585 458.792 211.154C459.105 206.423 457.106 202.956 453.267 200.308C449.68 197.829 445.707 196.324 441.482 195.518C435.801 194.434 435.693 194.398 435.669 188.488C435.656 184.744 435.669 181.013 435.669 177.269C435.356 177.306 435.043 177.354 434.73 177.39C433.093 183.878 431.179 190.318 429.915 196.878C428.904 202.126 426.316 202.15 422.416 201.356C418.419 200.549 414.303 200.104 410.222 200.031C405.949 199.959 402.242 201.813 399.244 204.918C395.742 208.53 395.946 210.287 399.931 213.381Z" fill="#E73D66"/>
<path d="M398.498 907.617C399.1 910.349 399.894 910.999 402.567 910.301C403.59 910.036 404.589 909.615 405.564 909.182C412.774 905.92 419.924 902.489 427.206 899.396C431.492 897.566 432.731 894.641 432.876 890.091C433.406 873.745 431.456 857.531 430.866 841.257C430.83 840.161 430.348 838.681 429.542 838.115C428.073 837.08 426.725 838.271 425.473 839.198C417.589 844.94 409.693 850.682 401.748 856.351C398.679 858.542 397.006 861.238 397.138 865.186C397.343 870.82 397.186 876.477 397.186 882.122C397.222 882.122 397.246 882.122 397.282 882.122C397.282 883.194 397.27 884.265 397.282 885.324C397.403 892.751 396.861 900.238 398.498 907.617Z" fill="#E73D66"/>
<path d="M717.829 1174.39C717.395 1172.65 716.613 1170.89 716.613 1169.15C716.601 1166.68 715.301 1165.81 713.291 1165.74C710.859 1165.65 708.404 1165.71 705.996 1166C696.944 1167.06 687.905 1168.27 678.853 1169.34C673.123 1170.02 667.381 1170.63 661.64 1171.2C652.263 1172.14 642.874 1172.99 633.509 1173.95C628.381 1174.48 623.242 1174.94 618.318 1176.67C615.863 1177.54 615.249 1179.05 616.898 1181.05C617.957 1182.34 619.077 1183.88 620.509 1184.49C624.337 1186.14 626.576 1188.79 627.25 1192.87C627.274 1193.04 627.756 1193.14 628.49 1193.48C629.369 1192.51 630.428 1191.5 631.294 1190.35C632.871 1188.26 634.942 1187.12 637.518 1187.04C642.706 1186.91 647.881 1186.84 653.069 1186.8C656.006 1186.78 657.944 1188.25 658.931 1191.02C659.341 1192.16 659.666 1193.36 660.28 1194.4C662.013 1197.4 664.071 1198.14 668.513 1197.24C667.851 1195.06 667.237 1193.22 666.719 1191.34C665.985 1188.69 666.491 1187.35 668.958 1186.18C670.15 1185.61 671.582 1185.26 672.894 1185.29C686.761 1185.48 700.568 1184.71 714.374 1183.41C718.406 1183.04 719.273 1182.27 718.828 1178.37C718.635 1177.03 718.154 1175.72 717.829 1174.39Z" fill="#E73D66"/>
<path d="M546.157 990.467C535.094 993.067 524.057 995.776 512.982 998.34C506.651 999.808 500.271 1001.11 493.916 1002.48C492.026 1002.89 490.822 1004.78 491.665 1006.61C492.736 1008.94 493.856 1011.41 495.553 1013.27C502.065 1020.32 508.781 1027.18 515.51 1034.02C516.774 1035.31 518.363 1036.32 519.928 1037.24C523.792 1039.52 526.981 1038.89 529.991 1035.57C530.894 1034.57 532.097 1033.85 533.012 1032.86C534.854 1030.86 537.225 1029.05 538.224 1026.66C540.571 1021.09 542.257 1015.24 544.194 1009.49C545.061 1006.9 545.711 1004.35 548.937 1003.36C550.093 1003.01 551.272 1001.3 551.609 999.989C552.44 996.763 552.548 993.429 551.585 989.553C549.611 989.89 547.854 990.07 546.157 990.467ZM517.448 1016.89C516.858 1018.5 515.98 1020.24 514.018 1019.78C513.031 1019.55 511.995 1018.16 511.598 1017.08C511.177 1015.95 511.502 1014.54 511.502 1012.68C513.344 1013.06 514.68 1013.12 515.835 1013.63C517.135 1014.18 518.038 1015.29 517.448 1016.89Z" fill="#E73D66"/>
<path d="M627.888 1108.74C628.333 1108.84 628.767 1109.06 629.164 1109C642.212 1106.87 655.296 1104.92 668.272 1102.42C672.449 1101.62 676.794 1100.14 679.214 1095.89C681.994 1091.01 684.799 1086.16 687.616 1081.31C690.119 1076.99 688.446 1073.04 687.327 1069.44C685.569 1070.8 684.173 1072.3 682.464 1073.13C677.336 1075.59 673.785 1079.79 670.162 1083.88C666.864 1087.59 662.988 1090.27 658.51 1092.39C653.106 1094.95 646.642 1095.13 642.164 1099.78C641.237 1100.74 640.045 1101.46 638.95 1102.28C636.651 1104 634.328 1105.63 631.222 1104.78C631.836 1107.46 627.78 1106.36 627.888 1108.74Z" fill="#E73D66"/>
<path d="M631.198 1104.6L631.054 1104.75C631.114 1104.77 631.174 1104.77 631.234 1104.78C631.222 1104.72 631.21 1104.68 631.198 1104.6Z" fill="#E73D66"/>
<path d="M469.721 844.567C469.192 845.698 468.397 846.818 468.349 847.961C468.241 851.151 468.349 854.377 468.674 857.555C468.975 860.54 469.625 863.417 470.648 866.342C471.563 868.966 470.215 872.3 470.251 875.321C470.287 879.438 470.805 883.543 470.913 887.659C471.057 893.678 470.311 894.568 464.533 896.121C462.054 896.783 461.368 897.927 462.475 900.527C463.474 902.886 464.798 905.125 466.194 907.28C467.109 908.688 467.507 909.759 466.604 911.42C462.704 918.57 465.737 927.357 473.79 931.498C474.644 927.032 474.777 922.699 474.825 918.318C474.873 912.829 475.21 907.352 475.547 901.863C476.149 891.993 477.269 882.122 475.114 872.288C474.957 871.59 474.969 870.711 475.258 870.085C477.63 864.813 476.462 859.24 476.751 853.799C476.847 851.909 476.065 850.681 474.259 849.887C472.767 849.225 471.382 848.226 471.575 846.24C470.431 846.18 469.769 845.686 469.721 844.567Z" fill="#E73D66"/>
<path d="M953.345 1047.2C952.551 1051.99 952.31 1056.91 951.058 1061.57C949.205 1068.44 948.783 1075.38 948.928 1082.38C949.06 1089.09 949.409 1095.79 949.77 1102.48C950.083 1108.42 950.505 1114.34 950.95 1120.26C951.407 1126.34 952.154 1132.42 950.023 1138.37C949.915 1138.68 950.228 1139.15 950.336 1139.55C950.649 1139.57 950.962 1139.59 951.287 1139.62C952.587 1135.29 953.478 1130.84 953.514 1126.29C953.707 1105.58 953.285 1084.85 954.862 1064.16C955.079 1061.27 955.223 1058.38 955.271 1055.48C955.344 1051.4 955.283 1047.33 955.283 1043.25C954.14 1044.47 953.574 1045.8 953.345 1047.2Z" fill="#E73D66"/>
<path d="M701.952 1197.12C699.243 1199.97 696.523 1202.74 693.911 1205.62C691.155 1208.65 688.434 1211.73 685.81 1214.9C683.403 1217.81 680.044 1220 678.335 1224.05C691.624 1221.94 698.401 1213.2 703.384 1202.48C704.191 1200.75 704.082 1198.91 701.952 1197.12Z" fill="#E73D66"/>
<path d="M295.377 1034.03C300.011 1037.95 304.694 1041.81 309.388 1045.65C309.918 1046.08 310.676 1046.26 311.47 1046.61C313.481 1044.19 311.988 1042.38 310.676 1040.88C306.102 1035.62 301.371 1030.47 296.653 1025.33C296.075 1024.7 295.172 1024.36 294.149 1023.71C291.573 1027.88 292.031 1031.19 295.377 1034.03Z" fill="#E73D66"/>
<path d="M308.016 1049.17C305.656 1047.51 303.381 1045.72 301.119 1043.94C298.868 1042.17 296.677 1040.33 294.45 1038.52C294.402 1042.2 295.75 1044.95 298.302 1047.11C299.566 1048.19 301.058 1049.34 301.66 1050.77C303.261 1054.6 306.631 1056.82 309.183 1059.76C309.785 1060.46 310.832 1060.75 311.771 1061.28C313.408 1055.23 312.397 1052.27 308.016 1049.17Z" fill="#E73D66"/>
<path d="M302.551 1113C300.18 1110.16 297.832 1107.3 295.148 1104.06C293.475 1107.88 293.656 1110.87 296.135 1113.39C299.12 1116.41 302.286 1119.24 305.44 1122.08C306.162 1122.73 307.161 1123.06 308.136 1123.59C309.544 1121.32 308.594 1119.95 307.257 1118.52C305.62 1116.75 304.104 1114.86 302.551 1113Z" fill="#E73D66"/>
<path d="M293.824 1069.94C292.464 1072.7 293.114 1074.94 294.883 1076.48C299.554 1080.56 304.441 1084.39 309.268 1088.29C309.412 1088.41 309.809 1088.23 310.086 1088.18C308.991 1085.09 297.893 1072.5 293.824 1069.94Z" fill="#E73D66"/>
<path d="M302.274 1095.64C299.758 1093.22 298.519 1089.48 294.956 1087.79C294.053 1091.31 293.944 1092.22 295.822 1093.96C299.782 1097.68 303.995 1101.14 308.1 1104.7C308.389 1104.41 308.678 1104.12 308.955 1103.83C308.365 1099.85 304.814 1098.07 302.274 1095.64Z" fill="#E73D66"/>
<path d="M305.175 1167.45C302.057 1164.26 298.94 1161.06 295.413 1157.45C295.509 1162.45 299.385 1166.63 305.175 1167.45Z" fill="#E73D66"/>
<path d="M507 59.6555V59.7518C510.491 57.3925 513.307 54.7083 515.426 51.687C517.544 48.6657 518.604 45.4999 518.604 42.2018C518.604 38.5064 517.556 35.1601 515.474 32.1629C513.392 29.1657 510.443 26.8064 506.651 25.049C502.847 23.3036 498.466 22.4249 493.482 22.4249C491.328 22.4249 487.969 22.5573 483.395 22.8342C477.473 23.2434 471.455 23.436 465.34 23.436H451.726L448.392 29.9962L459.586 32.9212V89.6157L450.101 97.0786V102.724H465.436C468.397 102.724 472.562 102.893 477.943 103.23C481.169 103.567 484.467 103.735 487.825 103.735C492.796 103.735 498.008 102.628 503.461 100.401C508.914 98.186 513.464 95.2009 517.135 91.4694C520.794 87.7379 522.636 83.7536 522.636 79.5166C522.636 75.1471 521.24 71.199 518.447 67.6601C515.667 64.1453 511.851 61.4731 507 59.6555ZM499.236 47.5583C499.236 51.3258 498.381 54.1786 496.66 56.1286C494.951 58.0786 492.435 59.0536 489.149 59.0536H477.846V33.1259C480.266 31.9823 482.854 31.4166 485.61 31.4166C490.112 31.4166 493.507 32.8971 495.794 35.8583C498.093 38.8073 499.236 42.7073 499.236 47.5583ZM490.762 93.7564H490.666C485.959 93.7564 481.686 93.0221 477.858 91.5416V66.4203H486.332H488.355C493.326 66.6851 497.081 68.286 499.597 71.211C502.125 74.136 503.377 77.8916 503.377 82.4536C503.377 85.9564 502.245 88.7129 499.994 90.7231C497.744 92.7453 494.662 93.7564 490.762 93.7564Z" fill="#E73D66"/>
<path d="M601.828 104.65V74.8942L596.279 72.571L580.643 95.1646H557.953V36.6646L567.534 29.1896V23.5442H531.82L528.498 30.1044L539.693 33.0294V89.7238L530.207 97.1868V102.832H594.569L601.828 104.65Z" fill="#E73D66"/>
<path d="M657.716 21.5221C651.192 21.5221 644.294 23.4601 637.036 27.3239C629.778 31.1878 623.699 36.4721 618.824 43.1647C613.949 49.8573 611.506 57.1397 611.506 64.9999C611.506 72.6675 613.131 79.5286 616.393 85.5832C619.655 91.6378 624.229 96.3564 630.115 99.7508C636.001 103.145 642.814 104.842 650.542 104.842C657.066 104.842 663.939 102.905 671.173 99.0406C678.407 95.1767 684.474 89.9165 689.385 83.248C694.296 76.5915 696.752 69.3212 696.752 61.461C696.752 53.7934 695.139 46.9323 691.913 40.8777C688.687 34.823 684.113 30.0804 678.191 26.6499C672.281 23.2434 665.456 21.5221 657.716 21.5221ZM651.866 33.1258C657.379 33.1258 662.001 34.6184 665.732 37.6156C669.464 40.6128 672.244 44.5971 674.05 49.5684C675.868 54.5517 676.77 60.0888 676.77 66.2156C676.77 71.3314 675.868 75.9295 674.05 80.0341C672.232 84.1388 669.765 87.3647 666.635 89.724C663.506 92.0832 660.099 93.2508 656.392 93.2508C650.879 93.2508 646.256 91.7582 642.525 88.761C638.794 85.7638 636.001 81.7675 634.147 76.7601C632.294 71.7527 631.379 66.2156 631.379 60.161C631.379 55.0452 632.281 50.4471 634.099 46.3425C635.917 42.2378 638.384 39.0119 641.514 36.6527C644.656 34.3054 648.098 33.1258 651.866 33.1258Z" fill="#E73D66"/>
<path d="M754.457 21.5221C747.933 21.5221 741.036 23.4601 733.778 27.3239C726.519 31.1878 720.441 36.4721 715.566 43.1647C710.691 49.8573 708.247 57.1397 708.247 64.9999C708.247 72.6675 709.872 79.5286 713.134 85.5832C716.396 91.6378 720.97 96.3564 726.856 99.7508C732.743 103.145 739.556 104.842 747.283 104.842C753.807 104.842 760.681 102.905 767.915 99.0406C775.149 95.1767 781.216 89.9165 786.127 83.248C791.038 76.5915 793.494 69.3212 793.494 61.461C793.494 53.7934 791.881 46.9323 788.655 40.8777C785.429 34.823 780.855 30.0804 774.932 26.6499C769.022 23.2434 762.197 21.5221 754.457 21.5221ZM748.607 33.1258C754.12 33.1258 758.743 34.6184 762.474 37.6156C766.206 40.6128 768.986 44.5971 770.792 49.5684C772.609 54.5517 773.512 60.0888 773.512 66.2156C773.512 71.3314 772.609 75.9295 770.792 80.0341C768.974 84.1388 766.507 87.3647 763.377 89.724C760.247 92.0832 756.841 93.2508 753.133 93.2508C747.62 93.2508 742.998 91.7582 739.267 88.761C735.535 85.7638 732.743 81.7675 730.889 76.7601C729.035 71.7527 728.12 66.2156 728.12 60.161C728.12 55.0452 729.023 50.4471 730.841 46.3425C732.658 42.2378 735.126 39.0119 738.256 36.6527C741.397 34.3054 744.84 33.1258 748.607 33.1258Z" fill="#E73D66"/>
<path d="M847.877 22.5333C845.855 22.5333 842.568 22.6657 837.994 22.9426C832.072 23.3518 826.018 23.5444 819.831 23.5444H805.603L802.268 30.1046L813.463 33.5352V89.7241L803.978 97.187V102.832H819.915C822.599 102.832 826.475 103.001 831.518 103.338C834.54 103.675 837.609 103.844 840.703 103.844C847.155 103.844 853.956 101.942 861.081 98.138C868.207 94.3343 874.178 89.1944 878.993 82.7065C883.795 76.2185 886.203 69.1407 886.203 61.4731C886.203 54.0102 884.602 47.3176 881.412 41.3954C878.222 35.4731 873.708 30.8509 867.894 27.5287C862.081 24.2065 855.412 22.5333 847.877 22.5333ZM843.64 94.4667H843.543C839.102 94.4667 835.166 93.8287 831.735 92.5528V33.9324C834.287 32.3194 837.08 31.513 840.113 31.513C845.891 31.513 850.754 33.0778 854.69 36.2074C858.626 39.337 861.551 43.5018 863.465 48.7139C865.379 53.9259 866.342 59.7639 866.342 66.2157C866.342 71.5963 865.343 76.4352 863.369 80.7444C861.382 85.0537 858.662 88.412 855.195 90.8315C851.729 93.2509 847.877 94.4667 843.64 94.4667Z" fill="#E73D66"/>
<path d="M649.795 168.506C645.017 168.506 640.057 169.867 634.918 172.587C629.778 175.307 625.481 178.979 622.05 183.577C618.62 188.187 616.91 193.146 616.91 198.455C616.91 203.366 618.006 207.831 620.184 211.876C622.375 215.908 625.432 219.086 629.369 221.409C633.305 223.732 637.722 224.888 642.633 224.888C647.412 224.888 652.371 223.528 657.511 220.807C662.651 218.087 666.948 214.416 670.379 209.806C673.809 205.195 675.519 200.236 675.519 194.928C675.519 190.017 674.423 185.551 672.244 181.506C670.054 177.474 667.02 174.296 663.12 171.973C659.22 169.674 654.779 168.506 649.795 168.506ZM643.945 180.206C648.05 180.206 651.24 182.036 653.527 185.707C655.814 189.379 656.957 194.025 656.957 199.682C656.957 204.124 656.235 207.506 654.791 209.818C653.346 212.141 651.24 213.296 648.483 213.296C644.306 213.296 641.081 211.431 638.794 207.699C636.507 203.968 635.363 199.273 635.363 193.628C635.363 189.186 636.085 185.84 637.53 183.589C638.986 181.338 641.129 180.206 643.945 180.206Z" fill="#E73D66"/>
<path d="M720.007 134.815C715.698 134.815 711.208 136.175 706.538 138.895C701.868 141.616 697.98 145.287 694.886 149.897C691.793 154.507 690.24 159.467 690.24 164.775V172.539H679.443V179.195H690.24V210.672L681.26 218.244V223.889H719.49L722.716 217.329L707.381 213.296V179.195H724.329V172.539H707.381V158.419C707.381 154.447 708.031 151.426 709.343 149.344C710.655 147.261 712.556 146.214 715.048 146.214C717.468 146.214 719.875 147.069 722.258 148.79C724.642 150.499 726.652 152.846 728.265 155.795H734.62V137.74C733.272 137.006 731.093 136.331 728.06 135.718C725.051 135.116 722.367 134.815 720.007 134.815Z" fill="#E73D66"/>
</svg>
