<svg width="1080" height="1080" viewBox="0 0 1080 1080" fill="none" xmlns="http://www.w3.org/2000/svg">
<path d="M327.78 881.34C326.83 884.49 327.46 887.61 328.04 890.72C328.48 893.11 328.98 895.49 329.49 897.87C329.55 898.15 329.8 898.38 330.02 898.73C332.97 893.56 332.16 882.64 328.56 879.35C328.28 880.05 327.98 880.68 327.78 881.34Z" fill="#E73D66"/>
<path d="M382.24 399.47C384 397.51 385.66 395.33 386.81 392.97C389.47 387.51 388.15 381.36 383.54 377.4C381.74 375.85 379.6 374.61 377.46 373.57C372.9 371.35 372.48 370.83 372.71 365.7C372.74 364.94 372.81 364.18 372.86 363.42C373.53 351 374.33 338.59 374.85 326.17C375.47 311.33 375.81 296.48 376.37 281.64C376.53 277.45 375.37 273.98 372.32 271.01C366.17 265.02 360.98 258.02 353.63 253.25C352.48 252.5 351.02 251.08 352.54 248.73C361.68 255.01 369.77 262.61 379.81 268.01C380.31 266.6 380.81 265.71 380.94 264.76C381.55 260.37 382.05 255.96 382.61 251.56C383.8 242.17 385.76 233.03 391.02 224.7C393.29 221.11 394.85 216.93 394.39 212.71C394.22 211.15 395.78 209.09 393.2 208.04C392.58 208.58 391.87 209.08 391.29 209.7C389.13 212.02 387.08 214.45 384.86 216.72C382.48 219.15 381.25 219.29 378.56 217.42C374.09 214.31 369.63 211.18 365.29 207.9C360.73 204.46 356.32 200.83 351.83 197.29C348.93 195 345.71 193.31 341.95 191.82C341.32 192.9 340.61 193.79 340.23 194.8C336.45 204.98 333.79 215.37 334.58 226.37C334.61 226.75 334.68 227.14 334.63 227.51C334.4 229.47 333.05 230.09 331.47 228.85C329.78 227.52 328.22 226.01 326.61 224.57C325.43 223.52 324.25 222.46 322.46 220.86C313.96 257.58 308.38 293.89 303.08 331.27C301.85 329.61 300.8 328.77 300.52 327.71C299.32 323.32 297.88 318.91 297.38 314.42C296.07 302.61 295.47 290.72 294.49 278.88C294.01 273.09 293.61 267.28 293.36 261.47C293.31 260.21 292.84 258.98 292.55 257.74C291.87 258.31 291.69 258.87 291.66 259.45C291.34 265.4 291.08 271.36 290.73 277.31C290.63 278.99 290.86 280.85 289.13 282.29C285.36 279.13 286.86 274.4 285.2 270.26C283.92 270.86 282.73 271.23 281.76 271.91C271.63 279.13 261.51 286.37 251.47 293.7C250.57 294.36 249.62 295.7 249.63 296.72C249.7 303.55 248.9 310.39 250.16 317.22C250.8 320.68 250.67 324.3 250.78 327.84C250.8 328.45 250.3 329.07 249.74 330.39C248.63 328.55 247.59 327.39 247.17 326.03C245.3 319.99 243.82 313.83 241.8 307.84C239.53 301.11 238.06 294.06 234.12 287.85C233.86 289.99 233.7 292.13 233.9 294.23C234.16 297 234.96 299.73 235.09 302.49C235.42 309.84 235.84 317.21 235.59 324.55C235.41 329.83 234.36 335.09 233.41 340.31C232.75 343.91 231.51 347.4 230.68 350.98C229.36 356.69 228.96 362.5 229 368.36C229.03 371.81 227.64 372.9 224.24 372.46C223.37 372.35 222.54 371.98 221.67 371.79C220.56 371.55 219.43 371.15 218.32 371.19C212.78 371.36 207.15 370.27 201.73 372.38C200.94 372.69 199.96 372.46 199.09 372.59C197.48 372.83 195.88 373.15 194.28 373.45C193.17 373.66 192.03 374.19 190.97 374.07C187.18 373.63 184.82 375.24 183.71 379.05C183.79 379.34 183.87 379.67 183.95 379.96C184.62 380.6 185.66 381.15 185.85 381.92C186.67 385.11 188.46 387.66 190.72 389.92C192.32 391.52 194.14 392.9 195.69 394.54C201.74 400.94 209.42 405.21 216.76 409.78C220.13 411.88 223.69 413.62 227.3 415.25C230.82 416.84 233 418.93 233.29 422.72C233.47 425.12 233.78 427.51 234.06 429.9C235.11 438.7 236.17 447.5 237.22 456.31C237.28 456.81 237.21 457.32 237.32 457.81C238 460.67 238.12 463.63 238.24 466.57C238.69 477.29 240.2 488.03 240.2 498.76C240.21 510.81 239.23 522.85 239.11 534.9C238.98 548.48 239.21 562.06 239.52 575.63C239.88 591.24 240.65 606.84 240.96 622.45C241.38 643.52 241.47 664.6 241.84 685.67C242.07 698.35 242.57 711.02 242.96 723.69C242.98 724.2 243.08 724.7 243.09 725.21C243.39 738.13 243.88 751.05 243.94 763.97C244 776.28 243.67 788.59 243.36 800.9C243.29 803.67 244.19 805.77 246.01 807.72C249.47 811.41 252.67 815.36 256.28 818.88C259.98 822.48 261.92 826.58 261.63 831.76C261.57 832.88 261.84 834.03 261.98 835.16C262.31 837.91 262.31 837.86 259.39 838.21C258.74 838.29 257.82 838.67 257.6 839.17C257.38 839.68 257.81 840.52 258.07 841.17C258.2 841.49 258.58 841.74 258.9 841.94C262.1 843.88 262.93 847.04 263.12 850.43C263.31 853.98 263.28 857.54 263.39 861.09C263.69 870.6 264.15 880.12 264.3 889.63C264.48 901.21 264.22 912.8 264.27 924.38C264.27 924.67 264.23 925.13 264.19 925.42C263.88 927.87 264.59 929.57 266.82 930.21C270.58 931.29 274.31 932.61 278.2 932.94C279.54 933.05 280.81 932.01 280.99 930.67C281.61 925.99 282.57 921.32 282.85 916.62C283.51 905.74 284.26 894.85 284.38 883.95C284.64 859.83 284.74 835.71 284.53 811.59C284.35 790.92 284.77 770.23 283.66 749.56C283.12 739.55 283.31 729.51 282.98 719.48C282.7 711.13 282.12 702.78 281.71 694.44C281.53 690.64 281.37 686.83 281.35 683.02C281.34 680.76 280.91 679.03 278.28 678.61C276.19 678.28 274.14 677.65 272.04 677.36C268.82 676.92 268.33 675.98 268.92 672.06C269.02 671.37 269.07 670.68 269.09 669.98C269.31 658.96 269.5 647.93 269.7 636.91C270.02 619.27 270.35 601.62 270.66 583.98C271.17 555.04 271.67 526.1 272.19 497.16C272.3 491.07 272.47 484.98 272.64 478.89C273.03 464.32 273.44 449.75 273.82 435.17C273.9 432.12 273.82 429.07 273.92 426.03C273.96 424.72 273.72 423.17 275.74 422.44C276.53 423.44 277.34 424.46 278.13 425.46C278.73 423.13 276.94 420.47 279.54 417.86C280.19 419.46 280.93 420.64 281.13 421.91C281.68 425.28 282.17 428.68 282.37 432.08C282.55 435 282.75 437.83 283.61 440.68C284.77 444.52 285.27 448.56 286.13 452.49C286.89 455.94 287.64 459.4 288.24 462.88C289.61 470.94 292.11 478.83 292.15 487.11C292.15 487.69 292.2 488.63 292.28 489.2C293.29 497.03 294.48 504.83 295.24 512.68C295.36 513.96 295.97 515.15 297 515.91C298.97 517.37 300.44 519.04 301.01 521.51C301.2 522.32 302.16 523.29 302.97 523.54C305.67 524.39 310.1 521.71 310.56 518.95C311.58 512.72 312.6 506.48 313.33 500.22C314.03 494.19 314.22 488.1 314.91 482.07C315.42 477.55 316.28 473.07 317.15 468.6C318.64 460.89 320.82 453.29 321.05 445.36C321.07 444.53 321.16 443.71 321.35 442.9C322.92 436.09 324.53 429.3 326.19 422.51C326.34 421.88 326.84 421.34 327.48 420.25C327.83 421.42 328.12 421.98 328.15 422.55C328.37 426.85 328.64 431.15 328.71 435.46C328.78 440.02 328.61 444.59 328.62 449.15C328.62 449.85 329 450.56 329.2 451.26C329.46 451.22 329.71 451.18 329.97 451.14C330.26 445.23 330.94 439.36 330.46 433.4C330.23 430.51 330.33 427.58 330.41 424.67C330.43 423.9 330.97 423.15 331.27 422.39C333.62 422.71 334.17 424.02 334.25 425.89C334.36 428.42 334.32 431.03 334.96 433.45C335.86 436.86 335.55 440.22 335.5 443.63C335.3 456.78 332.18 469.71 333.14 482.96C333.45 487.17 333.18 491.39 332.75 495.59C332.57 497.31 332.85 499.2 332.4 500.89C331.6 503.92 331.51 506.87 332.3 509.91C332.57 510.97 332.44 512.17 332.36 513.29C332.2 515.56 331.73 517.83 331.76 520.09C332.19 557.78 331.25 595.48 332.49 633.16C332.74 640.77 332.6 648.4 332.69 656.01C332.88 671.88 333.09 687.75 333.32 703.61C333.34 705.04 333.58 706.47 333.77 708.34C335.68 707.29 336 707.36 336.95 706.02C340.78 700.6 346.08 696.35 352.19 693.76C359.8 690.54 361.68 687.69 361.09 681.96C360.8 679.14 360.73 676.3 360.73 673.47C360.72 659.96 361.3 646.46 361.87 632.97C362.72 612.82 362.16 592.64 363.56 572.5C364.4 560.35 364.61 548.16 365.2 536C366.08 517.75 367.36 499.51 367.9 481.25C368.5 460.95 368.57 440.63 368.62 420.32C368.63 415.22 370.27 411.22 373.88 407.79C376.74 405.1 379.61 402.39 382.24 399.47ZM249.38 675.17C249.49 657.2 249.62 639.22 249.76 621.25C249.77 620.52 249.91 619.78 250.06 618.47C252.06 619.92 251.89 621.5 251.91 622.96C251.95 626.38 251.8 629.8 251.92 633.21C252.4 646.86 252.96 660.52 253.45 674.17C253.5 675.42 253.52 676.74 253.16 677.91C252.96 678.57 251.96 679.37 251.3 679.39C250.75 679.41 249.95 678.47 249.66 677.78C249.32 677.01 249.37 676.05 249.38 675.17ZM253.11 714.69C253.05 715.51 252.6 716.3 252.32 717.11C252.03 717.07 251.74 717.03 251.46 716.99C250.6 706.79 248.12 696.66 250.2 685.65C250.92 686.6 251.51 687.05 251.63 687.6C251.89 688.83 251.89 690.11 252.03 691.36C252.53 695.99 253.21 700.62 253.48 705.26C253.66 708.38 253.33 711.55 253.11 714.69ZM280.43 304.55C278.74 304.33 278.58 302.65 278.56 301.26C278.54 300.15 278.63 298.85 280.12 298.62C281.4 298.42 282.41 299.99 282.37 302.18C282.31 303.26 282.11 304.77 280.43 304.55ZM281.79 294.93C279.72 294.96 279.17 293.83 279.21 292.75C279.24 291.96 279.94 290.71 280.6 290.52C282.14 290.07 282.43 291.48 282.42 292.6C282.41 293.43 281.98 294.25 281.79 294.93ZM284.41 327.28C282.29 324.76 282.29 324.36 284.34 321.85C286.45 324.41 286.46 324.79 284.41 327.28ZM329.65 360.27C329.58 361.75 329.64 363.23 329.64 365.26C328.57 364.65 327.78 364.47 327.67 364.09C327.4 363.14 327.36 362.09 327.35 361.09C327.32 353 327.38 344.91 327.29 336.83C327.26 334.44 326.85 332.05 326.64 329.66C326.34 326.28 325.76 322.89 325.84 319.51C326.01 312.8 326.51 306.11 326.97 299.41C327.08 297.79 327.5 296.17 327.96 294.61C328.09 294.17 328.9 293.65 329.38 293.67C329.85 293.69 330.47 294.26 330.71 294.75C331.04 295.41 331.14 296.2 331.24 296.95C332.41 305.72 333.74 314.42 332.81 323.39C332.12 330.02 332.02 336.65 330.64 343.28C329.5 348.76 329.9 354.59 329.65 360.27ZM332.06 415.05C329.76 413.13 329.71 412.22 331.95 409.53C333.54 411.58 333.76 413.3 332.06 415.05ZM355.3 277.43C355.03 278.07 354 278.77 353.36 278.74C352.84 278.71 352.03 277.66 351.95 276.99C351.65 274.51 351.54 271.98 354.06 269.74C356.35 272.37 356.37 274.88 355.3 277.43Z" fill="#E73D66"/>
<path d="M887.31 228.79C875.18 223.46 862.51 220.81 849.2 221.72C844.62 222.03 843.14 224.71 845.69 228.67C847.55 231.57 848.52 234.62 848.48 237.99C848.39 247.51 848.33 257.03 848.08 266.55C847.73 280.12 847.21 293.69 846.8 307.26C846.66 311.83 846.74 316.4 846.57 320.97C846.18 331.49 845.69 342.01 845.26 352.53C845.2 354.05 845.3 355.58 845.18 357.1C845.13 357.73 844.69 358.32 844.3 359.21C842.43 356.79 842.73 354.34 842.7 351.97C842.51 336.36 842.39 320.75 842.12 305.14C841.87 290.55 841.53 275.95 841.11 261.36C840.48 239.54 839.64 217.72 839.1 195.9C838.63 177 838.42 158.09 838.16 139.18C838.11 135.25 838.37 131.31 838.37 127.38C838.37 125.95 838.06 124.51 837.85 122.71C835.59 123.98 836 125.66 836.05 127.02C836.66 141.51 835.01 155.89 833.87 170.29C832.58 186.6 831.3 202.92 830.38 219.26C829.38 237 828.71 254.75 828.03 272.51C827.44 287.98 826.94 303.46 826.56 318.94C825.94 344.57 825.46 370.21 824.89 395.85C824.74 402.58 824.45 409.3 824.32 416.02C824.29 417.77 824.48 419.56 824.8 421.28C825.13 423.02 826.29 424.11 828.54 424.59C828.68 423.2 828.89 422 828.92 420.79C829.03 415.97 829.07 411.14 829.16 406.32C829.61 382.97 830.07 359.62 830.51 336.27C830.54 334.87 830.47 333.47 830.54 332.08C830.58 331.29 830.8 330.5 830.94 329.72C831.92 330.51 832.39 331.37 832.49 332.27C832.76 334.79 833.03 337.32 833.03 339.85C833.09 366.26 833.11 392.67 833.14 419.07C833.14 421.1 833.19 423.13 833.19 425.16C833.19 426.72 833.83 427.69 835.31 428.39C845.72 433.36 856.09 438.4 866.46 443.43C867.94 444.14 869.35 445.1 871.5 443.99C871.98 441.54 872.84 438.84 872.99 436.11C873.52 426.75 873.71 417.4 874.42 408.03C875.76 390.47 875.82 372.81 876.41 355.2C876.41 355.07 876.41 354.95 876.42 354.82C876.86 349.01 877.39 343.21 877.71 337.39C878.31 326.32 878.76 315.25 879.33 304.18C879.45 301.87 881.21 299.91 883.51 299.72C884.93 299.6 886.39 299.82 887.79 299.62C890.21 299.27 890.98 297.97 890.53 295.64C890.25 294.17 889.93 292.65 890 291.17C890.28 284.58 890.73 277.99 891.14 271.4C891.43 266.7 891.85 262.02 892.43 257.35C893.09 252.12 893.82 246.9 894.6 241.69C894.78 240.47 895.71 239.37 896.3 238.22V233.65C893.3 232.02 890.41 230.16 887.31 228.79Z" fill="#E73D66"/>
<path d="M855.54 966.65V966.64C853.48 954.69 852.96 942.6 852.46 930.51C852.18 923.79 851.86 917.07 851.61 910.35C850.75 886.97 849.76 863.6 849.38 840.21C849.37 839.88 849.42 839.54 849.5 839.21C852.21 828.21 846.69 825.43 829.29 820.77C828.58 820.58 828.01 820.02 827.85 819.31C826.11 811.93 822.9 810.89 819.06 808.63C816.91 811 817.41 813.81 817.32 816.31C816.89 828.1 816.68 839.9 816.37 851.7C816.07 862.86 815.85 874.03 815.39 885.18C815.05 893.42 814.46 901.64 813.83 909.86C813.06 919.96 811.92 930.04 811.36 940.15C810.97 947.22 811.03 954.32 813.42 961.2C814.62 964.65 815.19 968.32 816.25 971.82C818.01 977.61 819.68 983.44 821.85 989.07C825.06 997.39 827.52 1005.9 828.53 1014.74C829.29 1021.41 829.48 1028.14 829.94 1034.85C829.95 1035.05 830.18 1035.24 830.3 1035.44C830.88 1035.33 831.46 1035.21 832.2 1035.07C833.73 1041.2 834.76 1047.15 834.53 1053.3C834.42 1056.22 835.45 1059.18 835.32 1062.1C835.33 1062.1 835.32 1062.1 835.33 1062.1C836.8 1055.72 840 1049.74 837.63 1042.48C837.37 1041.7 837.74 1040.8 838.51 1040.52C844.48 1038.36 844.07 1027.56 851.22 1024.67C854.41 1023.38 856.24 1021.15 857.05 1018.17C857.93 1014.91 858.66 1011.49 858.71 1008.14C858.78 1003.34 858.22 998.52 857.84 993.72C857.1 984.7 856.31 975.68 855.54 966.65Z" fill="#E73D66"/>
<path d="M766.97 824.48C766.76 820.94 766.15 817.35 766.54 813.87C767.02 809.55 766.86 805.38 766.58 801.07C766.31 796.85 764.43 794.84 760.9 793.62C757.46 792.43 754.02 791.19 750.54 790.13C748.98 789.66 748.14 788.82 747.97 787.25C747.83 785.99 747.79 784.71 747.58 783.47C747.44 782.63 747.35 781.49 746.79 781.06C743.92 778.83 741.24 776.16 737.15 776.32C734.49 776.42 731.82 776.39 729.15 776.34C726.68 776.29 725.1 777.49 724.1 779.65C723.67 780.57 723.29 781.54 722.68 782.33C721.72 783.58 720.31 783.44 719.68 782.02C719.33 781.23 719.24 780.31 719.13 779.44C718.78 776.55 718.46 773.65 718.14 770.75C717.01 760.51 716.61 750.26 717.15 739.96C717.45 734.26 717.5 728.54 717.56 722.84C717.57 721.76 717.41 720.23 716.72 719.68C713.99 717.51 714.26 714.6 714.18 711.69C713.72 694.83 714.62 677.96 713.29 661.09C712.64 652.76 712.7 644.38 711.28 636.09C710.77 633.11 711.01 630.01 710.77 626.98C710.05 617.9 709.15 608.83 708.55 599.74C708.16 593.79 708.26 587.81 708 581.85C707.78 576.92 707.24 572 707.02 567.07C706.41 553.38 705.9 539.69 705.32 526.01C705.28 525 704.97 524.01 704.84 523.01C704.37 519.5 703.91 515.99 703.46 512.47C703.32 511.34 703.26 510.2 703.08 509.07C702.19 503.46 701.28 497.85 700.35 492.24C700.14 490.99 699.82 489.77 699.58 488.53C698.56 483.2 696.99 477.9 698.68 472.4C698.93 471.58 698.82 470.63 698.78 469.75C698.19 458.41 699.08 447.25 701.55 436.11C705.3 419.21 704.13 402 703.64 384.89C703.31 373.35 702.17 361.83 701.93 350.29C701.72 340.4 701.94 330.48 702.59 320.61C703.23 310.9 703.69 301.09 707.03 291.77C707.59 290.19 707.79 288.31 710.23 287.84C711.76 300.55 713.24 313.1 714.77 325.63C716.33 338.34 718.15 351.02 719.48 363.75C720.79 376.3 721.63 388.89 722.67 401.47C722.94 401.48 723.21 401.49 723.48 401.5C723.54 401.06 723.65 400.62 723.65 400.19C723.57 393.46 723.6 386.73 723.34 380.01C723.19 376.1 722.47 372.22 722.22 368.32C721.54 357.7 721.12 347.06 720.31 336.45C719.48 325.72 718.12 315.02 717.34 304.28C717 299.53 717.52 294.72 717.65 289.77C719.93 289.85 719.71 291.08 719.94 291.99C720.37 293.69 720.53 295.53 721.3 297.06C722.79 299.99 723.26 302.98 723.31 306.23C723.48 318.15 723.84 330.07 724.12 341.99C724.34 351.45 726.35 360.56 729.37 369.5C729.81 370.81 730.3 371.81 731.78 372.07C734.25 372.5 734.85 374.21 735.04 376.49C735.62 383.19 736.45 389.86 737.03 396.55C737.46 401.47 737.63 406.42 737.93 411.35C738.03 413.06 737.43 414.48 735.74 414.93C730.08 416.41 727.03 420.8 724.02 425.23C722.24 427.84 722.52 429.03 725 431.06C728.22 433.69 731.96 435.18 736.02 435.92C738.07 436.3 739.59 435.56 741.03 433.96C742.61 432.2 744.57 430.76 746.41 429.25C747.48 428.37 748.76 427.72 749.76 426.77C750.8 425.79 751.6 424.41 750.83 423.01C749.75 421.06 748.74 418.73 747.02 417.56C743.82 415.39 742.94 412.63 743.15 409.1C743.33 406.19 743.37 403.27 743.5 400.36C743.73 395.3 744.08 390.24 744.22 385.18C744.33 381.25 744.57 377.27 744.06 373.4C743.12 366.27 743.34 359.27 744.67 352.21C747.3 338.33 748.49 324.3 747.94 310.18C747.75 305.38 748.55 300.93 750.12 296.42C751.78 291.65 753.59 286.74 754.01 281.78C754.95 270.52 754.86 259.17 752.93 247.99C751.44 239.38 749.17 230.92 747.52 222.33C746.67 217.88 744.09 215.39 740 214.2C729.96 211.28 719.71 209.88 709.23 210.17C704.79 210.29 701.63 212.2 700.25 216.44C698.93 220.51 696.29 222.39 692.09 222.5C688.7 222.58 686.43 224.4 685.15 227.52C684.53 229.04 683.88 230.56 683.09 231.99C676.46 244 672.14 256.82 670.16 270.37C668.88 279.15 667.95 287.99 667.2 296.83C666.66 303.14 666.5 309.46 668.98 315.6C669.79 317.59 669.6 320.08 669.5 322.33C669.33 326.13 668.57 329.91 668.59 333.7C668.63 340.67 668.89 347.65 669.38 354.61C670.1 364.85 671.13 375.08 671.97 385.32C672.19 387.97 672.54 390.68 672.22 393.29C671.27 400.96 669.97 408.58 668.9 416.24C668.47 419.36 667.75 422.58 668.1 425.65C669.27 435.83 670.14 446.08 672.73 456.05C673.11 457.5 673.05 459.07 673.22 460.58C673.68 464.73 674.07 468.9 674.67 473.03C674.97 475.14 675.95 477.17 676.1 479.27C676.67 487.75 677.2 496.24 677.45 504.73C677.95 521.59 677.35 538.45 678.35 555.32C679.2 569.62 678.87 583.99 679.08 598.33C679.15 603.14 679.17 607.95 679.36 612.75C679.5 616.3 679.88 619.83 680.11 623.38C680.45 628.57 680.72 633.76 681.07 638.95C681.36 643.37 682.08 647.8 681.96 652.21C681.77 659.33 681.88 666.38 683.27 673.4C683.66 675.36 683.44 677.44 683.47 679.46C683.49 681.36 683.31 683.27 683.48 685.15C683.91 689.93 684.48 694.7 684.98 699.48C685.06 700.24 685.14 701.01 685.08 701.76C684.54 708.62 685.29 715.38 685.98 722.2C687 732.42 687.44 742.72 686.17 752.99C685.86 755.49 685.47 757.99 685.21 760.49C684.94 763.14 684.85 765.8 684.57 768.45C683.81 775.74 682.81 783.02 682.23 790.33C681.06 805.25 680.06 820.18 679.09 835.12C678.87 838.53 678.89 841.98 679.08 845.39C679.15 846.65 679.79 848.08 680.61 849.07C684.94 854.33 688.12 860.22 689.94 866.73C694.14 881.75 698.05 896.84 702.22 911.87C702.99 914.63 704.25 917.32 705.65 919.84C713.01 933.06 722.55 945.06 727.88 960.22C729.01 958.56 729.71 957.44 730.51 956.4C731.81 954.71 732.96 952.48 735.4 952.64C740.16 952.96 744.2 950.76 748.47 949.37C752.55 948.04 754.88 945.19 755.76 940.94C756.45 937.62 757.53 934.38 758.45 931.1C759.53 927.21 760.79 923.36 761.66 919.43C762.48 915.74 762.88 911.96 763.47 908.22C764.38 902.48 765.64 896.77 766.12 891C766.94 881.03 767.55 871.03 767.74 861.03C767.94 850.37 767.56 839.71 767.39 829.04C767.35 827.51 767.06 826 766.97 824.48ZM725.13 288.25C725.33 288.66 725.72 289.08 725.69 289.46C725.66 289.8 725.17 290.1 724.65 290.66C724.28 289.96 723.81 289.43 723.92 289.23C724.16 288.81 724.71 288.56 725.13 288.25ZM682.21 324.98C681.69 328.6 681.09 332.21 680.44 335.8C680.32 336.47 679.82 337.06 679.05 338.56C678.6 337.6 678.22 337.16 678.2 336.7C677.96 331.8 677.78 326.9 677.6 321.99C677.59 321.62 677.76 321.25 677.85 320.88C678.15 319.64 678.85 318.76 680.2 318.89C681.48 319.01 682.24 319.87 682.28 321.18C682.32 322.46 682.39 323.74 682.21 324.98ZM706.26 748.24C708.58 750.88 708.64 751.49 706.81 754.81C704.96 752.53 705.2 750.52 706.26 748.24ZM733.36 856.16C732.8 859.1 729.88 861.89 726.4 862.39C721.79 863.05 717.66 862.46 715.54 856.5C714.1 852.45 712.75 848.37 711.29 844.32C710.86 843.13 710.26 842.01 709.67 840.89C707.94 837.57 706.92 834.06 707 830.3C707.15 823.68 706.7 817.15 705.36 810.63C704.81 807.97 705.12 805.1 705.22 802.34C705.38 797.91 705.73 793.56 704.36 789.16C703.6 786.72 703.69 783.92 703.89 781.32C704.19 777.42 704.92 773.55 705.5 769.67C705.57 769.22 705.81 768.8 706.18 767.82C706.75 768.88 707.3 769.46 707.35 770.09C707.61 773.11 708.15 776.19 707.85 779.17C707.07 787.1 708.45 794.85 709.11 802.67C709.35 805.56 709.31 808.48 709.57 811.38C709.75 813.37 709.94 815.43 710.62 817.28C712.16 821.44 713.87 825.55 715.76 829.56C717.43 833.1 717.66 836.34 714.95 839.44C714.72 839.7 714.67 840.12 714.36 840.9C715.27 840.65 715.91 840.57 716.47 840.31C717.82 839.68 718.96 839.85 719.79 841.12C722.1 844.65 725.56 846.75 729.09 848.8C733.44 851.31 734.07 852.43 733.36 856.16Z" fill="#E73D66"/>
<path d="M645.34 337.33C642.21 335.18 638.89 333.29 635.53 331.52C633.66 330.54 632.63 329.28 632.26 327.22C631.66 323.85 630.81 320.53 630.16 317.17C629.67 314.64 629.66 312.11 630.97 309.75C632.4 307.18 632.58 304.39 632.15 301.61C631.77 299.14 632.03 296.86 632.84 294.52C633.98 291.25 633.3 288.26 630.89 285.72C629.93 284.71 628.97 283.68 627.89 282.8C625.34 280.72 622.76 278.67 620.11 276.72C616.43 274.02 616.34 271.64 619.88 268.88C620.98 268.03 622.15 267.21 623.03 266.17C624.41 264.54 624.26 263.31 622.66 261.88C621.91 261.21 621.04 260.66 620.17 260.14C610.48 254.31 600.34 253.41 589.97 257.93C584.28 260.41 578.79 263.36 573.31 266.28C569.16 268.49 567.3 272.57 568.38 277.21C569 279.89 569.82 282.69 571.26 285C574.21 289.74 575.43 294.7 574.84 300.21C574.64 302.1 574.72 304.02 574.59 305.92C574.53 306.8 574.54 307.84 574.07 308.49C573.57 309.19 572.55 309.9 571.74 309.92C568.95 309.99 566.6 308.1 565.99 305.33C565.56 303.36 565.46 301.32 565.23 299.31C564.99 297.3 564.89 295.26 564.52 293.28C563.93 290.11 561.81 288.1 559.08 286.22C558.66 289.01 558.11 291.37 557.98 293.75C557.6 301.09 557.41 308.43 557.09 315.77C557.03 317.07 556.68 318.36 556.42 319.9C554.59 319.36 553.28 318.88 551.93 318.59C550.33 318.25 549.17 318.78 548.9 320.57C548.75 321.57 548.38 322.6 548.49 323.58C549.31 330.5 550.17 337.42 551.18 344.32C551.32 345.28 552.13 346.44 552.97 346.93C555.21 348.24 555.64 350.15 555.41 352.45C555.07 355.86 554.66 359.26 554.42 362.68C554.27 364.82 553.92 367.11 554.48 369.1C555.22 371.75 554.55 373.79 553.24 375.92C550.5 380.38 548.56 385.16 547.32 390.27C544.91 400.24 546.26 410.23 547.01 420.2C547.51 426.77 548.36 433.32 548.96 439.89C549.84 449.62 550.62 459.35 551.47 469.08C552.4 479.69 553.32 490.31 554.34 500.91C554.97 507.47 555.73 514.02 556.57 520.56C556.74 521.91 557.53 523.19 558.03 524.5C559.08 521.47 559.54 518.64 560.19 515.85C560.84 513.08 560.24 509.78 563.74 507.24C564.03 510.29 564.45 512.74 564.45 515.19C564.47 526.16 564.78 537.09 559.85 547.47C555.6 556.42 554.96 566.04 556.7 575.78C556.91 576.95 557.53 578.05 558.11 579.59C559.71 578.7 560.93 578.1 562.07 577.36C564.31 575.92 566.51 574.4 568.72 572.91C573.14 569.93 577.56 566.95 581.97 563.97C583.61 562.86 585.17 561.49 584.84 559.4C584.51 557.31 583.91 555.09 582.77 553.35C580.91 550.52 580.5 547.54 580.41 544.32C580.3 540.27 580.34 536.15 579.6 532.18C578.45 525.98 578.44 519.83 579.07 513.63C579.11 513.25 579.52 512.92 580.33 511.71C581.16 516.14 582.11 519.64 582.43 523.2C583.27 532.41 583.88 541.64 584.49 550.87C584.61 552.65 585.21 553.73 586.98 554.14C588.21 554.43 589.46 554.74 590.61 555.24C591.98 555.83 593.06 555.44 594.15 554.64C600.8 549.79 607.45 544.94 614.12 540.1C615.5 539.1 616.77 537.73 618.76 538.39C618.23 539.44 617.92 540.75 617.1 541.46C614.44 543.77 611.59 545.87 608.79 548.02C601.96 553.28 595.11 558.52 588.26 563.76C586.29 565.27 585.45 567.23 585.54 569.72C585.66 572.89 585.67 576.07 585.65 579.24C585.64 580.42 585.42 581.61 585.22 583.47C581.78 579.85 582.16 575.01 578.85 572C577.89 572.54 576.96 572.92 576.18 573.52C569.72 578.45 563.31 583.43 556.84 588.35C554.1 590.43 553.27 593.19 553.74 596.43C555.81 610.84 557.92 625.26 560.02 639.67C560.6 643.67 561.29 647.65 561.83 651.65C562.43 656.16 562.88 660.69 563.47 665.2C564.23 670.95 565.22 676.68 565.8 682.45C566.12 685.67 567.23 688.29 569.54 690.51C579.25 699.82 588.93 709.16 598.65 718.46C603.23 722.85 607.84 727.21 612.48 731.54C614.29 733.23 616.2 734.8 618.6 736.9C619.61 734.65 620.65 733.04 621.04 731.28C621.92 727.33 622.35 723.27 623.2 719.31C624.21 714.56 623.41 709.35 626.75 705.16C627.08 704.75 626.93 703.94 626.98 703.31C627.54 694.96 628.08 686.61 628.65 678.27C628.88 674.98 629.1 671.69 629.47 668.42C630.2 662.02 631.24 655.65 631.76 649.24C632.68 637.99 633.36 626.72 634.05 615.45C634.79 603.29 635.44 591.13 636.12 578.96C636.47 572.75 636.47 566.51 637.2 560.34C638.43 549.88 639.69 539.43 639.29 528.88C639.18 525.95 639.77 523.65 642.38 522.07C644.74 520.64 645.19 518.5 644.91 515.83C644.51 512.06 644.43 508.25 644.38 504.46C644.3 498.64 645.27 492.88 644.61 487C643.79 479.68 644.03 472.32 645.24 465C646.41 457.94 646.24 450.87 645.4 443.76C644.46 435.83 643.75 427.86 643.06 419.9C641.75 404.74 640.51 389.57 639.25 374.4C638.91 370.36 638.48 366.32 638.28 362.27C638.07 357.83 639.81 354.15 643.01 351.06C644.46 349.66 645.86 348.14 646.99 346.48C649.48 342.85 649 339.85 645.34 337.33ZM604.9 701.09C604.83 701.52 604.42 702.14 604.08 702.21C603.55 702.31 602.67 702.19 602.43 701.83C601.88 701.02 601.4 700.04 601.29 699.08C600.2 689.9 599.19 680.71 598.16 671.53C598.13 671.28 598.13 671.02 598.07 670.08C598.35 669.68 598.94 668.83 599.54 667.98C600.4 668.6 601.54 669.04 602.06 669.87C602.7 670.9 603.04 672.23 603.13 673.46C603.46 677.63 603.6 681.81 603.85 685.99C604.12 690.41 604.44 694.82 604.75 699.24C604.79 699.85 605 700.49 604.9 701.09ZM584.66 345.63C585.59 334.78 586.45 323.93 587.37 313.08C587.56 310.81 587.8 308.54 588.14 306.29C588.89 301.18 594.76 297.47 599.55 299.12C600.24 299.36 600.68 300.29 601.24 300.9C600.61 301.4 600.06 302.12 599.34 302.36C598.53 302.63 597.58 302.44 596.7 302.5C593.96 302.67 592.62 303.98 592.35 306.73C592.3 307.23 592.33 307.74 592.32 308.25C592.23 327.73 592.16 347.21 592.05 366.69C592.04 368.24 591.78 369.8 591.64 371.35C591.35 371.41 591.06 371.47 590.77 371.53C589.93 370.18 588.95 368.9 588.27 367.48C584.97 360.54 584.01 353.23 584.66 345.63ZM592.23 372.7C592.13 372.76 592.04 372.87 591.94 372.87C591.85 372.87 591.77 372.74 591.68 372.67C591.77 372.61 591.87 372.49 591.96 372.5C592.06 372.51 592.14 372.63 592.23 372.7ZM572.75 464.43C570.81 467.16 570.1 470.1 570.38 473.4C570.49 474.71 570.3 476.04 570.24 477.36C567.21 473.68 565.57 469.88 567.97 465.52C568.88 463.86 569.97 462.29 571.04 460.73C574.62 455.5 578.24 450.3 581.8 445.06C584.15 441.59 585.13 437.73 585.05 433.54C584.97 429.23 585.01 424.91 585.08 420.6C585.18 415.04 584.07 409.77 581.64 404.78C581.36 404.21 581.13 403.62 580.94 403.02C580.88 402.83 581.02 402.57 581.13 402.1C584.15 402.82 585.9 404.88 586.65 407.63C589.03 416.39 589.86 425.25 587.96 434.24C587.57 436.1 587.11 438.01 587.18 439.88C587.28 442.87 586.14 445.25 584.49 447.59C580.54 453.16 576.71 458.84 572.75 464.43ZM584.93 506.31C583.87 506.54 582.65 505.16 583.04 504.2C583.26 503.66 584 503.33 584.95 502.55C585.58 503.56 586.24 504.25 586.38 505.03C586.43 505.38 585.51 506.18 584.93 506.31ZM586.44 464.98C585.66 464.68 585.14 463.73 584.51 463.05C585.08 462.68 585.69 461.94 586.2 462.01C587.02 462.12 587.76 462.75 589.26 463.54C587.77 464.34 586.91 465.16 586.44 464.98ZM591.6 506.97C591.32 506.81 591.03 506.64 590.75 506.48C590.52 506.01 590 505.42 590.14 505.09C590.3 504.7 591 504.39 591.49 504.35C591.72 504.33 592.25 505.02 592.24 505.36C592.21 505.9 591.83 506.43 591.6 506.97ZM590.85 493.54C590.41 492.88 589.68 492.26 589.58 491.55C589.38 490.11 590.63 488.66 591.66 489.02C592.33 489.25 592.78 490.11 593.7 491.06C592.56 492.05 591.71 492.79 590.85 493.54ZM598.08 522.34C597.99 524.38 596.88 525.9 595.67 525.58C593.89 525.11 594.12 523.52 593.99 522.16C594.09 521.55 594.01 520.8 594.33 520.33C594.78 519.68 595.56 518.79 596.15 518.82C596.75 518.85 597.41 519.81 597.82 520.5C598.12 520.99 598.11 521.72 598.08 522.34ZM614.15 530.36C613.36 530.21 612.76 529.01 611.8 528C612.7 526.91 613.3 525.55 613.98 525.51C615.43 525.42 616.05 526.73 616.04 528.12C616.04 529.37 615.51 530.61 614.15 530.36ZM615.14 512.75C614.31 512.94 613.26 512.99 612.53 512.64C610.17 511.5 608.12 511.78 606.06 514.33C605.47 512.66 604.95 511.66 604.77 510.62C604.32 507.99 602.8 506.34 600.45 505.26C599.01 504.6 597.33 504.18 596.66 501.91C600.44 501.13 603.29 501.64 605.36 504.77C607.08 507.38 609.86 508.35 612.75 509.04C613.73 509.28 614.78 509.36 615.64 509.82C616.18 510.11 616.78 511 616.71 511.54C616.64 512.02 615.76 512.62 615.14 512.75ZM612.72 504.07C612.85 504.34 612.47 505.09 612.14 505.28C611.81 505.47 611.07 505.4 610.8 505.14C608.92 503.32 608.86 500.81 608.94 498.51C609.01 496.67 610.41 495.41 613.02 495.4C613.08 496.46 613.34 497.25 613.12 497.88C612.43 499.92 611.68 501.89 612.72 504.07ZM605.82 493.72C605.1 493.72 604.37 493.49 603.72 493.38C603.63 493.08 603.53 492.93 603.57 492.84C606.27 486.58 603.47 481.06 601.23 475.47C600.76 474.3 600.05 473.2 599.7 472C599.46 471.17 599.65 470.22 599.65 469.32C599.93 469.22 600.22 469.12 600.5 469.01C601.12 469.68 601.91 470.26 602.34 471.03C603.42 473.03 604.53 475.06 605.29 477.19C606.52 480.64 607.51 484.18 608.56 487.7C608.81 488.54 609.02 489.43 609.08 490.3C609.25 492.95 608.51 493.72 605.82 493.72ZM607.08 500.61C606.77 500.94 606.54 501.19 606.32 501.44C606.02 501.15 605.73 500.86 605.43 500.57C605.69 500.34 605.94 499.94 606.22 499.92C606.46 499.91 606.73 500.31 607.08 500.61ZM601.91 486.03C601.95 486.07 601.68 486.56 601.61 486.54C601.31 486.48 601.03 486.31 600.72 486.18C600.9 485.87 601.01 485.67 601.12 485.47C601.39 485.66 601.68 485.81 601.91 486.03ZM618.75 471.4C618.17 465.22 617.6 459.03 617.12 452.84C616.78 448.42 616.73 443.97 616.3 439.56C615.48 431.23 614.42 422.93 613.57 414.6C613.1 410.06 612.76 405.5 612.53 400.94C612.37 397.71 611.62 394.75 610.16 391.83C609.1 389.72 608.48 387.34 607.99 385.01C607.1 380.76 606.11 379.57 601.93 378.9C600.44 378.66 598.89 378.75 597.38 378.65C596.5 378.59 595.54 378.63 594.77 378.28C594.19 378.02 593.62 377.27 593.48 376.64C593.39 376.24 593.96 375.47 594.43 375.19C596.19 374.15 598.03 373.48 600.2 373.87C602.18 374.23 604.22 374.35 606.24 374.36C609.73 374.37 610.88 373.28 610.91 369.89C610.94 366.47 610.71 363.04 610.73 359.62C610.75 356.63 610.95 353.64 611.1 349.92C614.51 352.06 614.96 354.67 614.81 357.12C614.36 364.13 615.03 371.02 615.96 377.96C616.82 384.36 617.09 390.84 617.53 397.29C618.25 407.8 618.54 418.34 619.68 428.8C620.56 436.88 620.72 444.98 621.4 453.05C621.93 459.36 622.98 465.63 622.62 471.99C622.54 473.31 622.27 474.62 621.94 476.92C620.62 475.62 619.77 475.1 619.4 474.34C618.97 473.47 618.84 472.4 618.75 471.4ZM618.9 538.38C620.04 535.52 620.06 535.52 622.78 536.19C622.1 538.16 620.91 538.98 618.9 538.38ZM621.59 510.37C621.08 510.33 620.18 509.39 620.25 509C620.42 508.05 621.05 507.18 621.83 505.62C622.75 506.93 623.49 507.53 623.57 508.21C623.73 509.5 622.94 510.46 621.59 510.37ZM626.92 333.15C625.03 334.97 623.14 334.86 622.07 332.48C620.84 329.75 620.09 326.81 619.21 324.18C619.73 322.68 619.84 321.39 620.53 320.63C621.31 319.79 622.62 318.99 623.68 319.01C624.42 319.03 625.46 320.35 625.78 321.29C626.68 323.91 627.29 326.64 628 329.33C628.39 330.81 628.02 332.09 626.92 333.15ZM639.6 455.63C639.86 462.83 640.16 470.03 640.4 477.22C640.44 478.46 640.3 479.7 640.25 480.94C639.97 480.96 639.69 480.99 639.41 481.01C637.59 478.06 637.11 474.66 636.95 471.33C636.29 457.67 635.9 443.99 635.28 430.32C635.11 426.55 634.38 422.8 634.03 419.03C633.65 414.88 633.47 410.7 633.09 406.55C631.89 393.31 630.63 380.07 629.41 366.83C629.28 365.44 629.1 364.02 629.31 362.66C629.44 361.83 630.1 360.69 630.81 360.41C632.16 359.87 632.88 361.06 633.23 362.18C633.64 363.51 633.97 364.88 634.09 366.26C634.94 375.72 635.71 385.18 636.56 394.64C636.72 396.39 637.26 398.11 637.4 399.87C637.69 403.52 637.9 407.18 638.03 410.83C638.57 425.77 639.07 440.7 639.6 455.63Z" fill="#E73D66"/>
<path d="M609.51 917.38C607.67 917.76 605.78 917.9 603.9 918.12C602.65 918.27 601.39 918.37 600.14 918.52C597.27 918.88 594.4 919.27 591.53 919.63C590.4 919.77 589.26 919.82 588.14 919.99C585.66 920.36 583.2 920.85 580.71 921.15C575.83 921.76 570.94 922.27 566.06 922.84C565.57 922.9 565.06 923.08 564.62 923.31C562.08 924.61 559.86 923.93 558.12 921.95C556.09 919.65 553.65 919.35 550.87 919.8C547.79 920.29 544.67 921.13 541.59 921.04C537.17 920.91 533.17 922.52 528.96 923.25C524.6 924.01 520.26 924.73 515.4 923.77C515.76 922.8 515.83 921.73 516.36 921.37C518.81 919.74 521.06 917.6 524.31 917.67C525.24 915.02 527.62 914.15 529.93 913.19C532.43 912.15 534.09 910.44 534.24 907.58C534.67 899.34 535.36 891.11 535.48 882.87C535.6 874.39 535.77 865.91 535.15 857.4C534.5 848.56 534.82 839.64 534.99 830.75C535.31 813.36 535.94 795.98 536.22 778.6C536.47 763.37 536.39 748.13 536.54 732.9C536.58 728.98 537.19 725.06 537.1 721.15C536.93 713.69 537.53 706.22 536.32 698.76C535.31 692.53 535.28 686.12 534.07 679.94C532.51 672 532.1 663.92 530.34 656C528.73 648.75 528.11 641.27 527.1 633.89C525.62 622.97 524.1 612.05 522.77 601.12C522.02 594.96 521.58 588.77 521.08 582.58C521 581.58 521.35 580.55 521.5 579.53C521.81 579.54 522.12 579.55 522.43 579.56C525.19 590.47 526.19 601.68 527.66 612.82C529.14 624 530.81 635.16 532.4 646.32C532.73 645.66 532.73 645.04 532.73 644.41C532.78 611.16 532.91 577.91 532.86 544.65C532.78 498.95 532.52 453.24 532.46 407.54C532.45 403.01 533.13 398.46 533.7 393.94C534.07 391.04 533.78 389.96 531.09 388.92C529.21 388.2 527.19 387.85 525.25 387.31C521.02 386.14 520.48 385.25 521.54 381.11C523.55 373.25 525.6 365.4 527.6 357.54C531.89 340.72 536.66 323.99 538.3 306.61C539.04 298.75 538.91 290.89 537.17 283.14C536.55 280.39 535.78 279.92 533.2 280.74C532.15 281.07 531.2 281.73 530.26 282.33C529.2 283.01 528.28 283.92 527.18 284.52C522.05 287.31 516.87 289.99 511.75 292.78C508.86 294.36 506.05 296.08 503.19 297.73C501.49 298.71 500.84 300.12 500.82 302.12C500.74 311.13 500.45 320.14 500.35 329.15C500.16 345.65 500.08 362.16 499.91 378.66C499.76 393 499.35 407.34 499.41 421.68C499.44 430.22 498.37 429.28 492.86 431.06C489.69 432.08 489.31 432.69 489.58 436.03C489.65 436.91 489.91 437.78 489.99 438.66C490.38 442.69 491.1 446.73 491.03 450.76C490.77 467.63 491.32 484.49 490.43 501.37C489.68 515.55 490.26 529.8 490.18 544.02C490.04 568.9 489.85 593.78 489.67 618.66C489.66 619.7 489.43 620.74 489.29 621.9C487.9 621.46 487 621.17 485.61 620.73C485.68 643.11 484.67 665.08 485.44 687.09C486.25 684.15 486.4 681.03 489.06 678.83C489.67 682 490.07 685.11 490.05 688.22C489.98 700.4 489.52 712.59 489.67 724.76C489.96 749.25 490.61 773.74 490.98 798.24C491.18 811.19 491.07 824.14 491.17 837.09C491.3 854.99 491.43 872.88 491.69 890.78C491.76 895.32 492.46 899.84 492.63 904.38C493.17 918.18 492.47 932.02 494.2 945.79C495.08 952.82 495.36 959.94 496.31 966.96C496.67 969.64 498.04 972.23 499.2 974.75C499.52 975.45 500.77 976.16 501.56 976.11C503.16 976.02 504.86 975.69 506.3 974.99C510.66 972.88 515.41 973.15 519.99 972.46C523.86 971.88 527.79 971.68 531.69 971.25C533.31 971.07 534.92 970.74 536.53 970.44C538.36 970.1 540.18 969.56 542.02 969.39C544.41 969.17 547.06 969.82 549.18 969.01C552.55 967.72 555.88 967.94 559.28 967.84C563.19 967.73 567.1 967.67 571 967.41C574.52 967.18 578.03 966.7 581.54 966.35C582.42 966.26 583.32 966.28 584.19 966.16C588.81 965.49 593.43 964.24 598.05 964.25C603.67 964.26 607.94 962.09 612.06 958.65C615.26 955.98 616.6 952.82 616.72 948.77C616.81 945.88 617.56 943.02 617.76 940.13C618.13 934.7 618.63 929.24 618.48 923.81C618.32 919.38 613.79 916.5 609.51 917.38ZM515.93 412.84C516.01 410.86 516.37 408.89 516.6 406.92C517.03 406.87 517.47 406.83 517.9 406.78C518.32 408 519.07 409.21 519.11 410.44C519.23 414.6 519.18 418.78 519 422.94C518.96 423.92 518.15 424.86 517.72 425.76C515.76 425.33 515.75 424.17 515.76 423.02C515.79 419.63 515.78 416.23 515.93 412.84Z" fill="#E73D66"/>
<path d="M524.38 917.67C524.36 917.67 524.33 917.67 524.31 917.67C524.3 917.71 524.27 917.75 524.26 917.79L524.38 917.67Z" fill="#E73D66"/>
<path d="M427.79 564.16L427.9 564.3C427.88 564.24 427.84 564.18 427.79 564.16Z" fill="#E73D66"/>
<path d="M454.86 756.97C452.1 757.23 402.63 712.31 400.24 712.35C399.94 713.51 399.75 714.49 399.43 715.42C397.84 720.01 398.46 724.08 402.12 727.51C402.12 727.51 445.41 764.71 445.51 766.01C445.61 767.31 444.97 768.62 443.54 768.23C442.11 767.84 400.31 728.7 398.75 728.55C398.55 733.47 398.35 738.13 398.19 742.79C397.94 750.14 397.59 757.49 397.53 764.85C397.49 770.18 395.79 775.76 399.47 780.68C399.89 781.24 399.84 782.14 400 782.88C400.6 785.6 401.07 788.35 401.83 791.02C405.11 802.44 408.48 813.83 411.82 825.23C412.86 828.76 415.47 829.91 419.06 828.78C422.49 827.69 425.99 826.79 429.5 826.03C434.63 824.92 439.85 824.18 444.95 822.95C450.32 821.66 455.63 820.06 460.9 818.39C462.23 817.97 463.93 817.32 464.02 815.45C464.11 813.56 464.45 811.49 463.86 809.8C462.96 807.24 463.16 804.8 463.53 802.31C464.16 798.18 465.15 794.1 465.61 789.96C466.5 781.9 467.09 773.81 467.87 765.74C468.59 758.18 469.49 750.64 470.13 743.07C470.76 735.63 471.25 728.17 471.63 720.72C471.97 714.01 471.93 707.28 472.35 700.57C472.54 697.59 473.12 694.52 474.16 691.73C475.73 687.53 476.8 683.35 476.88 678.83C477.11 664.62 477.52 650.41 477.89 636.2C478.01 631.38 478.27 626.57 478.38 621.75C478.46 618.09 477.46 614.8 475.23 611.79C474.4 610.67 473.9 609.05 473.86 607.64C473.59 598.89 473.55 590.13 473.32 581.38C473.13 574.28 472.75 567.18 472.49 560.09C472.37 556.79 472.25 553.49 472.33 550.2C472.38 548.06 473.82 546.74 475.62 546.76C477.21 546.78 478.07 547.9 478.11 550.33C478.16 553.5 478.11 556.68 478.05 559.85C477.85 570.13 477.61 580.4 477.41 590.68C477.39 591.88 477.54 593.08 477.61 594.28C477.87 594.29 478.13 594.3 478.39 594.32C479.43 590.6 480.63 586.86 480.66 582.97C480.78 568.25 480.74 553.52 480.68 538.8C480.67 537.38 480.17 535.97 479.89 534.55C479.52 534.36 479.14 534.17 478.77 533.98C478.51 534.57 478.38 535.26 477.97 535.71C477.6 536.12 476.93 536.25 476.47 536.48C473.52 533.48 473.49 533.17 475.63 530.01C476.54 528.66 477.67 527.29 475.82 525.77C475.36 525.92 475.01 526.03 474.66 526.14C471.44 527.23 470.63 526.76 470.19 523.36C469.82 520.47 469.6 517.56 469.31 514.66C468.37 505.33 467.31 496 466.56 486.65C466.26 482.89 466.58 479.08 466.79 475.3C466.98 471.89 467.81 468.47 467.65 465.09C467.4 459.55 466.66 454.02 465.96 448.51C465.67 446.26 465.07 444.03 464.36 441.87C463.79 440.11 461.98 439.87 461.33 441.52C459.73 445.62 456.11 448.01 453.59 451.29C447.29 459.48 439.58 466.3 432.17 473.42C431.62 473.95 432.14 473.83 430.55 475.06C429.57 477.46 428.8 477.97 427.5 479.3C422.52 484.36 417.73 489.65 412.4 494.32C408.24 497.97 405.15 501.68 406.16 507.55C404.4 528.16 404.14 548.82 404.38 569.49C404.4 570.93 404.85 572.36 405.1 573.74C406.72 573.65 407.89 573.59 409.66 573.49C408.66 576.31 407.89 578.64 406.99 580.93C406.44 582.33 406.01 584.02 404.97 584.93C403.38 586.31 403.24 587.9 403.21 589.68C403.08 597.03 402.96 604.38 402.8 611.73C402.77 613.24 402.63 614.76 402.46 616.26C402.24 618.25 401.76 620.24 401.72 622.23C401.61 628.06 402.05 633.93 401.55 639.72C400.6 650.81 401.65 661.94 400.17 673.06C399.12 680.92 399.8 689.01 399.74 697C399.72 699.41 399.79 701.82 399.84 704.22C399.88 706.24 400.62 707.82 402.4 709C404.4 710.33 456.99 750.32 456.7 753.33C456.41 756.37 457.62 756.71 454.86 756.97ZM420.54 562.03L422.85 564.84C423.65 565.68 448.43 552.97 448.43 552.97C448.8 552.71 449.24 552.55 449.65 552.35C449.79 552.64 449.92 552.94 450.06 553.23C449.74 553.36 433.42 561.99 425.61 566.57C423.35 567.9 425.07 572.08 424.67 572.02C421.57 571.56 413.83 569.03 412.63 568C415.57 565.77 420.54 562.03 420.54 562.03ZM440.13 603.89C441.06 604.34 441.72 604.44 441.84 604.74C442.9 607.55 442.38 610.4 441.59 613.24C439.71 610.41 440.19 607.37 440.13 603.89ZM434.65 573.25C434.41 573.39 433.83 572.93 433.39 572.75C435.74 568.52 438.67 566.86 442.07 568.66C439.25 570.43 436.98 571.89 434.65 573.25ZM440.15 597.9C436.54 597.65 434.95 595.46 433.37 593.13C435.86 591.5 438.72 593.48 440.15 597.9ZM441.27 702.49C441.96 701.18 442.01 700.16 441.09 699.03C439.53 697.11 439.44 694.89 439.77 692.55C440.52 687.17 441.18 681.78 441.94 676.4C442.22 674.47 442.44 672.44 444.59 670.82C445.17 672.08 445.65 673.05 446.06 674.03C449.15 681.39 450.78 688.83 448.49 696.84C447.32 700.95 447 705.29 446.15 709.5C445.9 710.74 445.15 711.87 444.31 713.79C442.74 710.65 441.37 708.41 440.52 705.98C440.18 705.01 440.72 703.52 441.27 702.49ZM444.6 661.69C444.6 659.96 444.85 658.23 445.02 656.11C447.21 657.5 447.79 659.32 448.29 661.09C448.69 662.51 448 663.68 446.51 663.91C444.94 664.16 444.6 662.83 444.6 661.69ZM428.66 577.41C428.08 578.57 426.95 578.19 426.06 577.61C425.46 577.22 424.95 576.7 424.4 576.24C424.44 575.9 424.49 575.56 424.53 575.21C425.4 575.1 426.36 574.73 427.14 574.95C428.2 575.27 429.34 576.08 428.66 577.41ZM412.92 618.18C415.23 612.15 417.77 606.21 420.15 600.21C420.73 598.74 421.07 597.17 421.57 595.52C419.38 594.62 417.58 593.88 415.79 593.14C415.81 592.85 415.84 592.56 415.86 592.27C417.14 592.14 418.45 591.75 419.69 591.93C423.29 592.46 423.35 592.52 424.95 589.34C425.63 587.98 426.22 586.57 426.97 585.25C427.6 584.15 428.5 582.77 429.88 583.59C430.77 584.12 431.32 585.53 431.6 586.66C431.79 587.41 431.28 588.36 431.03 589.2C429.94 592.82 428.84 596.43 427.71 600.13C428.75 600.75 429.69 601.16 430.46 601.78C433 603.82 434.87 606.19 434.82 609.75C434.77 613.41 434.72 617.15 437.42 620.17C437.65 620.43 437.73 620.87 437.76 621.24C438.13 624.93 436.99 628.24 435 631.24C434.27 632.34 433.15 633.48 431.48 632.67C429.92 631.91 429.19 630.64 429.6 628.94C430.01 627.22 430.66 625.56 431.09 623.85C431.55 622.04 432.21 620.2 432.18 618.38C432.14 614.97 431.8 611.56 431.3 608.18C431.14 607.07 430.29 605.85 429.4 605.11C427.66 603.67 426.67 604.05 425.62 606.12C425.22 606.9 424.94 607.81 424.35 608.41C421.87 610.93 421.47 613.82 422.13 617.18C422.83 620.73 421.87 621.93 418.31 622.88C417.94 622.98 417.58 623.08 417.2 623.14C412.8 623.85 411.35 622.28 412.92 618.18ZM427.79 606.31C430.77 607.91 431 608.7 429.42 612.42C426.26 610.03 426 608.92 427.79 606.31ZM407.63 626.1C406.87 625.6 405.69 625.26 405.42 624.56C404.49 622.19 404.29 619.72 405.98 616.94C408 619.25 408.36 621.62 408.71 623.91C408.8 624.58 408.02 625.37 407.63 626.1ZM409.67 645.99C409.54 643.6 409.33 641.21 409.13 638.48C409.13 637.06 409.04 635.29 409.16 633.53C409.23 632.55 409.39 631.4 409.96 630.7C410.49 630.04 411.65 629.53 412.48 629.59C413.08 629.63 414.13 630.77 414.07 631.33C413.8 634.03 414.8 636.14 416.34 638.22C416.81 638.85 416.84 639.92 416.82 640.78C416.76 643.42 416.7 646.08 416.42 648.71C416.13 651.45 414.86 652 412.63 650.55C410.98 649.47 409.79 648.1 409.67 645.99Z" fill="#E73D66"/>
<path d="M875.36 451.78C865.38 447.12 855.49 442.27 845.54 437.53C844.22 436.9 842.79 436.49 841.09 435.86C840.95 437.29 840.78 438.26 840.77 439.24C840.69 447.61 840.79 455.98 840.55 464.35C840.25 474.6 839.68 484.85 839.16 495.09C839.1 496.25 838.59 497.4 838.18 498.96C836.22 496.8 836.48 494.7 836.48 492.72C836.5 480.66 836.57 468.6 836.66 456.54C836.67 455.41 836.73 454.23 837.04 453.15C838.7 447.25 837.42 441.3 837.34 435.37C837.31 433.2 836.49 432.94 833.39 433.1C833.25 434.03 832.99 435.01 832.96 436C832.44 450.44 831.93 464.88 831.48 479.32C831.35 483.63 831.44 487.95 831.38 492.27C831.36 493.46 831.16 494.64 831.01 496.16C827.82 494.07 829.76 490.77 827.88 488.29C824.89 488 821.64 487.59 818.37 487.41C814.97 487.22 814.29 488.11 814.94 491.44C815.06 492.06 815.25 492.67 815.47 493.26C816.64 496.46 817.92 499.63 818.99 502.87C820.5 507.44 821.82 512.08 823.3 516.66C824.02 518.88 824.95 521.04 825.93 523.61C827.52 521.76 828.69 520.4 829.85 519.04C830.16 519.14 830.48 519.24 830.79 519.35C830.83 520.37 831.14 521.48 830.87 522.41C830.16 524.84 829.32 527.25 828.27 529.55C827.87 530.43 826.74 530.99 825.94 531.69C825.33 530.96 824.69 530.24 824.12 529.48C823.9 529.19 823.84 528.78 823.72 528.42C821.76 522.27 819.96 516.07 817.78 510C816.1 505.3 815.35 500.15 811.63 496.31C811 495.66 810.85 494.45 810.7 493.46C810.36 491.33 810.09 489.19 809.92 487.04C809.68 483.93 808.81 481.1 807.04 478.5C806.35 477.49 805.62 476.21 805.66 475.07C805.92 466.96 804.5 458.89 805.41 450.77C805.85 446.87 805.94 442.93 806.05 439C806.19 433.92 805.99 428.83 806.32 423.77C806.57 419.95 805.29 417.56 801.78 415.97C793.7 412.3 785.72 408.41 777.7 404.61C777.36 404.45 777.01 404.28 776.65 404.16C774.18 403.34 773.32 403.86 773.13 406.37C773.04 407.51 773.11 408.65 773.14 409.8C773.25 414.62 773.42 419.44 773.49 424.26C773.59 431.62 773.49 438.99 773.72 446.35C774.1 458.14 774.74 469.93 775.15 481.73C775.39 488.67 774.47 489.66 767.75 490.61C758.46 491.93 749.29 493.76 740.45 497C738.46 497.73 736.46 498.46 734.56 499.38C733.42 499.93 732.38 500.87 732.74 502.39C733.13 504.02 734.51 504.46 735.94 504.56C736.8 504.62 737.72 504.49 738.55 504.23C742.24 503.04 745.89 501.72 749.59 500.55C752.02 499.78 754.51 498.97 757.56 500.69C755.92 501.59 754.8 502.57 753.53 502.83C748.71 503.83 746.54 507.5 744.52 511.35C743.39 513.51 744.15 514.7 746.66 514.77C748.05 514.81 749.45 514.63 750.84 514.54C757.75 514.08 764.44 515.65 771.18 516.79C775.06 517.45 776.13 518.59 776.16 522.53C776.29 536.75 776.3 550.97 776.58 565.18C776.76 574.16 776.57 583.13 777.44 592.14C778.59 604 778.51 615.97 779.13 627.88C779.57 636.37 780.33 644.84 780.84 653.32C781.41 662.82 781.87 672.32 782.33 681.83C782.38 682.91 782.5 684.16 780.69 684.88C775.45 677.28 770.32 669.53 764.85 662.04C759.3 654.43 753.62 646.9 747.26 639.78C745.79 641.89 745.69 641.95 746.68 643.63C750.56 650.16 754.46 656.68 758.44 663.15C762.88 670.37 767.48 677.51 771.9 684.74C775.53 690.67 779.02 696.7 782.56 702.69C783.32 703.98 784.27 705.26 783.33 706.81C781.81 707.5 781.1 706.5 780.45 705.57C777.9 701.93 775.2 698.38 772.9 694.6C768.46 687.31 763.29 680.64 757.15 674.71C756.48 674.06 755.62 673.6 754.58 672.86C753.51 675.03 753.44 676.82 754.15 678.68C754.78 680.34 755.48 681.97 756.02 683.65C757.77 689.07 759.56 694.48 761.13 699.96C761.69 701.91 762.25 704.04 760.97 706.35C759.51 704.75 758.24 703.37 756.98 701.99C756.55 702.9 756.58 703.4 756.78 703.82C760.6 711.81 764.44 719.79 768.26 727.79C768.8 728.93 769.64 730.15 769.58 731.3C769.39 735.11 769.82 738.99 768.08 742.67C767.02 744.9 767.85 746.5 770.33 746.77C773.18 747.08 774.42 748.96 775.88 750.88C775.63 751.81 775.33 752.64 775.19 753.51C774.6 757.18 775.76 758.67 779.52 759.04C780.78 759.16 782.06 759.04 783.33 759.1C785.91 759.23 786.69 759.88 787.2 762.37C787.38 763.23 787.41 764.13 787.44 765.02C787.88 776.43 788.27 787.85 788.76 799.26C789.32 812.32 789.92 825.37 790.59 838.43C790.71 840.83 790.8 843.32 792.02 845.74C793.73 844.37 793.7 842.74 793.86 841.09C794.37 835.69 794.98 830.3 795.57 824.9C795.62 824.41 795.92 823.94 796 823.44C796.3 821.58 796.77 819.71 796.79 817.84C796.96 800.45 797.05 783.05 797.17 765.66C797.18 764.14 797.21 762.61 797.33 761.1C797.52 758.77 798.55 756.9 800.89 756.19C803.13 755.51 804.07 753.9 804.71 751.86C805.04 750.81 805.45 749.58 806.23 748.93C807.4 747.97 807.48 746.88 807.59 745.59C807.85 742.56 806.48 740.03 805.66 737.26C804.77 734.27 803.52 732.3 800.77 731.09C799.06 730.34 798.37 728.94 798.45 727.1C798.52 725.45 798.48 723.8 798.55 722.15C799 711.88 799.48 701.61 799.92 691.34C800.28 682.97 800.63 674.6 800.95 666.23C801.64 648.48 802.48 630.73 802.96 612.98C803.47 594.33 803.63 575.66 803.95 557.01C803.96 556.25 803.97 555.48 804.05 554.73C804.11 554.1 804.2 553.46 804.42 552.87C804.91 551.57 805.83 551.05 807.1 551.85C809.97 553.67 813.14 555.2 815.57 557.51C817.93 559.75 820.4 560.58 823.43 560.49C824.32 560.46 825.21 560.4 826.09 560.43C829.5 560.57 830.67 561.7 830.82 565.03C830.87 566.17 830.77 567.31 830.74 568.46C830.56 574.68 830.44 580.89 830.2 587.11C829.7 599.9 830.91 612.67 830.22 625.49C829.53 638.4 830.03 651.38 830.03 664.33C830.03 665.54 830.18 666.75 830.29 668.41C831.62 667.69 832.55 667.33 833.32 666.75C844.01 658.82 854.69 650.86 865.36 642.9C865.97 642.45 866.59 641.99 867.11 641.45C867.62 640.91 868.28 640.3 868.38 639.64C868.96 636.02 869.68 632.39 869.83 628.75C870.16 620.63 869.63 612.45 870.45 604.4C871.71 592.03 871.15 579.6 872.79 567.23C873.99 558.11 873.04 548.76 874.3 539.53C875.16 533.27 874.96 526.87 875.34 520.53C875.98 509.78 876.72 499.03 877.39 488.28C877.64 484.23 877.76 480.17 878 476.11C878.36 470.04 878.65 463.96 879.22 457.91C879.49 454.66 878.11 453.06 875.36 451.78ZM809 531.58C808.66 532.43 807.64 533 807.26 533.37C805.03 533.25 804.2 532.22 804.34 530.48C804.43 529.4 804.75 528.43 806.11 528.55C807.4 528.67 809.39 530.61 809 531.58Z" fill="#E73D66"/>
<path d="M720.27 949.88C713.36 938.94 706.83 927.76 700.21 916.64C699.57 915.57 699.15 914.33 698.83 913.11C694.37 896.46 689.96 879.79 685.49 863.15C685.2 862.08 684.59 861.08 684.05 860.09C682.12 856.54 680.15 853.02 678.19 849.48C677.89 848.94 677.66 848.32 677.22 847.92C674.67 845.57 673.93 842.62 674.19 839.31C674.8 831.72 675.34 824.13 676.06 816.55C676.95 807.22 678.05 797.9 678.94 788.57C679.98 777.73 680.89 766.88 681.86 756.03C682.14 752.87 682.63 749.72 682.65 746.56C682.71 737.42 682.6 728.28 682.49 719.14C682.47 717.37 682.41 715.53 681.94 713.85C680.82 709.86 681.08 705.82 680.99 701.76C680.89 697.21 680.46 692.66 680.14 688.11C679.93 685.22 679.57 682.33 679.43 679.44C679.16 674 679.07 668.55 678.78 663.1C678.63 660.33 678.12 657.58 677.95 654.81C677.6 648.86 677.45 642.9 677.08 636.95C676.42 626.46 675.55 615.97 674.96 605.47C674.61 599.27 674.61 593.04 674.5 586.83C674.23 572.49 673.99 558.14 673.73 543.8C673.45 528.31 673.18 512.83 672.87 497.35C672.66 486.83 672.17 476.38 669.74 466.01C667.61 456.92 666.56 447.57 665.04 438.34C664.77 436.72 664.56 435.08 664.32 433.45C663.84 430.23 663.36 427.02 662.89 423.8C662.56 423.79 662.22 423.79 661.89 423.78C661.44 425.09 660.96 426.39 660.54 427.71C658.43 434.36 655.76 440.89 654.39 447.69C652.5 457.03 652.75 466.57 654.07 476.05C654.98 482.58 655.8 489.13 656.36 495.7C656.82 501.12 657.23 506.59 656.99 512.01C656.24 528.48 654.79 544.93 654.3 561.41C653.63 584.37 653.68 607.34 653.26 630.3C652.77 657.21 653.14 684.07 655.58 710.9C656.53 721.38 656.51 731.94 657.19 742.45C657.91 753.59 658.93 764.7 659.83 775.83C660.46 783.54 661.11 791.25 661.75 798.96C661.92 801.04 661.51 802.87 660.42 804.75C659.67 806.04 659.33 807.94 659.62 809.4C660.42 813.47 661.66 817.45 662.72 821.47C662.95 822.33 663.2 823.18 663.35 824.05C664.63 831.52 665.9 839 667.14 846.48C667.7 849.86 667.87 853.33 668.74 856.61C670.37 862.7 672.54 868.65 674.19 874.74C675.34 878.99 675.86 883.26 671.56 886.49C670.73 887.12 670.3 888.62 670.18 889.78C670.02 891.26 670.28 892.81 670.49 894.31C671.38 900.84 672.7 907.24 675.19 913.4C677.84 919.95 679.86 926.77 682.75 933.21C686.83 942.32 691.44 951.21 697.18 959.42C699.04 962.08 701.2 964.62 703.61 966.79C709.83 972.39 718.95 969.81 723.66 964.64C724.93 963.24 725.16 961.98 724.74 960.18C723.85 956.47 722.35 953.17 720.27 949.88ZM679.07 866.55C677.32 864.63 677.99 862.39 678.28 860.27C678.33 859.89 679.32 859.24 679.61 859.36C680.34 859.66 681.16 860.21 681.49 860.89C682.36 862.65 681.47 864.6 679.07 866.55ZM689.45 887.58C689.31 887.85 688.42 888.06 688.18 887.88C686.45 886.61 687 885.14 687.93 883.41C690.43 884.43 690.31 885.95 689.45 887.58Z" fill="#E73D66"/>
<path d="M761.59 318.59C761.74 325.82 762.14 333.05 762.46 340.27C763.17 356.37 763.99 372.46 764.53 388.57C764.65 392.19 765.81 394.57 769.09 396.11C777.81 400.21 786.47 404.42 795.17 408.56C795.92 408.92 796.78 409.06 798.04 409.45C798.54 405.7 799.24 402.25 799.42 398.77C799.93 389.02 800.28 379.25 800.61 369.49C801.15 353.63 801.76 337.78 802.08 321.92C802.79 287.51 802.2 253.12 800 218.77C799.3 207.91 797.95 197.06 796.32 186.29C794.6 174.89 792.11 163.62 790.1 152.26C785.95 128.77 783.22 105.1 780.91 81.3698C779.73 69.2598 778.25 57.1698 776.87 45.0798C776.71 43.6498 776.29 42.2498 775.99 40.8398C775.65 40.8598 775.31 40.8798 774.97 40.8998C774.83 41.9198 774.55 42.9398 774.56 43.9598C774.77 61.6198 773.58 79.2098 772.3 96.8098C771.27 111.03 769.17 125 764.83 138.63C761.7 148.46 759.95 158.6 759.98 168.95C760.09 199.03 760.23 229.12 760.53 259.2C760.73 278.99 761.17 298.79 761.59 318.59Z" fill="#E73D66"/>
<path d="M360.54 747.9C356.76 749.96 352.88 751.84 349.03 753.78C345.75 755.44 342.46 757.07 339.18 758.74C336.38 760.17 334.86 762.34 334.6 765.63C333.76 776.37 334.34 787.14 333.38 797.91C332.21 811.02 332.36 824.25 331.6 837.41C330.8 851.2 331.33 865.02 330.15 878.82C329.03 891.93 329.49 905.14 328.54 918.3C327.56 931.82 327.49 945.4 326.98 958.96C326.52 971.12 325.84 983.27 325.52 995.44C325.2 1007.36 325.19 1019.29 325.1 1031.22C325.08 1033.25 325.36 1035.27 325.42 1037.3C325.47 1039 326.18 1040.22 327.74 1040.9C329.81 1041.8 331.89 1042.68 333.99 1043.51C338.88 1045.44 343.9 1046.25 349.69 1045.24C349.94 1042.88 350.2 1040.76 350.37 1038.62C350.59 1035.84 350.7 1033.05 350.9 1030.27C351.49 1022.19 352.14 1014.11 352.68 1006.02C353.3 996.8 353.84 987.57 354.38 978.34C354.94 968.86 355.48 959.38 355.98 949.9C356.47 940.79 356.89 931.67 357.36 922.56C357.9 912.18 358.54 901.81 359 891.43C359.58 878.27 360 865.1 360.51 851.94C360.56 850.55 360.75 849.16 360.83 847.77C361.42 837.01 362.01 826.25 362.57 815.49C362.67 813.59 362.59 811.68 362.71 809.78C363.14 802.84 363.7 795.9 364.06 788.95C364.29 784.52 364.16 780.07 364.37 775.63C364.66 769.69 365.16 763.75 365.49 757.81C365.62 755.53 365.56 753.24 365.55 750.96C365.53 746.19 364.59 745.69 360.54 747.9Z" fill="#E73D66"/>
<path d="M858.12 652.22C848.58 659.77 839.05 667.33 829.44 674.79C827.57 676.25 826.72 677.85 826.72 680.23C826.72 698.37 826.62 716.51 826.57 734.65C826.54 745.56 826.66 756.47 826.48 767.38C826.26 780.44 825.81 793.5 825.41 806.55C825.36 808.26 825.86 809.44 827.35 810.34C829.3 811.52 831.19 812.81 833.07 814.11C840.27 819.07 847.45 824.06 854.66 829.01C855.33 829.47 856.19 829.67 857.19 830.09C857.49 829.11 857.83 828.43 857.88 827.73C858.36 821.41 858.96 815.1 859.19 808.78C859.85 791.17 860.32 773.55 860.95 755.93C861.3 746.04 861.82 736.16 862.28 726.28C862.62 718.93 863.1 711.59 863.33 704.25C863.55 697.29 863.5 690.32 863.6 683.36C863.74 673.46 863.9 663.57 864.05 653.67C864.08 651.93 864.05 650.19 864.05 648.45C863.7 648.33 863.34 648.2 862.99 648.08C861.35 649.46 859.78 650.9 858.12 652.22Z" fill="#E73D66"/>
<path d="M432.45 469.36C437.51 463.85 442.58 458.34 447.71 452.89C451.69 448.66 455.99 444.7 459.72 440.26C462.93 436.44 464.38 434.12 461.08 428.99C460.39 427.92 459.73 426.84 459.08 425.75C457.72 423.44 457.5 421.23 459.61 419.19C461 417.84 461.39 416.17 461.08 414.3C460.66 411.74 460.63 409.25 462.44 407.16C462.16 406.54 462.07 405.97 461.73 405.65C459.66 403.62 457.61 401.55 455.42 399.66C451.34 396.15 451.11 394.58 454.41 390.51C456.74 387.63 457 386.59 454.65 383.87C452.38 381.24 452.21 378.98 453.99 376.03C455.64 373.3 455.28 371.8 453.01 369.58C451.29 367.91 449.48 366.23 447.44 365.02C443.63 362.76 441.22 359.64 439.84 355.44C438.98 352.83 437.53 350.39 436.21 347.95C435.62 346.87 434.81 345.62 433.26 346.08C431.75 346.53 431.73 347.91 431.73 349.21C431.73 350.48 431.84 351.77 431.65 353.01C431.36 354.98 429.91 355.86 427.38 355.86C424.95 355.85 423.82 355.16 423.67 353.01C423.51 350.64 423.29 348.1 423.96 345.9C424.7 343.46 424.17 341.27 424.3 338.37C423.45 339.1 422.99 339.33 422.77 339.7C419.32 345.32 415.83 350.91 412.54 356.62C411.69 358.1 411.13 359.94 411.04 361.64C410.42 373.52 409.9 385.4 409.46 397.28C409.12 406.64 408.95 416.01 408.7 425.38C408.69 425.63 408.67 425.89 408.65 426.14C408.21 436.52 407.82 446.9 407.3 457.27C406.93 464.61 406.21 471.93 405.97 479.28C405.8 484.66 406.17 490.07 406.32 496.3C407.88 494.85 408.8 494.04 409.65 493.18C415.19 487.6 420.71 481.98 426.27 476.42C427.26 475.43 428.01 474.02 429.15 473.61C430.69 471.81 431.14 470.79 432.45 469.36ZM433.86 351.45C434.66 352.08 435.46 352.7 436.62 353.6C435.65 354.47 435.06 355 434.47 355.52C433.87 354.84 432.96 354.24 432.77 353.47C432.63 352.92 433.46 352.13 433.86 351.45Z" fill="#E73D66"/>
<path d="M228.5 222.85C231.1 222.53 232 223.17 232.39 225.75C232.54 226.75 232.52 227.77 232.52 228.79C232.53 232.6 232.49 236.41 232.53 240.21C232.54 241.38 232.24 242.77 234.23 243.72C235.24 239.24 236.35 235.05 236.97 230.71C237.24 228.85 237.61 226.96 238.31 225.23C238.93 223.68 241.5 222.51 242.73 222.87C244.42 223.38 244.37 224.95 244.68 226.27C244.82 226.88 244.86 227.53 244.89 228.16C245.17 232.95 245.57 237.74 245.69 242.54C246.01 254.84 246.18 267.15 246.48 279.45C246.57 282.96 246.91 286.46 247.18 290.71C248.91 289.86 249.87 289.52 250.67 288.96C255.03 285.9 259.35 282.78 263.69 279.68C268.54 276.21 273.42 272.79 278.23 269.26C281.54 266.83 282.14 264.76 280.95 261.05C280.56 259.85 280.17 258.64 279.9 257.4C277.16 244.86 274.9 232.27 275.75 219.34C275.98 215.85 275.5 212.54 273.71 209.45C273.22 208.6 272.97 207.54 272.85 206.55C272.49 203.4 272.2 200.24 271.96 197.08C271.3 188.5 270.51 180.07 266.31 172.15C264.12 168.01 263.57 162.98 262.42 158.32C262.16 157.26 262.33 156.03 262.57 154.94C263.09 152.54 261.94 150.6 260.94 148.46C259.88 151.43 258.71 154.42 258.63 157.45C258.46 163.28 256.61 168.63 254.85 174.03C253.75 177.39 251.54 178.54 248.09 177.74C247.12 177.52 246.16 177.14 245.28 176.67C243.97 175.97 242.78 176.05 241.83 177.13C240.45 178.71 238.74 179.01 236.75 179.18C233.77 179.43 231.2 180.38 229.87 183.64C228.89 186.04 227.15 188.11 225.85 190.39C225.43 191.12 225.17 192.03 225.11 192.87C224.92 195.49 225.27 198.23 224.65 200.73C223.18 206.62 223.38 212.55 223.5 218.49C223.55 222.48 224.62 223.34 228.5 222.85Z" fill="#E73D66"/>
<path d="M398.52 640.56C399.59 627.84 398.75 614.96 398.83 602.15C398.84 600.03 399.37 597.92 399.66 595.8C399.8 594.8 400.07 593.81 400.1 592.82C400.29 586.86 400.34 580.89 400.6 574.94C401.16 562.42 399.84 549.89 401.46 537.35C402.38 530.22 401.93 522.91 402.18 515.68C402.31 511.89 402.65 508.11 402.85 504.32C402.87 504.04 402.57 503.74 402.38 503.38C399.37 506.15 396.66 509.02 393.56 511.39C390.77 513.52 389.59 515.97 389.49 519.46C389.31 525.92 388.79 532.37 388.29 538.82C387.77 545.52 387.03 552.2 386.51 558.89C385.87 567.13 384.6 575.14 381.78 583.03C377.33 595.48 374.31 608.25 375.04 621.73C375.42 628.78 376.7 635.52 378.84 642.18C379.31 643.65 380.15 644.45 381.67 644.89C384.83 645.79 386.39 647.92 386.39 651.33C386.4 657.42 386.64 663.51 386.67 669.6C386.67 670.95 386.37 672.4 385.83 673.63C384.94 675.66 384.82 677.37 386.16 679.32C386.96 680.49 387.29 682.11 387.45 683.58C387.75 686.48 387.91 689.4 387.9 692.32C387.89 695.61 388 698.81 390.33 701.45L390.21 701.4C390.2 701.5 390.23 701.56 390.24 701.65C390.26 701.6 390.29 701.55 390.31 701.5C390.79 701.98 391.27 702.46 391.76 702.95C391.76 702.98 391.76 703.01 391.76 703.04C391.8 703.04 391.83 703.05 391.87 703.06L391.77 702.92C395.73 702.49 395.76 702.5 396.33 698.6C396.61 696.72 396.88 694.83 396.92 692.94C397.08 685.08 396.81 677.19 397.36 669.35C398.01 659.75 397.71 650.17 398.52 640.56Z" fill="#E73D66"/>
<path d="M485.78 302.63C487.54 301.92 488.73 301.56 489.79 300.99C497.15 297.03 504.47 292.99 511.83 289.03C517.3 286.09 522.83 283.26 528.31 280.33C531.19 278.79 531.38 278.27 530.26 275.21C527.06 266.47 523.1 258.12 517.29 250.78C515.97 249.12 514.42 247.46 512.62 246.41C508.99 244.29 507.31 241.23 506.61 237.24C506.23 235.04 505.39 232.87 504.48 230.82C503.69 229.04 502.06 228.32 500.07 228.52C497.09 228.82 494.77 230.11 493.4 232.87C493.06 233.55 492.87 234.3 492.53 234.98C491.87 236.28 490.91 236.53 489.77 235.57C488.8 234.75 487.95 233.79 486.95 233.02C486.13 232.39 485.15 231.97 483.57 231.06C483.22 233.52 482.74 235.21 482.77 236.9C482.87 242.35 483.19 247.8 483.37 253.25C483.65 261.36 483.84 269.48 484.18 277.59C484.4 282.78 484.8 287.97 485.13 293.16C485.32 296.05 485.53 298.93 485.78 302.63Z" fill="#E73D66"/>
<path d="M563.41 725.35C564.41 729.38 564.51 733.61 566.85 737.28C567.64 738.52 568 740.1 568.32 741.57C569.21 745.73 571.72 749.13 573.48 752.88C573.79 753.53 574.43 754.02 574.93 754.57C576.09 755.86 577.41 757.03 578.39 758.45C580.24 761.11 582.63 762.83 585.86 763.06C589.4 763.31 592.87 763.61 596.29 764.79C599.33 765.84 601.21 764.37 601.31 761.12C601.39 758.52 601.99 756.17 603.17 753.85C605.52 749.26 607.6 744.53 609.97 739.95C611.5 736.99 610.91 734.61 608.69 732.39C603.92 727.65 599.39 722.65 594.34 718.23C583.84 709.02 573.78 699.38 564.22 689.2C563.42 688.35 562.39 687.73 561.47 687C561.17 687.21 560.87 687.41 560.57 687.62C560.57 689.11 560.51 690.6 560.58 692.09C560.69 694.5 560.96 696.89 561.04 699.3C561.38 708.03 561.29 716.76 563.41 725.35Z" fill="#E73D66"/>
<path d="M400.47 389.98C399.97 392.16 398.85 393.67 396.66 394.27C392.84 395.32 391.28 398.18 390.52 401.75C388.8 409.82 389.41 417.63 393.15 425.08C394.79 428.36 395.1 431.73 394.65 435.41C393.37 445.72 392.08 456.05 391.42 466.41C390.57 479.82 390.33 493.28 389.87 506.71C389.84 507.71 390.21 508.71 390.48 510.17C394.03 506.85 397.07 504.02 400.07 501.18C400.62 500.66 401.03 500 401.56 499.45C403 497.98 403.29 496.2 403.31 494.21C403.37 489.53 403.6 484.86 403.75 480.19C404.11 468.93 404.51 457.68 404.81 446.42C405.05 437.54 404.56 428.6 405.49 419.8C406.55 409.79 406.68 399.81 406.75 389.8C406.77 386.37 406.26 382.82 406.98 379.55C408.35 373.34 407.5 367.17 407.58 360.98C407.59 360.07 407.23 359.15 407 358.02C403.94 359.08 400.78 358.77 398.63 362.07C399.83 363.4 401 364.84 402.31 366.12C404.39 368.16 405.21 370.42 404.46 373.34C403.04 378.87 401.74 384.42 400.47 389.98Z" fill="#E73D66"/>
<path d="M332.25 177.27C342.45 185.19 352.64 193.14 362.79 201.12C365.28 203.08 367.6 205.26 370.11 207.2C372.41 208.98 374.12 208.81 376.11 206.71C378.2 204.49 380.16 202.16 382.19 199.89C387.08 194.4 387.13 194.24 382.95 188.24C381.51 186.17 380.7 184.02 380.85 181.5C380.97 179.47 381.01 177.44 381.15 175.42C381.41 171.49 379.75 168.61 376.56 166.41C373.58 164.35 370.28 163.1 366.77 162.43C362.05 161.53 361.96 161.5 361.94 156.59C361.93 153.48 361.94 150.38 361.94 147.27C361.68 147.3 361.42 147.34 361.16 147.37C359.8 152.76 358.21 158.11 357.16 163.56C356.32 167.92 354.17 167.94 350.93 167.28C347.61 166.61 344.19 166.24 340.8 166.18C337.25 166.12 334.17 167.66 331.68 170.24C328.77 173.24 328.94 174.7 332.25 177.27Z" fill="#E73D66"/>
<path d="M331.06 754.02C331.56 756.29 332.22 756.83 334.44 756.25C335.29 756.03 336.12 755.68 336.93 755.32C342.92 752.61 348.86 749.76 354.91 747.19C358.47 745.67 359.5 743.24 359.62 739.46C360.06 725.88 358.44 712.41 357.95 698.89C357.92 697.98 357.52 696.75 356.85 696.28C355.63 695.42 354.51 696.41 353.47 697.18C346.92 701.95 340.36 706.72 333.76 711.43C331.21 713.25 329.82 715.49 329.93 718.77C330.1 723.45 329.97 728.15 329.97 732.84C330 732.84 330.02 732.84 330.05 732.84C330.05 733.73 330.04 734.62 330.05 735.5C330.15 741.67 329.7 747.89 331.06 754.02Z" fill="#E73D66"/>
<path d="M596.35 975.65C595.99 974.2 595.34 972.74 595.34 971.29C595.33 969.24 594.25 968.52 592.58 968.46C590.56 968.39 588.52 968.44 586.52 968.68C579 969.56 571.49 970.56 563.97 971.45C559.21 972.02 554.44 972.52 549.67 973C541.88 973.78 534.08 974.48 526.3 975.28C522.04 975.72 517.77 976.1 513.68 977.54C511.64 978.26 511.13 979.52 512.5 981.18C513.38 982.25 514.31 983.53 515.5 984.04C518.68 985.41 520.54 987.61 521.1 991C521.12 991.14 521.52 991.22 522.13 991.51C522.86 990.7 523.74 989.86 524.46 988.91C525.77 987.17 527.49 986.22 529.63 986.16C533.94 986.05 538.24 985.99 542.55 985.96C544.99 985.94 546.6 987.16 547.42 989.46C547.76 990.41 548.03 991.41 548.54 992.27C549.98 994.76 551.69 995.38 555.38 994.63C554.83 992.82 554.32 991.29 553.89 989.73C553.28 987.53 553.7 986.41 555.75 985.44C556.74 984.97 557.93 984.68 559.02 984.7C570.54 984.86 582.01 984.22 593.48 983.14C596.83 982.83 597.55 982.19 597.18 978.95C597.02 977.84 596.62 976.75 596.35 975.65Z" fill="#E73D66"/>
<path d="M453.73 822.85C444.54 825.01 435.37 827.26 426.17 829.39C420.91 830.61 415.61 831.69 410.33 832.83C408.76 833.17 407.76 834.74 408.46 836.26C409.35 838.2 410.28 840.25 411.69 841.79C417.1 847.65 422.68 853.35 428.27 859.03C429.32 860.1 430.64 860.94 431.94 861.71C435.15 863.6 437.8 863.08 440.3 860.32C441.05 859.49 442.05 858.89 442.81 858.07C444.34 856.41 446.31 854.9 447.14 852.92C449.09 848.29 450.49 843.43 452.1 838.65C452.82 836.5 453.36 834.38 456.04 833.56C457 833.27 457.98 831.85 458.26 830.76C458.95 828.08 459.04 825.31 458.24 822.09C456.6 822.37 455.14 822.52 453.73 822.85ZM429.88 844.8C429.39 846.14 428.66 847.58 427.03 847.2C426.21 847.01 425.35 845.86 425.02 844.96C424.67 844.02 424.94 842.85 424.94 841.3C426.47 841.62 427.58 841.67 428.54 842.09C429.62 842.55 430.37 843.47 429.88 844.8Z" fill="#E73D66"/>
<path d="M521.63 921.11C522 921.19 522.36 921.37 522.69 921.32C533.53 919.55 544.4 917.93 555.18 915.86C558.65 915.19 562.26 913.96 564.27 910.43C566.58 906.38 568.91 902.35 571.25 898.32C573.33 894.73 571.94 891.45 571.01 888.46C569.55 889.59 568.39 890.83 566.97 891.52C562.71 893.57 559.76 897.06 556.75 900.45C554.01 903.54 550.79 905.76 547.07 907.52C542.58 909.65 537.21 909.8 533.49 913.66C532.72 914.46 531.73 915.06 530.82 915.74C528.91 917.17 526.98 918.52 524.4 917.82C524.91 920.04 521.54 919.13 521.63 921.11Z" fill="#E73D66"/>
<path d="M524.38 917.67L524.26 917.79C524.31 917.81 524.36 917.81 524.41 917.82C524.4 917.77 524.39 917.73 524.38 917.67Z" fill="#E73D66"/>
<path d="M390.23 701.64C389.79 702.58 389.13 703.51 389.09 704.46C389 707.11 389.09 709.79 389.36 712.43C389.61 714.91 390.15 717.3 391 719.73C391.76 721.91 390.64 724.68 390.67 727.19C390.7 730.61 391.13 734.02 391.22 737.44C391.34 742.44 390.72 743.18 385.92 744.47C383.86 745.02 383.29 745.97 384.21 748.13C385.04 750.09 386.14 751.95 387.3 753.74C388.06 754.91 388.39 755.8 387.64 757.18C384.4 763.12 386.92 770.42 393.61 773.86C394.32 770.15 394.43 766.55 394.47 762.91C394.51 758.35 394.79 753.8 395.07 749.24C395.57 741.04 396.5 732.84 394.71 724.67C394.58 724.09 394.59 723.36 394.83 722.84C396.8 718.46 395.83 713.83 396.07 709.31C396.15 707.74 395.5 706.72 394 706.06C392.76 705.51 391.61 704.68 391.77 703.03C390.82 702.98 390.27 702.57 390.23 701.64Z" fill="#E73D66"/>
<path d="M792.01 869.98C791.35 873.96 791.15 878.05 790.11 881.92C788.57 887.63 788.22 893.39 788.34 899.21C788.45 904.78 788.74 910.35 789.04 915.91C789.3 920.84 789.65 925.76 790.02 930.68C790.4 935.73 791.02 940.78 789.25 945.72C789.16 945.98 789.42 946.37 789.51 946.7C789.77 946.72 790.03 946.74 790.3 946.76C791.38 943.16 792.12 939.47 792.15 935.69C792.31 918.48 791.96 901.26 793.27 884.07C793.45 881.67 793.57 879.27 793.61 876.86C793.67 873.47 793.62 870.09 793.62 866.7C792.67 867.71 792.2 868.82 792.01 869.98Z" fill="#E73D66"/>
<path d="M583.16 994.53C580.91 996.9 578.65 999.2 576.48 1001.59C574.19 1004.11 571.93 1006.67 569.75 1009.3C567.75 1011.72 564.96 1013.54 563.54 1016.9C574.58 1015.15 580.21 1007.89 584.35 998.98C585.02 997.55 584.93 996.02 583.16 994.53Z" fill="#E73D66"/>
<path d="M245.39 859.04C249.24 862.3 253.13 865.5 257.03 868.69C257.47 869.05 258.1 869.2 258.76 869.49C260.43 867.48 259.19 865.98 258.1 864.73C254.3 860.36 250.37 856.08 246.45 851.81C245.97 851.29 245.22 851.01 244.37 850.47C242.23 853.93 242.61 856.68 245.39 859.04Z" fill="#E73D66"/>
<path d="M255.89 871.62C253.93 870.24 252.04 868.75 250.16 867.27C248.29 865.8 246.47 864.27 244.62 862.77C244.58 865.83 245.7 868.11 247.82 869.91C248.87 870.8 250.11 871.76 250.61 872.95C251.94 876.13 254.74 877.97 256.86 880.42C257.36 881 258.23 881.24 259.01 881.68C260.37 876.65 259.53 874.19 255.89 871.62Z" fill="#E73D66"/>
<path d="M251.35 924.65C249.38 922.29 247.43 919.91 245.2 917.22C243.81 920.39 243.96 922.88 246.02 924.97C248.5 927.48 251.13 929.83 253.75 932.19C254.35 932.73 255.18 933 255.99 933.44C257.16 931.56 256.37 930.42 255.26 929.23C253.9 927.76 252.64 926.19 251.35 924.65Z" fill="#E73D66"/>
<path d="M244.1 888.87C242.97 891.17 243.51 893.03 244.98 894.31C248.86 897.7 252.92 900.88 256.93 904.12C257.05 904.22 257.38 904.07 257.61 904.03C256.7 901.46 247.48 891 244.1 888.87Z" fill="#E73D66"/>
<path d="M251.12 910.22C249.03 908.21 248 905.11 245.04 903.7C244.29 906.63 244.2 907.38 245.76 908.83C249.05 911.92 252.55 914.79 255.96 917.75C256.2 917.51 256.44 917.27 256.67 917.03C256.18 913.72 253.23 912.24 251.12 910.22Z" fill="#E73D66"/>
<path d="M253.53 969.88C250.94 967.23 248.35 964.57 245.42 961.57C245.5 965.73 248.72 969.2 253.53 969.88Z" fill="#E73D66"/>
<path d="M421.2 49.5599V49.6399C424.1 47.6799 426.44 45.4499 428.2 42.9399C429.96 40.4299 430.84 37.7999 430.84 35.0599C430.84 31.9899 429.97 29.2099 428.24 26.7199C426.51 24.2299 424.06 22.2699 420.91 20.8099C417.75 19.3599 414.11 18.6299 409.97 18.6299C408.18 18.6299 405.39 18.7399 401.59 18.9699C396.67 19.3099 391.67 19.4699 386.59 19.4699H375.28L372.51 24.9199L381.81 27.3499V74.4499L373.93 80.6499V85.3399H386.67C389.13 85.3399 392.59 85.4799 397.06 85.7599C399.74 86.0399 402.48 86.1799 405.27 86.1799C409.4 86.1799 413.73 85.2599 418.26 83.4099C422.79 81.5699 426.57 79.0899 429.62 75.9899C432.66 72.8899 434.19 69.5799 434.19 66.0599C434.19 62.4299 433.03 59.1499 430.71 56.2099C428.4 53.2899 425.23 51.0699 421.2 49.5599ZM414.75 39.5099C414.75 42.6399 414.04 45.0099 412.61 46.6299C411.19 48.2499 409.1 49.0599 406.37 49.0599H396.98V27.5199C398.99 26.5699 401.14 26.0999 403.43 26.0999C407.17 26.0999 409.99 27.3299 411.89 29.7899C413.8 32.2399 414.75 35.4799 414.75 39.5099ZM407.71 77.8899H407.63C403.72 77.8899 400.17 77.2799 396.99 76.0499V55.1799H404.03H405.71C409.84 55.3999 412.96 56.7299 415.05 59.1599C417.15 61.5899 418.19 64.7099 418.19 68.4999C418.19 71.4099 417.25 73.6999 415.38 75.3699C413.51 77.0499 410.95 77.8899 407.71 77.8899Z" fill="#E73D66"/>
<path d="M499.98 86.9398V62.2198L495.37 60.2898L482.38 79.0598H463.53V30.4598L471.49 24.2498V19.5598H441.82L439.06 25.0098L448.36 27.4398V74.5398L440.48 80.7398V85.4298H493.95L499.98 86.9398Z" fill="#E73D66"/>
<path d="M546.41 17.8799C540.99 17.8799 535.26 19.4899 529.23 22.6999C523.2 25.9099 518.15 30.2999 514.1 35.8599C510.05 41.4199 508.02 47.4699 508.02 53.9999C508.02 60.3699 509.37 66.0699 512.08 71.0999C514.79 76.1299 518.59 80.0499 523.48 82.8699C528.37 85.6899 534.03 87.0999 540.45 87.0999C545.87 87.0999 551.58 85.4899 557.59 82.2799C563.6 79.0699 568.64 74.6999 572.72 69.1599C576.8 63.6299 578.84 57.5899 578.84 51.0599C578.84 44.6899 577.5 38.9899 574.82 33.9599C572.14 28.9299 568.34 24.9899 563.42 22.1399C558.51 19.3099 552.84 17.8799 546.41 17.8799ZM541.55 27.5199C546.13 27.5199 549.97 28.7599 553.07 31.2499C556.17 33.7399 558.48 37.0499 559.98 41.1799C561.49 45.3199 562.24 49.9199 562.24 55.0099C562.24 59.2599 561.49 63.0799 559.98 66.4899C558.47 69.8999 556.42 72.5799 553.82 74.5399C551.22 76.4999 548.39 77.4699 545.31 77.4699C540.73 77.4699 536.89 76.2299 533.79 73.7399C530.69 71.2499 528.37 67.9299 526.83 63.7699C525.29 59.6099 524.53 55.0099 524.53 49.9799C524.53 45.7299 525.28 41.9099 526.79 38.4999C528.3 35.0899 530.35 32.4099 532.95 30.4499C535.56 28.4999 538.42 27.5199 541.55 27.5199Z" fill="#E73D66"/>
<path d="M626.78 17.8799C621.36 17.8799 615.63 19.4899 609.6 22.6999C603.57 25.9099 598.52 30.2999 594.47 35.8599C590.42 41.4199 588.39 47.4699 588.39 53.9999C588.39 60.3699 589.74 66.0699 592.45 71.0999C595.16 76.1299 598.96 80.0499 603.85 82.8699C608.74 85.6899 614.4 87.0999 620.82 87.0999C626.24 87.0999 631.95 85.4899 637.96 82.2799C643.97 79.0699 649.01 74.6999 653.09 69.1599C657.17 63.6299 659.21 57.5899 659.21 51.0599C659.21 44.6899 657.87 38.9899 655.19 33.9599C652.51 28.9299 648.71 24.9899 643.79 22.1399C638.88 19.3099 633.21 17.8799 626.78 17.8799ZM621.92 27.5199C626.5 27.5199 630.34 28.7599 633.44 31.2499C636.54 33.7399 638.85 37.0499 640.35 41.1799C641.86 45.3199 642.61 49.9199 642.61 55.0099C642.61 59.2599 641.86 63.0799 640.35 66.4899C638.84 69.8999 636.79 72.5799 634.19 74.5399C631.59 76.4999 628.76 77.4699 625.68 77.4699C621.1 77.4699 617.26 76.2299 614.16 73.7399C611.06 71.2499 608.74 67.9299 607.2 63.7699C605.66 59.6099 604.9 55.0099 604.9 49.9799C604.9 45.7299 605.65 41.9099 607.16 38.4999C608.67 35.0899 610.72 32.4099 613.32 30.4499C615.93 28.4999 618.79 27.5199 621.92 27.5199Z" fill="#E73D66"/>
<path d="M704.39 18.72C702.71 18.72 699.98 18.83 696.18 19.06C691.26 19.4 686.23 19.56 681.09 19.56H669.27L666.5 25.01L675.8 27.86V74.54L667.92 80.74V85.43H681.16C683.39 85.43 686.61 85.57 690.8 85.85C693.31 86.13 695.86 86.27 698.43 86.27C703.79 86.27 709.44 84.69 715.36 81.53C721.28 78.37 726.24 74.1 730.24 68.71C734.23 63.32 736.23 57.44 736.23 51.07C736.23 44.87 734.9 39.31 732.25 34.39C729.6 29.47 725.85 25.63 721.02 22.87C716.19 20.11 710.65 18.72 704.39 18.72ZM700.87 78.48H700.79C697.1 78.48 693.83 77.95 690.98 76.89V28.19C693.1 26.85 695.42 26.18 697.94 26.18C702.74 26.18 706.78 27.48 710.05 30.08C713.32 32.68 715.75 36.14 717.34 40.47C718.93 44.8 719.73 49.65 719.73 55.01C719.73 59.48 718.9 63.5 717.26 67.08C715.61 70.66 713.35 73.45 710.47 75.46C707.59 77.47 704.39 78.48 700.87 78.48Z" fill="#E73D66"/>
<path d="M539.83 139.99C535.86 139.99 531.74 141.12 527.47 143.38C523.2 145.64 519.63 148.69 516.78 152.51C513.93 156.34 512.51 160.46 512.51 164.87C512.51 168.95 513.42 172.66 515.23 176.02C517.05 179.37 519.59 182.01 522.86 183.94C526.13 185.87 529.8 186.83 533.88 186.83C537.85 186.83 541.97 185.7 546.24 183.44C550.51 181.18 554.08 178.13 556.93 174.3C559.78 170.47 561.2 166.35 561.2 161.94C561.2 157.86 560.29 154.15 558.48 150.79C556.66 147.44 554.14 144.8 550.9 142.87C547.66 140.96 543.97 139.99 539.83 139.99ZM534.97 149.71C538.38 149.71 541.03 151.23 542.93 154.28C544.83 157.33 545.78 161.19 545.78 165.89C545.78 169.58 545.18 172.39 543.98 174.31C542.78 176.24 541.03 177.2 538.74 177.2C535.27 177.2 532.59 175.65 530.69 172.55C528.79 169.45 527.84 165.55 527.84 160.86C527.84 157.17 528.44 154.39 529.64 152.52C530.85 150.65 532.63 149.71 534.97 149.71Z" fill="#E73D66"/>
<path d="M598.16 112C594.58 112 590.85 113.13 586.97 115.39C583.09 117.65 579.86 120.7 577.29 124.53C574.72 128.36 573.43 132.48 573.43 136.89V143.34H564.46V148.87H573.43V175.02L565.97 181.31V186H597.73L600.41 180.55L587.67 177.2V148.87H601.75V143.34H587.67V131.61C587.67 128.31 588.21 125.8 589.3 124.07C590.39 122.34 591.97 121.47 594.04 121.47C596.05 121.47 598.05 122.18 600.03 123.61C602.01 125.03 603.68 126.98 605.02 129.43H610.3V114.43C609.18 113.82 607.37 113.26 604.85 112.75C602.35 112.25 600.12 112 598.16 112Z" fill="#E73D66"/>
</svg>
