<svg width="2000" height="1657" viewBox="0 0 2000 1657" fill="none" xmlns="http://www.w3.org/2000/svg">
<g clip-path="url(#clip0_64_2055)">
<path d="M1315.93 79.9658L1227.41 252.485C1226.67 254.336 1225.93 256.187 1225.93 258.038C1225.93 259.889 1225.93 261.74 1226.67 263.591C1227.41 265.442 1228.52 266.923 1229.63 268.404C1231.11 269.885 1232.59 270.995 1234.44 271.736C1236.3 272.476 1238.15 272.846 1240 272.846C1241.85 272.846 1243.7 272.476 1245.56 271.736C1247.41 270.995 1248.89 269.885 1250.37 268.404C1251.85 266.923 1252.59 265.442 1253.33 263.591L1315.93 79.9658Z" fill="#FFE4B8" stroke="#151032" stroke-miterlimit="10" stroke-linejoin="round"/>
<path d="M898.148 19.9915L907.778 213.612C907.778 215.463 908.519 217.314 909.259 219.166C910 221.017 911.481 222.497 912.963 223.608C914.444 224.719 916.296 225.829 918.148 226.2C920 226.57 921.852 226.94 923.704 226.57C925.556 226.2 927.407 225.829 929.259 224.719C930.741 223.608 932.222 222.497 933.333 221.017C934.444 219.536 935.185 217.685 935.556 215.834C935.926 213.983 935.926 212.132 935.556 210.28L898.148 19.9915Z" fill="#FFE4B8" stroke="#151032" stroke-miterlimit="10" stroke-linejoin="round"/>
<path d="M512.593 177.702L617.778 340.595C618.889 342.076 620.37 343.557 621.852 344.667C623.333 345.778 625.185 346.518 627.037 346.889C628.889 347.259 630.741 347.259 632.593 346.889C634.444 346.518 636.296 345.778 637.778 344.297C639.259 343.186 640.741 341.706 641.481 339.855C642.593 338.003 642.963 336.152 643.333 334.301C643.704 332.45 643.333 330.599 642.593 328.748C641.852 326.897 641.111 325.046 639.63 323.935L512.593 177.702Z" fill="#FFE4B8" stroke="#151032" stroke-miterlimit="10" stroke-linejoin="round"/>
<path d="M250 513.484L422.593 601.965C424.444 602.705 426.296 603.446 428.148 603.446C430 603.446 431.852 603.446 433.704 602.705C435.556 601.965 437.037 600.854 438.519 599.744C440 598.263 441.111 596.782 441.852 594.931C442.593 593.08 442.963 591.229 442.963 589.378C442.963 587.527 442.593 585.675 441.852 583.824C441.111 581.973 440 580.493 438.519 579.012C437.037 577.531 435.556 576.79 433.704 576.05L250 513.484Z" fill="#FFE4B8" stroke="#151032" stroke-miterlimit="10" stroke-linejoin="round"/>
<path d="M190 931.454L383.704 921.828C385.556 921.828 387.407 921.088 389.259 920.347C391.111 919.607 392.593 918.126 393.704 916.645C394.815 915.164 395.926 913.313 396.296 911.462C396.667 909.611 397.037 907.76 396.667 905.909C396.296 904.058 395.926 902.207 394.815 900.356C393.704 898.875 392.593 897.394 391.111 896.283C389.63 895.173 387.778 894.432 385.926 894.062C384.074 893.692 382.222 893.692 380.37 894.062L190 931.454Z" fill="#FFE4B8" stroke="#151032" stroke-miterlimit="10" stroke-linejoin="round"/>
<path d="M347.778 1316.84L510.741 1211.7C512.222 1210.59 513.704 1209.48 514.815 1207.63C515.926 1206.15 516.667 1204.3 517.037 1202.45C517.407 1200.6 517.407 1198.75 517.037 1196.9C516.667 1195.04 515.926 1193.19 514.444 1191.71C513.333 1190.23 511.852 1188.75 510 1188.01C508.148 1186.9 506.296 1186.53 504.444 1186.16C502.593 1185.79 500.741 1186.16 498.889 1186.9C497.037 1187.64 495.185 1188.38 494.074 1189.86L347.778 1316.84Z" fill="#FFE4B8" stroke="#151032" stroke-miterlimit="10" stroke-linejoin="round"/>
<path d="M684.074 1578.95L772.593 1406.44C773.333 1404.58 774.074 1402.73 774.074 1400.88C774.074 1399.03 774.074 1397.18 773.333 1395.33C772.593 1393.48 771.481 1392 770.37 1390.52C768.889 1389.04 767.407 1387.92 765.556 1387.18C763.704 1386.44 761.852 1386.07 760 1386.07C758.148 1386.07 756.296 1386.44 754.444 1387.18C752.593 1387.92 751.111 1389.04 749.63 1390.52C748.148 1392 747.407 1393.48 746.667 1395.33L684.074 1578.95Z" fill="#FFE4B8" stroke="#151032" stroke-miterlimit="10" stroke-linejoin="round"/>
<path d="M1101.85 1638.93L1092.22 1445.31C1092.22 1443.46 1091.48 1441.61 1090.74 1439.75C1090 1437.9 1088.52 1436.42 1087.04 1435.31C1085.56 1434.2 1083.7 1433.09 1081.85 1432.72C1080 1432.35 1078.15 1431.98 1076.3 1432.35C1074.44 1432.72 1072.59 1433.09 1070.74 1434.2C1069.26 1435.31 1067.78 1436.42 1066.67 1437.9C1065.56 1439.38 1064.81 1441.24 1064.44 1443.09C1064.07 1444.94 1064.07 1446.79 1064.44 1448.64L1101.85 1638.93Z" fill="#FFE4B8" stroke="#151032" stroke-miterlimit="10" stroke-linejoin="round"/>
<path d="M1487.41 1481.22L1382.22 1318.33C1381.11 1316.84 1379.63 1315.36 1378.15 1314.25C1376.67 1313.14 1374.81 1312.4 1372.96 1312.03C1371.11 1311.66 1369.26 1311.66 1367.41 1312.03C1365.56 1312.4 1363.7 1313.14 1362.22 1314.62C1360.74 1315.73 1359.26 1317.21 1358.52 1319.07C1357.41 1320.92 1357.04 1322.77 1356.67 1324.62C1356.3 1326.47 1356.67 1328.32 1357.41 1330.17C1358.15 1332.02 1358.89 1333.87 1360.37 1334.98L1487.41 1481.22Z" fill="#FFE4B8" stroke="#151032" stroke-miterlimit="10" stroke-linejoin="round"/>
<path d="M1750 1145.44L1577.41 1056.96C1575.56 1056.22 1573.7 1055.47 1571.85 1055.47C1570 1055.47 1568.15 1055.47 1566.3 1056.21C1564.44 1056.96 1562.96 1058.07 1561.48 1059.18C1560 1060.66 1558.89 1062.14 1558.15 1063.99C1557.41 1065.84 1557.04 1067.69 1557.04 1069.54C1557.04 1071.39 1557.41 1073.24 1558.15 1075.1C1558.89 1076.95 1560 1078.43 1561.48 1079.91C1562.96 1081.39 1564.44 1082.13 1566.3 1082.87L1750 1145.44Z" fill="#FFE4B8" stroke="#151032" stroke-miterlimit="10" stroke-linejoin="round"/>
<path d="M1810 727.467L1616.3 737.092C1614.44 737.092 1612.59 737.833 1610.74 738.573C1608.89 739.314 1607.41 740.794 1606.3 742.275C1605.19 743.756 1604.07 745.607 1603.7 747.458C1603.33 749.309 1602.96 751.16 1603.33 753.011C1603.7 754.862 1604.07 756.714 1605.19 758.565C1606.3 760.416 1607.41 761.526 1608.89 762.637C1610.37 763.748 1612.22 764.488 1614.07 764.858C1615.93 765.228 1617.78 765.228 1619.63 764.858L1810 727.467Z" fill="#FFE4B8" stroke="#151032" stroke-miterlimit="10" stroke-linejoin="round"/>
<path d="M1652.22 342.446L1489.26 447.586C1487.78 448.697 1486.3 450.178 1485.19 451.659C1484.07 453.139 1483.33 454.991 1482.96 456.842C1482.59 458.693 1482.59 460.544 1482.96 462.395C1483.33 464.246 1484.07 466.097 1485.56 467.578C1486.67 469.059 1488.15 470.539 1490 471.28C1491.85 472.39 1493.7 472.761 1495.56 473.131C1497.41 473.501 1499.26 473.131 1501.11 472.39C1502.96 471.65 1504.81 470.91 1505.93 469.429L1652.22 342.446Z" fill="#FFE4B8" stroke="#151032" stroke-miterlimit="10" stroke-linejoin="round"/>
<path d="M1446.67 255.076L1330.37 383.54C1329.26 384.65 1328.52 386.501 1327.78 387.982C1327.41 389.463 1327.04 391.314 1327.04 393.165C1327.04 395.016 1327.78 396.497 1328.52 397.978C1329.26 399.459 1330.37 400.94 1331.85 402.05C1333.33 403.161 1334.81 403.901 1336.3 404.272C1338.15 404.642 1339.63 404.642 1341.48 404.642C1343.33 404.272 1344.81 403.901 1346.3 402.791C1347.78 401.68 1348.89 400.57 1350 399.089L1446.67 255.076Z" fill="#FFCB05" stroke="black" stroke-linecap="round" stroke-linejoin="round"/>
<path d="M1099.26 106.621L1062.96 275.808C1062.59 277.659 1062.59 279.14 1062.96 280.991C1063.33 282.842 1064.07 284.323 1064.81 285.804C1065.93 287.285 1067.04 288.395 1068.52 289.136C1070 289.876 1071.48 290.616 1073.33 290.987C1075.19 291.357 1076.67 290.987 1078.52 290.616C1080 290.246 1081.85 289.506 1082.96 288.395C1084.44 287.285 1085.56 285.804 1086.3 284.323C1087.04 282.842 1087.41 280.991 1087.78 279.51L1099.26 106.621Z" fill="#FFCB05" stroke="black" stroke-linecap="round" stroke-linejoin="round"/>
<path d="M730 153.638L782.963 318.382C783.333 319.863 784.444 321.714 785.556 322.825C786.667 323.935 788.148 325.046 789.63 325.787C791.111 326.527 792.963 326.897 794.444 326.897C796.296 326.897 797.778 326.527 799.63 326.157C801.111 325.416 802.593 324.676 804.074 323.195C805.185 322.084 806.296 320.604 806.667 318.752C807.407 317.272 807.407 315.421 807.407 313.57C807.407 311.718 807.037 310.238 805.926 308.757L730 153.638Z" fill="#FFCB05" stroke="black" stroke-linecap="round" stroke-linejoin="round"/>
<path d="M425.185 383.169L553.704 499.416C554.815 500.527 556.296 501.637 558.148 502.008C559.63 502.748 561.482 502.748 563.333 502.748C565.185 502.748 566.667 502.007 568.148 501.267C569.63 500.527 571.111 499.416 572.222 497.935C573.333 496.454 574.074 494.973 574.444 493.493C574.815 491.642 574.815 490.161 574.815 488.31C574.444 486.459 574.074 484.978 572.963 483.497C571.852 482.016 570.741 480.905 569.259 479.795L425.185 383.169Z" fill="#FFCB05" stroke="black" stroke-linecap="round" stroke-linejoin="round"/>
<path d="M276.667 730.058L446.296 766.339C448.148 766.709 449.63 766.709 451.481 766.339C453.333 765.969 454.815 765.228 456.296 764.488C457.778 763.377 458.889 762.267 459.63 760.786C460.37 759.305 461.111 757.824 461.481 755.973C461.852 754.122 461.481 752.641 461.111 750.79C460.741 749.309 460 747.458 458.889 746.347C457.778 744.867 456.296 743.756 454.815 743.016C453.333 742.275 451.481 741.905 450 741.535L276.667 730.058Z" fill="#FFCB05" stroke="black" stroke-linecap="round" stroke-linejoin="round"/>
<path d="M323.704 1099.53L488.889 1046.22C490.37 1045.85 492.222 1044.74 493.333 1043.63C494.444 1042.52 495.556 1041.04 496.296 1039.56C497.037 1038.07 497.407 1036.22 497.407 1034.74C497.407 1032.89 497.037 1031.41 496.667 1029.56C495.926 1028.08 495.185 1026.6 493.704 1025.49C492.593 1024.38 491.111 1023.27 489.259 1022.9C487.778 1022.16 485.926 1022.16 484.074 1022.16C482.222 1022.16 480.741 1022.53 479.259 1023.27L323.704 1099.53Z" fill="#FFCB05" stroke="black" stroke-linecap="round" stroke-linejoin="round"/>
<path d="M553.333 1404.21L669.63 1275.75C670.741 1274.64 671.481 1273.16 672.222 1271.31C672.593 1269.83 672.963 1267.98 672.963 1266.13C672.963 1264.27 672.222 1262.79 671.481 1261.31C670.741 1259.83 669.63 1258.35 668.148 1257.24C666.667 1256.13 665.185 1255.39 663.704 1255.02C662.222 1254.65 660.37 1254.65 658.519 1254.65C656.667 1255.02 655.185 1255.39 653.704 1256.5C652.222 1257.24 651.111 1258.72 650 1260.2L553.333 1404.21Z" fill="#FFCB05" stroke="black" stroke-linecap="round" stroke-linejoin="round"/>
<path d="M900.741 1552.67L937.037 1383.11C937.407 1381.26 937.407 1379.78 937.037 1377.93C936.667 1376.08 935.926 1374.6 935.185 1373.12C934.074 1371.64 932.963 1370.53 931.481 1369.78C930 1369.04 928.518 1368.3 926.667 1367.93C924.815 1367.56 923.333 1367.93 921.481 1368.3C920 1368.67 918.148 1369.41 917.037 1370.53C915.556 1371.64 914.444 1373.12 913.704 1374.6C912.963 1376.08 912.593 1377.93 912.222 1379.41L900.741 1552.67Z" fill="#FFCB05" stroke="black" stroke-linecap="round" stroke-linejoin="round"/>
<path d="M1270 1505.65L1216.67 1340.54C1216.3 1339.06 1215.19 1337.21 1214.07 1336.1C1212.96 1334.98 1211.48 1333.87 1210 1333.13C1208.52 1332.39 1206.67 1332.02 1205.19 1332.02C1203.33 1332.02 1201.85 1332.39 1200 1332.76C1198.52 1333.5 1197.04 1334.24 1195.56 1335.73C1194.44 1336.84 1193.33 1338.32 1192.96 1340.17C1192.22 1341.65 1192.22 1343.5 1192.22 1345.35C1192.22 1347.2 1192.59 1348.68 1193.7 1350.16L1270 1505.65Z" fill="#FFCB05" stroke="black" stroke-linecap="round" stroke-linejoin="round"/>
<path d="M1574.81 1275.75L1446.3 1159.5C1445.19 1158.39 1443.33 1157.28 1441.85 1156.91C1440.37 1156.17 1438.52 1156.17 1436.67 1156.17C1434.81 1156.17 1433.33 1156.91 1431.85 1157.65C1430.37 1158.39 1428.89 1159.5 1427.78 1160.99C1426.67 1162.47 1425.93 1163.95 1425.56 1165.43C1425.19 1166.91 1425.19 1168.76 1425.19 1170.61C1425.56 1172.46 1425.93 1173.94 1427.04 1175.42C1428.15 1176.9 1429.26 1178.01 1430.74 1179.13L1574.81 1275.75Z" fill="#FFCB05" stroke="black" stroke-linecap="round" stroke-linejoin="round"/>
<path d="M1723.33 928.862L1553.7 892.581C1551.85 892.211 1550.37 892.211 1548.52 892.581C1546.67 892.952 1545.19 893.692 1543.7 894.432C1542.22 895.543 1541.11 896.654 1540.37 898.135C1539.63 899.615 1538.89 901.096 1538.52 902.947C1538.15 904.798 1538.52 906.279 1538.89 908.13C1539.26 909.611 1540 911.462 1541.11 912.573C1542.22 914.054 1543.7 915.164 1545.19 915.905C1546.67 916.645 1548.52 917.015 1550 917.386L1723.33 928.862Z" fill="#FFCB05" stroke="black" stroke-linecap="round" stroke-linejoin="round"/>
<path d="M1676.3 559.39L1511.11 612.701C1509.63 613.071 1507.78 614.182 1506.67 615.292C1505.56 616.403 1504.44 617.884 1503.7 619.365C1502.96 620.846 1502.59 622.697 1502.59 624.177C1502.59 626.029 1502.96 627.509 1503.33 629.36C1504.07 630.841 1504.81 632.322 1506.3 633.433C1507.41 634.543 1508.89 635.654 1510.74 636.024C1512.22 636.765 1514.07 636.765 1515.93 636.765C1517.78 636.765 1519.26 636.394 1520.74 635.654L1676.3 559.39Z" fill="#FFCB05" stroke="black" stroke-linecap="round" stroke-linejoin="round"/>
<path d="M1309.26 291.727L1197.04 457.212C1195.93 458.693 1195.19 460.544 1194.81 462.765C1194.44 464.616 1194.44 466.837 1194.81 468.688C1195.19 470.539 1195.93 472.391 1197.41 473.871C1198.52 475.352 1200 476.833 1201.85 477.944C1203.7 479.054 1205.56 479.425 1207.41 479.795C1209.26 480.165 1211.48 479.795 1213.33 479.425C1215.19 478.684 1217.04 477.944 1218.52 476.463C1220 475.352 1221.11 473.501 1222.22 471.65L1309.26 291.727Z" fill="#67C18C" stroke="#151032" stroke-miterlimit="10" stroke-linejoin="round"/>
<path d="M1000 207.689L985.556 406.863C985.556 408.714 985.555 410.935 986.296 412.786C987.037 414.638 988.148 416.489 989.259 417.969C990.741 419.45 992.222 420.561 994.074 421.301C995.926 422.042 997.778 422.412 1000 422.412C1001.85 422.412 1004.07 422.042 1005.93 421.301C1007.78 420.561 1009.26 419.45 1010.74 417.969C1012.22 416.489 1012.96 414.638 1013.7 412.786C1014.44 410.935 1014.81 409.084 1014.44 406.863L1000 207.689Z" fill="#67C18C" stroke="#151032" stroke-miterlimit="10" stroke-linejoin="round"/>
<path d="M690.741 291.727L778.148 471.65C778.889 473.501 780.37 474.982 781.852 476.463C783.333 477.573 785.185 478.684 787.037 479.425C788.889 480.165 791.111 480.165 792.963 479.795C794.815 479.425 796.667 479.054 798.519 477.944C800.37 476.833 801.852 475.722 802.963 473.871C804.074 472.391 804.815 470.539 805.556 468.318C805.926 466.467 805.926 464.246 805.556 462.395C805.185 460.544 804.444 458.693 803.333 456.842L690.741 291.727Z" fill="#67C18C" stroke="#151032" stroke-miterlimit="10" stroke-linejoin="round"/>
<path d="M461.852 520.148L627.407 632.322C628.889 633.433 630.741 634.173 632.963 634.543C634.815 634.914 637.037 634.914 638.889 634.543C640.741 634.173 642.593 633.433 644.444 631.952C645.926 630.841 647.407 629.36 648.519 627.509C649.63 625.658 650 623.807 650.37 621.956C650.741 620.105 650.37 617.884 650 616.033C649.259 614.182 648.519 612.331 647.037 610.85C645.926 609.369 644.074 608.258 642.222 607.148L461.852 520.148Z" fill="#67C18C" stroke="#151032" stroke-miterlimit="10" stroke-linejoin="round"/>
<path d="M378.148 829.645L577.407 844.083C579.259 844.083 581.481 844.083 583.333 843.343C585.185 842.602 587.037 841.492 588.519 840.381C590 838.9 591.111 837.419 591.852 835.568C592.593 833.717 592.963 831.866 592.963 829.645C592.963 827.794 592.593 825.573 591.852 823.722C591.111 821.871 590 820.39 588.519 818.909C587.037 817.428 585.185 816.688 583.333 815.947C581.481 815.207 579.63 814.837 577.407 815.207L378.148 829.645Z" fill="#67C18C" stroke="#151032" stroke-miterlimit="10" stroke-linejoin="round"/>
<path d="M461.852 1138.77L641.852 1051.4C643.704 1050.66 645.185 1049.18 646.667 1047.7C648.148 1046.22 648.889 1044.37 649.63 1042.52C650.37 1040.67 650.37 1038.44 650 1036.59C649.63 1034.74 649.259 1032.89 648.148 1031.04C647.037 1029.19 645.926 1027.71 644.074 1026.6C642.593 1025.49 640.741 1024.75 638.889 1024.01C637.037 1023.64 634.815 1023.64 632.963 1024.01C631.111 1024.38 629.259 1025.12 627.407 1026.23L461.852 1138.77Z" fill="#67C18C" stroke="#151032" stroke-miterlimit="10" stroke-linejoin="round"/>
<path d="M690.741 1367.56L802.963 1202.08C804.074 1200.6 804.815 1198.75 805.185 1196.53C805.556 1194.67 805.556 1192.45 805.185 1190.6C804.815 1188.75 804.074 1186.9 802.593 1185.42C801.481 1183.94 800 1182.46 798.148 1181.35C796.296 1180.24 794.444 1179.87 792.593 1179.5C790.741 1179.13 788.519 1179.5 786.667 1179.87C784.815 1180.61 782.963 1181.35 781.481 1182.83C780 1183.94 778.889 1185.79 777.778 1187.64L690.741 1367.56Z" fill="#67C18C" stroke="#151032" stroke-miterlimit="10" stroke-linejoin="round"/>
<path d="M1000 1451.23L1014.44 1252.06C1014.44 1250.21 1014.44 1247.98 1013.7 1246.13C1012.96 1244.28 1011.85 1242.43 1010.74 1240.95C1009.26 1239.47 1007.78 1238.36 1005.93 1237.62C1004.07 1236.88 1002.22 1236.51 1000 1236.51C998.148 1236.51 995.926 1236.88 994.074 1237.62C992.222 1238.36 990.741 1239.47 989.259 1240.95C987.778 1242.43 987.037 1244.28 986.296 1246.13C985.555 1247.98 985.556 1249.84 985.556 1252.06L1000 1451.23Z" fill="#67C18C" stroke="#151032" stroke-miterlimit="10" stroke-linejoin="round"/>
<path d="M1309.26 1367.56L1222.22 1187.64C1221.48 1185.79 1220 1184.31 1218.52 1182.83C1217.04 1181.72 1215.19 1180.61 1213.33 1179.87C1211.48 1179.13 1209.26 1179.13 1207.41 1179.5C1205.56 1179.87 1203.7 1180.24 1201.85 1181.35C1200 1182.46 1198.52 1183.57 1197.41 1185.42C1196.3 1186.9 1195.56 1188.75 1194.81 1190.97C1194.44 1192.82 1194.44 1195.04 1194.81 1196.9C1195.19 1198.75 1195.93 1200.6 1197.04 1202.45L1309.26 1367.56Z" fill="#67C18C" stroke="#151032" stroke-miterlimit="10" stroke-linejoin="round"/>
<path d="M1538.15 1138.77L1372.59 1026.6C1371.11 1025.49 1369.26 1024.75 1367.04 1024.38C1365.19 1024.01 1362.96 1024.01 1361.11 1024.38C1359.26 1024.75 1357.41 1025.49 1355.56 1026.97C1354.07 1028.08 1352.59 1029.56 1351.48 1031.41C1350.37 1033.26 1350 1035.11 1349.63 1036.96C1349.26 1038.82 1349.63 1041.04 1350 1042.89C1350.74 1044.74 1351.48 1046.59 1352.96 1048.07C1354.07 1049.55 1355.93 1050.66 1357.78 1051.77L1538.15 1138.77Z" fill="#67C18C" stroke="#151032" stroke-miterlimit="10" stroke-linejoin="round"/>
<path d="M1621.85 829.645L1422.59 815.207C1420.74 815.207 1418.52 815.207 1416.67 815.947C1414.81 816.688 1412.96 817.799 1411.48 818.909C1410 820.39 1408.89 821.871 1408.15 823.722C1407.41 825.573 1407.04 827.424 1407.04 829.645C1407.04 831.496 1407.41 833.718 1408.15 835.569C1408.89 837.42 1410 838.901 1411.48 840.381C1412.96 841.862 1414.81 842.603 1416.67 843.343C1418.52 844.084 1420.37 844.454 1422.59 844.084L1621.85 829.645Z" fill="#67C18C" stroke="#151032" stroke-miterlimit="10" stroke-linejoin="round"/>
<path d="M1538.15 520.148L1358.15 607.148C1356.3 607.888 1354.81 609.369 1353.33 610.85C1352.22 612.331 1351.11 614.182 1350.37 616.033C1349.63 617.884 1349.63 620.105 1350 621.956C1350.37 623.807 1350.74 625.658 1351.85 627.509C1352.96 629.36 1354.07 630.841 1355.93 631.952C1357.78 633.063 1359.26 633.803 1361.11 634.543C1362.96 634.914 1365.19 634.914 1367.04 634.543C1368.89 634.173 1370.74 633.433 1372.59 632.322L1538.15 520.148Z" fill="#67C18C" stroke="#151032" stroke-miterlimit="10" stroke-linejoin="round"/>
<path d="M862.593 316.161L905.556 539.399C905.926 541.62 907.037 543.842 908.148 545.693C909.259 547.544 911.111 549.024 912.963 550.505C914.815 551.616 917.037 552.356 919.259 552.727C921.481 553.097 923.704 553.097 925.926 552.356C928.148 551.616 930 550.876 931.852 549.395C933.704 547.914 935.185 546.063 936.296 544.212C937.407 542.361 938.148 540.139 938.148 537.918C938.148 535.697 938.148 533.476 937.407 531.254L862.593 316.161Z" fill="#FFCB05" stroke="black" stroke-linecap="round" stroke-linejoin="round"/>
<path d="M624.074 453.88L772.593 625.658C774.074 627.509 775.926 628.62 777.778 629.731C780 630.841 781.852 631.211 784.444 631.211C786.667 631.211 788.889 630.841 791.111 630.101C793.333 629.36 795.185 627.88 796.667 626.399C798.148 624.918 799.63 623.067 800.37 620.846C801.111 618.624 801.481 616.403 801.481 614.182C801.481 611.96 800.741 609.739 800 607.518C798.889 605.667 797.778 603.816 795.926 602.335L624.074 453.88Z" fill="#FFCB05" stroke="black" stroke-linecap="round" stroke-linejoin="round"/>
<path d="M486.667 691.926L701.481 766.339C703.704 767.079 705.926 767.45 708.148 767.079C710.37 767.079 712.593 766.339 714.444 765.228C716.296 764.118 718.148 762.637 719.63 760.786C721.111 758.935 722.222 757.084 722.593 754.862C723.333 752.641 723.333 750.42 722.963 748.199C722.593 745.977 721.852 743.756 720.741 741.905C719.63 740.054 717.778 738.203 715.926 737.092C714.074 735.982 711.852 734.871 709.63 734.501L486.667 691.926Z" fill="#FFCB05" stroke="black" stroke-linecap="round" stroke-linejoin="round"/>
<path d="M486.667 966.994L710 924.049C712.222 923.679 714.444 922.939 716.296 921.458C718.148 920.347 719.63 918.496 721.111 916.645C722.222 914.794 722.963 912.573 723.333 910.351C723.704 908.13 723.704 905.909 722.963 903.688C722.222 901.466 721.481 899.615 720 897.764C718.519 895.913 716.667 894.432 714.815 893.322C712.963 892.211 710.741 891.471 708.519 891.471C706.296 891.471 704.074 891.471 701.852 892.211L486.667 966.994Z" fill="#FFCB05" stroke="black" stroke-linecap="round" stroke-linejoin="round"/>
<path d="M624.074 1205.04L795.926 1056.58C797.778 1055.1 798.889 1053.25 800 1051.4C801.111 1049.18 801.481 1047.33 801.481 1044.74C801.481 1042.52 801.111 1040.3 800.37 1038.07C799.63 1035.85 798.148 1034 796.667 1032.52C795.185 1031.04 793.333 1029.56 791.111 1028.82C788.889 1028.08 786.667 1027.71 784.444 1027.71C782.222 1027.71 780 1028.45 777.778 1029.19C775.556 1030.3 774.074 1031.41 772.593 1033.26L624.074 1205.04Z" fill="#FFCB05" stroke="black" stroke-linecap="round" stroke-linejoin="round"/>
<path d="M862.593 1342.76L937.037 1128.04C937.778 1125.81 938.148 1123.59 937.778 1121.37C937.778 1119.15 937.037 1116.93 935.926 1115.08C934.815 1113.23 933.333 1111.38 931.481 1109.9C929.63 1108.41 927.778 1107.3 925.555 1106.93C923.333 1106.19 921.111 1106.19 918.889 1106.56C916.667 1106.93 914.444 1107.67 912.593 1108.79C910.741 1109.9 908.889 1111.38 907.778 1113.6C906.667 1115.45 905.555 1117.67 905.185 1119.89L862.593 1342.76Z" fill="#FFCB05" stroke="black" stroke-linecap="round" stroke-linejoin="round"/>
<path d="M1137.41 1342.76L1094.44 1119.52C1094.07 1117.3 1092.96 1115.08 1091.85 1113.23C1090.74 1111.38 1088.89 1109.9 1087.04 1108.41C1085.19 1107.3 1082.96 1106.56 1080.74 1106.19C1078.52 1105.82 1076.3 1105.82 1074.07 1106.56C1071.85 1107.3 1070 1108.04 1068.15 1109.53C1066.3 1111.01 1064.81 1112.86 1063.7 1114.71C1062.59 1116.56 1061.85 1118.78 1061.85 1121C1061.85 1123.22 1061.85 1125.44 1062.59 1127.67L1137.41 1342.76Z" fill="#FFCB05" stroke="black" stroke-linecap="round" stroke-linejoin="round"/>
<path d="M1375.93 1205.04L1227.41 1033.26C1225.93 1031.41 1224.07 1030.3 1222.22 1029.19C1220 1028.08 1218.15 1027.71 1215.56 1027.71C1213.33 1027.71 1211.11 1028.08 1208.89 1028.82C1206.67 1029.56 1204.81 1031.04 1203.33 1032.52C1201.85 1034 1200.37 1035.85 1199.63 1038.07C1198.89 1040.3 1198.52 1042.52 1198.52 1044.74C1198.52 1046.96 1199.26 1049.18 1200 1051.4C1201.11 1053.25 1202.22 1055.1 1204.07 1056.58L1375.93 1205.04Z" fill="#FFCB05" stroke="black" stroke-linecap="round" stroke-linejoin="round"/>
<path d="M1513.33 966.994L1298.52 892.581C1296.3 891.841 1294.07 891.471 1291.85 891.841C1289.63 891.841 1287.41 892.581 1285.56 893.692C1283.7 894.802 1281.85 896.283 1280.37 898.134C1278.89 899.985 1277.78 901.837 1277.41 904.058C1276.67 906.279 1276.67 908.5 1277.04 910.722C1277.41 912.943 1278.15 915.164 1279.26 917.015C1280.37 918.866 1282.22 920.717 1284.07 921.828C1285.93 922.939 1288.15 924.049 1290.37 924.419L1513.33 966.994Z" fill="#FFCB05" stroke="black" stroke-linecap="round" stroke-linejoin="round"/>
<path d="M1513.33 691.926L1290 734.501C1287.78 734.871 1285.56 735.611 1283.7 737.092C1281.85 738.203 1280.37 740.054 1278.89 741.905C1277.78 743.756 1277.04 745.977 1276.67 748.199C1276.3 750.42 1276.3 752.641 1277.04 754.862C1277.78 757.084 1278.52 758.935 1280 760.786C1281.48 762.637 1283.33 764.118 1285.19 765.228C1287.04 766.339 1289.26 767.079 1291.48 767.079C1293.7 767.079 1295.93 767.079 1298.15 766.339L1513.33 691.926Z" fill="#FFCB05" stroke="black" stroke-linecap="round" stroke-linejoin="round"/>
<path d="M1375.93 453.88L1204.07 602.335C1202.22 603.816 1201.11 605.667 1200 607.518C1198.89 609.369 1198.52 611.59 1198.52 614.182C1198.52 616.403 1198.89 618.624 1199.63 620.846C1200.37 623.067 1201.85 624.918 1203.33 626.399C1204.81 627.88 1206.67 629.36 1208.89 630.101C1211.11 630.841 1213.33 631.211 1215.56 631.211C1217.78 631.211 1220 630.471 1222.22 629.731C1224.44 628.62 1225.93 627.509 1227.41 625.658L1375.93 453.88Z" fill="#FFCB05" stroke="black" stroke-linecap="round" stroke-linejoin="round"/>
<path d="M1137.41 316.161L1062.96 530.884C1062.22 533.105 1061.85 535.327 1062.22 537.548C1062.22 539.769 1062.96 541.99 1064.07 543.842C1065.19 545.693 1066.67 547.544 1068.52 549.025C1070.37 550.505 1072.22 551.616 1074.44 551.986C1076.67 552.727 1078.89 552.727 1081.11 552.356C1083.33 551.986 1085.56 551.246 1087.41 550.135C1089.26 549.025 1091.11 547.173 1092.22 545.322C1093.33 543.471 1094.44 541.25 1094.81 539.029L1137.41 316.161Z" fill="#FFCB05" stroke="black" stroke-linecap="round" stroke-linejoin="round"/>
<path d="M1000 1084.72C1141.11 1084.72 1255.56 970.326 1255.56 829.275C1255.56 688.224 1141.11 573.829 1000 573.829C858.889 573.829 744.444 688.224 744.444 829.275C744.444 970.696 858.889 1084.72 1000 1084.72Z" fill="#FFCB05" stroke="black" stroke-linecap="round" stroke-linejoin="round"/>
<path d="M1000 1206.15C1009.2 1206.15 1016.67 1198.69 1016.67 1189.49C1016.67 1180.29 1009.2 1172.83 1000 1172.83C990.795 1172.83 983.333 1180.29 983.333 1189.49C983.333 1198.69 990.795 1206.15 1000 1206.15Z" fill="#FFCB05" stroke="black" stroke-linecap="round" stroke-linejoin="round"/>
<path d="M820 1158.02C829.205 1158.02 836.667 1150.56 836.667 1141.36C836.667 1132.16 829.205 1124.7 820 1124.7C810.795 1124.7 803.333 1132.16 803.333 1141.36C803.333 1150.56 810.795 1158.02 820 1158.02Z" fill="#FFCB05" stroke="black" stroke-linecap="round" stroke-linejoin="round"/>
<path d="M688.148 1026.23C697.353 1026.23 704.815 1018.77 704.815 1009.57C704.815 1000.37 697.353 992.909 688.148 992.909C678.943 992.909 671.482 1000.37 671.482 1009.57C671.482 1018.77 678.943 1026.23 688.148 1026.23Z" fill="#FFCB05" stroke="black" stroke-linecap="round" stroke-linejoin="round"/>
<path d="M640 846.305C649.205 846.305 656.667 838.846 656.667 829.645C656.667 820.444 649.205 812.986 640 812.986C630.795 812.986 623.333 820.444 623.333 829.645C623.333 838.846 630.795 846.305 640 846.305Z" fill="#FFCB05" stroke="black" stroke-linecap="round" stroke-linejoin="round"/>
<path d="M688.148 666.011C697.353 666.011 704.815 658.553 704.815 649.352C704.815 640.151 697.353 632.692 688.148 632.692C678.943 632.692 671.482 640.151 671.482 649.352C671.482 658.553 678.943 666.011 688.148 666.011Z" fill="#FFCB05" stroke="black" stroke-linecap="round" stroke-linejoin="round"/>
<path d="M820 534.216C829.205 534.216 836.667 526.757 836.667 517.556C836.667 508.355 829.205 500.897 820 500.897C810.795 500.897 803.333 508.355 803.333 517.556C803.333 526.757 810.795 534.216 820 534.216Z" fill="#FFCB05" stroke="black" stroke-linecap="round" stroke-linejoin="round"/>
<path d="M1000 486.088C1009.2 486.088 1016.67 478.63 1016.67 469.429C1016.67 460.228 1009.2 452.769 1000 452.769C990.795 452.769 983.333 460.228 983.333 469.429C983.333 478.63 990.795 486.088 1000 486.088Z" fill="#FFCB05" stroke="black" stroke-linecap="round" stroke-linejoin="round"/>
<path d="M1180 534.216C1189.2 534.216 1196.67 526.757 1196.67 517.556C1196.67 508.355 1189.2 500.897 1180 500.897C1170.8 500.897 1163.33 508.355 1163.33 517.556C1163.33 526.757 1170.8 534.216 1180 534.216Z" fill="#FFCB05" stroke="black" stroke-linecap="round" stroke-linejoin="round"/>
<path d="M1311.85 666.011C1321.06 666.011 1328.52 658.553 1328.52 649.352C1328.52 640.151 1321.06 632.692 1311.85 632.692C1302.65 632.692 1295.19 640.151 1295.19 649.352C1295.19 658.553 1302.65 666.011 1311.85 666.011Z" fill="#FFCB05" stroke="black" stroke-linecap="round" stroke-linejoin="round"/>
<path d="M1360 846.305C1369.2 846.305 1376.67 838.846 1376.67 829.645C1376.67 820.444 1369.2 812.986 1360 812.986C1350.8 812.986 1343.33 820.444 1343.33 829.645C1343.33 838.846 1350.8 846.305 1360 846.305Z" fill="#FFCB05" stroke="black" stroke-linecap="round" stroke-linejoin="round"/>
<path d="M1311.85 1026.23C1321.06 1026.23 1328.52 1018.77 1328.52 1009.57C1328.52 1000.37 1321.06 992.909 1311.85 992.909C1302.65 992.909 1295.19 1000.37 1295.19 1009.57C1295.19 1018.77 1302.65 1026.23 1311.85 1026.23Z" fill="#FFCB05" stroke="black" stroke-linecap="round" stroke-linejoin="round"/>
<path d="M1180 1158.02C1189.2 1158.02 1196.67 1150.56 1196.67 1141.36C1196.67 1132.16 1189.2 1124.7 1180 1124.7C1170.8 1124.7 1163.33 1132.16 1163.33 1141.36C1163.33 1150.56 1170.8 1158.02 1180 1158.02Z" fill="#FFCB05" stroke="black" stroke-linecap="round" stroke-linejoin="round"/>
<path d="M1187.78 1300.55C1181.11 1300.55 1175.56 1295 1175.56 1288.34C1175.56 1281.67 1181.11 1276.12 1187.78 1276.12C1194.44 1276.12 1200 1281.67 1200 1288.34C1200 1295 1194.44 1300.55 1187.78 1300.55Z" fill="#67C18C" stroke="#151032" stroke-miterlimit="10" stroke-linejoin="round"/>
<path d="M932.963 1333.13C939.713 1333.13 945.185 1327.66 945.185 1320.92C945.185 1314.17 939.713 1308.7 932.963 1308.7C926.213 1308.7 920.741 1314.17 920.741 1320.92C920.741 1327.66 926.213 1333.13 932.963 1333.13Z" fill="#67C18C" stroke="#151032" stroke-miterlimit="10" stroke-linejoin="round"/>
<path d="M696.296 1233.92C703.046 1233.92 708.519 1228.45 708.519 1221.7C708.519 1214.95 703.046 1209.48 696.296 1209.48C689.546 1209.48 684.074 1214.95 684.074 1221.7C684.074 1228.45 689.546 1233.92 696.296 1233.92Z" fill="#67C18C" stroke="#151032" stroke-miterlimit="10" stroke-linejoin="round"/>
<path d="M540.741 1029.56C547.491 1029.56 552.963 1024.09 552.963 1017.34C552.963 1010.6 547.491 1005.13 540.741 1005.13C533.991 1005.13 528.519 1010.6 528.519 1017.34C528.519 1024.09 533.991 1029.56 540.741 1029.56Z" fill="#67C18C" stroke="#151032" stroke-miterlimit="10" stroke-linejoin="round"/>
<path d="M508.519 774.854C515.269 774.854 520.741 769.384 520.741 762.637C520.741 755.89 515.269 750.42 508.519 750.42C501.768 750.42 496.296 755.89 496.296 762.637C496.296 769.384 501.768 774.854 508.519 774.854Z" fill="#67C18C" stroke="#151032" stroke-miterlimit="10" stroke-linejoin="round"/>
<path d="M607.778 537.918C614.528 537.918 620 532.448 620 525.701C620 518.954 614.528 513.484 607.778 513.484C601.028 513.484 595.556 518.954 595.556 525.701C595.556 532.448 601.028 537.918 607.778 537.918Z" fill="#67C18C" stroke="#151032" stroke-miterlimit="10" stroke-linejoin="round"/>
<path d="M812.222 358.365C818.889 358.365 824.444 363.918 824.444 370.582C824.444 377.246 818.889 382.799 812.222 382.799C805.556 382.799 800 377.246 800 370.582C800 363.918 805.185 358.365 812.222 358.365Z" fill="#67C18C" stroke="#151032" stroke-miterlimit="10" stroke-linejoin="round"/>
<path d="M1067.04 350.221C1073.79 350.221 1079.26 344.751 1079.26 338.004C1079.26 331.256 1073.79 325.787 1067.04 325.787C1060.29 325.787 1054.81 331.256 1054.81 338.004C1054.81 344.751 1060.29 350.221 1067.04 350.221Z" fill="#67C18C" stroke="#151032" stroke-miterlimit="10" stroke-linejoin="round"/>
<path d="M1303.7 449.437C1310.45 449.437 1315.93 443.968 1315.93 437.22C1315.93 430.473 1310.45 425.003 1303.7 425.003C1296.95 425.003 1291.48 430.473 1291.48 437.22C1291.48 443.968 1296.95 449.437 1303.7 449.437Z" fill="#67C18C" stroke="#151032" stroke-miterlimit="10" stroke-linejoin="round"/>
<path d="M1471.48 641.577C1471.48 648.241 1465.93 653.794 1459.26 653.794C1452.59 653.794 1447.04 648.241 1447.04 641.577C1447.04 634.914 1452.59 629.36 1459.26 629.36C1465.93 629.36 1471.48 634.914 1471.48 641.577Z" fill="#67C18C" stroke="#151032" stroke-miterlimit="10" stroke-linejoin="round"/>
<path d="M1491.48 908.5C1498.23 908.5 1503.7 903.031 1503.7 896.283C1503.7 889.536 1498.23 884.066 1491.48 884.066C1484.73 884.066 1479.26 889.536 1479.26 896.283C1479.26 903.031 1484.73 908.5 1491.48 908.5Z" fill="#67C18C" stroke="#151032" stroke-miterlimit="10" stroke-linejoin="round"/>
<path d="M1392.22 1145.44C1398.97 1145.44 1404.44 1139.97 1404.44 1133.22C1404.44 1126.47 1398.97 1121 1392.22 1121C1385.47 1121 1380 1126.47 1380 1133.22C1380 1139.97 1385.47 1145.44 1392.22 1145.44Z" fill="#67C18C" stroke="#151032" stroke-miterlimit="10" stroke-linejoin="round"/>
<path d="M1330.74 1291.67C1339.95 1291.67 1347.41 1284.21 1347.41 1275.01C1347.41 1265.81 1339.95 1258.35 1330.74 1258.35C1321.54 1258.35 1314.07 1265.81 1314.07 1275.01C1314.07 1284.21 1321.54 1291.67 1330.74 1291.67Z" fill="#FFE4B8" stroke="#151032" stroke-miterlimit="10" stroke-linejoin="round"/>
<path d="M1063.7 1397.18C1072.91 1397.18 1080.37 1389.72 1080.37 1380.52C1080.37 1371.32 1072.91 1363.86 1063.7 1363.86C1054.5 1363.86 1047.04 1371.32 1047.04 1380.52C1047.04 1389.72 1054.5 1397.18 1063.7 1397.18Z" fill="#FFE4B8" stroke="#151032" stroke-miterlimit="10" stroke-linejoin="round"/>
<path d="M779.63 1355.35C788.834 1355.35 796.296 1347.89 796.296 1338.69C796.296 1329.49 788.834 1322.03 779.63 1322.03C770.425 1322.03 762.963 1329.49 762.963 1338.69C762.963 1347.89 770.425 1355.35 779.63 1355.35Z" fill="#FFE4B8" stroke="#151032" stroke-miterlimit="10" stroke-linejoin="round"/>
<path d="M554.444 1176.9C563.649 1176.9 571.111 1169.45 571.111 1160.24C571.111 1151.04 563.649 1143.58 554.444 1143.58C545.24 1143.58 537.778 1151.04 537.778 1160.24C537.778 1169.45 545.24 1176.9 554.444 1176.9Z" fill="#FFE4B8" stroke="#151032" stroke-miterlimit="10" stroke-linejoin="round"/>
<path d="M448.519 909.981C457.723 909.981 465.185 902.522 465.185 893.322C465.185 884.121 457.723 876.662 448.519 876.662C439.314 876.662 431.852 884.121 431.852 893.322C431.852 902.522 439.314 909.981 448.519 909.981Z" fill="#FFE4B8" stroke="#151032" stroke-miterlimit="10" stroke-linejoin="round"/>
<path d="M490.37 625.658C499.575 625.658 507.037 618.2 507.037 608.999C507.037 599.798 499.575 592.339 490.37 592.339C481.166 592.339 473.704 599.798 473.704 608.999C473.704 618.2 481.166 625.658 490.37 625.658Z" fill="#FFE4B8" stroke="#151032" stroke-miterlimit="10" stroke-linejoin="round"/>
<path d="M668.889 400.57C678.094 400.57 685.556 393.111 685.556 383.91C685.556 374.709 678.094 367.25 668.889 367.25C659.684 367.25 652.222 374.709 652.222 383.91C652.222 393.111 659.684 400.57 668.889 400.57Z" fill="#FFE4B8" stroke="#151032" stroke-miterlimit="10" stroke-linejoin="round"/>
<path d="M936.296 295.059C945.501 295.059 952.963 287.6 952.963 278.4C952.963 269.199 945.501 261.74 936.296 261.74C927.092 261.74 919.63 269.199 919.63 278.4C919.63 287.6 927.092 295.059 936.296 295.059Z" fill="#FFE4B8" stroke="#151032" stroke-miterlimit="10" stroke-linejoin="round"/>
<path d="M1220.37 336.893C1229.58 336.893 1237.04 329.434 1237.04 320.234C1237.04 311.033 1229.58 303.574 1220.37 303.574C1211.17 303.574 1203.7 311.033 1203.7 320.234C1203.7 329.434 1211.17 336.893 1220.37 336.893Z" fill="#FFE4B8" stroke="#151032" stroke-miterlimit="10" stroke-linejoin="round"/>
<path d="M1445.56 515.335C1454.76 515.335 1462.22 507.876 1462.22 498.676C1462.22 489.475 1454.76 482.016 1445.56 482.016C1436.35 482.016 1428.89 489.475 1428.89 498.676C1428.89 507.876 1436.35 515.335 1445.56 515.335Z" fill="#FFE4B8" stroke="#151032" stroke-miterlimit="10" stroke-linejoin="round"/>
<path d="M1551.48 782.258C1560.69 782.258 1568.15 774.799 1568.15 765.599C1568.15 756.398 1560.69 748.939 1551.48 748.939C1542.28 748.939 1534.81 756.398 1534.81 765.599C1534.81 774.799 1542.28 782.258 1551.48 782.258Z" fill="#FFE4B8" stroke="#151032" stroke-miterlimit="10" stroke-linejoin="round"/>
<path d="M1509.26 1066.58C1518.46 1066.58 1525.93 1059.12 1525.93 1049.92C1525.93 1040.72 1518.46 1033.26 1509.26 1033.26C1500.05 1033.26 1492.59 1040.72 1492.59 1049.92C1492.59 1059.12 1500.05 1066.58 1509.26 1066.58Z" fill="#FFE4B8" stroke="#151032" stroke-miterlimit="10" stroke-linejoin="round"/>
<path d="M1607.41 1325.36C1619.07 1325.36 1628.52 1315.91 1628.52 1304.26C1628.52 1292.6 1619.07 1283.15 1607.41 1283.15C1595.75 1283.15 1586.3 1292.6 1586.3 1304.26C1586.3 1315.91 1595.75 1325.36 1607.41 1325.36Z" fill="#FFCD05" stroke="black" stroke-linecap="round" stroke-linejoin="round"/>
<path d="M1288.52 1565.63C1300.18 1565.63 1309.63 1556.18 1309.63 1544.52C1309.63 1532.87 1300.18 1523.42 1288.52 1523.42C1276.86 1523.42 1267.41 1532.87 1267.41 1544.52C1267.41 1556.18 1276.86 1565.63 1288.52 1565.63Z" fill="#FFCD05" stroke="black" stroke-linecap="round" stroke-linejoin="round"/>
<path d="M892.222 1613.75C903.882 1613.75 913.333 1604.31 913.333 1592.65C913.333 1581 903.882 1571.55 892.222 1571.55C880.563 1571.55 871.111 1581 871.111 1592.65C871.111 1604.31 880.563 1613.75 892.222 1613.75Z" fill="#FFCD05" stroke="black" stroke-linecap="round" stroke-linejoin="round"/>
<path d="M524.815 1457.89C536.474 1457.89 545.926 1448.45 545.926 1436.79C545.926 1425.14 536.474 1415.69 524.815 1415.69C513.155 1415.69 503.704 1425.14 503.704 1436.79C503.704 1448.45 513.155 1457.89 524.815 1457.89Z" fill="#FFCD05" stroke="black" stroke-linecap="round" stroke-linejoin="round"/>
<path d="M284.815 1139.14C296.474 1139.14 305.926 1129.69 305.926 1118.04C305.926 1106.39 296.474 1096.94 284.815 1096.94C273.155 1096.94 263.704 1106.39 263.704 1118.04C263.704 1129.69 273.155 1139.14 284.815 1139.14Z" fill="#FFCD05" stroke="black" stroke-linecap="round" stroke-linejoin="round"/>
<path d="M236.296 743.015C247.956 743.015 257.407 733.568 257.407 721.913C257.407 710.259 247.956 700.811 236.296 700.811C224.637 700.811 215.185 710.259 215.185 721.913C215.185 733.568 224.637 743.015 236.296 743.015Z" fill="#FFCD05" stroke="black" stroke-linecap="round" stroke-linejoin="round"/>
<path d="M392.593 333.561C404.074 333.561 413.704 342.816 413.704 354.663C413.704 366.14 404.444 375.765 392.593 375.765C380.741 375.765 371.481 366.51 371.481 354.663C371.481 342.816 380.741 333.561 392.593 333.561Z" fill="#FFCD05" stroke="black" stroke-linecap="round" stroke-linejoin="round"/>
<path d="M711.481 135.498C723.141 135.498 732.593 126.05 732.593 114.396C732.593 102.741 723.141 93.2935 711.481 93.2935C699.822 93.2935 690.37 102.741 690.37 114.396C690.37 126.05 699.822 135.498 711.481 135.498Z" fill="#FFCD05" stroke="black" stroke-linecap="round" stroke-linejoin="round"/>
<path d="M1107.78 87.3699C1119.44 87.3699 1128.89 77.9222 1128.89 66.2679C1128.89 54.6135 1119.44 45.1658 1107.78 45.1658C1096.12 45.1658 1086.67 54.6135 1086.67 66.2679C1086.67 77.9222 1096.12 87.3699 1107.78 87.3699Z" fill="#FFCD05" stroke="black" stroke-linecap="round" stroke-linejoin="round"/>
<path d="M1496.3 222.127C1496.3 233.604 1487.04 243.229 1475.19 243.229C1463.33 243.229 1454.07 233.974 1454.07 222.127C1454.07 210.65 1463.33 201.025 1475.19 201.025C1487.04 201.025 1496.3 210.65 1496.3 222.127Z" fill="#FFCD05" stroke="black" stroke-linecap="round" stroke-linejoin="round"/>
<path d="M1715.19 561.982C1726.84 561.982 1736.3 552.534 1736.3 540.88C1736.3 529.225 1726.84 519.778 1715.19 519.778C1703.53 519.778 1694.07 529.225 1694.07 540.88C1694.07 552.534 1703.53 561.982 1715.19 561.982Z" fill="#FFCD05" stroke="black" stroke-linecap="round" stroke-linejoin="round"/>
<path d="M1763.7 958.109C1775.36 958.109 1784.81 948.661 1784.81 937.007C1784.81 925.352 1775.36 915.905 1763.7 915.905C1752.04 915.905 1742.59 925.352 1742.59 937.007C1742.59 948.661 1752.04 958.109 1763.7 958.109Z" fill="#FFCD05" stroke="black" stroke-linecap="round" stroke-linejoin="round"/>
<path d="M1409.63 1253.91C1402.96 1253.91 1397.78 1248.73 1397.78 1242.06C1397.78 1235.4 1402.96 1230.21 1409.63 1230.21C1416.3 1230.21 1421.48 1235.4 1421.48 1242.06C1421.48 1248.73 1415.93 1253.91 1409.63 1253.91Z" fill="#FFCD05" stroke="black" stroke-linecap="round" stroke-linejoin="round"/>
<path d="M1148.15 1403.47C1154.69 1403.47 1160 1398.17 1160 1391.63C1160 1385.08 1154.69 1379.78 1148.15 1379.78C1141.6 1379.78 1136.3 1385.08 1136.3 1391.63C1136.3 1398.17 1141.6 1403.47 1148.15 1403.47Z" fill="#FFCD05" stroke="black" stroke-linecap="round" stroke-linejoin="round"/>
<path d="M847.037 1401.99C853.583 1401.99 858.889 1396.69 858.889 1390.15C858.889 1383.6 853.583 1378.3 847.037 1378.3C840.491 1378.3 835.185 1383.6 835.185 1390.15C835.185 1396.69 840.491 1401.99 847.037 1401.99Z" fill="#FFCD05" stroke="black" stroke-linecap="round" stroke-linejoin="round"/>
<path d="M587.037 1250.58C593.583 1250.58 598.889 1245.27 598.889 1238.73C598.889 1232.19 593.583 1226.88 587.037 1226.88C580.491 1226.88 575.185 1232.19 575.185 1238.73C575.185 1245.27 580.491 1250.58 587.037 1250.58Z" fill="#FFCD05" stroke="black" stroke-linecap="round" stroke-linejoin="round"/>
<path d="M437.778 989.577C444.323 989.577 449.63 984.273 449.63 977.73C449.63 971.187 444.323 965.883 437.778 965.883C431.232 965.883 425.926 971.187 425.926 977.73C425.926 984.273 431.232 989.577 437.778 989.577Z" fill="#FFCD05" stroke="black" stroke-linecap="round" stroke-linejoin="round"/>
<path d="M438.889 688.594C445.434 688.594 450.741 683.29 450.741 676.748C450.741 670.205 445.434 664.901 438.889 664.901C432.343 664.901 427.037 670.205 427.037 676.748C427.037 683.29 432.343 688.594 438.889 688.594Z" fill="#FFCD05" stroke="black" stroke-linecap="round" stroke-linejoin="round"/>
<path d="M590.37 405.012C597.037 405.012 602.222 410.195 602.222 416.859C602.222 423.523 597.037 428.706 590.37 428.706C583.704 428.706 578.519 423.523 578.519 416.859C578.519 410.195 584.074 405.012 590.37 405.012Z" fill="#FFCD05" stroke="black" stroke-linecap="round" stroke-linejoin="round"/>
<path d="M851.852 279.14C858.397 279.14 863.704 273.836 863.704 267.293C863.704 260.75 858.397 255.446 851.852 255.446C845.306 255.446 840 260.75 840 267.293C840 273.836 845.306 279.14 851.852 279.14Z" fill="#FFCD05" stroke="black" stroke-linecap="round" stroke-linejoin="round"/>
<path d="M1152.96 280.621C1159.51 280.621 1164.81 275.317 1164.81 268.774C1164.81 262.231 1159.51 256.927 1152.96 256.927C1146.42 256.927 1141.11 262.231 1141.11 268.774C1141.11 275.317 1146.42 280.621 1152.96 280.621Z" fill="#FFCD05" stroke="black" stroke-linecap="round" stroke-linejoin="round"/>
<path d="M1412.96 432.037C1419.51 432.037 1424.81 426.733 1424.81 420.191C1424.81 413.648 1419.51 408.344 1412.96 408.344C1406.42 408.344 1401.11 413.648 1401.11 420.191C1401.11 426.733 1406.42 432.037 1412.96 432.037Z" fill="#FFCD05" stroke="black" stroke-linecap="round" stroke-linejoin="round"/>
<path d="M1562.22 693.037C1568.77 693.037 1574.07 687.733 1574.07 681.19C1574.07 674.647 1568.77 669.343 1562.22 669.343C1555.68 669.343 1550.37 674.647 1550.37 681.19C1550.37 687.733 1555.68 693.037 1562.22 693.037Z" fill="#FFCD05" stroke="black" stroke-linecap="round" stroke-linejoin="round"/>
<path d="M1561.11 994.019C1567.66 994.019 1572.96 988.715 1572.96 982.172C1572.96 975.63 1567.66 970.326 1561.11 970.326C1554.57 970.326 1549.26 975.63 1549.26 982.172C1549.26 988.715 1554.57 994.019 1561.11 994.019Z" fill="#FFCD05" stroke="black" stroke-linecap="round" stroke-linejoin="round"/>
<path d="M1578.15 1183.57C1587.35 1183.57 1594.81 1176.11 1594.81 1166.91C1594.81 1157.71 1587.35 1150.25 1578.15 1150.25C1568.94 1150.25 1561.48 1157.71 1561.48 1166.91C1561.48 1176.11 1568.94 1183.57 1578.15 1183.57Z" fill="#67C18C" stroke="#151032" stroke-miterlimit="10" stroke-linejoin="round"/>
<path d="M1331.85 1427.17C1341.06 1427.17 1348.52 1419.71 1348.52 1410.51C1348.52 1401.31 1341.06 1393.85 1331.85 1393.85C1322.65 1393.85 1315.19 1401.31 1315.19 1410.51C1315.19 1419.71 1322.65 1427.17 1331.85 1427.17Z" fill="#67C18C" stroke="#151032" stroke-miterlimit="10" stroke-linejoin="round"/>
<path d="M996.667 1515.28C1005.87 1515.28 1013.33 1507.82 1013.33 1498.62C1013.33 1489.42 1005.87 1481.96 996.667 1481.96C987.462 1481.96 980 1489.42 980 1498.62C980 1507.82 987.462 1515.28 996.667 1515.28Z" fill="#67C18C" stroke="#151032" stroke-miterlimit="10" stroke-linejoin="round"/>
<path d="M662.222 1423.84C671.427 1423.84 678.889 1416.38 678.889 1407.18C678.889 1397.98 671.427 1390.52 662.222 1390.52C653.017 1390.52 645.556 1397.98 645.556 1407.18C645.556 1416.38 653.017 1423.84 662.222 1423.84Z" fill="#67C18C" stroke="#151032" stroke-miterlimit="10" stroke-linejoin="round"/>
<path d="M418.519 1177.64C427.723 1177.64 435.185 1170.19 435.185 1160.99C435.185 1151.78 427.723 1144.33 418.519 1144.33C409.314 1144.33 401.852 1151.78 401.852 1160.99C401.852 1170.19 409.314 1177.64 418.519 1177.64Z" fill="#67C18C" stroke="#151032" stroke-miterlimit="10" stroke-linejoin="round"/>
<path d="M330.37 842.603C339.575 842.603 347.037 835.144 347.037 825.943C347.037 816.742 339.575 809.284 330.37 809.284C321.166 809.284 313.704 816.742 313.704 825.943C313.704 835.144 321.166 842.603 330.37 842.603Z" fill="#67C18C" stroke="#151032" stroke-miterlimit="10" stroke-linejoin="round"/>
<path d="M421.852 475.352C431.111 475.352 438.519 482.757 438.519 492.012C438.519 501.267 431.111 508.671 421.852 508.671C412.593 508.671 405.185 501.267 405.185 492.012C405.185 482.757 412.593 475.352 421.852 475.352Z" fill="#67C18C" stroke="#151032" stroke-miterlimit="10" stroke-linejoin="round"/>
<path d="M668.148 265.072C677.353 265.072 684.815 257.613 684.815 248.412C684.815 239.211 677.353 231.753 668.148 231.753C658.943 231.753 651.481 239.211 651.481 248.412C651.481 257.613 658.943 265.072 668.148 265.072Z" fill="#67C18C" stroke="#151032" stroke-miterlimit="10" stroke-linejoin="round"/>
<path d="M1003.33 176.961C1012.54 176.961 1020 169.503 1020 160.302C1020 151.101 1012.54 143.642 1003.33 143.642C994.129 143.642 986.667 151.101 986.667 160.302C986.667 169.503 994.129 176.961 1003.33 176.961Z" fill="#67C18C" stroke="#151032" stroke-miterlimit="10" stroke-linejoin="round"/>
<path d="M1337.78 268.404C1346.98 268.404 1354.44 260.945 1354.44 251.744C1354.44 242.543 1346.98 235.085 1337.78 235.085C1328.57 235.085 1321.11 242.543 1321.11 251.744C1321.11 260.945 1328.57 268.404 1337.78 268.404Z" fill="#67C18C" stroke="#151032" stroke-miterlimit="10" stroke-linejoin="round"/>
<path d="M1581.48 514.595C1590.69 514.595 1598.15 507.136 1598.15 497.935C1598.15 488.734 1590.69 481.276 1581.48 481.276C1572.28 481.276 1564.81 488.734 1564.81 497.935C1564.81 507.136 1572.28 514.595 1581.48 514.595Z" fill="#67C18C" stroke="#151032" stroke-miterlimit="10" stroke-linejoin="round"/>
<path d="M1669.26 849.637C1678.46 849.637 1685.93 842.178 1685.93 832.977C1685.93 823.776 1678.46 816.318 1669.26 816.318C1660.05 816.318 1652.59 823.776 1652.59 832.977C1652.59 842.178 1660.05 849.637 1669.26 849.637Z" fill="#67C18C" stroke="#151032" stroke-miterlimit="10" stroke-linejoin="round"/>
<path d="M872.112 990.208V1024H855.216V934.4H890.288C894.896 934.4 898.907 935.168 902.32 936.704C905.733 938.155 908.549 940.117 910.768 942.592C913.072 944.981 914.779 947.755 915.888 950.912C917.083 953.984 917.68 957.141 917.68 960.384V963.456C917.68 966.784 917.083 970.069 915.888 973.312C914.779 976.469 913.072 979.328 910.768 981.888C908.549 984.363 905.733 986.368 902.32 987.904C898.907 989.44 894.896 990.208 890.288 990.208H872.112ZM872.112 974.08H888.624C892.379 974.08 895.323 973.056 897.456 971.008C899.675 968.96 900.784 966.315 900.784 963.072V961.536C900.784 958.293 899.675 955.648 897.456 953.6C895.323 951.552 892.379 950.528 888.624 950.528H872.112V974.08ZM933.591 934.4H993.495V950.528H971.991V1007.87H993.495V1024H933.591V1007.87H955.095V950.528H933.591V934.4ZM1013.25 934.4H1030.14V1007.87H1070.85V1024H1013.25V934.4ZM1135.65 961.792C1135.65 958.208 1134.25 955.093 1131.43 952.448C1128.7 949.803 1124.82 948.48 1119.78 948.48C1115.51 948.48 1112.14 949.376 1109.67 951.168C1107.19 952.875 1105.96 955.221 1105.96 958.208C1105.96 959.744 1106.26 961.152 1106.85 962.432C1107.45 963.627 1108.47 964.736 1109.93 965.76C1111.46 966.699 1113.42 967.552 1115.81 968.32C1118.29 969.088 1121.4 969.813 1125.16 970.496C1134.54 972.203 1141.71 975.061 1146.66 979.072C1151.61 983.083 1154.09 989.013 1154.09 996.864V998.4C1154.09 1002.58 1153.32 1006.38 1151.78 1009.79C1150.33 1013.12 1148.2 1015.98 1145.38 1018.37C1142.57 1020.76 1139.15 1022.59 1135.14 1023.87C1131.13 1025.15 1126.61 1025.79 1121.57 1025.79C1115.69 1025.79 1110.48 1024.98 1105.96 1023.36C1101.52 1021.65 1097.81 1019.35 1094.82 1016.45C1091.83 1013.46 1089.57 1010.01 1088.04 1006.08C1086.5 1002.07 1085.73 997.717 1085.73 993.024V989.184H1102.63V992.256C1102.63 997.632 1104.17 1001.94 1107.24 1005.18C1110.39 1008.34 1115.26 1009.92 1121.83 1009.92C1126.95 1009.92 1130.75 1008.81 1133.22 1006.59C1135.7 1004.37 1136.93 1001.73 1136.93 998.656C1136.93 997.205 1136.68 995.84 1136.17 994.56C1135.65 993.195 1134.76 992 1133.48 990.976C1132.2 989.867 1130.45 988.885 1128.23 988.032C1126.01 987.179 1123.19 986.453 1119.78 985.856C1115.26 985.088 1111.12 984.107 1107.37 982.912C1103.61 981.632 1100.33 979.968 1097.51 977.92C1094.78 975.872 1092.65 973.312 1091.11 970.24C1089.57 967.168 1088.81 963.413 1088.81 958.976V958.208C1088.81 954.539 1089.53 951.168 1090.98 948.096C1092.52 944.939 1094.61 942.208 1097.25 939.904C1099.98 937.6 1103.23 935.808 1106.98 934.528C1110.82 933.248 1115.09 932.608 1119.78 932.608C1125.07 932.608 1129.77 933.376 1133.86 934.912C1137.96 936.363 1141.37 938.368 1144.1 940.928C1146.92 943.488 1149.01 946.432 1150.37 949.76C1151.82 953.088 1152.55 956.587 1152.55 960.256V964.864H1135.65V961.792Z" fill="black"/>
<path d="M833.28 717.688H871.68V763H856.32V753.016H854.016C852.992 756.344 851.029 759.16 848.128 761.464C845.227 763.683 840.875 764.792 835.072 764.792C830.976 764.792 827.136 764.024 823.552 762.488C819.968 760.952 816.853 758.691 814.208 755.704C811.563 752.632 809.472 748.877 807.936 744.44C806.4 739.917 805.632 734.669 805.632 728.696V707.704C805.632 701.901 806.443 696.781 808.064 692.344C809.771 687.821 812.075 684.024 814.976 680.952C817.963 677.88 821.504 675.576 825.6 674.04C829.696 672.419 834.219 671.608 839.168 671.608C844.288 671.608 848.853 672.461 852.864 674.168C856.875 675.789 860.288 678.093 863.104 681.08C865.92 683.981 868.053 687.437 869.504 691.448C870.955 695.373 871.68 699.597 871.68 704.12V705.656H854.784V704.12C854.784 698.744 853.376 694.691 850.56 691.96C847.829 689.144 843.947 687.736 838.912 687.736C834.133 687.736 830.208 689.357 827.136 692.6C824.064 695.757 822.528 701.219 822.528 708.984V727.928C822.528 741.752 828.16 748.664 839.424 748.664C844.459 748.664 848.256 747.341 850.816 744.696C853.461 741.965 854.784 738.339 854.784 733.816H833.28V717.688ZM947.879 763H930.983V736.12C930.983 734.072 930.428 732.408 929.319 731.128C928.295 729.848 926.546 729.208 924.071 729.208H904.615V763H887.719V673.4H922.023C926.631 673.4 930.684 674.04 934.183 675.32C937.682 676.6 940.583 678.392 942.887 680.696C945.276 682.915 947.068 685.517 948.263 688.504C949.543 691.491 950.183 694.691 950.183 698.104V701.176C950.183 704.845 949.202 708.301 947.239 711.544C945.276 714.701 942.247 717.133 938.151 718.84V721.144C941.138 721.485 943.484 722.637 945.191 724.6C946.983 726.563 947.879 729.037 947.879 732.024V763ZM904.615 713.08H920.743C924.839 713.08 927.954 712.141 930.087 710.264C932.22 708.301 933.287 705.571 933.287 702.072V700.536C933.287 697.549 932.22 694.989 930.087 692.856C927.954 690.637 924.839 689.528 920.743 689.528H904.615V713.08ZM967.246 673.4H1023.82V689.528H984.142V710.008H1022.29V726.136H984.142V746.872H1025.36V763H967.246V673.4ZM1045.62 673.4H1102.2V689.528H1062.52V710.008H1100.66V726.136H1062.52V746.872H1103.73V763H1045.62V673.4ZM1164.83 754.552H1167.13V673.4H1184.03V763H1151L1140.51 681.848H1138.2V763H1121.31V673.4H1154.33L1164.83 754.552Z" fill="black"/>
<path d="M1002.59 757.454C995.556 746.718 984.444 739.313 971.852 736.722C959.259 734.13 946.296 736.722 935.556 743.756C924.815 750.79 917.407 761.896 914.815 774.484C912.222 787.071 914.815 800.028 921.852 810.764L959.63 867.407L1040.37 813.726L1002.59 757.454Z" fill="#57C09E" stroke="#151032" stroke-miterlimit="10" stroke-linejoin="round"/>
<path d="M958.889 867.407L996.667 923.679C1003.7 934.415 1014.81 941.82 1027.41 944.411C1040 947.002 1052.96 944.411 1063.7 937.377C1074.44 930.343 1081.85 919.237 1084.44 907.02C1087.04 894.432 1084.44 881.475 1077.41 870.739L1039.63 814.467L958.889 867.407Z" fill="#BDE3DE" stroke="#151032" stroke-miterlimit="10" stroke-linejoin="round"/>
<path d="M928.889 749.309C939.259 744.867 951.111 744.126 961.852 747.088C972.963 750.42 982.222 757.084 988.519 766.709L1025.93 822.981L1039.63 813.726L1002.22 757.454C995.185 746.718 984.074 739.313 971.481 736.722C958.889 734.13 945.926 736.722 935.185 743.756C933.333 745.607 931.111 747.458 928.889 749.309Z" fill="#479B7D" stroke="#151032" stroke-miterlimit="10" stroke-linejoin="round"/>
<path d="M1026.67 823.351L1064.07 879.254C1070.37 888.509 1073.33 899.985 1071.85 911.092C1070.74 922.198 1065.19 932.564 1057.04 940.339C1059.63 939.228 1061.85 937.747 1064.44 936.266C1075.19 929.232 1082.59 918.126 1085.19 905.909C1087.78 893.322 1085.19 880.364 1078.15 869.998L1040.74 814.096L1026.67 823.351Z" fill="#74C7A6" stroke="#151032" stroke-miterlimit="10" stroke-linejoin="round"/>
</g>
<defs>
<clipPath id="clip0_64_2055">
<rect width="2000" height="1656.33" fill="white"/>
</clipPath>
</defs>
</svg>
